<?xml version="1.0" encoding="utf-8"?>
<!-- Generator: Adobe Illustrator 25.0.1, SVG Export Plug-In . SVG Version: 6.00 Build 0)  -->
<svg version="1.1" xmlns="http://www.w3.org/2000/svg" xmlns:xlink="http://www.w3.org/1999/xlink" x="0px" y="0px" width="1000px"
	 height="700px" viewBox="0 0 1000 700" style="enable-background:new 0 0 1000 700;" xml:space="preserve">
<style type="text/css">
	.st0{fill:#FFFFFF;}
	.st1{fill:none;stroke:#E74C3C;stroke-width:2;stroke-linecap:round;stroke-linejoin:round;stroke-miterlimit:10;}
	.st2{fill:#E74C3C;}
	.st3{opacity:0.98;}
	.st4{fill:none;stroke:#F03823;stroke-width:2.25;stroke-linecap:round;stroke-linejoin:round;}
	.st5{fill:none;stroke:#F03823;stroke-width:2.25;stroke-linecap:round;stroke-linejoin:round;stroke-dasharray:3.907,5.8605;}
	.st6{fill:none;stroke:#F03823;stroke-width:2.25;stroke-linecap:round;stroke-linejoin:round;stroke-dasharray:4.0694,6.1041;}
	.st7{fill:none;stroke:#E74C3C;stroke-width:2.5;stroke-linecap:round;stroke-linejoin:round;}
	.st8{fill:none;stroke:#E74C3C;stroke-width:2.5;stroke-linecap:round;stroke-linejoin:round;stroke-dasharray:2.9851,5.9702;}
	.st9{fill:none;stroke:#E74C3C;stroke-width:3;stroke-linecap:round;stroke-linejoin:round;}
	.st10{fill:none;stroke:#E74C3C;stroke-width:3;stroke-linecap:round;stroke-linejoin:round;stroke-dasharray:5.0161,7.0226;}
	.st11{fill:none;stroke:#E74C3C;stroke-width:3;stroke-linecap:round;stroke-linejoin:round;stroke-dasharray:5.0322,7.0451;}
	.st12{fill:none;stroke:#E74C3C;stroke-width:3;stroke-linecap:round;stroke-linejoin:round;stroke-dasharray:5.0471,7.0659;}
	.st13{fill:none;stroke:#E74C3C;stroke-width:3;stroke-linecap:round;stroke-linejoin:round;stroke-dasharray:5.0698,7.0977;}
	.st14{fill:none;stroke:#E74C3C;stroke-width:3;stroke-linecap:round;stroke-linejoin:round;stroke-dasharray:4.9784,6.9698;}
	.st15{fill:none;stroke:#E74C3C;stroke-width:3;stroke-linecap:round;stroke-linejoin:round;stroke-dasharray:4.9803,6.9725;}
	.st16{fill:none;stroke:#E74C3C;stroke-width:3;stroke-linecap:round;stroke-linejoin:round;stroke-dasharray:5.0335,7.0469;}
	.st17{fill:none;stroke:#E74C3C;stroke-width:3;stroke-linecap:round;stroke-linejoin:round;stroke-dasharray:4.9296,6.9015;}
	.st18{fill:none;stroke:#E74C3C;stroke-width:3;stroke-linecap:round;stroke-linejoin:round;stroke-dasharray:5.0129,7.0181;}
	.st19{fill:none;stroke:#E74C3C;stroke-width:3;stroke-linecap:round;stroke-linejoin:round;stroke-dasharray:5.0156,7.0219;}
	.st20{fill:none;stroke:#E74C3C;stroke-width:3;stroke-linecap:round;stroke-linejoin:round;stroke-dasharray:5.0453,7.0634;}
	.st21{fill:none;stroke:#E74C3C;stroke-width:3;stroke-linecap:round;stroke-linejoin:round;stroke-dasharray:4.9583,6.9417;}
	.st22{fill:none;stroke:#E74C3C;stroke-width:3;stroke-linecap:round;stroke-linejoin:round;stroke-dasharray:5.0175,7.0245;}
	.st23{fill:none;stroke:#E74C3C;stroke-width:3;stroke-linecap:round;stroke-linejoin:round;stroke-dasharray:4.9769,6.9677;}
	.st24{fill:none;stroke:#E74C3C;stroke-width:3;stroke-linecap:round;stroke-linejoin:round;stroke-dasharray:5.1621,7.227;}
	.st25{fill:none;stroke:#E74C3C;stroke-width:3;stroke-linecap:round;stroke-linejoin:round;stroke-dasharray:5.0116,7.0163;}
	.st26{fill:none;stroke:#E74C3C;stroke-width:3;stroke-linecap:round;stroke-linejoin:round;stroke-dasharray:5.0722,7.101;}
	.st27{fill:none;stroke:#E74C3C;stroke-width:3;stroke-linecap:round;stroke-linejoin:round;stroke-dasharray:4.9762,6.9667;}
	.st28{fill:none;stroke:#E74C3C;stroke-width:3;stroke-linecap:round;stroke-linejoin:round;stroke-dasharray:4.838,6.7731;}
	.st29{fill:none;stroke:#E74C3C;stroke-width:3;stroke-linecap:round;stroke-linejoin:round;stroke-dasharray:4.9965,6.9951;}
	.st30{fill:none;stroke:#E74C3C;stroke-width:3;stroke-linecap:round;stroke-linejoin:round;stroke-dasharray:4.9068,6.8696;}
	.st31{fill:none;stroke:#E74C3C;stroke-width:3;stroke-linecap:round;stroke-linejoin:round;stroke-dasharray:5.0095,7.0133;}
	.st32{fill:none;stroke:#E74C3C;stroke-width:3;stroke-linecap:round;stroke-linejoin:round;stroke-dasharray:5.07,7.0981;}
	.st33{fill:none;stroke:#E74C3C;stroke-width:3;stroke-linecap:round;stroke-linejoin:round;stroke-dasharray:4.9741,6.9638;}
	.st34{fill:none;stroke:#E74C3C;stroke-width:3;stroke-linecap:round;stroke-linejoin:round;stroke-dasharray:4.9946,6.9925;}
	.st35{fill:none;stroke:#E74C3C;stroke-width:3;stroke-linecap:round;stroke-linejoin:round;stroke-dasharray:5.0507,7.071;}
	.st36{fill:none;stroke:#E74C3C;stroke-width:3;stroke-linecap:round;stroke-linejoin:round;stroke-dasharray:4.9421,6.919;}
	.st37{fill:none;stroke:#E74C3C;stroke-width:3;stroke-linecap:round;stroke-linejoin:round;stroke-dasharray:4.9769,6.9676;}
	.st38{fill:none;stroke:#E74C3C;stroke-width:3;stroke-linecap:round;stroke-linejoin:round;stroke-dasharray:4.9073,6.8702;}
	.st39{fill:none;stroke:#E74C3C;stroke-width:1.5;stroke-linecap:round;stroke-linejoin:round;stroke-miterlimit:10;}
	.st40{fill:none;stroke:#E74C3C;stroke-width:2.75;stroke-linecap:round;stroke-linejoin:round;stroke-miterlimit:10;}
	.st41{fill:none;stroke:#E74C3C;stroke-width:3.5;stroke-linecap:round;stroke-linejoin:round;stroke-miterlimit:10;}
	.st42{fill:none;stroke:#E74C3C;stroke-width:3;stroke-linecap:round;stroke-linejoin:round;stroke-miterlimit:10;}
</style>
<g id="FILL-BACKGROUND">
	<rect x="0" class="st0" width="1000" height="700"/>
</g>
<g id="N-DIMENSIONS">
	<g>
		<g>
			<g id="POLYLINE_331_">
				<polyline class="st1" points="78.54,653.07 72.81,658.79 78.54,664.52 				"/>
			</g>
			<g id="POLYLINE_330_">
				<line class="st1" x1="72.81" y1="658.79" x2="417.76" y2="658.79"/>
			</g>
			<g id="POLYLINE_323_">
				<line class="st1" x1="654.33" y1="658.79" x2="799.19" y2="658.79"/>
			</g>
			<g id="POLYLINE_285_">
				<polyline class="st1" points="793.45,653.08 799.18,658.8 793.45,664.53 				"/>
			</g>
			<g id="MTEXT_33_">
				<g>
					<path class="st2" d="M434.09,665.94c-0.07-0.09-0.11-0.19-0.11-0.31c0-0.09,0.03-0.18,0.08-0.26l3.08-4.28
						c-0.32,0.08-0.69,0.12-1.12,0.12c-0.96-0.01-1.8-0.24-2.52-0.67c-0.72-0.43-1.27-1-1.65-1.7c-0.38-0.7-0.57-1.45-0.57-2.25
						c0-0.8,0.19-1.56,0.57-2.28c0.38-0.72,0.95-1.31,1.7-1.76s1.66-0.68,2.73-0.68c1.07,0,1.98,0.22,2.74,0.66
						c0.76,0.44,1.33,1.02,1.72,1.73c0.39,0.71,0.58,1.48,0.58,2.29c0,0.73-0.13,1.38-0.39,1.94c-0.26,0.56-0.6,1.14-1.03,1.74
						l-3.88,5.44c-0.09,0.12-0.18,0.22-0.27,0.29c-0.09,0.07-0.21,0.11-0.37,0.11h-1C434.26,666.07,434.16,666.03,434.09,665.94z
						 M437.86,659.25c0.48-0.25,0.86-0.61,1.14-1.07s0.42-0.99,0.42-1.59c0-0.61-0.14-1.15-0.42-1.62s-0.66-0.83-1.14-1.08
						c-0.48-0.25-1.01-0.38-1.58-0.38c-0.56,0-1.08,0.13-1.55,0.38c-0.47,0.25-0.85,0.61-1.13,1.08c-0.28,0.47-0.42,1.01-0.42,1.62
						c0,0.6,0.14,1.13,0.42,1.59c0.28,0.46,0.65,0.82,1.12,1.07c0.47,0.25,0.99,0.38,1.56,0.38S437.38,659.5,437.86,659.25z"/>
					<path class="st2" d="M442.51,665.94c-0.09-0.09-0.13-0.2-0.13-0.33v-1.38c0-0.13,0.04-0.25,0.13-0.34
						c0.09-0.09,0.2-0.14,0.33-0.14h1.38c0.13,0,0.24,0.05,0.33,0.14c0.09,0.09,0.13,0.21,0.13,0.34v1.38
						c0,0.13-0.04,0.24-0.13,0.33c-0.09,0.09-0.2,0.13-0.33,0.13h-1.38C442.71,666.07,442.6,666.03,442.51,665.94z"/>
					<path class="st2" d="M453.41,665.94c-0.09-0.09-0.13-0.2-0.13-0.33v-2.92h-6.5c-0.13,0-0.24-0.04-0.33-0.13
						s-0.13-0.2-0.13-0.33v-0.74c0-0.19,0.07-0.39,0.22-0.6l6.02-8.48c0.07-0.11,0.17-0.19,0.3-0.25c0.13-0.06,0.28-0.09,0.44-0.09
						h1.36c0.15,0,0.26,0.04,0.34,0.12s0.12,0.19,0.12,0.34v8.48h1.82c0.13,0,0.24,0.04,0.33,0.13s0.13,0.2,0.13,0.33v0.76
						c0,0.13-0.04,0.24-0.13,0.33s-0.2,0.13-0.33,0.13h-1.82v2.92c0,0.13-0.04,0.24-0.13,0.33c-0.09,0.09-0.2,0.13-0.33,0.13h-0.92
						C453.61,666.07,453.5,666.03,453.41,665.94z M448.4,661.05h4.9v-6.96L448.4,661.05z"/>
					<path class="st2" d="M461.28,665.73c-0.73-0.36-1.29-0.83-1.68-1.41s-0.59-1.2-0.62-1.87v-0.04c0-0.11,0.04-0.19,0.12-0.26
						s0.17-0.1,0.28-0.1h0.98c0.28,0,0.46,0.15,0.54,0.44c0.2,0.72,0.57,1.26,1.11,1.61c0.54,0.35,1.16,0.53,1.87,0.53
						c0.91,0,1.66-0.28,2.26-0.83c0.6-0.55,0.9-1.32,0.9-2.29c0-0.89-0.3-1.6-0.9-2.13c-0.6-0.53-1.35-0.79-2.26-0.79
						c-0.48,0-0.87,0.06-1.16,0.18c-0.29,0.12-0.59,0.29-0.9,0.52c-0.17,0.13-0.32,0.23-0.43,0.29c-0.11,0.06-0.24,0.09-0.37,0.09
						h-0.96c-0.12,0-0.23-0.04-0.32-0.13c-0.09-0.09-0.13-0.19-0.12-0.31l0.62-6.66c0.04-0.33,0.21-0.5,0.5-0.5h6.92
						c0.15,0,0.26,0.04,0.34,0.12s0.12,0.19,0.12,0.34v0.74c0,0.13-0.04,0.24-0.13,0.32c-0.09,0.08-0.2,0.12-0.33,0.12h-5.76
						l-0.36,4.02c0.64-0.45,1.5-0.68,2.58-0.68c0.89,0,1.71,0.18,2.44,0.53c0.73,0.35,1.32,0.87,1.75,1.55
						c0.43,0.68,0.65,1.49,0.65,2.42c0,0.99-0.22,1.84-0.65,2.55c-0.43,0.71-1.03,1.25-1.8,1.62c-0.77,0.37-1.64,0.55-2.63,0.55
						C462.88,666.27,462.01,666.09,461.28,665.73z"/>
					<path class="st2" d="M471.11,655.55c-0.06-0.08-0.08-0.18-0.05-0.3l0.44-2.8c0.05-0.39,0.24-0.58,0.56-0.58h1.28
						c0.09,0,0.17,0.03,0.23,0.1c0.06,0.07,0.09,0.15,0.09,0.24c0,0.13-0.02,0.24-0.06,0.32l-1.04,2.7
						c-0.07,0.15-0.14,0.26-0.22,0.33s-0.2,0.11-0.36,0.11h-0.62C471.25,655.67,471.17,655.63,471.11,655.55z M474.25,655.55
						c-0.06-0.08-0.08-0.18-0.05-0.3l0.44-2.8c0.05-0.39,0.24-0.58,0.56-0.58h1.28c0.09,0,0.17,0.03,0.23,0.1
						c0.06,0.07,0.09,0.15,0.09,0.24c0,0.13-0.02,0.24-0.06,0.32l-1.04,2.7c-0.07,0.15-0.14,0.26-0.22,0.33s-0.2,0.11-0.36,0.11
						h-0.62C474.39,655.67,474.31,655.63,474.25,655.55z"/>
					<path class="st2" d="M477.55,660.75c-0.09-0.08-0.13-0.19-0.13-0.32v-0.72c0-0.13,0.04-0.24,0.13-0.33
						c0.09-0.09,0.2-0.13,0.33-0.13h6c0.13,0,0.24,0.04,0.33,0.13c0.09,0.09,0.13,0.2,0.13,0.33v0.72c0,0.13-0.04,0.24-0.13,0.32
						c-0.09,0.08-0.2,0.12-0.33,0.12h-6C477.75,660.87,477.64,660.83,477.55,660.75z"/>
					<path class="st2" d="M490.18,665.94c-0.08-0.09-0.12-0.2-0.12-0.33v-11.28l-3.36,2.58c-0.09,0.08-0.19,0.12-0.3,0.12
						c-0.12,0-0.23-0.07-0.34-0.2l-0.48-0.62c-0.07-0.09-0.1-0.19-0.1-0.28c0-0.15,0.07-0.27,0.2-0.36l4.34-3.36
						c0.15-0.09,0.32-0.14,0.52-0.14h0.94c0.13,0,0.24,0.04,0.33,0.13c0.09,0.09,0.13,0.2,0.13,0.33v13.08
						c0,0.13-0.04,0.24-0.13,0.33c-0.09,0.09-0.2,0.13-0.33,0.13h-0.98C490.37,666.07,490.26,666.03,490.18,665.94z"/>
					<path class="st2" d="M496.03,664.76c-0.79-1.01-1.22-2.32-1.27-3.95l-0.02-1.72l0.02-1.78c0.04-1.61,0.46-2.92,1.27-3.93
						c0.81-1.01,2.06-1.51,3.77-1.51c1.72,0,2.98,0.5,3.79,1.51c0.81,1.01,1.23,2.32,1.27,3.93c0.01,0.37,0.02,0.97,0.02,1.78
						c0,0.79-0.01,1.36-0.02,1.72c-0.05,1.63-0.48,2.94-1.27,3.95c-0.79,1.01-2.06,1.51-3.79,1.51
						C498.08,666.27,496.82,665.77,496.03,664.76z M502.12,663.59c0.52-0.68,0.79-1.64,0.82-2.88c0.01-0.39,0.02-0.94,0.02-1.66
						c0-0.73-0.01-1.28-0.02-1.64c-0.03-1.23-0.3-2.18-0.83-2.87c-0.53-0.69-1.3-1.03-2.31-1.03s-1.78,0.34-2.3,1.03
						c-0.52,0.69-0.79,1.64-0.82,2.87l-0.02,1.64l0.02,1.66c0.03,1.24,0.3,2.2,0.82,2.88c0.52,0.68,1.29,1.02,2.3,1.02
						C500.83,664.61,501.6,664.27,502.12,663.59z"/>
					<path class="st2" d="M507.31,665.94c-0.09-0.09-0.13-0.2-0.13-0.33v-1.38c0-0.13,0.04-0.25,0.13-0.34
						c0.09-0.09,0.2-0.14,0.33-0.14h1.38c0.13,0,0.24,0.05,0.33,0.14c0.09,0.09,0.13,0.21,0.13,0.34v1.38
						c0,0.13-0.04,0.24-0.13,0.33c-0.09,0.09-0.2,0.13-0.33,0.13h-1.38C507.51,666.07,507.39,666.03,507.31,665.94z"/>
					<path class="st2" d="M511.93,665.94c-0.09-0.09-0.13-0.2-0.13-0.33v-0.6c0-0.31,0.17-0.6,0.5-0.88l4.36-4.34
						c0.99-0.84,1.67-1.53,2.04-2.06s0.56-1.1,0.56-1.7c0-0.79-0.22-1.4-0.66-1.85c-0.44-0.45-1.08-0.67-1.92-0.67
						c-0.8,0-1.43,0.23-1.9,0.7c-0.47,0.47-0.75,1.09-0.86,1.88c-0.03,0.15-0.09,0.26-0.2,0.34s-0.21,0.12-0.32,0.12h-0.96
						c-0.12,0-0.22-0.04-0.3-0.12s-0.12-0.17-0.12-0.28c0.03-0.71,0.22-1.39,0.57-2.05c0.35-0.66,0.88-1.2,1.57-1.62
						s1.53-0.63,2.52-0.63c1.49,0,2.62,0.39,3.37,1.17s1.13,1.77,1.13,2.97c0,0.84-0.21,1.6-0.61,2.27
						c-0.41,0.67-1.04,1.38-1.91,2.13l-3.94,4h6.3c0.15,0,0.26,0.04,0.34,0.12c0.08,0.08,0.12,0.19,0.12,0.34v0.76
						c0,0.13-0.04,0.24-0.13,0.33c-0.09,0.09-0.2,0.13-0.33,0.13h-8.76C512.12,666.07,512.02,666.03,511.93,665.94z"/>
					<path class="st2" d="M525.72,665.73c-0.73-0.36-1.29-0.83-1.68-1.41s-0.59-1.2-0.62-1.87v-0.04c0-0.11,0.04-0.19,0.12-0.26
						s0.17-0.1,0.28-0.1h0.98c0.28,0,0.46,0.15,0.54,0.44c0.2,0.72,0.57,1.26,1.11,1.61c0.54,0.35,1.16,0.53,1.87,0.53
						c0.91,0,1.66-0.28,2.26-0.83c0.6-0.55,0.9-1.32,0.9-2.29c0-0.89-0.3-1.6-0.9-2.13c-0.6-0.53-1.35-0.79-2.26-0.79
						c-0.48,0-0.87,0.06-1.16,0.18c-0.29,0.12-0.59,0.29-0.9,0.52c-0.17,0.13-0.32,0.23-0.43,0.29c-0.11,0.06-0.24,0.09-0.37,0.09
						h-0.96c-0.12,0-0.23-0.04-0.32-0.13c-0.09-0.09-0.13-0.19-0.12-0.31l0.62-6.66c0.04-0.33,0.21-0.5,0.5-0.5h6.92
						c0.15,0,0.26,0.04,0.34,0.12s0.12,0.19,0.12,0.34v0.74c0,0.13-0.04,0.24-0.13,0.32c-0.09,0.08-0.2,0.12-0.33,0.12h-5.76
						l-0.36,4.02c0.64-0.45,1.5-0.68,2.58-0.68c0.89,0,1.71,0.18,2.44,0.53c0.73,0.35,1.32,0.87,1.75,1.55
						c0.43,0.68,0.65,1.49,0.65,2.42c0,0.99-0.22,1.84-0.65,2.55c-0.43,0.71-1.03,1.25-1.8,1.62c-0.77,0.37-1.64,0.55-2.63,0.55
						C527.32,666.27,526.45,666.09,525.72,665.73z"/>
					<path class="st2" d="M535.55,655.55c-0.06-0.08-0.08-0.18-0.05-0.3l0.44-2.8c0.05-0.39,0.24-0.58,0.56-0.58h1.28
						c0.09,0,0.17,0.03,0.23,0.1c0.06,0.07,0.09,0.15,0.09,0.24c0,0.13-0.02,0.24-0.06,0.32l-1.04,2.7
						c-0.07,0.15-0.14,0.26-0.22,0.33s-0.2,0.11-0.36,0.11h-0.62C535.69,655.67,535.61,655.63,535.55,655.55z M538.69,655.55
						c-0.06-0.08-0.08-0.18-0.05-0.3l0.44-2.8c0.05-0.39,0.24-0.58,0.56-0.58h1.28c0.09,0,0.17,0.03,0.23,0.1
						c0.06,0.07,0.09,0.15,0.09,0.24c0,0.13-0.02,0.24-0.06,0.32l-1.04,2.7c-0.07,0.15-0.14,0.26-0.22,0.33s-0.2,0.11-0.36,0.11
						h-0.62C538.83,655.67,538.75,655.63,538.69,655.55z"/>
					<path class="st2" d="M548.56,670.1c-0.08-0.09-0.12-0.2-0.12-0.33v-21.16c0-0.13,0.04-0.24,0.12-0.33s0.19-0.13,0.32-0.13h0.74
						c0.13,0,0.24,0.04,0.33,0.13c0.09,0.09,0.13,0.2,0.13,0.33v21.16c0,0.13-0.04,0.24-0.13,0.33c-0.09,0.09-0.2,0.13-0.33,0.13
						h-0.74C548.75,670.23,548.64,670.19,548.56,670.1z"/>
					<path class="st2" d="M557.59,665.94c-0.09-0.09-0.13-0.2-0.13-0.33v-0.6c0-0.31,0.17-0.6,0.5-0.88l4.36-4.34
						c0.99-0.84,1.67-1.53,2.04-2.06s0.56-1.1,0.56-1.7c0-0.79-0.22-1.4-0.66-1.85c-0.44-0.45-1.08-0.67-1.92-0.67
						c-0.8,0-1.43,0.23-1.9,0.7c-0.47,0.47-0.75,1.09-0.86,1.88c-0.03,0.15-0.09,0.26-0.2,0.34c-0.11,0.08-0.21,0.12-0.32,0.12
						h-0.96c-0.12,0-0.22-0.04-0.3-0.12s-0.12-0.17-0.12-0.28c0.03-0.71,0.22-1.39,0.57-2.05s0.88-1.2,1.57-1.62
						s1.53-0.63,2.52-0.63c1.49,0,2.62,0.39,3.37,1.17c0.75,0.78,1.13,1.77,1.13,2.97c0,0.84-0.2,1.6-0.61,2.27
						c-0.41,0.67-1.04,1.38-1.91,2.13l-3.94,4h6.3c0.15,0,0.26,0.04,0.34,0.12c0.08,0.08,0.12,0.19,0.12,0.34v0.76
						c0,0.13-0.04,0.24-0.13,0.33s-0.2,0.13-0.33,0.13h-8.76C557.79,666.07,557.67,666.03,557.59,665.94z"/>
					<path class="st2" d="M575.67,665.94c-0.09-0.09-0.13-0.2-0.13-0.33v-2.92h-6.5c-0.13,0-0.24-0.04-0.33-0.13
						c-0.09-0.09-0.13-0.2-0.13-0.33v-0.74c0-0.19,0.07-0.39,0.22-0.6l6.02-8.48c0.07-0.11,0.17-0.19,0.3-0.25
						c0.13-0.06,0.28-0.09,0.44-0.09h1.36c0.15,0,0.26,0.04,0.34,0.12s0.12,0.19,0.12,0.34v8.48h1.82c0.13,0,0.24,0.04,0.33,0.13
						c0.09,0.09,0.13,0.2,0.13,0.33v0.76c0,0.13-0.04,0.24-0.13,0.33c-0.09,0.09-0.2,0.13-0.33,0.13h-1.82v2.92
						c0,0.13-0.04,0.24-0.13,0.33c-0.09,0.09-0.2,0.13-0.33,0.13H576C575.87,666.07,575.76,666.03,575.67,665.94z M570.66,661.05
						h4.9v-6.96L570.66,661.05z"/>
					<path class="st2" d="M581.83,660.75c-0.09-0.08-0.13-0.19-0.13-0.32v-0.72c0-0.13,0.04-0.24,0.13-0.33
						c0.09-0.09,0.2-0.13,0.33-0.13h6c0.13,0,0.24,0.04,0.33,0.13c0.09,0.09,0.13,0.2,0.13,0.33v0.72c0,0.13-0.04,0.24-0.13,0.32
						c-0.09,0.08-0.2,0.12-0.33,0.12h-6C582.03,660.87,581.91,660.83,581.83,660.75z"/>
					<path class="st2" d="M590.31,665.94c-0.09-0.09-0.13-0.2-0.13-0.33v-0.6c0-0.31,0.17-0.6,0.5-0.88l4.36-4.34
						c0.99-0.84,1.67-1.53,2.04-2.06s0.56-1.1,0.56-1.7c0-0.79-0.22-1.4-0.66-1.85c-0.44-0.45-1.08-0.67-1.92-0.67
						c-0.8,0-1.43,0.23-1.9,0.7c-0.47,0.47-0.75,1.09-0.86,1.88c-0.03,0.15-0.09,0.26-0.2,0.34s-0.21,0.12-0.32,0.12h-0.96
						c-0.12,0-0.22-0.04-0.3-0.12s-0.12-0.17-0.12-0.28c0.03-0.71,0.22-1.39,0.57-2.05c0.35-0.66,0.88-1.2,1.57-1.62
						s1.53-0.63,2.52-0.63c1.49,0,2.62,0.39,3.37,1.17s1.13,1.77,1.13,2.97c0,0.84-0.21,1.6-0.61,2.27
						c-0.41,0.67-1.04,1.38-1.91,2.13l-3.94,4h6.3c0.15,0,0.26,0.04,0.34,0.12c0.08,0.08,0.12,0.19,0.12,0.34v0.76
						c0,0.13-0.04,0.24-0.13,0.33c-0.09,0.09-0.2,0.13-0.33,0.13h-8.76C590.5,666.07,590.39,666.03,590.31,665.94z"/>
					<path class="st2" d="M604.25,665.62c-0.78-0.43-1.37-1.02-1.78-1.75s-0.61-1.53-0.61-2.4c0-1.15,0.46-2.37,1.38-3.68l3.82-5.32
						c0.01-0.01,0.05-0.06,0.11-0.14c0.06-0.08,0.14-0.14,0.23-0.19s0.2-0.07,0.32-0.07h0.98c0.12,0,0.21,0.04,0.29,0.13
						s0.11,0.19,0.11,0.31c0,0.07-0.03,0.15-0.1,0.26l-2.92,4.08c0.35-0.08,0.73-0.12,1.16-0.12c0.97,0,1.83,0.22,2.57,0.65
						c0.74,0.43,1.31,1.01,1.72,1.72c0.41,0.71,0.61,1.5,0.61,2.35c0,0.85-0.2,1.65-0.61,2.39c-0.41,0.74-1,1.33-1.77,1.77
						s-1.69,0.66-2.74,0.66C605.95,666.27,605.03,666.05,604.25,665.62z M608.62,664.25c0.49-0.24,0.89-0.6,1.18-1.07
						c0.29-0.47,0.44-1.04,0.44-1.71c0-0.65-0.15-1.22-0.45-1.69c-0.3-0.47-0.7-0.83-1.19-1.08c-0.49-0.25-1.03-0.37-1.6-0.37
						c-0.57,0-1.11,0.12-1.6,0.37c-0.49,0.25-0.89,0.61-1.18,1.08c-0.29,0.47-0.44,1.04-0.44,1.69c0,0.67,0.15,1.24,0.44,1.71
						c0.29,0.47,0.69,0.83,1.18,1.07c0.49,0.24,1.03,0.36,1.6,0.36C607.59,664.61,608.12,664.49,608.62,664.25z"/>
					<path class="st2" d="M620.12,665.06c-0.8-0.81-1.22-1.94-1.26-3.39l-0.02-0.8l0.02-0.8c0.04-1.45,0.46-2.58,1.26-3.39
						s1.91-1.21,3.34-1.21c0.96,0,1.77,0.17,2.43,0.51s1.15,0.76,1.48,1.27c0.33,0.51,0.5,1.01,0.53,1.52
						c0.01,0.12-0.03,0.23-0.13,0.32c-0.1,0.09-0.21,0.14-0.33,0.14h-0.88c-0.13,0-0.23-0.03-0.3-0.09
						c-0.07-0.06-0.13-0.17-0.2-0.33c-0.24-0.65-0.57-1.12-0.99-1.39c-0.42-0.27-0.95-0.41-1.59-0.41c-0.84,0-1.51,0.26-2,0.78
						c-0.49,0.52-0.76,1.31-0.8,2.38l-0.02,0.7l0.02,0.7c0.04,1.07,0.31,1.86,0.8,2.38c0.49,0.52,1.16,0.78,2,0.78
						c0.65,0,1.19-0.14,1.6-0.41c0.41-0.27,0.74-0.74,0.98-1.39c0.07-0.16,0.13-0.27,0.2-0.33c0.07-0.06,0.17-0.09,0.3-0.09h0.88
						c0.12,0,0.23,0.05,0.33,0.14c0.1,0.09,0.14,0.2,0.13,0.32c-0.03,0.49-0.2,0.99-0.53,1.5s-0.82,0.93-1.48,1.28
						s-1.47,0.52-2.43,0.52C622.03,666.27,620.92,665.87,620.12,665.06z"/>
					<path class="st2" d="M630.43,665.94c-0.09-0.09-0.13-0.2-0.13-0.33v-9.48c0-0.13,0.04-0.24,0.13-0.33
						c0.09-0.09,0.2-0.13,0.33-0.13h0.84c0.13,0,0.24,0.04,0.32,0.13c0.08,0.09,0.12,0.2,0.12,0.33v0.68
						c0.72-0.89,1.69-1.34,2.92-1.34c1.47,0,2.51,0.61,3.12,1.84c0.32-0.56,0.78-1.01,1.37-1.34c0.59-0.33,1.26-0.5,1.99-0.5
						c1.09,0,1.99,0.37,2.68,1.12c0.69,0.75,1.04,1.83,1.04,3.24v5.78c0,0.13-0.04,0.24-0.13,0.33s-0.2,0.13-0.33,0.13h-0.86
						c-0.13,0-0.24-0.04-0.33-0.13c-0.09-0.09-0.13-0.2-0.13-0.33v-5.6c0-1.07-0.22-1.83-0.66-2.29c-0.44-0.46-1.02-0.69-1.74-0.69
						c-0.64,0-1.19,0.24-1.65,0.71c-0.46,0.47-0.69,1.23-0.69,2.27v5.6c0,0.13-0.04,0.24-0.13,0.33c-0.09,0.09-0.2,0.13-0.33,0.13
						h-0.88c-0.13,0-0.24-0.04-0.33-0.13c-0.09-0.09-0.13-0.2-0.13-0.33v-5.6c0-1.05-0.23-1.81-0.69-2.28
						c-0.46-0.47-1.03-0.7-1.71-0.7c-0.64,0-1.19,0.23-1.65,0.7c-0.46,0.47-0.69,1.22-0.69,2.26v5.62c0,0.13-0.04,0.24-0.13,0.33
						c-0.09,0.09-0.2,0.13-0.33,0.13h-0.88C630.62,666.07,630.51,666.03,630.43,665.94z"/>
				</g>
			</g>
		</g>
		<g>
			<g id="POLYLINE_284_">
				<polyline class="st1" points="79.54,56.07 73.81,61.79 79.54,67.52 				"/>
			</g>
			<g id="POLYLINE_283_">
				<line class="st1" x1="73.81" y1="61.79" x2="102" y2="61.79"/>
			</g>
			<g id="POLYLINE_282_">
				<line class="st1" x1="301" y1="61.79" x2="360.19" y2="61.79"/>
			</g>
			<g id="POLYLINE_281_">
				<polyline class="st1" points="354.45,56.08 360.18,61.8 354.45,67.53 				"/>
			</g>
			<g id="MTEXT_32_">
				<g>
					<path class="st2" d="M112.53,67.37c-0.68-0.31-1.2-0.7-1.56-1.2s-0.54-1-0.57-1.53c0-0.11,0.04-0.2,0.11-0.26
						c0.07-0.07,0.16-0.1,0.27-0.1h0.81c0.13,0,0.24,0.03,0.32,0.08s0.15,0.16,0.2,0.32c0.16,0.61,0.49,1.04,1.02,1.3
						s1.14,0.38,1.84,0.38c0.86,0,1.55-0.21,2.06-0.62c0.51-0.41,0.76-1,0.76-1.77c0-1.46-0.89-2.2-2.68-2.2h-1.69
						c-0.12,0-0.22-0.04-0.3-0.12s-0.12-0.18-0.12-0.3v-0.47c0-0.18,0.07-0.34,0.2-0.47l3.51-3.89h-5.33c-0.12,0-0.22-0.04-0.3-0.11
						c-0.08-0.07-0.12-0.17-0.12-0.29v-0.65c0-0.13,0.04-0.24,0.12-0.32c0.08-0.08,0.18-0.12,0.3-0.12h7.13
						c0.13,0,0.24,0.04,0.32,0.12c0.08,0.08,0.12,0.18,0.12,0.32v0.59c0,0.13-0.06,0.27-0.18,0.41l-3.51,3.94h0.29
						c1.22,0.04,2.19,0.35,2.91,0.95c0.71,0.6,1.07,1.48,1.07,2.63c0,0.79-0.2,1.47-0.58,2.04c-0.39,0.57-0.93,1.01-1.63,1.31
						c-0.7,0.31-1.48,0.46-2.36,0.46C114.02,67.83,113.22,67.68,112.53,67.37z"/>
					<path class="st2" d="M121.74,67.53c-0.08-0.08-0.12-0.18-0.12-0.3v-1.24c0-0.12,0.04-0.22,0.12-0.31s0.18-0.13,0.3-0.13h1.24
						c0.12,0,0.22,0.04,0.3,0.13s0.12,0.19,0.12,0.31v1.24c0,0.12-0.04,0.22-0.12,0.3s-0.18,0.12-0.3,0.12h-1.24
						C121.91,67.65,121.82,67.61,121.74,67.53z"/>
					<path class="st2" d="M126.8,67.53c-0.07-0.08-0.1-0.17-0.1-0.28l0.04-0.16l4.5-10.53h-5.94c-0.12,0-0.22-0.04-0.3-0.12
						s-0.12-0.18-0.12-0.3v-0.67c0-0.13,0.04-0.24,0.11-0.32c0.07-0.08,0.17-0.12,0.31-0.12h7.34c0.13,0,0.23,0.04,0.31,0.12
						c0.07,0.08,0.11,0.18,0.11,0.32v0.61c0,0.22-0.05,0.45-0.14,0.7l-4.45,10.4c-0.06,0.13-0.13,0.24-0.2,0.32
						c-0.07,0.08-0.17,0.13-0.31,0.13h-0.9C126.95,67.65,126.86,67.61,126.8,67.53z"/>
					<path class="st2" d="M136.44,67.34c-0.66-0.32-1.16-0.75-1.51-1.27c-0.35-0.52-0.53-1.08-0.56-1.68v-0.04
						c0-0.1,0.04-0.17,0.11-0.23c0.07-0.06,0.16-0.09,0.25-0.09h0.88c0.25,0,0.41,0.13,0.49,0.4c0.18,0.65,0.51,1.13,1,1.45
						c0.49,0.32,1.05,0.48,1.68,0.48c0.82,0,1.49-0.25,2.03-0.75c0.54-0.5,0.81-1.18,0.81-2.06c0-0.8-0.27-1.44-0.81-1.92
						c-0.54-0.47-1.22-0.71-2.03-0.71c-0.43,0-0.78,0.05-1.04,0.16c-0.26,0.11-0.53,0.26-0.81,0.47c-0.16,0.12-0.29,0.21-0.39,0.26
						c-0.1,0.05-0.21,0.08-0.33,0.08h-0.86c-0.11,0-0.2-0.04-0.29-0.12s-0.12-0.17-0.11-0.28l0.56-5.99
						c0.04-0.3,0.19-0.45,0.45-0.45h6.23c0.13,0,0.23,0.04,0.31,0.11c0.07,0.07,0.11,0.17,0.11,0.31v0.67
						c0,0.12-0.04,0.22-0.12,0.29c-0.08,0.07-0.18,0.11-0.3,0.11h-5.18l-0.32,3.62c0.58-0.41,1.35-0.61,2.32-0.61
						c0.8,0,1.54,0.16,2.2,0.48c0.66,0.32,1.18,0.78,1.57,1.39c0.39,0.61,0.58,1.34,0.58,2.18c0,0.89-0.19,1.65-0.58,2.29
						c-0.39,0.64-0.93,1.13-1.62,1.46c-0.69,0.33-1.48,0.5-2.37,0.5C137.87,67.83,137.09,67.67,136.44,67.34z"/>
					<path class="st2" d="M145.28,58.18c-0.05-0.07-0.07-0.16-0.04-0.27l0.4-2.52c0.05-0.35,0.22-0.52,0.5-0.52h1.15
						c0.08,0,0.15,0.03,0.21,0.09c0.05,0.06,0.08,0.13,0.08,0.22c0,0.12-0.02,0.22-0.05,0.29l-0.94,2.43
						c-0.06,0.13-0.13,0.23-0.2,0.3c-0.07,0.07-0.18,0.1-0.32,0.1h-0.56C145.41,58.29,145.34,58.25,145.28,58.18z M148.11,58.18
						c-0.05-0.07-0.07-0.16-0.04-0.27l0.4-2.52c0.05-0.35,0.22-0.52,0.5-0.52h1.15c0.08,0,0.15,0.03,0.21,0.09
						c0.05,0.06,0.08,0.13,0.08,0.22c0,0.12-0.02,0.22-0.05,0.29l-0.94,2.43c-0.06,0.13-0.13,0.23-0.2,0.3
						c-0.07,0.07-0.18,0.1-0.32,0.1h-0.56C148.24,58.29,148.16,58.25,148.11,58.18z"/>
					<path class="st2" d="M151.08,62.86c-0.08-0.07-0.12-0.17-0.12-0.29v-0.65c0-0.12,0.04-0.22,0.12-0.3
						c0.08-0.08,0.18-0.12,0.3-0.12h5.4c0.12,0,0.22,0.04,0.3,0.12c0.08,0.08,0.12,0.18,0.12,0.3v0.65c0,0.12-0.04,0.22-0.12,0.29
						s-0.18,0.11-0.3,0.11h-5.4C151.26,62.97,151.16,62.93,151.08,62.86z"/>
					<path class="st2" d="M160.93,67.37c-0.68-0.31-1.2-0.7-1.56-1.2s-0.54-1-0.57-1.53c0-0.11,0.04-0.2,0.11-0.26
						c0.07-0.07,0.16-0.1,0.27-0.1H160c0.13,0,0.24,0.03,0.32,0.08s0.15,0.16,0.2,0.32c0.16,0.61,0.49,1.04,1.02,1.3
						s1.14,0.38,1.84,0.38c0.86,0,1.55-0.21,2.06-0.62c0.51-0.41,0.76-1,0.76-1.77c0-1.46-0.89-2.2-2.68-2.2h-1.69
						c-0.12,0-0.22-0.04-0.3-0.12s-0.12-0.18-0.12-0.3v-0.47c0-0.18,0.07-0.34,0.2-0.47l3.51-3.89h-5.33c-0.12,0-0.22-0.04-0.3-0.11
						c-0.08-0.07-0.12-0.17-0.12-0.29v-0.65c0-0.13,0.04-0.24,0.12-0.32c0.08-0.08,0.18-0.12,0.3-0.12h7.13
						c0.13,0,0.24,0.04,0.32,0.12c0.08,0.08,0.12,0.18,0.12,0.32v0.59c0,0.13-0.06,0.27-0.18,0.41l-3.51,3.94h0.29
						c1.22,0.04,2.19,0.35,2.91,0.95c0.71,0.6,1.07,1.48,1.07,2.63c0,0.79-0.2,1.47-0.58,2.04c-0.39,0.57-0.93,1.01-1.63,1.31
						c-0.7,0.31-1.48,0.46-2.36,0.46C162.43,67.83,161.62,67.68,160.93,67.37z"/>
					<path class="st2" d="M170.14,67.53c-0.08-0.08-0.12-0.18-0.12-0.3v-1.24c0-0.12,0.04-0.22,0.12-0.31s0.18-0.13,0.3-0.13h1.24
						c0.12,0,0.22,0.04,0.3,0.13s0.12,0.19,0.12,0.31v1.24c0,0.12-0.04,0.22-0.12,0.3s-0.18,0.12-0.3,0.12h-1.24
						C170.32,67.65,170.22,67.61,170.14,67.53z"/>
					<path class="st2" d="M175.72,67.53c-0.07-0.08-0.1-0.17-0.1-0.28c0-0.08,0.02-0.16,0.07-0.23l2.77-3.85
						c-0.29,0.07-0.62,0.11-1.01,0.11c-0.86-0.01-1.62-0.21-2.27-0.6c-0.65-0.39-1.14-0.9-1.49-1.53s-0.51-1.3-0.51-2.03
						c0-0.72,0.17-1.4,0.51-2.05s0.85-1.18,1.53-1.58s1.5-0.61,2.46-0.61s1.78,0.2,2.47,0.59c0.68,0.4,1.2,0.92,1.55,1.56
						s0.52,1.33,0.52,2.06c0,0.66-0.12,1.24-0.35,1.75c-0.23,0.5-0.54,1.03-0.93,1.57l-3.49,4.9c-0.08,0.11-0.17,0.2-0.24,0.26
						c-0.08,0.07-0.19,0.1-0.33,0.1h-0.9C175.87,67.65,175.79,67.61,175.72,67.53z M179.11,61.51c0.43-0.23,0.77-0.55,1.03-0.96
						s0.38-0.89,0.38-1.43c0-0.55-0.13-1.04-0.38-1.46c-0.25-0.42-0.59-0.74-1.03-0.97s-0.91-0.34-1.42-0.34
						c-0.5,0-0.97,0.11-1.4,0.34s-0.76,0.55-1.02,0.97c-0.25,0.42-0.38,0.91-0.38,1.46c0,0.54,0.13,1.02,0.38,1.43
						s0.59,0.73,1.01,0.96c0.42,0.23,0.89,0.34,1.4,0.34C178.21,61.85,178.68,61.74,179.11,61.51z"/>
					<path class="st2" d="M185.74,67.37c-0.68-0.31-1.2-0.7-1.56-1.2s-0.54-1-0.57-1.53c0-0.11,0.04-0.2,0.11-0.26
						c0.07-0.07,0.16-0.1,0.27-0.1h0.81c0.13,0,0.24,0.03,0.32,0.08s0.15,0.16,0.2,0.32c0.16,0.61,0.49,1.04,1.02,1.3
						s1.14,0.38,1.84,0.38c0.86,0,1.55-0.21,2.06-0.62c0.51-0.41,0.76-1,0.76-1.77c0-1.46-0.89-2.2-2.68-2.2h-1.69
						c-0.12,0-0.22-0.04-0.3-0.12s-0.12-0.18-0.12-0.3v-0.47c0-0.18,0.07-0.34,0.2-0.47l3.51-3.89h-5.33c-0.12,0-0.22-0.04-0.3-0.11
						c-0.08-0.07-0.12-0.17-0.12-0.29v-0.65c0-0.13,0.04-0.24,0.12-0.32c0.08-0.08,0.18-0.12,0.3-0.12h7.13
						c0.13,0,0.24,0.04,0.32,0.12c0.08,0.08,0.12,0.18,0.12,0.32v0.59c0,0.13-0.06,0.27-0.18,0.41l-3.51,3.94h0.29
						c1.22,0.04,2.19,0.35,2.91,0.95c0.71,0.6,1.07,1.48,1.07,2.63c0,0.79-0.2,1.47-0.58,2.04c-0.39,0.57-0.93,1.01-1.63,1.31
						c-0.7,0.31-1.48,0.46-2.36,0.46C187.23,67.83,186.42,67.68,185.74,67.37z"/>
					<path class="st2" d="M194.69,58.18c-0.05-0.07-0.07-0.16-0.04-0.27l0.4-2.52c0.05-0.35,0.22-0.52,0.5-0.52h1.15
						c0.08,0,0.15,0.03,0.21,0.09c0.05,0.06,0.08,0.13,0.08,0.22c0,0.12-0.02,0.22-0.05,0.29L196,57.89
						c-0.06,0.13-0.13,0.23-0.2,0.3c-0.07,0.07-0.18,0.1-0.32,0.1h-0.56C194.82,58.29,194.75,58.25,194.69,58.18z M197.52,58.18
						c-0.05-0.07-0.07-0.16-0.04-0.27l0.4-2.52c0.05-0.35,0.22-0.52,0.5-0.52h1.15c0.08,0,0.15,0.03,0.21,0.09
						c0.05,0.06,0.08,0.13,0.08,0.22c0,0.12-0.02,0.22-0.05,0.29l-0.94,2.43c-0.06,0.13-0.13,0.23-0.2,0.3
						c-0.07,0.07-0.18,0.1-0.32,0.1h-0.56C197.65,58.29,197.57,58.25,197.52,58.18z"/>
					<path class="st2" d="M206.4,71.28c-0.07-0.08-0.11-0.18-0.11-0.3V51.94c0-0.12,0.04-0.22,0.11-0.3s0.17-0.12,0.29-0.12h0.67
						c0.12,0,0.22,0.04,0.3,0.12s0.12,0.18,0.12,0.3v19.04c0,0.12-0.04,0.22-0.12,0.3s-0.18,0.12-0.3,0.12h-0.67
						C206.57,71.39,206.47,71.36,206.4,71.28z"/>
					<path class="st2" d="M216.76,67.53c-0.07-0.08-0.1-0.17-0.1-0.28c0-0.08,0.02-0.16,0.07-0.23l2.77-3.85
						c-0.29,0.07-0.62,0.11-1.01,0.11c-0.86-0.01-1.62-0.21-2.27-0.6c-0.65-0.39-1.14-0.9-1.49-1.53s-0.51-1.3-0.51-2.03
						c0-0.72,0.17-1.4,0.51-2.05s0.85-1.18,1.53-1.58s1.5-0.61,2.46-0.61s1.78,0.2,2.47,0.59c0.68,0.4,1.2,0.92,1.55,1.56
						s0.52,1.33,0.52,2.06c0,0.66-0.12,1.24-0.35,1.75c-0.23,0.5-0.54,1.03-0.93,1.57l-3.49,4.9c-0.08,0.11-0.17,0.2-0.24,0.26
						c-0.08,0.07-0.19,0.1-0.33,0.1h-0.9C216.91,67.65,216.82,67.61,216.76,67.53z M220.15,61.51c0.43-0.23,0.77-0.55,1.03-0.96
						s0.38-0.89,0.38-1.43c0-0.55-0.13-1.04-0.38-1.46c-0.25-0.42-0.59-0.74-1.03-0.97s-0.91-0.34-1.42-0.34
						c-0.5,0-0.97,0.11-1.4,0.34s-0.76,0.55-1.02,0.97c-0.25,0.42-0.38,0.91-0.38,1.46c0,0.54,0.13,1.02,0.38,1.43
						s0.59,0.73,1.01,0.96c0.42,0.23,0.89,0.34,1.4,0.34C219.25,61.85,219.72,61.74,220.15,61.51z"/>
					<path class="st2" d="M224.34,67.53c-0.08-0.08-0.12-0.18-0.12-0.3v-1.24c0-0.12,0.04-0.22,0.12-0.31s0.18-0.13,0.3-0.13h1.24
						c0.12,0,0.22,0.04,0.3,0.13s0.12,0.19,0.12,0.31v1.24c0,0.12-0.04,0.22-0.12,0.3s-0.18,0.12-0.3,0.12h-1.24
						C224.51,67.65,224.41,67.61,224.34,67.53z"/>
					<path class="st2" d="M230.31,67.25c-0.7-0.39-1.24-0.92-1.6-1.58c-0.37-0.66-0.55-1.38-0.55-2.16c0-1.03,0.41-2.14,1.24-3.31
						l3.44-4.79c0.01-0.01,0.05-0.05,0.1-0.13s0.12-0.13,0.21-0.17s0.18-0.06,0.29-0.06h0.88c0.11,0,0.19,0.04,0.26,0.12
						c0.07,0.08,0.1,0.17,0.1,0.28c0,0.06-0.03,0.14-0.09,0.23l-2.63,3.67c0.31-0.07,0.66-0.11,1.04-0.11c0.88,0,1.65,0.2,2.31,0.58
						c0.67,0.39,1.18,0.91,1.55,1.55c0.37,0.64,0.55,1.35,0.55,2.12c0,0.77-0.18,1.49-0.55,2.15s-0.9,1.2-1.59,1.59
						c-0.7,0.4-1.52,0.59-2.47,0.59C231.85,67.83,231.02,67.64,230.31,67.25z M234.25,66.01c0.44-0.22,0.8-0.54,1.06-0.96
						c0.26-0.43,0.4-0.94,0.4-1.54c0-0.59-0.13-1.1-0.41-1.52c-0.27-0.43-0.63-0.75-1.07-0.97c-0.44-0.22-0.92-0.33-1.44-0.33
						s-1,0.11-1.44,0.33c-0.44,0.22-0.8,0.55-1.06,0.97s-0.4,0.93-0.4,1.52c0,0.6,0.13,1.11,0.4,1.54s0.62,0.75,1.06,0.96
						c0.44,0.22,0.92,0.32,1.44,0.32C233.32,66.34,233.8,66.23,234.25,66.01z"/>
					<path class="st2" d="M239.44,62.86c-0.08-0.07-0.12-0.17-0.12-0.29v-0.65c0-0.12,0.04-0.22,0.12-0.3
						c0.08-0.08,0.18-0.12,0.3-0.12h5.4c0.12,0,0.22,0.04,0.3,0.12c0.08,0.08,0.12,0.18,0.12,0.3v0.65c0,0.12-0.04,0.22-0.12,0.29
						s-0.18,0.11-0.3,0.11h-5.4C239.62,62.97,239.52,62.93,239.44,62.86z"/>
					<path class="st2" d="M250.81,67.53c-0.07-0.08-0.11-0.18-0.11-0.3V57.08l-3.02,2.32c-0.08,0.07-0.17,0.11-0.27,0.11
						c-0.11,0-0.21-0.06-0.31-0.18l-0.43-0.56c-0.06-0.08-0.09-0.17-0.09-0.25c0-0.13,0.06-0.24,0.18-0.32l3.91-3.02
						c0.13-0.08,0.29-0.13,0.47-0.13h0.85c0.12,0,0.22,0.04,0.3,0.12c0.08,0.08,0.12,0.18,0.12,0.3v11.77c0,0.12-0.04,0.22-0.12,0.3
						c-0.08,0.08-0.18,0.12-0.3,0.12h-0.88C250.97,67.65,250.88,67.61,250.81,67.53z"/>
					<path class="st2" d="M256.07,66.47c-0.71-0.91-1.09-2.09-1.14-3.56l-0.02-1.55l0.02-1.6c0.04-1.45,0.42-2.63,1.14-3.54
						c0.73-0.91,1.86-1.36,3.39-1.36c1.55,0,2.68,0.45,3.41,1.36c0.73,0.91,1.11,2.08,1.14,3.54c0.01,0.34,0.02,0.87,0.02,1.6
						c0,0.71-0.01,1.22-0.02,1.55c-0.05,1.46-0.43,2.65-1.14,3.56s-1.85,1.36-3.41,1.36C257.92,67.83,256.78,67.38,256.07,66.47z
						 M261.55,65.42c0.47-0.61,0.71-1.48,0.74-2.59c0.01-0.35,0.02-0.85,0.02-1.49c0-0.66-0.01-1.15-0.02-1.48
						c-0.02-1.1-0.27-1.96-0.75-2.58c-0.47-0.62-1.17-0.93-2.08-0.93c-0.91,0-1.6,0.31-2.07,0.93s-0.71,1.48-0.74,2.58l-0.02,1.48
						l0.02,1.49c0.02,1.12,0.27,1.98,0.74,2.59c0.47,0.61,1.16,0.92,2.07,0.92C260.39,66.34,261.08,66.03,261.55,65.42z"/>
					<path class="st2" d="M271.69,66.74c-0.72-0.73-1.1-1.74-1.13-3.05l-0.02-0.72l0.02-0.72c0.04-1.31,0.41-2.32,1.13-3.05
						c0.72-0.73,1.72-1.09,3.01-1.09c0.86,0,1.59,0.15,2.19,0.46c0.59,0.31,1.04,0.69,1.33,1.14c0.29,0.46,0.45,0.91,0.48,1.37
						c0.01,0.11-0.03,0.2-0.12,0.29c-0.09,0.08-0.19,0.13-0.3,0.13h-0.79c-0.12,0-0.21-0.03-0.27-0.08
						c-0.06-0.05-0.12-0.15-0.18-0.3c-0.22-0.59-0.51-1-0.89-1.25s-0.85-0.37-1.43-0.37c-0.76,0-1.36,0.23-1.8,0.7
						c-0.44,0.47-0.68,1.18-0.72,2.14l-0.02,0.63l0.02,0.63c0.04,0.96,0.28,1.67,0.72,2.14c0.44,0.47,1.04,0.7,1.8,0.7
						c0.59,0,1.07-0.12,1.44-0.37s0.67-0.66,0.88-1.25c0.06-0.14,0.12-0.24,0.18-0.3c0.06-0.05,0.15-0.08,0.27-0.08h0.79
						c0.11,0,0.21,0.04,0.3,0.13c0.09,0.08,0.13,0.18,0.12,0.29c-0.02,0.44-0.18,0.89-0.48,1.35c-0.29,0.46-0.74,0.84-1.33,1.15
						c-0.59,0.31-1.32,0.47-2.19,0.47C273.41,67.83,272.4,67.47,271.69,66.74z"/>
					<path class="st2" d="M280.96,67.53c-0.08-0.08-0.12-0.18-0.12-0.3V58.7c0-0.12,0.04-0.22,0.12-0.3s0.18-0.12,0.3-0.12h0.76
						c0.12,0,0.22,0.04,0.29,0.12c0.07,0.08,0.11,0.18,0.11,0.3v0.61c0.65-0.8,1.52-1.21,2.63-1.21c1.32,0,2.26,0.55,2.81,1.66
						c0.29-0.5,0.7-0.91,1.23-1.21s1.13-0.45,1.79-0.45c0.98,0,1.79,0.34,2.41,1.01c0.62,0.67,0.94,1.64,0.94,2.92v5.2
						c0,0.12-0.04,0.22-0.12,0.3c-0.08,0.08-0.18,0.12-0.3,0.12h-0.77c-0.12,0-0.22-0.04-0.3-0.12s-0.12-0.18-0.12-0.3V62.2
						c0-0.96-0.2-1.65-0.59-2.06c-0.4-0.41-0.92-0.62-1.57-0.62c-0.58,0-1.07,0.21-1.49,0.64c-0.41,0.43-0.62,1.11-0.62,2.04v5.04
						c0,0.12-0.04,0.22-0.12,0.3s-0.18,0.12-0.3,0.12h-0.79c-0.12,0-0.22-0.04-0.3-0.12s-0.12-0.18-0.12-0.3V62.2
						c0-0.95-0.21-1.63-0.62-2.05s-0.93-0.63-1.54-0.63c-0.58,0-1.07,0.21-1.49,0.63s-0.62,1.1-0.62,2.03v5.06
						c0,0.12-0.04,0.22-0.12,0.3s-0.18,0.12-0.3,0.12h-0.79C281.14,67.65,281.04,67.61,280.96,67.53z"/>
				</g>
			</g>
		</g>
		<g>
			<g id="POLYLINE_20_">
				<polyline class="st1" points="374.54,56.07 368.81,61.79 374.54,67.52 				"/>
			</g>
			<g id="POLYLINE_19_">
				<line class="st1" x1="368.81" y1="61.79" x2="514" y2="61.79"/>
			</g>
			<g id="POLYLINE_18_">
				<line class="st1" x1="625" y1="61.79" x2="796.19" y2="61.79"/>
			</g>
			<g id="POLYLINE_7_">
				<polyline class="st1" points="790.45,56.08 796.18,61.8 790.45,67.53 				"/>
			</g>
			<g id="MTEXT_47_">
				<g>
					<path class="st2" d="M526.58,67.25c-0.7-0.39-1.24-0.92-1.6-1.58c-0.37-0.66-0.55-1.38-0.55-2.16c0-1.03,0.41-2.14,1.24-3.31
						l3.44-4.79c0.01-0.01,0.04-0.05,0.1-0.13c0.05-0.07,0.12-0.13,0.21-0.17s0.18-0.06,0.29-0.06h0.88c0.11,0,0.19,0.04,0.26,0.12
						c0.07,0.08,0.1,0.17,0.1,0.28c0,0.06-0.03,0.14-0.09,0.23l-2.63,3.67c0.31-0.07,0.66-0.11,1.04-0.11c0.88,0,1.65,0.2,2.31,0.58
						c0.67,0.39,1.18,0.91,1.55,1.55c0.37,0.64,0.55,1.35,0.55,2.12c0,0.77-0.18,1.49-0.55,2.15c-0.37,0.67-0.9,1.2-1.59,1.59
						c-0.7,0.4-1.52,0.59-2.46,0.59C528.12,67.83,527.29,67.64,526.58,67.25z M530.52,66.01c0.44-0.22,0.8-0.54,1.06-0.96
						c0.26-0.43,0.39-0.94,0.39-1.54c0-0.59-0.13-1.1-0.4-1.52s-0.63-0.75-1.07-0.97c-0.45-0.22-0.93-0.33-1.44-0.33
						s-1,0.11-1.44,0.33s-0.8,0.55-1.06,0.97s-0.39,0.93-0.39,1.52c0,0.6,0.13,1.11,0.39,1.54s0.62,0.75,1.06,0.96
						s0.92,0.32,1.44,0.32C529.59,66.34,530.07,66.23,530.52,66.01z"/>
					<path class="st2" d="M535.69,67.53c-0.08-0.08-0.12-0.18-0.12-0.3v-1.24c0-0.12,0.04-0.22,0.12-0.31s0.18-0.13,0.3-0.13h1.24
						c0.12,0,0.22,0.04,0.3,0.13s0.12,0.19,0.12,0.31v1.24c0,0.12-0.04,0.22-0.12,0.3s-0.18,0.12-0.3,0.12h-1.24
						C535.87,67.65,535.77,67.61,535.69,67.53z"/>
					<path class="st2" d="M540.75,67.53c-0.07-0.08-0.1-0.17-0.1-0.28l0.04-0.16l4.5-10.53h-5.94c-0.12,0-0.22-0.04-0.3-0.12
						s-0.12-0.18-0.12-0.3v-0.67c0-0.13,0.04-0.24,0.11-0.32c0.07-0.08,0.17-0.12,0.3-0.12h7.35c0.13,0,0.23,0.04,0.3,0.12
						c0.07,0.08,0.11,0.18,0.11,0.32v0.61c0,0.22-0.05,0.45-0.14,0.7l-4.45,10.4c-0.06,0.13-0.12,0.24-0.2,0.32
						s-0.17,0.13-0.31,0.13h-0.9C540.9,67.65,540.82,67.61,540.75,67.53z"/>
					<path class="st2" d="M548.58,58.18c-0.05-0.07-0.07-0.16-0.04-0.27l0.4-2.52c0.05-0.35,0.21-0.52,0.5-0.52h1.15
						c0.08,0,0.15,0.03,0.21,0.09c0.05,0.06,0.08,0.13,0.08,0.22c0,0.12-0.02,0.22-0.05,0.29l-0.94,2.43
						c-0.06,0.13-0.13,0.23-0.2,0.3c-0.07,0.07-0.18,0.1-0.32,0.1h-0.56C548.71,58.29,548.63,58.25,548.58,58.18z M551.41,58.18
						c-0.05-0.07-0.07-0.16-0.04-0.27l0.39-2.52c0.05-0.35,0.22-0.52,0.5-0.52h1.15c0.08,0,0.15,0.03,0.21,0.09
						c0.05,0.06,0.08,0.13,0.08,0.22c0,0.12-0.02,0.22-0.05,0.29l-0.94,2.43c-0.06,0.13-0.13,0.23-0.2,0.3
						c-0.07,0.07-0.18,0.1-0.32,0.1h-0.56C551.54,58.29,551.46,58.25,551.41,58.18z"/>
					<path class="st2" d="M560.29,71.28c-0.07-0.08-0.11-0.18-0.11-0.3V51.94c0-0.12,0.04-0.22,0.11-0.3s0.17-0.12,0.29-0.12h0.67
						c0.12,0,0.22,0.04,0.3,0.12s0.12,0.18,0.12,0.3v19.04c0,0.12-0.04,0.22-0.12,0.3s-0.18,0.12-0.3,0.12h-0.67
						C560.46,71.39,560.36,71.36,560.29,71.28z"/>
					<path class="st2" d="M572.1,67.53c-0.07-0.08-0.11-0.18-0.11-0.3V57.08l-3.02,2.32c-0.08,0.07-0.17,0.11-0.27,0.11
						c-0.11,0-0.21-0.06-0.31-0.18l-0.43-0.56c-0.06-0.08-0.09-0.17-0.09-0.25c0-0.13,0.06-0.24,0.18-0.32l3.91-3.02
						c0.13-0.08,0.29-0.13,0.47-0.13h0.85c0.12,0,0.22,0.04,0.3,0.12c0.08,0.08,0.12,0.18,0.12,0.3v11.77c0,0.12-0.04,0.22-0.12,0.3
						c-0.08,0.08-0.18,0.12-0.3,0.12h-0.88C572.26,67.65,572.17,67.61,572.1,67.53z"/>
					<path class="st2" d="M577.51,67.53c-0.07-0.08-0.1-0.17-0.1-0.28l0.04-0.16l4.5-10.53H576c-0.12,0-0.22-0.04-0.3-0.12
						s-0.12-0.18-0.12-0.3v-0.67c0-0.13,0.04-0.24,0.11-0.32c0.07-0.08,0.17-0.12,0.31-0.12h7.34c0.13,0,0.23,0.04,0.31,0.12
						c0.07,0.08,0.11,0.18,0.11,0.32v0.61c0,0.22-0.05,0.45-0.14,0.7l-4.45,10.4c-0.06,0.13-0.13,0.24-0.2,0.32
						c-0.07,0.08-0.18,0.13-0.31,0.13h-0.9C577.66,67.65,577.57,67.61,577.51,67.53z"/>
					<path class="st2" d="M590.76,66.74c-0.72-0.73-1.1-1.74-1.13-3.05l-0.02-0.72l0.02-0.72c0.04-1.31,0.41-2.32,1.13-3.05
						c0.72-0.73,1.72-1.09,3.01-1.09c0.86,0,1.59,0.15,2.19,0.46c0.59,0.31,1.04,0.69,1.33,1.14c0.29,0.46,0.45,0.91,0.48,1.37
						c0.01,0.11-0.03,0.2-0.12,0.29s-0.19,0.13-0.3,0.13h-0.79c-0.12,0-0.21-0.03-0.27-0.08c-0.06-0.05-0.12-0.15-0.18-0.3
						c-0.22-0.59-0.51-1-0.89-1.25c-0.38-0.25-0.86-0.37-1.43-0.37c-0.76,0-1.36,0.23-1.8,0.7c-0.44,0.47-0.68,1.18-0.72,2.14
						l-0.02,0.63l0.02,0.63c0.04,0.96,0.28,1.67,0.72,2.14c0.45,0.47,1.04,0.7,1.8,0.7c0.59,0,1.07-0.12,1.44-0.37
						c0.37-0.25,0.67-0.66,0.88-1.25c0.06-0.14,0.12-0.24,0.18-0.3s0.15-0.08,0.27-0.08h0.79c0.11,0,0.21,0.04,0.3,0.13
						s0.13,0.18,0.12,0.29c-0.03,0.44-0.18,0.89-0.48,1.35c-0.29,0.46-0.74,0.84-1.33,1.15c-0.6,0.31-1.32,0.47-2.19,0.47
						C592.48,67.83,591.48,67.47,590.76,66.74z"/>
					<path class="st2" d="M600.04,67.53c-0.08-0.08-0.12-0.18-0.12-0.3V58.7c0-0.12,0.04-0.22,0.12-0.3s0.18-0.12,0.3-0.12h0.76
						c0.12,0,0.22,0.04,0.29,0.12c0.07,0.08,0.11,0.18,0.11,0.3v0.61c0.65-0.8,1.52-1.21,2.63-1.21c1.32,0,2.26,0.55,2.81,1.66
						c0.29-0.5,0.7-0.91,1.23-1.21c0.54-0.3,1.13-0.45,1.79-0.45c0.98,0,1.79,0.34,2.41,1.01c0.62,0.67,0.94,1.64,0.94,2.92v5.2
						c0,0.12-0.04,0.22-0.12,0.3c-0.08,0.08-0.18,0.12-0.3,0.12h-0.77c-0.12,0-0.22-0.04-0.3-0.12s-0.12-0.18-0.12-0.3V62.2
						c0-0.96-0.2-1.65-0.59-2.06s-0.92-0.62-1.57-0.62c-0.58,0-1.07,0.21-1.48,0.64s-0.62,1.11-0.62,2.04v5.04
						c0,0.12-0.04,0.22-0.12,0.3s-0.18,0.12-0.3,0.12h-0.79c-0.12,0-0.22-0.04-0.3-0.12s-0.12-0.18-0.12-0.3V62.2
						c0-0.95-0.21-1.63-0.62-2.05s-0.93-0.63-1.54-0.63c-0.58,0-1.07,0.21-1.49,0.63s-0.62,1.1-0.62,2.03v5.06
						c0,0.12-0.04,0.22-0.12,0.3s-0.18,0.12-0.3,0.12h-0.79C600.22,67.65,600.12,67.61,600.04,67.53z"/>
				</g>
			</g>
		</g>
		<g>
			<g id="POLYLINE_32_">
				<polyline class="st1" points="825.48,93.05 819.76,87.33 814.03,93.05 				"/>
			</g>
			<g id="POLYLINE_31_">
				<line class="st1" x1="819.76" y1="87.33" x2="819.76" y2="117"/>
			</g>
			<g id="POLYLINE_24_">
				<line class="st1" x1="819.76" y1="168" x2="819.76" y2="526.93"/>
			</g>
			<g id="POLYLINE_23_">
				<polyline class="st1" points="825.47,521.19 819.75,526.92 814.02,521.19 				"/>
			</g>
			<g id="MTEXT_31_" class="st3">
				<g>
					<path class="st2" d="M817.38,138.48c-0.66-0.32-1.16-0.75-1.51-1.27c-0.35-0.52-0.54-1.08-0.56-1.68v-0.04
						c0-0.1,0.04-0.17,0.11-0.23c0.07-0.06,0.16-0.09,0.25-0.09h0.88c0.25,0,0.41,0.13,0.49,0.4c0.18,0.65,0.51,1.13,1,1.45
						c0.49,0.32,1.05,0.48,1.68,0.48c0.82,0,1.49-0.25,2.04-0.75c0.54-0.5,0.81-1.18,0.81-2.06c0-0.8-0.27-1.44-0.81-1.92
						c-0.54-0.47-1.22-0.71-2.04-0.71c-0.43,0-0.78,0.05-1.04,0.16c-0.27,0.11-0.54,0.26-0.81,0.47c-0.16,0.12-0.29,0.21-0.39,0.26
						c-0.1,0.05-0.21,0.08-0.33,0.08h-0.86c-0.11,0-0.21-0.04-0.29-0.12s-0.12-0.17-0.11-0.28l0.56-5.99
						c0.04-0.3,0.19-0.45,0.45-0.45h6.23c0.13,0,0.23,0.04,0.31,0.11c0.07,0.07,0.11,0.17,0.11,0.31v0.67
						c0,0.12-0.04,0.22-0.12,0.29c-0.08,0.07-0.18,0.11-0.3,0.11h-5.18l-0.32,3.62c0.58-0.41,1.35-0.61,2.32-0.61
						c0.8,0,1.54,0.16,2.2,0.48c0.66,0.32,1.19,0.78,1.57,1.39c0.39,0.61,0.59,1.34,0.59,2.18c0,0.89-0.2,1.65-0.59,2.29
						c-0.39,0.64-0.93,1.13-1.62,1.46c-0.69,0.33-1.48,0.5-2.37,0.5C818.82,138.97,818.04,138.81,817.38,138.48z"/>
					<path class="st2" d="M826.31,138.67c-0.08-0.08-0.12-0.18-0.12-0.3v-1.24c0-0.12,0.04-0.22,0.12-0.31s0.18-0.13,0.3-0.13h1.24
						c0.12,0,0.22,0.04,0.3,0.13s0.12,0.19,0.12,0.31v1.24c0,0.12-0.04,0.22-0.12,0.3s-0.18,0.12-0.3,0.12h-1.24
						C826.49,138.79,826.39,138.75,826.31,138.67z"/>
					<path class="st2" d="M831.89,138.67c-0.07-0.08-0.1-0.17-0.1-0.28c0-0.08,0.03-0.16,0.07-0.23l2.77-3.85
						c-0.29,0.07-0.62,0.11-1.01,0.11c-0.86-0.01-1.62-0.21-2.27-0.6c-0.65-0.39-1.14-0.9-1.48-1.53s-0.51-1.3-0.51-2.03
						c0-0.72,0.17-1.4,0.51-2.05s0.85-1.18,1.53-1.58s1.5-0.61,2.46-0.61c0.96,0,1.78,0.2,2.47,0.59c0.68,0.4,1.2,0.92,1.55,1.56
						s0.52,1.33,0.52,2.06c0,0.66-0.12,1.24-0.35,1.75s-0.54,1.03-0.93,1.57l-3.49,4.9c-0.08,0.11-0.16,0.2-0.24,0.26
						c-0.08,0.07-0.19,0.1-0.33,0.1h-0.9C832.05,138.79,831.96,138.75,831.89,138.67z M835.29,132.65c0.43-0.23,0.78-0.55,1.03-0.96
						s0.38-0.89,0.38-1.43c0-0.55-0.12-1.04-0.38-1.46c-0.25-0.42-0.6-0.74-1.03-0.97s-0.91-0.34-1.42-0.34
						c-0.5,0-0.97,0.11-1.39,0.34s-0.77,0.55-1.02,0.97c-0.25,0.42-0.38,0.91-0.38,1.46c0,0.54,0.12,1.02,0.38,1.43
						s0.59,0.73,1.01,0.96c0.42,0.23,0.89,0.34,1.4,0.34S834.86,132.88,835.29,132.65z"/>
					<path class="st2" d="M840.39,129.32c-0.05-0.07-0.07-0.16-0.04-0.27l0.4-2.52c0.05-0.35,0.21-0.52,0.5-0.52h1.15
						c0.08,0,0.15,0.03,0.21,0.09c0.05,0.06,0.08,0.13,0.08,0.22c0,0.12-0.02,0.22-0.05,0.29l-0.94,2.43
						c-0.06,0.13-0.13,0.23-0.2,0.3c-0.07,0.07-0.18,0.1-0.32,0.1h-0.56C840.52,129.43,840.44,129.39,840.39,129.32z M843.22,129.32
						c-0.05-0.07-0.07-0.16-0.04-0.27l0.39-2.52c0.05-0.35,0.22-0.52,0.5-0.52h1.15c0.08,0,0.15,0.03,0.21,0.09
						c0.05,0.06,0.08,0.13,0.08,0.22c0,0.12-0.02,0.22-0.05,0.29l-0.94,2.43c-0.06,0.13-0.13,0.23-0.2,0.3
						c-0.07,0.07-0.18,0.1-0.32,0.1h-0.56C843.35,129.43,843.27,129.39,843.22,129.32z"/>
					<path class="st2" d="M819.16,158.27c-0.07-0.08-0.11-0.18-0.11-0.3v-10.15l-3.02,2.32c-0.08,0.07-0.17,0.11-0.27,0.11
						c-0.11,0-0.21-0.06-0.31-0.18l-0.43-0.56c-0.06-0.08-0.09-0.17-0.09-0.25c0-0.13,0.06-0.24,0.18-0.32l3.91-3.02
						c0.13-0.08,0.29-0.13,0.47-0.13h0.85c0.12,0,0.22,0.04,0.3,0.12c0.08,0.08,0.12,0.18,0.12,0.3v11.77c0,0.12-0.04,0.22-0.12,0.3
						c-0.08,0.08-0.18,0.12-0.3,0.12h-0.88C819.33,158.39,819.23,158.35,819.16,158.27z"/>
					<path class="st2" d="M825.03,158.08c-0.66-0.32-1.16-0.75-1.51-1.27c-0.35-0.52-0.53-1.08-0.56-1.68v-0.04
						c0-0.1,0.04-0.17,0.11-0.23c0.07-0.06,0.16-0.09,0.25-0.09h0.88c0.25,0,0.41,0.13,0.48,0.4c0.18,0.65,0.51,1.13,1,1.45
						c0.49,0.32,1.05,0.48,1.68,0.48c0.81,0,1.49-0.25,2.03-0.75s0.81-1.18,0.81-2.06c0-0.8-0.27-1.44-0.81-1.92
						c-0.54-0.47-1.22-0.71-2.03-0.71c-0.43,0-0.78,0.05-1.04,0.16c-0.26,0.11-0.53,0.26-0.81,0.47c-0.16,0.12-0.29,0.21-0.39,0.26
						s-0.21,0.08-0.33,0.08h-0.87c-0.11,0-0.2-0.04-0.29-0.12s-0.12-0.17-0.11-0.28l0.56-5.99c0.04-0.3,0.19-0.45,0.45-0.45h6.23
						c0.13,0,0.23,0.04,0.31,0.11s0.11,0.17,0.11,0.31v0.67c0,0.12-0.04,0.22-0.12,0.29c-0.08,0.07-0.18,0.11-0.3,0.11h-5.18
						l-0.32,3.62c0.58-0.41,1.35-0.61,2.32-0.61c0.8,0,1.54,0.16,2.2,0.48c0.66,0.32,1.18,0.78,1.57,1.39s0.58,1.34,0.58,2.18
						c0,0.89-0.19,1.65-0.58,2.29c-0.39,0.64-0.93,1.13-1.62,1.46c-0.69,0.33-1.48,0.5-2.37,0.5
						C826.47,158.57,825.69,158.41,825.03,158.08z"/>
					<path class="st2" d="M839.3,157.48c-0.72-0.73-1.1-1.74-1.13-3.05l-0.02-0.72l0.02-0.72c0.04-1.31,0.41-2.32,1.13-3.05
						c0.72-0.73,1.72-1.09,3.01-1.09c0.86,0,1.59,0.15,2.19,0.46c0.59,0.31,1.04,0.69,1.33,1.14c0.29,0.46,0.45,0.91,0.48,1.37
						c0.01,0.11-0.03,0.2-0.12,0.29s-0.19,0.13-0.3,0.13h-0.79c-0.12,0-0.21-0.03-0.27-0.08c-0.06-0.05-0.12-0.15-0.18-0.3
						c-0.22-0.59-0.51-1-0.89-1.25c-0.38-0.25-0.86-0.37-1.43-0.37c-0.76,0-1.36,0.23-1.8,0.7c-0.44,0.47-0.68,1.18-0.72,2.14
						l-0.02,0.63l0.02,0.63c0.04,0.96,0.28,1.67,0.72,2.14c0.45,0.47,1.04,0.7,1.8,0.7c0.59,0,1.07-0.12,1.44-0.37
						c0.37-0.25,0.67-0.66,0.88-1.25c0.06-0.14,0.12-0.24,0.18-0.3s0.15-0.08,0.27-0.08h0.79c0.11,0,0.21,0.04,0.3,0.13
						s0.13,0.18,0.12,0.29c-0.03,0.44-0.18,0.89-0.48,1.35c-0.29,0.46-0.74,0.84-1.33,1.15c-0.6,0.31-1.32,0.47-2.19,0.47
						C841.02,158.57,840.02,158.21,839.3,157.48z"/>
					<path class="st2" d="M848.58,158.27c-0.08-0.08-0.12-0.18-0.12-0.3v-8.53c0-0.12,0.04-0.22,0.12-0.3s0.18-0.12,0.3-0.12h0.76
						c0.12,0,0.22,0.04,0.29,0.12s0.11,0.18,0.11,0.3v0.61c0.65-0.8,1.52-1.21,2.63-1.21c1.32,0,2.26,0.55,2.81,1.66
						c0.29-0.5,0.7-0.91,1.23-1.21c0.53-0.3,1.13-0.45,1.79-0.45c0.98,0,1.79,0.34,2.41,1.01c0.62,0.67,0.94,1.64,0.94,2.92v5.2
						c0,0.12-0.04,0.22-0.12,0.3s-0.18,0.12-0.3,0.12h-0.77c-0.12,0-0.22-0.04-0.3-0.12s-0.12-0.18-0.12-0.3v-5.04
						c0-0.96-0.2-1.65-0.59-2.06c-0.4-0.41-0.92-0.62-1.57-0.62c-0.58,0-1.07,0.21-1.49,0.64c-0.41,0.43-0.62,1.11-0.62,2.04v5.04
						c0,0.12-0.04,0.22-0.12,0.3s-0.18,0.12-0.3,0.12h-0.79c-0.12,0-0.22-0.04-0.3-0.12s-0.12-0.18-0.12-0.3v-5.04
						c0-0.95-0.21-1.63-0.62-2.05s-0.93-0.63-1.54-0.63c-0.58,0-1.07,0.21-1.48,0.63s-0.62,1.1-0.62,2.03v5.06
						c0,0.12-0.04,0.22-0.12,0.3s-0.18,0.12-0.3,0.12h-0.79C848.76,158.39,848.66,158.35,848.58,158.27z"/>
				</g>
			</g>
		</g>
		<g>
			<g id="MTEXT_30_" class="st3">
				<g>
					<path class="st2" d="M842.97,590.66c-0.09-0.09-0.13-0.2-0.13-0.33v-1.38c0-0.13,0.04-0.25,0.13-0.34
						c0.09-0.09,0.2-0.14,0.33-0.14h1.38c0.13,0,0.24,0.05,0.33,0.14c0.09,0.09,0.13,0.21,0.13,0.34v1.38
						c0,0.13-0.04,0.24-0.13,0.33c-0.09,0.09-0.2,0.13-0.33,0.13h-1.38C843.17,590.79,843.05,590.75,842.97,590.66z"/>
					<path class="st2" d="M849.61,590.34c-0.78-0.43-1.38-1.02-1.78-1.75s-0.61-1.53-0.61-2.4c0-1.15,0.46-2.37,1.38-3.68l3.82-5.32
						c0.01-0.01,0.05-0.06,0.11-0.14c0.06-0.08,0.14-0.14,0.23-0.19c0.09-0.05,0.2-0.07,0.32-0.07h0.98c0.12,0,0.22,0.04,0.29,0.13
						c0.07,0.09,0.11,0.19,0.11,0.31c0,0.07-0.03,0.15-0.1,0.26l-2.92,4.08c0.35-0.08,0.73-0.12,1.16-0.12
						c0.97,0,1.83,0.22,2.57,0.65c0.74,0.43,1.31,1.01,1.72,1.72c0.41,0.71,0.61,1.5,0.61,2.35c0,0.85-0.2,1.65-0.61,2.39
						c-0.41,0.74-1,1.33-1.77,1.77s-1.69,0.66-2.74,0.66C851.31,590.99,850.39,590.77,849.61,590.34z M853.98,588.97
						c0.49-0.24,0.89-0.6,1.18-1.07c0.29-0.47,0.44-1.04,0.44-1.71c0-0.65-0.15-1.22-0.45-1.69c-0.3-0.47-0.7-0.83-1.19-1.08
						c-0.49-0.25-1.03-0.37-1.6-0.37c-0.57,0-1.11,0.12-1.6,0.37c-0.49,0.25-0.89,0.61-1.18,1.08c-0.29,0.47-0.44,1.04-0.44,1.69
						c0,0.67,0.15,1.24,0.44,1.71c0.29,0.47,0.69,0.83,1.18,1.07c0.49,0.24,1.03,0.36,1.6,0.36
						C852.95,589.33,853.48,589.21,853.98,588.97z"/>
					<path class="st2" d="M859.35,590.66c-0.09-0.09-0.13-0.2-0.13-0.33v-0.6c0-0.31,0.17-0.6,0.5-0.88l4.36-4.34
						c0.99-0.84,1.67-1.53,2.04-2.06s0.56-1.1,0.56-1.7c0-0.79-0.22-1.4-0.66-1.85c-0.44-0.45-1.08-0.67-1.92-0.67
						c-0.8,0-1.43,0.23-1.9,0.7c-0.47,0.47-0.75,1.09-0.86,1.88c-0.03,0.15-0.09,0.26-0.2,0.34s-0.21,0.12-0.32,0.12h-0.96
						c-0.12,0-0.22-0.04-0.3-0.12s-0.12-0.17-0.12-0.28c0.03-0.71,0.22-1.39,0.57-2.05c0.35-0.66,0.88-1.2,1.57-1.62
						s1.53-0.63,2.52-0.63c1.49,0,2.62,0.39,3.37,1.17s1.13,1.77,1.13,2.97c0,0.84-0.21,1.6-0.61,2.27
						c-0.41,0.67-1.04,1.38-1.91,2.13l-3.94,4h6.3c0.15,0,0.26,0.04,0.34,0.12c0.08,0.08,0.12,0.19,0.12,0.34v0.76
						c0,0.13-0.04,0.24-0.13,0.33c-0.09,0.09-0.2,0.13-0.33,0.13h-8.76C859.54,590.79,859.44,590.75,859.35,590.66z"/>
					<path class="st2" d="M873.14,590.45c-0.73-0.36-1.29-0.83-1.68-1.41s-0.59-1.2-0.62-1.87v-0.04c0-0.11,0.04-0.19,0.12-0.26
						s0.17-0.1,0.28-0.1h0.98c0.28,0,0.46,0.15,0.54,0.44c0.2,0.72,0.57,1.26,1.11,1.61c0.54,0.35,1.16,0.53,1.87,0.53
						c0.91,0,1.66-0.28,2.26-0.83c0.6-0.55,0.9-1.32,0.9-2.29c0-0.89-0.3-1.6-0.9-2.13c-0.6-0.53-1.35-0.79-2.26-0.79
						c-0.48,0-0.87,0.06-1.16,0.18s-0.59,0.29-0.9,0.52c-0.17,0.13-0.32,0.23-0.43,0.29c-0.11,0.06-0.24,0.09-0.37,0.09h-0.96
						c-0.12,0-0.23-0.04-0.32-0.13c-0.09-0.09-0.13-0.19-0.12-0.31l0.62-6.66c0.04-0.33,0.21-0.5,0.5-0.5h6.92
						c0.15,0,0.26,0.04,0.34,0.12c0.08,0.08,0.12,0.19,0.12,0.34v0.74c0,0.13-0.04,0.24-0.13,0.32c-0.09,0.08-0.2,0.12-0.33,0.12
						h-5.76l-0.36,4.02c0.64-0.45,1.5-0.68,2.58-0.68c0.89,0,1.71,0.18,2.44,0.53c0.73,0.35,1.32,0.87,1.75,1.55
						c0.43,0.68,0.65,1.49,0.65,2.42c0,0.99-0.22,1.84-0.65,2.55c-0.43,0.71-1.03,1.25-1.8,1.62c-0.77,0.37-1.64,0.55-2.63,0.55
						C874.74,590.99,873.87,590.81,873.14,590.45z"/>
					<path class="st2" d="M882.97,580.27c-0.06-0.08-0.08-0.18-0.05-0.3l0.44-2.8c0.05-0.39,0.24-0.58,0.56-0.58h1.28
						c0.09,0,0.17,0.03,0.23,0.1c0.06,0.07,0.09,0.15,0.09,0.24c0,0.13-0.02,0.24-0.06,0.32l-1.04,2.7
						c-0.07,0.15-0.14,0.26-0.22,0.33s-0.2,0.11-0.36,0.11h-0.62C883.11,580.39,883.03,580.35,882.97,580.27z M886.11,580.27
						c-0.06-0.08-0.08-0.18-0.05-0.3l0.44-2.8c0.05-0.39,0.24-0.58,0.56-0.58h1.28c0.09,0,0.17,0.03,0.23,0.1
						c0.06,0.07,0.09,0.15,0.09,0.24c0,0.13-0.02,0.24-0.06,0.32l-1.04,2.7c-0.07,0.15-0.14,0.26-0.22,0.33s-0.2,0.11-0.36,0.11
						h-0.62C886.25,580.39,886.17,580.35,886.11,580.27z"/>
					<path class="st2" d="M846.68,612.46c-0.08-0.09-0.12-0.2-0.12-0.33v-11.28l-3.36,2.58c-0.09,0.08-0.19,0.12-0.3,0.12
						c-0.12,0-0.23-0.07-0.34-0.2l-0.48-0.62c-0.07-0.09-0.1-0.19-0.1-0.28c0-0.15,0.07-0.27,0.2-0.36l4.34-3.36
						c0.15-0.09,0.32-0.14,0.52-0.14h0.94c0.13,0,0.24,0.04,0.33,0.13c0.09,0.09,0.13,0.2,0.13,0.33v13.08
						c0,0.13-0.04,0.24-0.13,0.33c-0.09,0.09-0.2,0.13-0.33,0.13H847C846.87,612.59,846.76,612.55,846.68,612.46z"/>
					<path class="st2" d="M853.2,612.25c-0.73-0.36-1.29-0.83-1.68-1.41s-0.59-1.2-0.62-1.87v-0.04c0-0.11,0.04-0.19,0.12-0.26
						s0.17-0.1,0.28-0.1h0.98c0.28,0,0.46,0.15,0.54,0.44c0.2,0.72,0.57,1.26,1.11,1.61c0.54,0.35,1.16,0.53,1.87,0.53
						c0.91,0,1.66-0.28,2.26-0.83c0.6-0.55,0.9-1.32,0.9-2.29c0-0.89-0.3-1.6-0.9-2.13c-0.6-0.53-1.35-0.79-2.26-0.79
						c-0.48,0-0.87,0.06-1.16,0.18s-0.59,0.29-0.9,0.52c-0.17,0.13-0.32,0.23-0.43,0.29c-0.11,0.06-0.24,0.09-0.37,0.09h-0.96
						c-0.12,0-0.23-0.04-0.32-0.13c-0.09-0.09-0.13-0.19-0.12-0.31l0.62-6.66c0.04-0.33,0.21-0.5,0.5-0.5h6.92
						c0.15,0,0.26,0.04,0.34,0.12c0.08,0.08,0.12,0.19,0.12,0.34v0.74c0,0.13-0.04,0.24-0.13,0.32c-0.09,0.08-0.2,0.12-0.33,0.12
						h-5.76l-0.36,4.02c0.64-0.45,1.5-0.68,2.58-0.68c0.89,0,1.71,0.18,2.44,0.53c0.73,0.35,1.32,0.87,1.75,1.55
						c0.43,0.68,0.65,1.49,0.65,2.42c0,0.99-0.22,1.84-0.65,2.55c-0.43,0.71-1.03,1.25-1.8,1.62c-0.77,0.37-1.64,0.55-2.63,0.55
						C854.8,612.79,853.93,612.61,853.2,612.25z"/>
					<path class="st2" d="M863.13,612.46c-0.09-0.09-0.13-0.2-0.13-0.33v-1.38c0-0.13,0.04-0.25,0.13-0.34
						c0.09-0.09,0.2-0.14,0.33-0.14h1.38c0.13,0,0.24,0.05,0.33,0.14c0.09,0.09,0.13,0.21,0.13,0.34v1.38
						c0,0.13-0.04,0.24-0.13,0.33c-0.09,0.09-0.2,0.13-0.33,0.13h-1.38C863.33,612.59,863.21,612.55,863.13,612.46z"/>
					<path class="st2" d="M869.33,612.46c-0.07-0.09-0.11-0.19-0.11-0.31c0-0.09,0.03-0.18,0.08-0.26l3.08-4.28
						c-0.32,0.08-0.69,0.12-1.12,0.12c-0.96-0.01-1.8-0.24-2.52-0.67c-0.72-0.43-1.27-1-1.65-1.7c-0.38-0.7-0.57-1.45-0.57-2.25
						c0-0.8,0.19-1.56,0.57-2.28c0.38-0.72,0.95-1.31,1.7-1.76c0.75-0.45,1.66-0.68,2.73-0.68c1.07,0,1.98,0.22,2.74,0.66
						c0.76,0.44,1.33,1.02,1.72,1.73c0.39,0.71,0.58,1.48,0.58,2.29c0,0.73-0.13,1.38-0.39,1.94c-0.26,0.56-0.6,1.14-1.03,1.74
						l-3.88,5.44c-0.09,0.12-0.18,0.22-0.27,0.29c-0.09,0.07-0.21,0.11-0.37,0.11h-1C869.5,612.59,869.4,612.55,869.33,612.46z
						 M873.1,605.77c0.48-0.25,0.86-0.61,1.14-1.07c0.28-0.46,0.42-0.99,0.42-1.59c0-0.61-0.14-1.15-0.42-1.62
						c-0.28-0.47-0.66-0.83-1.14-1.08c-0.48-0.25-1.01-0.38-1.58-0.38c-0.56,0-1.08,0.13-1.55,0.38c-0.47,0.25-0.85,0.61-1.13,1.08
						c-0.28,0.47-0.42,1.01-0.42,1.62c0,0.6,0.14,1.13,0.42,1.59c0.28,0.46,0.65,0.82,1.12,1.07c0.47,0.25,0.99,0.38,1.56,0.38
						C872.09,606.15,872.62,606.02,873.1,605.77z"/>
					<path class="st2" d="M884.11,612.46c-0.09-0.09-0.13-0.2-0.13-0.33v-9.48c0-0.13,0.04-0.24,0.13-0.33
						c0.09-0.09,0.2-0.13,0.33-0.13h0.84c0.13,0,0.24,0.04,0.32,0.13c0.08,0.09,0.12,0.2,0.12,0.33v0.68
						c0.72-0.89,1.69-1.34,2.92-1.34c1.47,0,2.51,0.61,3.12,1.84c0.32-0.56,0.78-1.01,1.37-1.34c0.59-0.33,1.26-0.5,1.99-0.5
						c1.09,0,1.99,0.37,2.68,1.12c0.69,0.75,1.04,1.83,1.04,3.24v5.78c0,0.13-0.04,0.24-0.13,0.33c-0.09,0.09-0.2,0.13-0.33,0.13
						h-0.86c-0.13,0-0.24-0.04-0.33-0.13c-0.09-0.09-0.13-0.2-0.13-0.33v-5.6c0-1.07-0.22-1.83-0.66-2.29s-1.02-0.69-1.74-0.69
						c-0.64,0-1.19,0.24-1.65,0.71c-0.46,0.47-0.69,1.23-0.69,2.27v5.6c0,0.13-0.04,0.24-0.13,0.33c-0.09,0.09-0.2,0.13-0.33,0.13
						h-0.88c-0.13,0-0.24-0.04-0.33-0.13c-0.09-0.09-0.13-0.2-0.13-0.33v-5.6c0-1.05-0.23-1.81-0.69-2.28
						c-0.46-0.47-1.03-0.7-1.71-0.7c-0.64,0-1.19,0.23-1.65,0.7c-0.46,0.47-0.69,1.22-0.69,2.26v5.62c0,0.13-0.04,0.24-0.13,0.33
						c-0.09,0.09-0.2,0.13-0.33,0.13h-0.88C884.3,612.59,884.2,612.55,884.11,612.46z"/>
					<path class="st2" d="M901.87,612.46c-0.09-0.09-0.13-0.2-0.13-0.33v-9.48c0-0.13,0.04-0.24,0.13-0.33
						c0.09-0.09,0.2-0.13,0.33-0.13h0.84c0.13,0,0.24,0.04,0.32,0.13c0.08,0.09,0.12,0.2,0.12,0.33v0.68
						c0.72-0.89,1.69-1.34,2.92-1.34c1.47,0,2.51,0.61,3.12,1.84c0.32-0.56,0.78-1.01,1.37-1.34c0.59-0.33,1.26-0.5,1.99-0.5
						c1.09,0,1.99,0.37,2.68,1.12c0.69,0.75,1.04,1.83,1.04,3.24v5.78c0,0.13-0.04,0.24-0.13,0.33c-0.09,0.09-0.2,0.13-0.33,0.13
						h-0.86c-0.13,0-0.24-0.04-0.33-0.13c-0.09-0.09-0.13-0.2-0.13-0.33v-5.6c0-1.07-0.22-1.83-0.66-2.29s-1.02-0.69-1.74-0.69
						c-0.64,0-1.19,0.24-1.65,0.71c-0.46,0.47-0.69,1.23-0.69,2.27v5.6c0,0.13-0.04,0.24-0.13,0.33c-0.09,0.09-0.2,0.13-0.33,0.13
						h-0.88c-0.13,0-0.24-0.04-0.33-0.13c-0.09-0.09-0.13-0.2-0.13-0.33v-5.6c0-1.05-0.23-1.81-0.69-2.28
						c-0.46-0.47-1.03-0.7-1.71-0.7c-0.64,0-1.19,0.23-1.65,0.7c-0.46,0.47-0.69,1.22-0.69,2.26v5.62c0,0.13-0.04,0.24-0.13,0.33
						c-0.09,0.09-0.2,0.13-0.33,0.13h-0.88C902.06,612.59,901.96,612.55,901.87,612.46z"/>
				</g>
			</g>
			<polyline class="st1" points="817.02,606.21 822.75,611.93 828.47,606.21 			"/>
			<line class="st1" x1="822.75" y1="611.64" x2="822.75" y2="582.33"/>
			<polyline class="st1" points="817.03,588.07 822.76,582.34 828.48,588.07 			"/>
		</g>
		<g>
			<g id="MTEXT_28_" class="st3">
				<g>
					<path class="st2" d="M41.94,545.95c-0.09-0.09-0.13-0.2-0.13-0.33v-1.38c0-0.13,0.04-0.25,0.13-0.34
						c0.09-0.09,0.2-0.14,0.33-0.14h1.38c0.13,0,0.24,0.05,0.33,0.14c0.09,0.09,0.13,0.21,0.13,0.34v1.38
						c0,0.13-0.04,0.24-0.13,0.33c-0.09,0.09-0.2,0.13-0.33,0.13h-1.38C42.14,546.08,42.03,546.04,41.94,545.95z"/>
					<path class="st2" d="M48.88,545.77c-0.79-0.34-1.41-0.83-1.85-1.47c-0.44-0.64-0.66-1.39-0.66-2.24c0-0.79,0.2-1.48,0.59-2.07
						s0.92-1.05,1.59-1.37c-0.53-0.31-0.95-0.71-1.24-1.21c-0.29-0.5-0.44-1.09-0.44-1.77c0-1.16,0.43-2.08,1.3-2.75
						c0.87-0.67,2.01-1.01,3.42-1.01s2.55,0.33,3.41,1c0.86,0.67,1.29,1.59,1.29,2.76c0,0.67-0.15,1.25-0.44,1.75
						c-0.29,0.5-0.7,0.91-1.22,1.23c0.67,0.32,1.2,0.78,1.59,1.37s0.59,1.29,0.59,2.09c0,0.85-0.22,1.6-0.66,2.23
						c-0.44,0.63-1.06,1.12-1.85,1.46c-0.79,0.34-1.7,0.51-2.71,0.51S49.67,546.11,48.88,545.77z M53.96,544
						c0.63-0.48,0.95-1.12,0.95-1.92s-0.32-1.44-0.95-1.92c-0.63-0.48-1.42-0.72-2.37-0.72c-0.96,0-1.76,0.24-2.39,0.72
						c-0.63,0.48-0.95,1.12-0.95,1.92s0.32,1.44,0.95,1.92c0.63,0.48,1.43,0.72,2.39,0.72C52.54,544.72,53.33,544.48,53.96,544z
						 M53.65,537.28c0.56-0.4,0.84-0.93,0.84-1.6c0-0.68-0.28-1.22-0.83-1.63c-0.55-0.41-1.24-0.61-2.07-0.61
						c-0.84,0-1.53,0.2-2.08,0.61c-0.55,0.41-0.82,0.95-0.82,1.63c0,0.68,0.27,1.22,0.82,1.63c0.55,0.41,1.24,0.61,2.08,0.61
						C52.4,537.89,53.09,537.68,53.65,537.28z"/>
					<path class="st2" d="M61.15,545.74c-0.73-0.36-1.29-0.83-1.68-1.41s-0.59-1.2-0.62-1.87v-0.04c0-0.11,0.04-0.19,0.12-0.26
						s0.17-0.1,0.28-0.1h0.98c0.28,0,0.46,0.15,0.54,0.44c0.2,0.72,0.57,1.26,1.11,1.61s1.16,0.53,1.87,0.53
						c0.91,0,1.66-0.28,2.26-0.83c0.6-0.55,0.9-1.32,0.9-2.29c0-0.89-0.3-1.6-0.9-2.13c-0.6-0.53-1.35-0.79-2.26-0.79
						c-0.48,0-0.87,0.06-1.16,0.18c-0.29,0.12-0.59,0.29-0.9,0.52c-0.17,0.13-0.32,0.23-0.43,0.29c-0.11,0.06-0.24,0.09-0.37,0.09
						h-0.96c-0.12,0-0.23-0.04-0.32-0.13c-0.09-0.09-0.13-0.19-0.12-0.31l0.62-6.66c0.04-0.33,0.21-0.5,0.5-0.5h6.92
						c0.15,0,0.26,0.04,0.34,0.12c0.08,0.08,0.12,0.19,0.12,0.34v0.74c0,0.13-0.04,0.24-0.13,0.32c-0.09,0.08-0.2,0.12-0.33,0.12
						h-5.76l-0.36,4.02c0.64-0.45,1.5-0.68,2.58-0.68c0.89,0,1.71,0.18,2.44,0.53c0.73,0.35,1.32,0.87,1.75,1.55
						c0.43,0.68,0.65,1.49,0.65,2.42c0,0.99-0.22,1.84-0.65,2.55c-0.43,0.71-1.03,1.25-1.8,1.62c-0.77,0.37-1.64,0.55-2.63,0.55
						C62.75,546.28,61.88,546.1,61.15,545.74z"/>
					<path class="st2" d="M70.98,535.56c-0.06-0.08-0.08-0.18-0.05-0.3l0.44-2.8c0.05-0.39,0.24-0.58,0.56-0.58h1.28
						c0.09,0,0.17,0.03,0.23,0.1c0.06,0.07,0.09,0.15,0.09,0.24c0,0.13-0.02,0.24-0.06,0.32l-1.04,2.7
						c-0.07,0.15-0.14,0.26-0.22,0.33c-0.08,0.07-0.2,0.11-0.36,0.11h-0.62C71.12,535.68,71.04,535.64,70.98,535.56z M74.12,535.56
						c-0.06-0.08-0.08-0.18-0.05-0.3l0.44-2.8c0.05-0.39,0.24-0.58,0.56-0.58h1.28c0.09,0,0.17,0.03,0.23,0.1
						c0.06,0.07,0.09,0.15,0.09,0.24c0,0.13-0.02,0.24-0.06,0.32l-1.04,2.7c-0.07,0.15-0.14,0.26-0.22,0.33s-0.2,0.11-0.36,0.11
						h-0.62C74.26,535.68,74.18,535.64,74.12,535.56z"/>
					<path class="st2" d="M77.42,540.76c-0.09-0.08-0.13-0.19-0.13-0.32v-0.72c0-0.13,0.04-0.24,0.13-0.33
						c0.09-0.09,0.2-0.13,0.33-0.13h6c0.13,0,0.24,0.04,0.33,0.13c0.09,0.09,0.13,0.2,0.13,0.33v0.72c0,0.13-0.04,0.24-0.13,0.32
						s-0.2,0.12-0.33,0.12h-6C77.62,540.88,77.51,540.84,77.42,540.76z"/>
					<path class="st2" d="M87.08,545.95c-0.09-0.09-0.13-0.2-0.13-0.33v-1.38c0-0.13,0.04-0.25,0.13-0.34
						c0.09-0.09,0.2-0.14,0.33-0.14h1.38c0.13,0,0.24,0.05,0.33,0.14c0.09,0.09,0.13,0.21,0.13,0.34v1.38
						c0,0.13-0.04,0.24-0.13,0.33c-0.09,0.09-0.2,0.13-0.33,0.13h-1.38C87.28,546.08,87.17,546.04,87.08,545.95z"/>
					<path class="st2" d="M93.28,545.95c-0.07-0.09-0.11-0.19-0.11-0.31c0-0.09,0.03-0.18,0.08-0.26l3.08-4.28
						c-0.32,0.08-0.69,0.12-1.12,0.12c-0.96-0.01-1.8-0.24-2.52-0.67c-0.72-0.43-1.27-1-1.65-1.7c-0.38-0.7-0.57-1.45-0.57-2.25
						c0-0.8,0.19-1.56,0.57-2.28c0.38-0.72,0.95-1.31,1.7-1.76s1.66-0.68,2.73-0.68c1.07,0,1.98,0.22,2.74,0.66
						c0.76,0.44,1.33,1.02,1.72,1.73c0.39,0.71,0.58,1.48,0.58,2.29c0,0.73-0.13,1.38-0.39,1.94c-0.26,0.56-0.6,1.14-1.03,1.74
						l-3.88,5.44c-0.09,0.12-0.18,0.22-0.27,0.29c-0.09,0.07-0.21,0.11-0.37,0.11h-1C93.45,546.08,93.35,546.04,93.28,545.95z
						 M97.05,539.26c0.48-0.25,0.86-0.61,1.14-1.07s0.42-0.99,0.42-1.59c0-0.61-0.14-1.15-0.42-1.62s-0.66-0.83-1.14-1.08
						c-0.48-0.25-1.01-0.38-1.58-0.38c-0.56,0-1.08,0.13-1.55,0.38c-0.47,0.25-0.85,0.61-1.13,1.08c-0.28,0.47-0.42,1.01-0.42,1.62
						c0,0.6,0.14,1.13,0.42,1.59c0.28,0.46,0.65,0.82,1.12,1.07c0.47,0.25,0.99,0.38,1.56,0.38S96.57,539.51,97.05,539.26z"/>
					<path class="st2" d="M106.71,545.95c-0.08-0.09-0.12-0.2-0.12-0.33v-11.28l-3.36,2.58c-0.09,0.08-0.19,0.12-0.3,0.12
						c-0.12,0-0.23-0.07-0.34-0.2l-0.48-0.62c-0.07-0.09-0.1-0.19-0.1-0.28c0-0.15,0.07-0.27,0.2-0.36l4.34-3.36
						c0.15-0.09,0.32-0.14,0.52-0.14h0.94c0.13,0,0.24,0.04,0.33,0.13s0.13,0.2,0.13,0.33v13.08c0,0.13-0.04,0.24-0.13,0.33
						s-0.2,0.13-0.33,0.13h-0.98C106.9,546.08,106.79,546.04,106.71,545.95z"/>
					<path class="st2" d="M111.22,535.56c-0.06-0.08-0.08-0.18-0.05-0.3l0.44-2.8c0.05-0.39,0.24-0.58,0.56-0.58h1.28
						c0.09,0,0.17,0.03,0.23,0.1c0.06,0.07,0.09,0.15,0.09,0.24c0,0.13-0.02,0.24-0.06,0.32l-1.04,2.7
						c-0.07,0.15-0.14,0.26-0.22,0.33c-0.08,0.07-0.2,0.11-0.36,0.11h-0.62C111.36,535.68,111.28,535.64,111.22,535.56z
						 M114.36,535.56c-0.06-0.08-0.08-0.18-0.05-0.3l0.44-2.8c0.05-0.39,0.24-0.58,0.56-0.58h1.28c0.09,0,0.17,0.03,0.23,0.1
						c0.06,0.07,0.09,0.15,0.09,0.24c0,0.13-0.02,0.24-0.06,0.32l-1.04,2.7c-0.07,0.15-0.14,0.26-0.22,0.33s-0.2,0.11-0.36,0.11
						h-0.62C114.5,535.68,114.42,535.64,114.36,535.56z"/>
					<path class="st2" d="M124.23,550.11c-0.08-0.09-0.12-0.2-0.12-0.33v-21.16c0-0.13,0.04-0.24,0.12-0.33s0.19-0.13,0.32-0.13
						h0.74c0.13,0,0.24,0.04,0.33,0.13s0.13,0.2,0.13,0.33v21.16c0,0.13-0.04,0.24-0.13,0.33c-0.09,0.09-0.2,0.13-0.33,0.13h-0.74
						C124.42,550.24,124.31,550.2,124.23,550.11z"/>
					<path class="st2" d="M133.26,545.95c-0.09-0.09-0.13-0.2-0.13-0.33v-0.6c0-0.31,0.17-0.6,0.5-0.88l4.36-4.34
						c0.99-0.84,1.67-1.53,2.04-2.06s0.56-1.1,0.56-1.7c0-0.79-0.22-1.4-0.66-1.85c-0.44-0.45-1.08-0.67-1.92-0.67
						c-0.8,0-1.43,0.23-1.9,0.7c-0.47,0.47-0.75,1.09-0.86,1.88c-0.03,0.15-0.09,0.26-0.2,0.34c-0.11,0.08-0.21,0.12-0.32,0.12
						h-0.96c-0.12,0-0.22-0.04-0.3-0.12s-0.12-0.17-0.12-0.28c0.03-0.71,0.22-1.39,0.57-2.05c0.35-0.66,0.88-1.2,1.57-1.62
						s1.53-0.63,2.52-0.63c1.49,0,2.62,0.39,3.37,1.17c0.75,0.78,1.13,1.77,1.13,2.97c0,0.84-0.2,1.6-0.61,2.27
						c-0.41,0.67-1.04,1.38-1.91,2.13l-3.94,4h6.3c0.15,0,0.26,0.04,0.34,0.12c0.08,0.08,0.12,0.19,0.12,0.34v0.76
						c0,0.13-0.04,0.24-0.13,0.33c-0.09,0.09-0.2,0.13-0.33,0.13h-8.76C133.46,546.08,133.34,546.04,133.26,545.95z"/>
					<path class="st2" d="M149.03,545.95c-0.08-0.09-0.12-0.2-0.12-0.33v-11.28l-3.36,2.58c-0.09,0.08-0.19,0.12-0.3,0.12
						c-0.12,0-0.23-0.07-0.34-0.2l-0.48-0.62c-0.07-0.09-0.1-0.19-0.1-0.28c0-0.15,0.07-0.27,0.2-0.36l4.34-3.36
						c0.15-0.09,0.32-0.14,0.52-0.14h0.94c0.13,0,0.24,0.04,0.33,0.13s0.13,0.2,0.13,0.33v13.08c0,0.13-0.04,0.24-0.13,0.33
						s-0.2,0.13-0.33,0.13h-0.98C149.21,546.08,149.11,546.04,149.03,545.95z"/>
					<path class="st2" d="M153.82,545.95c-0.09-0.09-0.13-0.2-0.13-0.33v-1.38c0-0.13,0.04-0.25,0.13-0.34
						c0.09-0.09,0.2-0.14,0.33-0.14h1.38c0.13,0,0.24,0.05,0.33,0.14c0.09,0.09,0.13,0.21,0.13,0.34v1.38
						c0,0.13-0.04,0.24-0.13,0.33c-0.09,0.09-0.2,0.13-0.33,0.13h-1.38C154.01,546.08,153.9,546.04,153.82,545.95z"/>
					<path class="st2" d="M160.76,545.77c-0.79-0.34-1.41-0.83-1.85-1.47c-0.44-0.64-0.66-1.39-0.66-2.24c0-0.79,0.2-1.48,0.59-2.07
						s0.92-1.05,1.59-1.37c-0.53-0.31-0.95-0.71-1.24-1.21c-0.29-0.5-0.44-1.09-0.44-1.77c0-1.16,0.43-2.08,1.3-2.75
						c0.87-0.67,2.01-1.01,3.42-1.01s2.55,0.33,3.41,1c0.86,0.67,1.29,1.59,1.29,2.76c0,0.67-0.15,1.25-0.44,1.75
						c-0.29,0.5-0.7,0.91-1.22,1.23c0.67,0.32,1.2,0.78,1.59,1.37s0.59,1.29,0.59,2.09c0,0.85-0.22,1.6-0.66,2.23
						c-0.44,0.63-1.06,1.12-1.85,1.46c-0.79,0.34-1.7,0.51-2.71,0.51S161.55,546.11,160.76,545.77z M165.84,544
						c0.63-0.48,0.95-1.12,0.95-1.92s-0.32-1.44-0.95-1.92c-0.63-0.48-1.42-0.72-2.37-0.72c-0.96,0-1.76,0.24-2.39,0.72
						c-0.63,0.48-0.95,1.12-0.95,1.92s0.32,1.44,0.95,1.92c0.63,0.48,1.43,0.72,2.39,0.72C164.41,544.72,165.2,544.48,165.84,544z
						 M165.53,537.28c0.56-0.4,0.84-0.93,0.84-1.6c0-0.68-0.28-1.22-0.83-1.63c-0.55-0.41-1.24-0.61-2.07-0.61
						c-0.84,0-1.53,0.2-2.08,0.61c-0.55,0.41-0.82,0.95-0.82,1.63c0,0.68,0.27,1.22,0.82,1.63c0.55,0.41,1.24,0.61,2.08,0.61
						C164.28,537.89,164.97,537.68,165.53,537.28z"/>
					<path class="st2" d="M171.32,540.76c-0.09-0.08-0.13-0.19-0.13-0.32v-0.72c0-0.13,0.04-0.24,0.13-0.33
						c0.09-0.09,0.2-0.13,0.33-0.13h6c0.13,0,0.24,0.04,0.33,0.13c0.09,0.09,0.13,0.2,0.13,0.33v0.72c0,0.13-0.04,0.24-0.13,0.32
						s-0.2,0.12-0.33,0.12h-6C171.51,540.88,171.4,540.84,171.32,540.76z"/>
					<path class="st2" d="M179.8,545.95c-0.09-0.09-0.13-0.2-0.13-0.33v-0.6c0-0.31,0.17-0.6,0.5-0.88l4.36-4.34
						c0.99-0.84,1.67-1.53,2.04-2.06s0.56-1.1,0.56-1.7c0-0.79-0.22-1.4-0.66-1.85c-0.44-0.45-1.08-0.67-1.92-0.67
						c-0.8,0-1.43,0.23-1.9,0.7c-0.47,0.47-0.75,1.09-0.86,1.88c-0.03,0.15-0.09,0.26-0.2,0.34c-0.11,0.08-0.21,0.12-0.32,0.12
						h-0.96c-0.12,0-0.22-0.04-0.3-0.12s-0.12-0.17-0.12-0.28c0.03-0.71,0.22-1.39,0.57-2.05c0.35-0.66,0.88-1.2,1.57-1.62
						s1.53-0.63,2.52-0.63c1.49,0,2.62,0.39,3.37,1.17c0.75,0.78,1.13,1.77,1.13,2.97c0,0.84-0.2,1.6-0.61,2.27
						c-0.41,0.67-1.04,1.38-1.91,2.13l-3.94,4h6.3c0.15,0,0.26,0.04,0.34,0.12c0.08,0.08,0.12,0.19,0.12,0.34v0.76
						c0,0.13-0.04,0.24-0.13,0.33c-0.09,0.09-0.2,0.13-0.33,0.13h-8.76C179.99,546.08,179.88,546.04,179.8,545.95z"/>
					<path class="st2" d="M193.59,545.77c-0.76-0.34-1.34-0.78-1.73-1.33c-0.39-0.55-0.6-1.11-0.63-1.7c0-0.12,0.04-0.22,0.12-0.29
						c0.08-0.07,0.18-0.11,0.3-0.11h0.9c0.15,0,0.27,0.03,0.36,0.09c0.09,0.06,0.17,0.18,0.22,0.35c0.17,0.68,0.55,1.16,1.13,1.44
						c0.58,0.28,1.26,0.42,2.05,0.42c0.96,0,1.72-0.23,2.29-0.69c0.57-0.46,0.85-1.12,0.85-1.97c0-1.63-0.99-2.44-2.98-2.44h-1.88
						c-0.13,0-0.24-0.04-0.33-0.13s-0.13-0.2-0.13-0.33v-0.52c0-0.2,0.07-0.37,0.22-0.52l3.9-4.32h-5.92
						c-0.13,0-0.24-0.04-0.33-0.12c-0.09-0.08-0.13-0.19-0.13-0.32v-0.72c0-0.15,0.04-0.26,0.13-0.35s0.2-0.13,0.33-0.13h7.92
						c0.15,0,0.26,0.04,0.35,0.13c0.09,0.09,0.13,0.2,0.13,0.35v0.66c0,0.15-0.07,0.3-0.2,0.46l-3.9,4.38h0.32
						c1.36,0.04,2.44,0.39,3.23,1.06c0.79,0.67,1.19,1.64,1.19,2.92c0,0.88-0.22,1.64-0.65,2.27c-0.43,0.63-1.04,1.12-1.81,1.46
						c-0.77,0.34-1.65,0.51-2.62,0.51C195.25,546.28,194.35,546.11,193.59,545.77z"/>
					<path class="st2" d="M208.88,545.95c-0.09-0.09-0.13-0.2-0.13-0.33v-9.48c0-0.13,0.04-0.24,0.13-0.33
						c0.09-0.09,0.2-0.13,0.33-0.13h0.84c0.13,0,0.24,0.04,0.32,0.13c0.08,0.09,0.12,0.2,0.12,0.33v0.68
						c0.72-0.89,1.69-1.34,2.92-1.34c1.47,0,2.51,0.61,3.12,1.84c0.32-0.56,0.78-1.01,1.37-1.34c0.59-0.33,1.26-0.5,1.99-0.5
						c1.09,0,1.99,0.37,2.68,1.12c0.69,0.75,1.04,1.83,1.04,3.24v5.78c0,0.13-0.04,0.24-0.13,0.33c-0.09,0.09-0.2,0.13-0.33,0.13
						h-0.86c-0.13,0-0.24-0.04-0.33-0.13s-0.13-0.2-0.13-0.33v-5.6c0-1.07-0.22-1.83-0.66-2.29c-0.44-0.46-1.02-0.69-1.74-0.69
						c-0.64,0-1.19,0.24-1.65,0.71c-0.46,0.47-0.69,1.23-0.69,2.27v5.6c0,0.13-0.04,0.24-0.13,0.33s-0.2,0.13-0.33,0.13h-0.88
						c-0.13,0-0.24-0.04-0.33-0.13s-0.13-0.2-0.13-0.33v-5.6c0-1.05-0.23-1.81-0.69-2.28s-1.03-0.7-1.71-0.7
						c-0.64,0-1.19,0.23-1.65,0.7s-0.69,1.22-0.69,2.26v5.62c0,0.13-0.04,0.24-0.13,0.33s-0.2,0.13-0.33,0.13h-0.88
						C209.07,546.08,208.96,546.04,208.88,545.95z"/>
					<path class="st2" d="M226.64,545.95c-0.09-0.09-0.13-0.2-0.13-0.33v-9.48c0-0.13,0.04-0.24,0.13-0.33
						c0.09-0.09,0.2-0.13,0.33-0.13h0.84c0.13,0,0.24,0.04,0.32,0.13c0.08,0.09,0.12,0.2,0.12,0.33v0.68
						c0.72-0.89,1.69-1.34,2.92-1.34c1.47,0,2.51,0.61,3.12,1.84c0.32-0.56,0.78-1.01,1.37-1.34c0.59-0.33,1.26-0.5,1.99-0.5
						c1.09,0,1.99,0.37,2.68,1.12c0.69,0.75,1.04,1.83,1.04,3.24v5.78c0,0.13-0.04,0.24-0.13,0.33c-0.09,0.09-0.2,0.13-0.33,0.13
						h-0.86c-0.13,0-0.24-0.04-0.33-0.13s-0.13-0.2-0.13-0.33v-5.6c0-1.07-0.22-1.83-0.66-2.29c-0.44-0.46-1.02-0.69-1.74-0.69
						c-0.64,0-1.19,0.24-1.65,0.71c-0.46,0.47-0.69,1.23-0.69,2.27v5.6c0,0.13-0.04,0.24-0.13,0.33s-0.2,0.13-0.33,0.13h-0.88
						c-0.13,0-0.24-0.04-0.33-0.13s-0.13-0.2-0.13-0.33v-5.6c0-1.05-0.23-1.81-0.69-2.28s-1.03-0.7-1.71-0.7
						c-0.64,0-1.19,0.23-1.65,0.7s-0.69,1.22-0.69,2.26v5.62c0,0.13-0.04,0.24-0.13,0.33s-0.2,0.13-0.33,0.13h-0.88
						C226.83,546.08,226.72,546.04,226.64,545.95z"/>
				</g>
			</g>
			<polyline class="st1" points="44.02,625.21 49.75,630.93 55.47,625.21 			"/>
			<line class="st1" x1="49.75" y1="630.64" x2="49.75" y2="566.33"/>
			<polyline class="st1" points="44.03,572.07 49.76,566.34 55.48,572.07 			"/>
		</g>
		<g>
			<g id="MTEXT_45_" class="st3">
				<g>
					<path class="st2" d="M45.13,223.28c-0.07-0.08-0.11-0.18-0.11-0.3v-10.15L42,215.16c-0.08,0.07-0.17,0.11-0.27,0.11
						c-0.11,0-0.21-0.06-0.31-0.18l-0.43-0.56c-0.06-0.08-0.09-0.17-0.09-0.25c0-0.13,0.06-0.24,0.18-0.32l3.91-3.02
						c0.13-0.08,0.29-0.13,0.47-0.13h0.85c0.12,0,0.22,0.04,0.3,0.12c0.08,0.08,0.12,0.18,0.12,0.3v11.77c0,0.12-0.04,0.22-0.12,0.3
						c-0.08,0.08-0.18,0.12-0.3,0.12h-0.88C45.3,223.4,45.2,223.36,45.13,223.28z"/>
					<path class="st2" d="M49.19,213.93c-0.05-0.07-0.07-0.16-0.04-0.27l0.4-2.52c0.05-0.35,0.22-0.52,0.5-0.52h1.15
						c0.08,0,0.15,0.03,0.21,0.09c0.05,0.06,0.08,0.13,0.08,0.22c0,0.12-0.02,0.22-0.05,0.29l-0.94,2.43
						c-0.06,0.13-0.13,0.23-0.2,0.3c-0.07,0.07-0.18,0.1-0.32,0.1h-0.56C49.32,214.04,49.24,214,49.19,213.93z M52.01,213.93
						c-0.05-0.07-0.07-0.16-0.04-0.27l0.4-2.52c0.05-0.35,0.22-0.52,0.5-0.52h1.15c0.08,0,0.15,0.03,0.21,0.09
						c0.05,0.06,0.08,0.13,0.08,0.22c0,0.12-0.02,0.22-0.05,0.29l-0.94,2.43c-0.06,0.13-0.13,0.23-0.2,0.3
						c-0.07,0.07-0.18,0.1-0.32,0.1h-0.56C52.14,214.04,52.07,214,52.01,213.93z"/>
					<path class="st2" d="M54.99,218.61c-0.08-0.07-0.12-0.17-0.12-0.29v-0.65c0-0.12,0.04-0.22,0.12-0.3
						c0.08-0.08,0.18-0.12,0.3-0.12h5.4c0.12,0,0.22,0.04,0.3,0.12c0.08,0.08,0.12,0.18,0.12,0.3v0.65c0,0.12-0.04,0.22-0.12,0.29
						s-0.18,0.11-0.3,0.11h-5.4C55.16,218.72,55.06,218.69,54.99,218.61z"/>
					<path class="st2" d="M66.35,223.28c-0.07-0.08-0.11-0.18-0.11-0.3v-10.15l-3.02,2.32c-0.08,0.07-0.17,0.11-0.27,0.11
						c-0.11,0-0.21-0.06-0.31-0.18l-0.43-0.56c-0.06-0.08-0.09-0.17-0.09-0.25c0-0.13,0.06-0.24,0.18-0.32l3.91-3.02
						c0.13-0.08,0.29-0.13,0.47-0.13h0.85c0.12,0,0.22,0.04,0.3,0.12c0.08,0.08,0.12,0.18,0.12,0.3v11.77c0,0.12-0.04,0.22-0.12,0.3
						c-0.08,0.08-0.18,0.12-0.3,0.12h-0.88C66.52,223.4,66.42,223.36,66.35,223.28z"/>
					<path class="st2" d="M70.66,223.28c-0.08-0.08-0.12-0.18-0.12-0.3v-1.24c0-0.12,0.04-0.22,0.12-0.31s0.18-0.13,0.3-0.13h1.24
						c0.12,0,0.22,0.04,0.3,0.13s0.12,0.19,0.12,0.31v1.24c0,0.12-0.04,0.22-0.12,0.3s-0.18,0.12-0.3,0.12h-1.24
						C70.84,223.4,70.74,223.36,70.66,223.28z"/>
					<path class="st2" d="M76.72,223.12c-0.68-0.31-1.2-0.7-1.56-1.2s-0.54-1-0.57-1.53c0-0.11,0.04-0.2,0.11-0.26
						c0.07-0.07,0.16-0.1,0.27-0.1h0.81c0.13,0,0.24,0.03,0.32,0.08s0.15,0.16,0.2,0.32c0.16,0.61,0.49,1.04,1.02,1.3
						s1.14,0.38,1.84,0.38c0.86,0,1.55-0.21,2.06-0.62c0.51-0.41,0.76-1,0.76-1.77c0-1.46-0.89-2.2-2.68-2.2h-1.69
						c-0.12,0-0.22-0.04-0.3-0.12s-0.12-0.18-0.12-0.3v-0.47c0-0.18,0.07-0.34,0.2-0.47l3.51-3.89h-5.33c-0.12,0-0.22-0.04-0.3-0.11
						c-0.08-0.07-0.12-0.17-0.12-0.29v-0.65c0-0.13,0.04-0.24,0.12-0.32c0.08-0.08,0.18-0.12,0.3-0.12h7.13
						c0.13,0,0.24,0.04,0.32,0.12c0.08,0.08,0.12,0.18,0.12,0.32v0.59c0,0.13-0.06,0.27-0.18,0.41l-3.51,3.94h0.29
						c1.22,0.04,2.19,0.35,2.91,0.95c0.71,0.6,1.07,1.48,1.07,2.63c0,0.79-0.2,1.47-0.58,2.04c-0.39,0.57-0.93,1.01-1.63,1.31
						c-0.7,0.31-1.48,0.46-2.36,0.46C78.21,223.58,77.4,223.43,76.72,223.12z"/>
					<path class="st2" d="M85.67,213.93c-0.05-0.07-0.07-0.16-0.04-0.27l0.4-2.52c0.05-0.35,0.22-0.52,0.5-0.52h1.15
						c0.08,0,0.15,0.03,0.21,0.09c0.05,0.06,0.08,0.13,0.08,0.22c0,0.12-0.02,0.22-0.05,0.29l-0.94,2.43
						c-0.06,0.13-0.13,0.23-0.2,0.3c-0.07,0.07-0.18,0.1-0.32,0.1H85.9C85.8,214.04,85.73,214,85.67,213.93z M88.5,213.93
						c-0.05-0.07-0.07-0.16-0.04-0.27l0.4-2.52c0.05-0.35,0.22-0.52,0.5-0.52h1.15c0.08,0,0.15,0.03,0.21,0.09
						c0.05,0.06,0.08,0.13,0.08,0.22c0,0.12-0.02,0.22-0.05,0.29l-0.94,2.43c-0.06,0.13-0.13,0.23-0.2,0.3
						c-0.07,0.07-0.18,0.1-0.32,0.1h-0.56C88.63,214.04,88.55,214,88.5,213.93z"/>
					<path class="st2" d="M41.45,244.88c-0.08-0.08-0.12-0.18-0.12-0.3v-0.54c0-0.28,0.15-0.54,0.45-0.79l3.92-3.91
						c0.89-0.76,1.5-1.37,1.84-1.85s0.5-0.99,0.5-1.53c0-0.71-0.2-1.26-0.59-1.67c-0.4-0.4-0.97-0.6-1.73-0.6
						c-0.72,0-1.29,0.21-1.71,0.63c-0.42,0.42-0.68,0.98-0.77,1.69c-0.02,0.13-0.08,0.23-0.18,0.31c-0.1,0.07-0.19,0.11-0.29,0.11
						h-0.86c-0.11,0-0.2-0.04-0.27-0.11c-0.07-0.07-0.11-0.16-0.11-0.25c0.02-0.64,0.2-1.25,0.51-1.85
						c0.32-0.59,0.79-1.08,1.41-1.46c0.62-0.38,1.38-0.57,2.27-0.57c1.34,0,2.35,0.35,3.03,1.05s1.02,1.59,1.02,2.67
						c0,0.76-0.18,1.44-0.55,2.04c-0.37,0.61-0.94,1.25-1.72,1.92l-3.55,3.6h5.67c0.13,0,0.23,0.04,0.31,0.11
						c0.07,0.07,0.11,0.17,0.11,0.31v0.68c0,0.12-0.04,0.22-0.12,0.3s-0.18,0.12-0.3,0.12h-7.88
						C41.63,245,41.53,244.96,41.45,244.88z"/>
					<path class="st2" d="M54,244.6c-0.7-0.39-1.24-0.92-1.6-1.58c-0.37-0.66-0.55-1.38-0.55-2.16c0-1.03,0.41-2.14,1.24-3.31
						l3.44-4.79c0.01-0.01,0.05-0.05,0.1-0.13s0.12-0.13,0.21-0.17s0.18-0.06,0.29-0.06H58c0.11,0,0.19,0.04,0.26,0.12
						c0.07,0.08,0.1,0.17,0.1,0.28c0,0.06-0.03,0.14-0.09,0.23l-2.63,3.67c0.31-0.07,0.66-0.11,1.04-0.11c0.88,0,1.65,0.2,2.31,0.58
						c0.67,0.39,1.18,0.91,1.55,1.55c0.37,0.64,0.55,1.35,0.55,2.12c0,0.77-0.18,1.49-0.55,2.15s-0.9,1.2-1.59,1.59
						c-0.7,0.4-1.52,0.59-2.47,0.59C55.53,245.18,54.7,244.99,54,244.6z M57.93,243.36c0.44-0.22,0.8-0.54,1.06-0.96
						c0.26-0.43,0.4-0.94,0.4-1.54c0-0.59-0.13-1.1-0.41-1.52c-0.27-0.43-0.63-0.75-1.07-0.97c-0.44-0.22-0.92-0.33-1.44-0.33
						s-1,0.11-1.44,0.33c-0.44,0.22-0.8,0.55-1.06,0.97s-0.4,0.93-0.4,1.52c0,0.6,0.13,1.11,0.4,1.54s0.62,0.75,1.06,0.96
						c0.44,0.22,0.92,0.32,1.44,0.32C57,243.69,57.48,243.58,57.93,243.36z"/>
					<path class="st2" d="M63.1,244.88c-0.08-0.08-0.12-0.18-0.12-0.3v-1.24c0-0.12,0.04-0.22,0.12-0.31s0.18-0.13,0.3-0.13h1.24
						c0.12,0,0.22,0.04,0.3,0.13s0.12,0.19,0.12,0.31v1.24c0,0.12-0.04,0.22-0.12,0.3s-0.18,0.12-0.3,0.12H63.4
						C63.28,245,63.18,244.96,63.1,244.88z"/>
					<path class="st2" d="M69.16,244.7c-0.66-0.32-1.16-0.75-1.51-1.27c-0.35-0.52-0.53-1.08-0.56-1.68v-0.04
						c0-0.1,0.04-0.17,0.11-0.23c0.07-0.06,0.16-0.09,0.25-0.09h0.88c0.25,0,0.41,0.13,0.49,0.4c0.18,0.65,0.51,1.13,1,1.45
						c0.49,0.32,1.05,0.48,1.68,0.48c0.82,0,1.49-0.25,2.03-0.75c0.54-0.5,0.81-1.18,0.81-2.06c0-0.8-0.27-1.44-0.81-1.92
						c-0.54-0.47-1.22-0.71-2.03-0.71c-0.43,0-0.78,0.05-1.04,0.16c-0.26,0.11-0.53,0.26-0.81,0.47c-0.16,0.12-0.29,0.21-0.39,0.26
						c-0.1,0.05-0.21,0.08-0.33,0.08h-0.86c-0.11,0-0.2-0.04-0.29-0.12s-0.12-0.17-0.11-0.28l0.56-5.99
						c0.04-0.3,0.19-0.45,0.45-0.45h6.23c0.13,0,0.23,0.04,0.31,0.11c0.07,0.07,0.11,0.17,0.11,0.31v0.67
						c0,0.12-0.04,0.22-0.12,0.29c-0.08,0.07-0.18,0.11-0.3,0.11h-5.18l-0.32,3.62c0.58-0.41,1.35-0.61,2.32-0.61
						c0.8,0,1.54,0.16,2.2,0.48c0.66,0.32,1.18,0.78,1.57,1.39c0.39,0.61,0.58,1.34,0.58,2.18c0,0.89-0.19,1.65-0.58,2.29
						c-0.39,0.64-0.93,1.13-1.62,1.46c-0.69,0.33-1.48,0.5-2.37,0.5C70.6,245.18,69.82,245.02,69.16,244.7z"/>
					<path class="st2" d="M78.28,240.21c-0.08-0.07-0.12-0.17-0.12-0.29v-0.65c0-0.12,0.04-0.22,0.12-0.3
						c0.08-0.08,0.18-0.12,0.3-0.12h5.4c0.12,0,0.22,0.04,0.3,0.12c0.08,0.08,0.12,0.18,0.12,0.3v0.65c0,0.12-0.04,0.22-0.12,0.29
						s-0.18,0.11-0.3,0.11h-5.4C78.45,240.32,78.35,240.29,78.28,240.21z"/>
					<path class="st2" d="M88.13,244.72c-0.68-0.31-1.2-0.7-1.56-1.2s-0.54-1-0.57-1.53c0-0.11,0.04-0.2,0.11-0.26
						c0.07-0.07,0.16-0.1,0.27-0.1h0.81c0.13,0,0.24,0.03,0.32,0.08s0.15,0.16,0.2,0.32c0.16,0.61,0.49,1.04,1.02,1.3
						s1.14,0.38,1.84,0.38c0.86,0,1.55-0.21,2.06-0.62c0.51-0.41,0.76-1,0.76-1.77c0-1.46-0.89-2.2-2.68-2.2h-1.69
						c-0.12,0-0.22-0.04-0.3-0.12s-0.12-0.18-0.12-0.3v-0.47c0-0.18,0.07-0.34,0.2-0.47l3.51-3.89H87c-0.12,0-0.22-0.04-0.3-0.11
						c-0.08-0.07-0.12-0.17-0.12-0.29v-0.65c0-0.13,0.04-0.24,0.12-0.32c0.08-0.08,0.18-0.12,0.3-0.12h7.13
						c0.13,0,0.24,0.04,0.32,0.12c0.08,0.08,0.12,0.18,0.12,0.32v0.59c0,0.13-0.06,0.27-0.18,0.41l-3.51,3.94h0.29
						c1.22,0.04,2.19,0.35,2.91,0.95c0.71,0.6,1.07,1.48,1.07,2.63c0,0.79-0.2,1.47-0.58,2.04c-0.39,0.57-0.93,1.01-1.63,1.31
						c-0.7,0.31-1.48,0.46-2.36,0.46C89.63,245.18,88.82,245.03,88.13,244.72z"/>
					<path class="st2" d="M98.9,244.72c-0.68-0.31-1.2-0.7-1.56-1.2s-0.54-1-0.57-1.53c0-0.11,0.04-0.2,0.11-0.26
						c0.07-0.07,0.16-0.1,0.27-0.1h0.81c0.13,0,0.24,0.03,0.32,0.08s0.15,0.16,0.2,0.32c0.16,0.61,0.49,1.04,1.02,1.3
						s1.14,0.38,1.84,0.38c0.86,0,1.55-0.21,2.06-0.62c0.51-0.41,0.76-1,0.76-1.77c0-1.46-0.89-2.2-2.68-2.2H99.8
						c-0.12,0-0.22-0.04-0.3-0.12s-0.12-0.18-0.12-0.3v-0.47c0-0.18,0.07-0.34,0.2-0.47l3.51-3.89h-5.33c-0.12,0-0.22-0.04-0.3-0.11
						c-0.08-0.07-0.12-0.17-0.12-0.29v-0.65c0-0.13,0.04-0.24,0.12-0.32c0.08-0.08,0.18-0.12,0.3-0.12h7.13
						c0.13,0,0.24,0.04,0.32,0.12c0.08,0.08,0.12,0.18,0.12,0.32v0.59c0,0.13-0.06,0.27-0.18,0.41l-3.51,3.94h0.29
						c1.22,0.04,2.19,0.35,2.91,0.95c0.71,0.6,1.07,1.48,1.07,2.63c0,0.79-0.2,1.47-0.58,2.04c-0.39,0.57-0.93,1.01-1.63,1.31
						c-0.7,0.31-1.48,0.46-2.36,0.46C100.39,245.18,99.58,245.03,98.9,244.72z"/>
					<path class="st2" d="M112.66,244.88c-0.08-0.08-0.12-0.18-0.12-0.3v-8.53c0-0.12,0.04-0.22,0.12-0.3s0.18-0.12,0.3-0.12h0.76
						c0.12,0,0.22,0.04,0.29,0.12c0.07,0.08,0.11,0.18,0.11,0.3v0.61c0.65-0.8,1.52-1.21,2.63-1.21c1.32,0,2.26,0.55,2.81,1.66
						c0.29-0.5,0.7-0.91,1.23-1.21s1.13-0.45,1.79-0.45c0.98,0,1.79,0.34,2.41,1.01c0.62,0.67,0.94,1.64,0.94,2.92v5.2
						c0,0.12-0.04,0.22-0.12,0.3c-0.08,0.08-0.18,0.12-0.3,0.12h-0.77c-0.12,0-0.22-0.04-0.3-0.12s-0.12-0.18-0.12-0.3v-5.04
						c0-0.96-0.2-1.65-0.59-2.06c-0.4-0.41-0.92-0.62-1.57-0.62c-0.58,0-1.07,0.21-1.49,0.64c-0.41,0.43-0.62,1.11-0.62,2.04v5.04
						c0,0.12-0.04,0.22-0.12,0.3s-0.18,0.12-0.3,0.12h-0.79c-0.12,0-0.22-0.04-0.3-0.12s-0.12-0.18-0.12-0.3v-5.04
						c0-0.95-0.21-1.63-0.62-2.05s-0.93-0.63-1.54-0.63c-0.58,0-1.07,0.21-1.49,0.63s-0.62,1.1-0.62,2.03v5.06
						c0,0.12-0.04,0.22-0.12,0.3s-0.18,0.12-0.3,0.12h-0.79C112.83,245,112.73,244.96,112.66,244.88z"/>
					<path class="st2" d="M128.64,244.88c-0.08-0.08-0.12-0.18-0.12-0.3v-8.53c0-0.12,0.04-0.22,0.12-0.3s0.18-0.12,0.3-0.12h0.76
						c0.12,0,0.22,0.04,0.29,0.12c0.07,0.08,0.11,0.18,0.11,0.3v0.61c0.65-0.8,1.52-1.21,2.63-1.21c1.32,0,2.26,0.55,2.81,1.66
						c0.29-0.5,0.7-0.91,1.23-1.21s1.13-0.45,1.79-0.45c0.98,0,1.79,0.34,2.41,1.01c0.62,0.67,0.94,1.64,0.94,2.92v5.2
						c0,0.12-0.04,0.22-0.12,0.3c-0.08,0.08-0.18,0.12-0.3,0.12h-0.77c-0.12,0-0.22-0.04-0.3-0.12s-0.12-0.18-0.12-0.3v-5.04
						c0-0.96-0.2-1.65-0.59-2.06c-0.4-0.41-0.92-0.62-1.57-0.62c-0.58,0-1.07,0.21-1.49,0.64c-0.41,0.43-0.62,1.11-0.62,2.04v5.04
						c0,0.12-0.04,0.22-0.12,0.3s-0.18,0.12-0.3,0.12h-0.79c-0.12,0-0.22-0.04-0.3-0.12s-0.12-0.18-0.12-0.3v-5.04
						c0-0.95-0.21-1.63-0.62-2.05s-0.93-0.63-1.54-0.63c-0.58,0-1.07,0.21-1.49,0.63s-0.62,1.1-0.62,2.03v5.06
						c0,0.12-0.04,0.22-0.12,0.3s-0.18,0.12-0.3,0.12h-0.79C128.82,245,128.72,244.96,128.64,244.88z"/>
				</g>
			</g>
			<polyline class="st1" points="44.02,349.21 49.75,354.93 55.47,349.21 			"/>
			<line class="st1" x1="49.75" y1="354.64" x2="49.75" y2="258.33"/>
			<polyline class="st1" points="44.03,264.07 49.76,258.34 55.48,264.07 			"/>
		</g>
		<g>
			<g>
				<line class="st4" x1="363.8" y1="168" x2="363.8" y2="166"/>
				<line class="st5" x1="363.8" y1="160.14" x2="363.8" y2="84.93"/>
				<line class="st4" x1="363.8" y1="82" x2="363.8" y2="80"/>
			</g>
		</g>
		<g>
			<g>
				<line class="st4" x1="76.68" y1="192" x2="76.68" y2="190"/>
				<line class="st6" x1="76.68" y1="183.9" x2="76.68" y2="85.22"/>
				<line class="st4" x1="76.68" y1="82.16" x2="76.68" y2="80.16"/>
			</g>
		</g>
	</g>
</g>
<g id="N-TEXT">
</g>
<g id="_x32_D_x24_AG-DIAGRAM">
</g>
<g id="_x32_D_x24_AG-DETAILS">
</g>
<g id="_x32_D_x24_AG-SPORTS">
	<g id="POLYLINE_420_">
		<path class="st40" d="M363.8,192c0,57.98,0,174.66,0,232.62"/>
	</g>
	<g id="POLYLINE_419_">
		<path class="st40" d="M243.75,271.56c18.33-0.38,36.94-2.09,54.53-7.49c16.7-5.15,31.64-13.82,42.09-28.09
			c4.16-5.63,7.54-11.96,10.58-18.26c3.27-6.82,8.1-17.25,11.76-23.76c4.09-7.43,8.72-14.91,13.51-21.9
			c8.03-11.69,17.04-22.98,26.97-33.12c8.11-8.25,17.02-15.92,26.78-22.14c6.89-4.42,14.27-8.22,21.85-11.3
			c8.7-3.55,17.92-6.22,27.09-8.24c15.32-3.32,31.24-5.03,46.88-5.95c21.28-1.17,43.01-0.65,64.22,1.55
			c31.81,3.37,63.65,10.51,92.86,23.76c30.43,13.8,58.69,33.89,78.77,60.86c17.58,23.65,27.12,52.32,32.43,81.05
			c1.9,10.66,3.62,21.82,4.34,32.63c0.71,10.5,0.73,21.41,0.15,31.92c-0.45,8.54-1.62,17.45-2.93,25.91
			c-1.72,10.66-3.89,21.65-6.79,32.05c-4.63,16.74-11.15,33.17-20.31,47.97c-5.17,8.38-11.29,16.29-17.97,23.52
			c-22.44,24.17-51.33,41.78-82.02,53.46c-28.33,10.71-58.59,16.33-88.72,18.74c-20.92,1.62-42.31,1.66-63.22-0.01
			c-15.47-1.28-31.17-3.38-46.19-7.38c-15.13-4-29.77-10.22-42.76-19c-8.85-5.91-17.01-13.04-24.47-20.63
			c-9.92-10.14-18.95-21.42-26.97-33.12c-4.78-7-9.42-14.47-13.51-21.9c-3.64-6.47-8.51-16.99-11.76-23.8
			c-3.42-7.14-7.25-14.27-12.08-20.56c-6.82-8.94-15.72-16.28-25.72-21.41c-21.12-10.81-46.04-12.75-69.41-11.84"/>
	</g>
	<g id="POLYLINE_418_">
		<path class="st40" d="M363.8,272c-90.14,1.02-184.22-0.07-273.72-10.86c-3.22-0.19-6.94-0.7-9.62,1.49
			c-1.14,0.94-1.93,2.22-2.56,3.54c-1.26,2.72-1.93,5.7-2.45,8.63c-1.76,10.88-1.67,22.51-1.76,33.52
			c0.08,11.02-0.01,22.64,1.76,33.52c0.52,2.94,1.18,5.92,2.45,8.63c0.63,1.32,1.42,2.6,2.56,3.54c2.67,2.19,6.42,1.68,9.62,1.49
			c89.47-10.8,183.61-11.88,273.72-10.86C363.8,326.53,363.8,290.09,363.8,272z"/>
	</g>
	<g id="POLYLINE_417_">
		<path class="st40" d="M869.95,333.66c-0.02,8.55,5.03,16.45,12.81,20.01c2.18,1,4.55,1.65,6.94,1.9
			c1.43,0.23,23.44,0.09,25.31,0.1c1.51-0.05,3.04-0.27,4.51-0.63c5.8-1.41,10.93-5.29,13.87-10.48c1.38-2.42,2.3-5.11,2.68-7.87
			c0.08-0.61,0.15-1.28,0.18-1.89c-0.01-0.2,0.03-0.56,0.03-0.76c0,0,0-0.38,0-0.38s0-50.69,0-50.69s0-0.38,0-0.38
			c-0.08-5.45-2.28-10.84-6.05-14.79c-3.05-3.22-7.1-5.48-11.44-6.39c-1.48-0.31-3.02-0.47-4.53-0.47c0,0-22.27,0-22.27,0
			c-0.18,0.01-0.58,0-0.76,0.01c-0.87,0.03-1.79,0.12-2.65,0.25c-4.26,0.66-8.31,2.61-11.48,5.53c-2.71,2.48-4.78,5.66-5.96,9.14
			c-0.4,1.19-0.71,2.45-0.91,3.69c-0.11,0.73-0.2,1.53-0.24,2.27c0.01,0.2-0.03,0.56-0.03,0.76c0,0,0,0.38,0,0.38
			S869.95,333.66,869.95,333.66z"/>
	</g>
	<g id="POLYLINE_416_">
		<polyline class="st40" points="894.89,260.94 894.89,90.73 889.44,90.73 889.44,261.09 		"/>
	</g>
	<g id="POLYLINE_415_">
		<polyline class="st40" points="889.44,355.54 889.44,525.9 894.89,525.9 894.89,355.68 		"/>
	</g>
	<g id="POLYLINE_414_">
		<polyline class="st40" points="916.77,261.09 916.77,90.73 911.32,90.73 911.32,260.94 		"/>
	</g>
	<g id="POLYLINE_413_">
		<polyline class="st40" points="911.32,355.68 911.32,525.9 916.77,525.9 916.77,355.54 		"/>
	</g>
	<g id="POLYLINE_412_">
		<polyline class="st40" points="911.32,355.68 911.32,525.9 894.89,525.9 894.89,355.68 		"/>
	</g>
	<g id="POLYLINE_411_">
		<polyline class="st40" points="894.89,260.94 894.89,90.73 911.32,90.73 911.32,260.94 		"/>
	</g>
	<g id="POLYLINE_410_">
		<rect x="73.69" y="589.61" class="st40" width="725.28" height="16.43"/>
	</g>
	<g id="POLYLINE_409_">
		<rect x="363.8" y="584.16" class="st40" width="435.17" height="5.45"/>
	</g>
	<g id="POLYLINE_408_">
		<rect x="363.8" y="606.04" class="st40" width="435.17" height="5.45"/>
	</g>
	<g id="POLYLINE_407_">
		<path class="st40" d="M363.8,606.04v5.45c-0.31,0.1-57.72,19.03-58.01,19.11c-0.36,0.1-0.72,0.19-1.09,0.25
			c-0.52,0.09-1.06,0.13-1.59,0.13c-0.03,0.02-220.02-0.01-220.07,0c-0.26-0.01-0.56-0.02-0.82-0.05c-0.48-0.05-0.98-0.14-1.45-0.27
			c-1.11-0.29-2.17-0.79-3.11-1.46c-1.52-1.08-2.7-2.62-3.36-4.37c-0.21-0.56-0.38-1.15-0.48-1.74c-0.07-0.43-0.12-0.88-0.14-1.31
			c0.01-0.09-0.01-0.24-0.01-0.33c0,0,0-47.27,0-47.27c-0.02-3.03,1.51-5.99,3.98-7.75c0.93-0.67,2-1.17,3.11-1.46
			c0.53-0.14,1.08-0.24,1.62-0.28c0.21-0.01,0.45-0.03,0.66-0.03c0.06-0.04,219.97,0.02,220.07,0c0.52,0,1.07,0.05,1.59,0.13
			c0.35,0.06,0.74,0.15,1.09,0.25c0.28,0.08,57.7,19.02,58.01,19.11v5.45"/>
	</g>
</g>
<g id="_x32_D_x24_AG-OUTLINE">
	<g id="POLYLINE_37_">
		<path class="st41" d="M261.02,344.86c-56.44,0.82-114.89,3.86-170.94,10.63c-3.22,0.19-6.94,0.7-9.62-1.49
			c-1.14-0.94-1.93-2.22-2.56-3.54c-1.26-2.72-1.93-5.7-2.45-8.63c-1.76-10.88-1.67-22.51-1.76-33.52
			c0.08-11.02-0.01-22.64,1.76-33.52c0.52-2.94,1.18-5.92,2.45-8.63c0.63-1.32,1.42-2.6,2.56-3.54c2.67-2.19,6.42-1.68,9.62-1.49
			c50.59,6.24,103.96,9.03,154.93,10.4c18.05-0.44,36.38-2.21,53.68-7.59c16.85-5.26,31.78-14.1,42.17-28.63
			c6.28-8.56,11.41-20.49,16.05-30.08c5.55-11.5,12.14-22.74,19.36-33.26c7.85-11.43,16.63-22.45,26.29-32.41
			c7.63-7.83,15.99-15.19,25.09-21.27c13.79-9.32,29.44-15.73,45.56-19.72c15.62-3.88,31.91-5.86,47.95-7
			c21.11-1.42,42.68-1.14,63.75,0.76c26.91,2.5,53.95,7.64,79.43,16.76c24.2,8.71,47.27,21.06,67.27,37.29
			c13.13,10.68,24.99,23.13,34.37,37.24c5.69,8.55,10.47,17.8,14.42,27.27c6.34,15.22,10.67,31.4,13.67,47.59
			c2.05,11.47,3.85,23.4,4.5,35.04c0.61,11.33,0.56,23.04-0.34,34.35c-1.2,14.22-3.59,28.68-6.73,42.6
			c-5.76,25.02-15.31,49.65-31,70.17c-12.54,16.48-28.34,30.39-45.59,41.76c-22.66,14.92-48.04,25.58-74.28,32.35
			c-34.27,8.79-70.08,11.98-105.4,10.94c-20.76-0.75-41.81-2.72-62.01-7.69c-14.33-3.56-28.32-8.99-40.91-16.74
			c-14.12-8.61-26.42-20.06-37.3-32.45c-10.76-12.31-20.38-25.78-28.69-39.86c-3.29-5.56-6.59-11.79-9.41-17.61
			c-4.28-8.86-9.23-20.2-14.66-28.33c-3.78-5.75-8.33-11.04-13.51-15.58C310.3,351.2,285,345.8,261.02,344.86z"/>
	</g>
	<g id="POLYLINE_36_">
		<path class="st41" d="M869.95,333.66c0.01-0.28-0.01-50.67,0-50.92c0-0.37,0.02-0.77,0.04-1.14c0.09-1.42,0.31-2.84,0.67-4.21
			c0.47-1.78,1.16-3.51,2.05-5.12c3.4-6.17,9.72-10.4,16.73-11.19V90.73c6.84,0,20.49,0,27.33,0v170.36
			c7.46,0.84,14.08,5.56,17.32,12.33c1.43,2.97,2.18,6.26,2.18,9.55c-0.03,0.32,0.02,50.65,0,50.92c0,0.28-0.01,0.63-0.03,0.91
			c-0.03,0.53-0.08,1.09-0.14,1.62c-0.3,2.36-0.98,4.67-2.01,6.81c-3.24,6.77-9.86,11.48-17.32,12.33c0,0,0,170.36,0,170.36
			c-6.84,0-20.49,0-27.33,0V355.54C878.34,354.26,869.94,344.83,869.95,333.66z"/>
	</g>
	<g id="POLYLINE_35_">
		<path class="st41" d="M363.8,611.49c-0.27,0.08-57.72,19.03-57.97,19.1c-0.33,0.1-0.67,0.18-1.01,0.24
			c-0.56,0.1-1.13,0.15-1.7,0.15c-0.01,0.02-219.98-0.01-220.01,0c-0.24,0-0.51-0.02-0.75-0.04c-0.48-0.04-0.96-0.12-1.43-0.24
			c-1.15-0.29-2.26-0.79-3.23-1.48c-1.53-1.08-2.72-2.62-3.38-4.37c-0.23-0.61-0.4-1.24-0.51-1.88c-0.06-0.39-0.1-0.8-0.12-1.19
			c-0.01-0.09,0-0.22-0.01-0.32c0,0,0-47.27,0-47.27c0-1.51,0.37-3.03,1.06-4.38c0.69-1.34,1.71-2.52,2.95-3.39
			c0.97-0.69,2.07-1.2,3.23-1.48c0.47-0.12,0.95-0.2,1.43-0.24c0.25-0.02,0.5-0.04,0.75-0.04c0.01-0.07,219.97,0.05,220.01,0
			c0.57,0,1.14,0.05,1.7,0.15c0.34,0.06,0.69,0.14,1.01,0.24c0.25,0.07,57.7,19.02,57.97,19.1h435.17c0,6.84,0,20.49,0,27.33H363.8z
			"/>
	</g>
</g>
</svg>
