<?xml version="1.0" encoding="utf-8"?>
<!-- Generator: Adobe Illustrator 25.0.1, SVG Export Plug-In . SVG Version: 6.00 Build 0)  -->
<svg version="1.1" xmlns="http://www.w3.org/2000/svg" xmlns:xlink="http://www.w3.org/1999/xlink" x="0px" y="0px" width="1000px"
	 height="725px" viewBox="0 0 1000 725" style="enable-background:new 0 0 1000 725;" xml:space="preserve">
<style type="text/css">
	.st0{fill:#FFFFFF;}
	.st1{fill:#E74C3C;}
	.st2{fill:none;stroke:#E74C3C;stroke-width:2;stroke-linecap:round;stroke-linejoin:round;stroke-miterlimit:10;}
	
		.st3{fill:none;stroke:#E74C3C;stroke-width:1.35;stroke-linecap:round;stroke-linejoin:round;stroke-miterlimit:10;stroke-dasharray:3,5;}
	.st4{fill:none;stroke:#E74C3C;stroke-width:2.5;stroke-linecap:round;stroke-linejoin:round;}
	.st5{fill:none;stroke:#E74C3C;stroke-width:2.5;stroke-linecap:round;stroke-linejoin:round;stroke-dasharray:2.8267,4.7111;}
	.st6{fill:none;stroke:#E74C3C;stroke-width:2;stroke-linecap:round;stroke-linejoin:round;}
	.st7{fill:none;stroke:#E74C3C;stroke-width:2;stroke-linecap:round;stroke-linejoin:round;stroke-dasharray:2.9319,4.8864;}
	.st8{opacity:0.98;}
	.st9{fill:none;stroke:#E74C3C;stroke-width:2;stroke-linecap:round;stroke-linejoin:round;stroke-dasharray:3.0333,5.0556;}
	.st10{fill:none;stroke:#E74C3C;stroke-width:2;stroke-linecap:round;stroke-linejoin:round;stroke-dasharray:2.9783,4.9638;}
	.st11{fill:none;stroke:#E74C3C;stroke-width:2;stroke-linecap:round;stroke-linejoin:round;stroke-dasharray:3.0249,5.0415;}
	
		.st12{fill:none;stroke:#E74C3C;stroke-width:2;stroke-linecap:round;stroke-linejoin:round;stroke-miterlimit:10;stroke-dasharray:3,5;}
	.st13{fill:none;stroke:#E74C3C;stroke-width:2;stroke-linecap:round;stroke-linejoin:round;stroke-dasharray:2.8115,4.6859;}
	.st14{fill:none;stroke:#E74C3C;stroke-width:2;stroke-linecap:round;stroke-linejoin:round;stroke-dasharray:3.0178,5.0296;}
	.st15{fill:none;stroke:#E74C3C;stroke-width:2;stroke-linecap:round;stroke-linejoin:round;stroke-dasharray:2.98,4.9667;}
	.st16{fill:none;stroke:#E74C3C;stroke-width:2;stroke-linecap:round;stroke-linejoin:round;stroke-dasharray:3.005,5.0083;}
	.st17{fill:none;stroke:#E74C3C;stroke-width:2;stroke-linecap:round;stroke-linejoin:round;stroke-dasharray:2.9738,4.9563;}
	.st18{fill:none;stroke:#E74C3C;stroke-width:2;stroke-linecap:round;stroke-linejoin:round;stroke-dasharray:3.0942,5.1571;}
	.st19{fill:none;stroke:#E74C3C;stroke-width:2;stroke-linecap:round;stroke-linejoin:round;stroke-dasharray:3.039,5.0649;}
	.st20{fill:none;stroke:#E74C3C;stroke-width:2;stroke-linecap:round;stroke-linejoin:round;stroke-dasharray:2.5714,4.2857;}
	.st21{fill:none;stroke:#E74C3C;stroke-width:2;stroke-linecap:round;stroke-linejoin:round;stroke-dasharray:3.0326,5.0543;}
	.st22{fill:none;stroke:#E74C3C;stroke-width:2;stroke-linecap:round;stroke-linejoin:round;stroke-dasharray:2.9607,4.9345;}
	.st23{fill:none;stroke:#E74C3C;stroke-width:2;stroke-linecap:round;stroke-linejoin:round;stroke-dasharray:3.1087,5.1812;}
	.st24{fill:none;stroke:#E74C3C;stroke-width:2;stroke-linecap:round;stroke-linejoin:round;stroke-dasharray:2.5,4.1667;}
	.st25{fill:none;stroke:#E74C3C;stroke-width:2;stroke-linecap:round;stroke-linejoin:round;stroke-dasharray:2.8105,4.6841;}
	.st26{fill:none;stroke:#E74C3C;stroke-width:2;stroke-linecap:round;stroke-linejoin:round;stroke-dasharray:3.0658,5.1096;}
	.st27{fill:none;stroke:#E74C3C;stroke-width:2;stroke-linecap:round;stroke-linejoin:round;stroke-dasharray:3.0891,5.1485;}
	.st28{fill:none;stroke:#E74C3C;stroke-width:2;stroke-linecap:round;stroke-linejoin:round;stroke-dasharray:3.0688,5.1147;}
	.st29{fill:none;stroke:#E74C3C;stroke-width:2;stroke-linecap:round;stroke-linejoin:round;stroke-dasharray:3.0152,5.0253;}
	.st30{fill:none;stroke:#E74C3C;stroke-width:2;stroke-linecap:round;stroke-linejoin:round;stroke-dasharray:3.0984,5.1639;}
	.st31{fill:none;stroke:#E74C3C;stroke-width:2;stroke-linecap:round;stroke-linejoin:round;stroke-dasharray:2.3077,3.8462;}
	.st32{fill:none;stroke:#E74C3C;stroke-width:2;stroke-linecap:round;stroke-linejoin:round;stroke-dasharray:3.0195,5.0325;}
	.st33{fill:none;stroke:#E74C3C;stroke-width:2;stroke-linecap:round;stroke-linejoin:round;stroke-dasharray:3.0094,5.0156;}
	.st34{fill:none;stroke:#E74C3C;stroke-width:2;stroke-linecap:round;stroke-linejoin:round;stroke-dasharray:3.012,5.02;}
	.st35{fill:none;stroke:#CCCCCC;stroke-width:0.7087;stroke-linecap:round;stroke-linejoin:round;stroke-miterlimit:10;}
	.st36{fill:none;stroke:#E74C3C;stroke-width:1.75;stroke-linecap:round;stroke-linejoin:round;}
	.st37{fill:none;stroke:#E74C3C;stroke-width:1.75;stroke-linecap:round;stroke-linejoin:round;stroke-dasharray:2.5847,4.3078;}
	.st38{fill:none;stroke:#E74C3C;stroke-width:1.75;stroke-linecap:round;stroke-linejoin:round;stroke-dasharray:3.375,5.625;}
	.st39{fill:none;stroke:#E74C3C;stroke-width:2;stroke-linecap:round;stroke-linejoin:round;stroke-dasharray:3.3409,5.5682;}
	.st40{fill:none;stroke:#E74C3C;stroke-width:2;stroke-linecap:round;stroke-linejoin:round;stroke-dasharray:2.6892,4.482;}
	.st41{fill:none;stroke:#E74C3C;stroke-width:3;stroke-linecap:round;stroke-linejoin:round;}
	.st42{fill:none;stroke:#E74C3C;stroke-width:3;stroke-linecap:round;stroke-linejoin:round;stroke-dasharray:4.082,7.1435;}
	.st43{fill:none;stroke:#E74C3C;stroke-width:2.5;stroke-linecap:round;stroke-linejoin:round;stroke-dasharray:3.3596,5.5994;}
	.st44{fill:none;stroke:#E74C3C;stroke-width:2;stroke-linecap:round;stroke-linejoin:round;stroke-dasharray:2.7401,4.5668;}
	.st45{fill:none;stroke:#E74C3C;stroke-width:2;stroke-linecap:round;stroke-linejoin:round;stroke-dasharray:2.9123,4.8539;}
	.st46{fill:none;stroke:#E74C3C;stroke-width:1.5;stroke-linecap:round;stroke-linejoin:round;}
	.st47{fill:none;stroke:#E74C3C;stroke-width:1.5;stroke-linecap:round;stroke-linejoin:round;stroke-dasharray:2.0277,3.3796;}
	.st48{fill:none;stroke:#E74C3C;stroke-width:1.75;stroke-linecap:round;stroke-linejoin:round;stroke-dasharray:2.6662,4.4437;}
	.st49{fill:none;stroke:#E74C3C;stroke-width:2;stroke-linecap:round;stroke-linejoin:round;stroke-dasharray:3.4185,5.6975;}
	.st50{fill:none;stroke:#E74C3C;stroke-width:1.75;stroke-linecap:round;stroke-linejoin:round;stroke-dasharray:2.9924,4.9873;}
	.st51{fill:none;stroke:#E74C3C;stroke-width:1.75;stroke-linecap:round;stroke-linejoin:round;stroke-dasharray:2.9991,4.9985;}
	.st52{fill:none;stroke:#E74C3C;stroke-width:2;stroke-linecap:round;stroke-linejoin:round;stroke-dasharray:3.0041,5.0068;}
	.st53{fill:none;stroke:#E74C3C;stroke-width:3;stroke-linecap:round;stroke-linejoin:round;stroke-dasharray:4.0037,7.0065;}
	.st54{fill:none;stroke:#E74C3C;stroke-width:2;stroke-linecap:round;stroke-linejoin:round;stroke-dasharray:2.9898,4.983;}
	.st55{fill:none;stroke:#E74C3C;stroke-width:2;stroke-linecap:round;stroke-linejoin:round;stroke-dasharray:2.9935,4.9892;}
	.st56{fill:none;stroke:#E74C3C;stroke-width:2;stroke-linecap:round;stroke-linejoin:round;stroke-dasharray:2.9892,4.9821;}
	.st57{fill:none;stroke:#E74C3C;stroke-width:2.5;stroke-linecap:round;stroke-linejoin:round;stroke-dasharray:3.0016,5.0026;}
	.st58{fill:none;stroke:#E74C3C;stroke-width:1.35;stroke-linecap:round;stroke-linejoin:round;}
	.st59{fill:none;stroke:#E74C3C;stroke-width:1.35;stroke-linecap:round;stroke-linejoin:round;stroke-dasharray:2.9874,4.9789;}
	.st60{fill:none;stroke:#E74C3C;stroke-width:2;stroke-linecap:round;stroke-linejoin:round;stroke-dasharray:3.0041,5.0069;}
	.st61{fill:none;stroke:#E74C3C;stroke-width:2.75;stroke-linecap:round;stroke-linejoin:round;}
	.st62{fill:none;stroke:#E74C3C;stroke-width:2.75;stroke-linecap:round;stroke-linejoin:round;stroke-dasharray:4.9894,6.9851;}
	.st63{fill:none;stroke:#E74C3C;stroke-width:2.75;stroke-linecap:round;stroke-linejoin:round;stroke-dasharray:4.9292,6.9008;}
	.st64{fill:none;stroke:#E74C3C;stroke-width:2.75;stroke-linecap:round;stroke-linejoin:round;stroke-dasharray:5.2608,7.3651;}
	.st65{fill:none;stroke:#E74C3C;stroke-width:2.75;stroke-linecap:round;stroke-linejoin:round;stroke-dasharray:5.021,7.0294;}
	.st66{fill:none;stroke:#E74C3C;stroke-width:2.75;stroke-linecap:round;stroke-linejoin:round;stroke-dasharray:4.9629,6.9481;}
	.st67{fill:none;stroke:#E74C3C;stroke-width:2.75;stroke-linecap:round;stroke-linejoin:round;stroke-dasharray:5.1832,7.2564;}
	.st68{fill:none;stroke:#E74C3C;stroke-width:2.75;stroke-linecap:round;stroke-linejoin:round;stroke-dasharray:5.0508,7.0712;}
	.st69{fill:none;stroke:#E74C3C;stroke-width:2.75;stroke-linecap:round;stroke-linejoin:round;stroke-dasharray:4.9644,6.9501;}
	.st70{fill:none;stroke:#E74C3C;stroke-width:2.75;stroke-linecap:round;stroke-linejoin:round;stroke-dasharray:4.9473,6.9262;}
	.st71{fill:none;stroke:#E74C3C;stroke-width:2.75;stroke-linecap:round;stroke-linejoin:round;stroke-dasharray:5.1396,7.1955;}
	.st72{fill:none;stroke:#E74C3C;stroke-width:2.75;stroke-linecap:round;stroke-linejoin:round;stroke-dasharray:4.9697,6.9576;}
	.st73{fill:none;stroke:#E74C3C;stroke-width:2.75;stroke-linecap:round;stroke-linejoin:round;stroke-dasharray:4.8857,6.8399;}
	.st74{fill:none;stroke:#E74C3C;stroke-width:2.75;stroke-linecap:round;stroke-linejoin:round;stroke-dasharray:5.0449,7.0628;}
	.st75{fill:none;stroke:#E74C3C;stroke-width:2.75;stroke-linecap:round;stroke-linejoin:round;stroke-dasharray:5.0283,7.0396;}
	.st76{fill:none;stroke:#E74C3C;stroke-width:2.75;stroke-linecap:round;stroke-linejoin:round;stroke-dasharray:4.9511,6.9315;}
	.st77{fill:none;stroke:#E74C3C;stroke-width:2.75;stroke-linecap:round;stroke-linejoin:round;stroke-dasharray:4.8776,6.8286;}
	.st78{fill:none;stroke:#E74C3C;stroke-width:2.75;stroke-linecap:round;stroke-linejoin:round;stroke-dasharray:5.0643,7.09;}
	.st79{fill:none;stroke:#E74C3C;stroke-width:2.75;stroke-linecap:round;stroke-linejoin:round;stroke-dasharray:5.0025,7.0036;}
	.st80{fill:none;stroke:#E74C3C;stroke-width:2.75;stroke-linecap:round;stroke-linejoin:round;stroke-dasharray:5.1424,7.1994;}
	.st81{fill:none;stroke:#E74C3C;stroke-width:2.75;stroke-linecap:round;stroke-linejoin:round;stroke-dasharray:4.9919,6.9886;}
	.st82{fill:none;stroke:#E74C3C;stroke-width:2.75;stroke-linecap:round;stroke-linejoin:round;stroke-dasharray:4.8118,6.7365;}
	.st83{fill:none;stroke:#E74C3C;stroke-width:2.75;stroke-linecap:round;stroke-linejoin:round;stroke-dasharray:4.8186,6.746;}
	.st84{fill:none;stroke:#E74C3C;stroke-width:2.75;stroke-linecap:round;stroke-linejoin:round;stroke-dasharray:5.1114,7.156;}
	.st85{fill:none;stroke:#E74C3C;stroke-width:2.75;stroke-linecap:round;stroke-linejoin:round;stroke-dasharray:4.89,6.846;}
	.st86{fill:none;stroke:#E74C3C;stroke-width:2.75;stroke-linecap:round;stroke-linejoin:round;stroke-dasharray:4.9261,6.8965;}
	.st87{fill:none;stroke:#E74C3C;stroke-width:2.75;stroke-linecap:round;stroke-linejoin:round;stroke-dasharray:5.0334,7.0468;}
	.st88{fill:none;stroke:#E74C3C;stroke-width:2.75;stroke-linecap:round;stroke-linejoin:round;stroke-dasharray:4.9593,6.9431;}
	.st89{fill:none;stroke:#E74C3C;stroke-width:2.75;stroke-linecap:round;stroke-linejoin:round;stroke-dasharray:4.8463,6.7849;}
	.st90{fill:none;stroke:#E74C3C;stroke-width:2.75;stroke-linecap:round;stroke-linejoin:round;stroke-dasharray:5.0345,7.0482;}
	.st91{fill:none;stroke:#E74C3C;stroke-width:2.75;stroke-linecap:round;stroke-linejoin:round;stroke-dasharray:4.9956,6.9938;}
	.st92{fill:none;stroke:#E74C3C;stroke-width:2.75;stroke-linecap:round;stroke-linejoin:round;stroke-dasharray:4.947,6.9258;}
	.st93{fill:none;stroke:#E74C3C;stroke-width:2.75;stroke-linecap:round;stroke-linejoin:round;stroke-dasharray:4.9941,6.9918;}
	.st94{fill:none;stroke:#E74C3C;stroke-width:2.75;stroke-linecap:round;stroke-linejoin:round;stroke-dasharray:4.9934,6.9908;}
	.st95{fill:none;stroke:#E74C3C;stroke-width:2.75;stroke-linecap:round;stroke-linejoin:round;stroke-dasharray:5.084,7.1176;}
	.st96{fill:none;stroke:#E74C3C;stroke-width:2.75;stroke-linecap:round;stroke-linejoin:round;stroke-dasharray:4.7328,6.6259;}
	.st97{fill:none;stroke:#E74C3C;stroke-width:2.75;stroke-linecap:round;stroke-linejoin:round;stroke-dasharray:5.0021,7.0029;}
	.st98{fill:none;stroke:#E74C3C;stroke-width:2.75;stroke-linecap:round;stroke-linejoin:round;stroke-dasharray:5.0707,7.099;}
	.st99{fill:none;stroke:#E74C3C;stroke-width:2.75;stroke-linecap:round;stroke-linejoin:round;stroke-dasharray:4.972,6.9608;}
	.st100{fill:none;stroke:#E74C3C;stroke-width:2.75;stroke-linecap:round;stroke-linejoin:round;stroke-dasharray:5.2674,7.3744;}
	.st101{fill:none;stroke:#E74C3C;stroke-width:2.75;stroke-linecap:round;stroke-linejoin:round;stroke-dasharray:5.0701,7.0982;}
	.st102{fill:none;stroke:#E74C3C;stroke-width:2.75;stroke-linecap:round;stroke-linejoin:round;stroke-dasharray:4.3861,6.1405;}
	.st103{fill:none;stroke:#E74C3C;stroke-width:2.75;stroke-linecap:round;stroke-linejoin:round;stroke-dasharray:4.9767,6.9673;}
	.st104{fill:none;stroke:#E74C3C;stroke-width:2.75;stroke-linecap:round;stroke-linejoin:round;stroke-dasharray:4.83,6.7619;}
	.st105{fill:none;stroke:#E74C3C;stroke-width:2.75;stroke-linecap:round;stroke-linejoin:round;stroke-dasharray:5.0363,7.0508;}
	.st106{fill:none;stroke:#E74C3C;stroke-width:2.75;stroke-linecap:round;stroke-linejoin:round;stroke-dasharray:5.0367,7.0514;}
	.st107{fill:none;stroke:#E74C3C;stroke-width:2.75;stroke-linecap:round;stroke-linejoin:round;stroke-dasharray:5.1703,7.2384;}
	.st108{fill:none;stroke:#E74C3C;stroke-width:2.75;stroke-linecap:round;stroke-linejoin:round;stroke-dasharray:5.0365,7.0511;}
	.st109{fill:none;stroke:#E74C3C;stroke-width:2.75;stroke-linecap:round;stroke-linejoin:round;stroke-dasharray:5.1584,7.2217;}
	.st110{fill:none;stroke:#E74C3C;stroke-width:2.75;stroke-linecap:round;stroke-linejoin:round;stroke-dasharray:4.991,6.9874;}
	.st111{fill:none;stroke:#E74C3C;stroke-width:2.75;stroke-linecap:round;stroke-linejoin:round;stroke-dasharray:5.0349,7.0488;}
	.st112{fill:none;stroke:#E74C3C;stroke-width:2.75;stroke-linecap:round;stroke-linejoin:round;stroke-dasharray:5.0245,7.0344;}
	.st113{fill:none;stroke:#E74C3C;stroke-width:2.75;stroke-linecap:round;stroke-linejoin:round;stroke-dasharray:4.6779,6.549;}
	.st114{fill:none;stroke:#E74C3C;stroke-width:2.75;stroke-linecap:round;stroke-linejoin:round;stroke-dasharray:5.0045,7.0062;}
	.st115{fill:none;stroke:#E74C3C;stroke-width:2.75;stroke-linecap:round;stroke-linejoin:round;stroke-dasharray:5.0006,7.0009;}
	.st116{fill:none;stroke:#E74C3C;stroke-width:2.75;stroke-linecap:round;stroke-linejoin:round;stroke-dasharray:4.9214,6.8899;}
	.st117{fill:none;stroke:#E74C3C;stroke-width:2.75;stroke-linecap:round;stroke-linejoin:round;stroke-dasharray:5.1511,7.2116;}
	.st118{fill:none;stroke:#E74C3C;stroke-width:2.75;stroke-linecap:round;stroke-linejoin:round;stroke-dasharray:4.6739,6.5435;}
	.st119{fill:none;stroke:#E74C3C;stroke-width:2.75;stroke-linecap:round;stroke-linejoin:round;stroke-dasharray:4.94,6.916;}
	.st120{fill:none;stroke:#E74C3C;stroke-width:2.75;stroke-linecap:round;stroke-linejoin:round;stroke-dasharray:4.6421,6.499;}
	.st121{fill:none;stroke:#E74C3C;stroke-width:2.75;stroke-linecap:round;stroke-linejoin:round;stroke-dasharray:4.9808,6.9731;}
	.st122{fill:none;stroke:#E74C3C;stroke-width:1.25;stroke-linecap:round;stroke-linejoin:round;stroke-miterlimit:10;}
	.st123{fill:none;stroke:#E74C3C;stroke-width:0.75;stroke-linecap:round;stroke-linejoin:round;stroke-miterlimit:10;}
	.st124{fill:none;stroke:#E74C3C;stroke-width:1.75;stroke-linecap:round;stroke-linejoin:round;stroke-miterlimit:10;}
	.st125{fill:none;stroke:#E74C3C;stroke-width:1.5;stroke-linecap:round;stroke-linejoin:round;stroke-miterlimit:10;}
	.st126{fill:none;stroke:#E74C3C;stroke-width:2.75;stroke-linecap:round;stroke-linejoin:round;stroke-miterlimit:10;}
	.st127{fill:none;stroke:#E74C3C;stroke-width:2.25;stroke-linecap:round;stroke-linejoin:round;stroke-miterlimit:10;}
	.st128{fill:none;stroke:#E74C3C;stroke-width:2.75;stroke-linecap:round;stroke-linejoin:round;stroke-dasharray:4.925,6.895;}
	.st129{fill:none;stroke:#E74C3C;stroke-width:2.75;stroke-linecap:round;stroke-linejoin:round;stroke-dasharray:4.9103,6.8744;}
	.st130{fill:none;stroke:#E74C3C;stroke-width:2.75;stroke-linecap:round;stroke-linejoin:round;stroke-dasharray:5,7;}
	.st131{fill:none;stroke:#E74C3C;stroke-width:2.75;stroke-linecap:round;stroke-linejoin:round;stroke-dasharray:5.0227,7.0318;}
	.st132{fill:none;stroke:#E74C3C;stroke-width:2.75;stroke-linecap:round;stroke-linejoin:round;stroke-dasharray:5.022,7.0308;}
	.st133{fill:none;stroke:#E74C3C;stroke-width:3;stroke-linecap:round;stroke-linejoin:round;stroke-miterlimit:10;}
	.st134{fill:none;stroke:#E74C3C;stroke-width:3.25;stroke-linecap:round;stroke-linejoin:round;stroke-miterlimit:10;}
	.st135{fill:none;stroke:#E74C3C;stroke-width:3.5;stroke-linecap:round;stroke-linejoin:round;stroke-miterlimit:10;}
	.st136{fill:none;stroke:#E74C3C;stroke-width:2.15;stroke-linecap:round;stroke-linejoin:round;stroke-miterlimit:10;}
</style>
<g id="FILL-BACKGROUND">
	<rect x="0" class="st0" width="1000" height="725"/>
</g>
<g id="N-TEXT">
</g>
<g id="N-DIMENSIONS">
	<g>
		<g>
			<g id="POLYLINE_5424_">
				<polyline class="st2" points="155.76,661.46 150.03,667.18 155.76,672.91 				"/>
			</g>
			<g id="POLYLINE_5423_">
				<line class="st2" x1="150.03" y1="667.18" x2="395" y2="667.18"/>
			</g>
			<g id="POLYLINE_5422_">
				<line class="st2" x1="525.15" y1="667.18" x2="732.8" y2="667.18"/>
			</g>
			<g id="POLYLINE_5421_">
				<polyline class="st2" points="727.06,661.47 732.79,667.19 727.06,672.92 				"/>
			</g>
			<g id="MTEXT_76_">
				<g>
					<path class="st1" d="M409.98,674.15c-0.76-0.34-1.34-0.78-1.73-1.33c-0.39-0.55-0.6-1.11-0.63-1.7c0-0.12,0.04-0.22,0.12-0.29
						c0.08-0.07,0.18-0.11,0.3-0.11h0.9c0.15,0,0.27,0.03,0.36,0.09c0.09,0.06,0.17,0.18,0.22,0.35c0.17,0.68,0.55,1.16,1.13,1.44
						c0.58,0.28,1.26,0.42,2.05,0.42c0.96,0,1.72-0.23,2.29-0.69c0.57-0.46,0.85-1.12,0.85-1.97c0-1.63-0.99-2.44-2.98-2.44h-1.88
						c-0.13,0-0.24-0.04-0.33-0.13s-0.13-0.2-0.13-0.33v-0.52c0-0.2,0.07-0.37,0.22-0.52l3.9-4.32h-5.92
						c-0.13,0-0.24-0.04-0.33-0.12c-0.09-0.08-0.13-0.19-0.13-0.32v-0.72c0-0.15,0.04-0.26,0.13-0.35s0.2-0.13,0.33-0.13h7.92
						c0.15,0,0.26,0.04,0.35,0.13c0.09,0.09,0.13,0.2,0.13,0.35v0.66c0,0.15-0.07,0.3-0.2,0.46l-3.9,4.38h0.32
						c1.36,0.04,2.44,0.39,3.23,1.06c0.79,0.67,1.19,1.64,1.19,2.92c0,0.88-0.22,1.64-0.65,2.27c-0.43,0.63-1.04,1.12-1.81,1.46
						c-0.77,0.34-1.65,0.51-2.62,0.51C411.64,674.66,410.74,674.49,409.98,674.15z"/>
					<path class="st1" d="M422.31,674.33c-0.07-0.09-0.11-0.19-0.11-0.31c0-0.09,0.03-0.18,0.08-0.26l3.08-4.28
						c-0.32,0.08-0.69,0.12-1.12,0.12c-0.96-0.01-1.8-0.24-2.52-0.67c-0.72-0.43-1.27-1-1.65-1.7c-0.38-0.7-0.57-1.45-0.57-2.25
						c0-0.8,0.19-1.56,0.57-2.28c0.38-0.72,0.95-1.31,1.7-1.76s1.66-0.68,2.73-0.68c1.07,0,1.98,0.22,2.74,0.66
						c0.76,0.44,1.33,1.02,1.72,1.73c0.39,0.71,0.58,1.48,0.58,2.29c0,0.73-0.13,1.38-0.39,1.94c-0.26,0.56-0.6,1.14-1.03,1.74
						l-3.88,5.44c-0.09,0.12-0.18,0.22-0.27,0.29c-0.09,0.07-0.21,0.11-0.37,0.11h-1C422.48,674.46,422.38,674.42,422.31,674.33z
						 M426.08,667.64c0.48-0.25,0.86-0.61,1.14-1.07s0.42-0.99,0.42-1.59c0-0.61-0.14-1.15-0.42-1.62s-0.66-0.83-1.14-1.08
						c-0.48-0.25-1.01-0.38-1.58-0.38c-0.56,0-1.08,0.13-1.55,0.38c-0.47,0.25-0.85,0.61-1.13,1.08c-0.28,0.47-0.42,1.01-0.42,1.62
						c0,0.6,0.14,1.13,0.42,1.59c0.28,0.46,0.65,0.82,1.12,1.07c0.47,0.25,0.99,0.38,1.56,0.38S425.6,667.9,426.08,667.64z"/>
					<path class="st1" d="M430.73,674.33c-0.09-0.09-0.13-0.2-0.13-0.33v-1.38c0-0.13,0.04-0.25,0.13-0.34
						c0.09-0.09,0.2-0.14,0.33-0.14h1.38c0.13,0,0.24,0.05,0.33,0.14c0.09,0.09,0.13,0.21,0.13,0.34V674c0,0.13-0.04,0.24-0.13,0.33
						c-0.09,0.09-0.2,0.13-0.33,0.13h-1.38C430.93,674.46,430.82,674.42,430.73,674.33z"/>
					<path class="st1" d="M437.46,674.15c-0.76-0.34-1.34-0.78-1.73-1.33c-0.39-0.55-0.6-1.11-0.63-1.7c0-0.12,0.04-0.22,0.12-0.29
						c0.08-0.07,0.18-0.11,0.3-0.11h0.9c0.15,0,0.27,0.03,0.36,0.09c0.09,0.06,0.17,0.18,0.22,0.35c0.17,0.68,0.55,1.16,1.13,1.44
						c0.58,0.28,1.26,0.42,2.05,0.42c0.96,0,1.72-0.23,2.29-0.69c0.57-0.46,0.85-1.12,0.85-1.97c0-1.63-0.99-2.44-2.98-2.44h-1.88
						c-0.13,0-0.24-0.04-0.33-0.13s-0.13-0.2-0.13-0.33v-0.52c0-0.2,0.07-0.37,0.22-0.52l3.9-4.32h-5.92
						c-0.13,0-0.24-0.04-0.33-0.12c-0.09-0.08-0.13-0.19-0.13-0.32v-0.72c0-0.15,0.04-0.26,0.13-0.35s0.2-0.13,0.33-0.13h7.92
						c0.15,0,0.26,0.04,0.35,0.13c0.09,0.09,0.13,0.2,0.13,0.35v0.66c0,0.15-0.07,0.3-0.2,0.46l-3.9,4.38h0.32
						c1.36,0.04,2.44,0.39,3.23,1.06c0.79,0.67,1.19,1.64,1.19,2.92c0,0.88-0.22,1.64-0.65,2.27c-0.43,0.63-1.04,1.12-1.81,1.46
						c-0.77,0.34-1.65,0.51-2.62,0.51C439.12,674.66,438.22,674.49,437.46,674.15z"/>
					<path class="st1" d="M448.91,674.33c-0.07-0.09-0.11-0.19-0.11-0.31l0.04-0.18l5-11.7h-6.6c-0.13,0-0.24-0.04-0.33-0.13
						c-0.09-0.09-0.13-0.2-0.13-0.33v-0.74c0-0.15,0.04-0.26,0.12-0.35s0.19-0.13,0.34-0.13h8.16c0.15,0,0.26,0.04,0.34,0.13
						s0.12,0.2,0.12,0.35v0.68c0,0.24-0.05,0.5-0.16,0.78l-4.94,11.56c-0.07,0.15-0.14,0.27-0.22,0.36
						c-0.08,0.09-0.19,0.14-0.34,0.14h-1C449.08,674.46,448.98,674.42,448.91,674.33z"/>
					<path class="st1" d="M457.62,663.95c-0.05-0.07-0.07-0.18-0.06-0.31l0.44-2.8c0.05-0.39,0.24-0.58,0.56-0.58h1.28
						c0.09,0,0.17,0.03,0.23,0.1c0.06,0.07,0.09,0.15,0.09,0.24c0,0.13-0.02,0.24-0.06,0.32l-1.04,2.7
						c-0.07,0.15-0.14,0.26-0.22,0.33c-0.08,0.07-0.2,0.11-0.36,0.11h-0.62C457.75,664.06,457.67,664.03,457.62,663.95z"/>
					<path class="st1" d="M467.48,678.49c-0.08-0.09-0.12-0.2-0.12-0.33V657c0-0.13,0.04-0.24,0.12-0.33s0.19-0.13,0.32-0.13h0.74
						c0.13,0,0.24,0.04,0.33,0.13s0.13,0.2,0.13,0.33v21.16c0,0.13-0.04,0.24-0.13,0.33c-0.09,0.09-0.2,0.13-0.33,0.13h-0.74
						C467.67,678.62,467.56,678.58,467.48,678.49z"/>
					<path class="st1" d="M480.6,674.33c-0.08-0.09-0.12-0.2-0.12-0.33v-11.28l-3.36,2.58c-0.09,0.08-0.19,0.12-0.3,0.12
						c-0.12,0-0.23-0.07-0.34-0.2L476,664.6c-0.07-0.09-0.1-0.19-0.1-0.28c0-0.15,0.07-0.27,0.2-0.36l4.34-3.36
						c0.15-0.09,0.32-0.14,0.52-0.14h0.94c0.13,0,0.24,0.04,0.33,0.13s0.13,0.2,0.13,0.33V674c0,0.13-0.04,0.24-0.13,0.33
						s-0.2,0.13-0.33,0.13h-0.98C480.79,674.46,480.68,674.42,480.6,674.33z"/>
					<path class="st1" d="M485.01,674.33c-0.09-0.09-0.13-0.2-0.13-0.33v-0.6c0-0.31,0.17-0.6,0.5-0.88l4.36-4.34
						c0.99-0.84,1.67-1.53,2.04-2.06s0.56-1.1,0.56-1.7c0-0.79-0.22-1.4-0.66-1.85c-0.44-0.45-1.08-0.67-1.92-0.67
						c-0.8,0-1.43,0.23-1.9,0.7c-0.47,0.47-0.75,1.09-0.86,1.88c-0.03,0.15-0.09,0.26-0.2,0.34c-0.11,0.08-0.21,0.12-0.32,0.12
						h-0.96c-0.12,0-0.22-0.04-0.3-0.12s-0.12-0.17-0.12-0.28c0.03-0.71,0.22-1.39,0.57-2.05c0.35-0.66,0.88-1.2,1.57-1.62
						s1.53-0.63,2.52-0.63c1.49,0,2.62,0.39,3.37,1.17c0.75,0.78,1.13,1.77,1.13,2.97c0,0.84-0.2,1.6-0.61,2.27
						c-0.41,0.67-1.04,1.38-1.91,2.13l-3.94,4h6.3c0.15,0,0.26,0.04,0.34,0.12c0.08,0.08,0.12,0.19,0.12,0.34V674
						c0,0.13-0.04,0.24-0.13,0.33c-0.09,0.09-0.2,0.13-0.33,0.13h-8.76C485.21,674.46,485.1,674.42,485.01,674.33z"/>
					<path class="st1" d="M502.13,674.33c-0.09-0.09-0.13-0.2-0.13-0.33v-9.48c0-0.13,0.04-0.24,0.13-0.33
						c0.09-0.09,0.2-0.13,0.33-0.13h0.84c0.13,0,0.24,0.04,0.32,0.13c0.08,0.09,0.12,0.2,0.12,0.33v0.68
						c0.72-0.89,1.69-1.34,2.92-1.34c1.47,0,2.51,0.61,3.12,1.84c0.32-0.56,0.78-1.01,1.37-1.34c0.59-0.33,1.26-0.5,1.99-0.5
						c1.09,0,1.99,0.37,2.68,1.12c0.69,0.75,1.04,1.83,1.04,3.24V674c0,0.13-0.04,0.24-0.13,0.33c-0.09,0.09-0.2,0.13-0.33,0.13
						h-0.86c-0.13,0-0.24-0.04-0.33-0.13s-0.13-0.2-0.13-0.33v-5.6c0-1.07-0.22-1.83-0.66-2.29c-0.44-0.46-1.02-0.69-1.74-0.69
						c-0.64,0-1.19,0.24-1.65,0.71c-0.46,0.47-0.69,1.23-0.69,2.27v5.6c0,0.13-0.04,0.24-0.13,0.33s-0.2,0.13-0.33,0.13H509
						c-0.13,0-0.24-0.04-0.33-0.13s-0.13-0.2-0.13-0.33v-5.6c0-1.05-0.23-1.81-0.69-2.28s-1.03-0.7-1.71-0.7
						c-0.64,0-1.19,0.23-1.65,0.7s-0.69,1.22-0.69,2.26V674c0,0.13-0.04,0.24-0.13,0.33s-0.2,0.13-0.33,0.13h-0.88
						C502.33,674.46,502.22,674.42,502.13,674.33z"/>
				</g>
			</g>
		</g>
		<g>
			<g id="MTEXT_75_" class="st8">
				<g>
					<path class="st1" d="M786.18,337.87c-0.76-0.34-1.34-0.78-1.73-1.33c-0.39-0.55-0.6-1.11-0.63-1.7c0-0.12,0.04-0.22,0.12-0.29
						c0.08-0.07,0.18-0.11,0.3-0.11h0.9c0.15,0,0.27,0.03,0.36,0.09c0.09,0.06,0.17,0.18,0.22,0.35c0.17,0.68,0.55,1.16,1.13,1.44
						c0.58,0.28,1.26,0.42,2.05,0.42c0.96,0,1.72-0.23,2.29-0.69c0.57-0.46,0.85-1.12,0.85-1.97c0-1.63-0.99-2.44-2.98-2.44h-1.88
						c-0.13,0-0.24-0.04-0.33-0.13s-0.13-0.2-0.13-0.33v-0.52c0-0.2,0.07-0.37,0.22-0.52l3.9-4.32h-5.92
						c-0.13,0-0.24-0.04-0.33-0.12c-0.09-0.08-0.13-0.19-0.13-0.32v-0.72c0-0.15,0.04-0.26,0.13-0.35s0.2-0.13,0.33-0.13h7.92
						c0.15,0,0.26,0.04,0.35,0.13c0.09,0.09,0.13,0.2,0.13,0.35v0.66c0,0.15-0.07,0.3-0.2,0.46l-3.9,4.38h0.32
						c1.36,0.04,2.44,0.39,3.23,1.06c0.79,0.67,1.19,1.64,1.19,2.92c0,0.88-0.22,1.64-0.65,2.27c-0.43,0.63-1.04,1.12-1.81,1.46
						c-0.77,0.34-1.65,0.51-2.62,0.51C787.84,338.38,786.94,338.21,786.18,337.87z"/>
					<path class="st1" d="M798.51,338.04c-0.07-0.09-0.11-0.19-0.11-0.31c0-0.09,0.03-0.18,0.08-0.26l3.08-4.28
						c-0.32,0.08-0.69,0.12-1.12,0.12c-0.96-0.01-1.8-0.24-2.52-0.67c-0.72-0.43-1.27-1-1.65-1.7c-0.38-0.7-0.57-1.45-0.57-2.25
						c0-0.8,0.19-1.56,0.57-2.28c0.38-0.72,0.95-1.31,1.7-1.76s1.66-0.68,2.73-0.68c1.07,0,1.98,0.22,2.74,0.66
						c0.76,0.44,1.33,1.02,1.72,1.73c0.39,0.71,0.58,1.48,0.58,2.29c0,0.73-0.13,1.38-0.39,1.94c-0.26,0.56-0.6,1.14-1.03,1.74
						l-3.88,5.44c-0.09,0.12-0.18,0.22-0.27,0.29c-0.09,0.07-0.21,0.11-0.37,0.11h-1C798.68,338.17,798.58,338.13,798.51,338.04z
						 M802.28,331.35c0.48-0.25,0.86-0.61,1.14-1.07s0.42-0.99,0.42-1.59c0-0.61-0.14-1.15-0.42-1.62s-0.66-0.83-1.14-1.08
						c-0.48-0.25-1.01-0.38-1.58-0.38c-0.56,0-1.08,0.13-1.55,0.38c-0.47,0.25-0.85,0.61-1.13,1.08c-0.28,0.47-0.42,1.01-0.42,1.62
						c0,0.6,0.14,1.13,0.42,1.59c0.28,0.46,0.65,0.82,1.12,1.07c0.47,0.25,0.99,0.38,1.56,0.38S801.8,331.61,802.28,331.35z"/>
					<path class="st1" d="M806.93,338.04c-0.09-0.09-0.13-0.2-0.13-0.33v-1.38c0-0.13,0.04-0.25,0.13-0.34
						c0.09-0.09,0.2-0.14,0.33-0.14h1.38c0.13,0,0.24,0.05,0.33,0.14c0.09,0.09,0.13,0.21,0.13,0.34v1.38
						c0,0.13-0.04,0.24-0.13,0.33c-0.09,0.09-0.2,0.13-0.33,0.13h-1.38C807.12,338.17,807.01,338.13,806.93,338.04z"/>
					<path class="st1" d="M813.66,337.87c-0.76-0.34-1.34-0.78-1.73-1.33c-0.39-0.55-0.6-1.11-0.63-1.7c0-0.12,0.04-0.22,0.12-0.29
						c0.08-0.07,0.18-0.11,0.3-0.11h0.9c0.15,0,0.27,0.03,0.36,0.09c0.09,0.06,0.17,0.18,0.22,0.35c0.17,0.68,0.55,1.16,1.13,1.44
						c0.58,0.28,1.26,0.42,2.05,0.42c0.96,0,1.72-0.23,2.29-0.69c0.57-0.46,0.85-1.12,0.85-1.97c0-1.63-0.99-2.44-2.98-2.44h-1.88
						c-0.13,0-0.24-0.04-0.33-0.13s-0.13-0.2-0.13-0.33v-0.52c0-0.2,0.07-0.37,0.22-0.52l3.9-4.32h-5.92
						c-0.13,0-0.24-0.04-0.33-0.12c-0.09-0.08-0.13-0.19-0.13-0.32v-0.72c0-0.15,0.04-0.26,0.13-0.35s0.2-0.13,0.33-0.13h7.92
						c0.15,0,0.26,0.04,0.35,0.13c0.09,0.09,0.13,0.2,0.13,0.35v0.66c0,0.15-0.07,0.3-0.2,0.46l-3.9,4.38h0.32
						c1.36,0.04,2.44,0.39,3.23,1.06c0.79,0.67,1.19,1.64,1.19,2.92c0,0.88-0.22,1.64-0.65,2.27c-0.43,0.63-1.04,1.12-1.81,1.46
						c-0.77,0.34-1.65,0.51-2.62,0.51C815.32,338.38,814.42,338.21,813.66,337.87z"/>
					<path class="st1" d="M825.11,338.04c-0.07-0.09-0.11-0.19-0.11-0.31l0.04-0.18l5-11.7h-6.6c-0.13,0-0.24-0.04-0.33-0.13
						c-0.09-0.09-0.13-0.2-0.13-0.33v-0.74c0-0.15,0.04-0.26,0.12-0.35s0.19-0.13,0.34-0.13h8.16c0.15,0,0.26,0.04,0.34,0.13
						s0.12,0.2,0.12,0.35v0.68c0,0.24-0.05,0.5-0.16,0.78l-4.94,11.56c-0.07,0.15-0.14,0.27-0.22,0.36
						c-0.08,0.09-0.19,0.14-0.34,0.14h-1C825.28,338.17,825.18,338.13,825.11,338.04z"/>
					<path class="st1" d="M833.81,327.66c-0.06-0.08-0.08-0.18-0.05-0.3l0.44-2.8c0.05-0.39,0.24-0.58,0.56-0.58h1.28
						c0.09,0,0.17,0.03,0.23,0.1c0.06,0.07,0.09,0.15,0.09,0.24c0,0.13-0.02,0.24-0.06,0.32l-1.04,2.7
						c-0.07,0.15-0.14,0.26-0.22,0.33c-0.08,0.07-0.2,0.11-0.36,0.11h-0.62C833.95,327.77,833.87,327.73,833.81,327.66z
						 M836.95,327.66c-0.06-0.08-0.08-0.18-0.05-0.3l0.44-2.8c0.05-0.39,0.24-0.58,0.56-0.58h1.28c0.09,0,0.17,0.03,0.23,0.1
						c0.06,0.07,0.09,0.15,0.09,0.24c0,0.13-0.02,0.24-0.06,0.32l-1.04,2.7c-0.07,0.15-0.14,0.26-0.22,0.33s-0.2,0.11-0.36,0.11
						h-0.62C837.09,327.77,837.01,327.73,836.95,327.66z"/>
					<path class="st1" d="M846.82,342.21c-0.08-0.09-0.12-0.2-0.12-0.33v-21.16c0-0.13,0.04-0.24,0.12-0.33s0.19-0.13,0.32-0.13
						h0.74c0.13,0,0.24,0.04,0.33,0.13s0.13,0.2,0.13,0.33v21.16c0,0.13-0.04,0.24-0.13,0.33c-0.09,0.09-0.2,0.13-0.33,0.13h-0.74
						C847,342.33,846.9,342.29,846.82,342.21z"/>
					<path class="st1" d="M859.94,338.04c-0.08-0.09-0.12-0.2-0.12-0.33v-11.28l-3.36,2.58c-0.09,0.08-0.19,0.12-0.3,0.12
						c-0.12,0-0.23-0.07-0.34-0.2l-0.48-0.62c-0.07-0.09-0.1-0.19-0.1-0.28c0-0.15,0.07-0.27,0.2-0.36l4.34-3.36
						c0.15-0.09,0.32-0.14,0.52-0.14h0.94c0.13,0,0.24,0.04,0.33,0.13s0.13,0.2,0.13,0.33v13.08c0,0.13-0.04,0.24-0.13,0.33
						s-0.2,0.13-0.33,0.13h-0.98C860.12,338.17,860.02,338.13,859.94,338.04z"/>
					<path class="st1" d="M869.79,338.04c-0.09-0.09-0.13-0.2-0.13-0.33v-9.48c0-0.13,0.04-0.24,0.13-0.33
						c0.09-0.09,0.2-0.13,0.33-0.13h0.84c0.13,0,0.24,0.04,0.32,0.13c0.08,0.09,0.12,0.2,0.12,0.33v0.68
						c0.72-0.89,1.69-1.34,2.92-1.34c1.47,0,2.51,0.61,3.12,1.84c0.32-0.56,0.78-1.01,1.37-1.34c0.59-0.33,1.26-0.5,1.99-0.5
						c1.09,0,1.99,0.37,2.68,1.12c0.69,0.75,1.04,1.83,1.04,3.24v5.78c0,0.13-0.04,0.24-0.13,0.33c-0.09,0.09-0.2,0.13-0.33,0.13
						h-0.86c-0.13,0-0.24-0.04-0.33-0.13s-0.13-0.2-0.13-0.33v-5.6c0-1.07-0.22-1.83-0.66-2.29c-0.44-0.46-1.02-0.69-1.74-0.69
						c-0.64,0-1.19,0.24-1.65,0.71c-0.46,0.47-0.69,1.23-0.69,2.27v5.6c0,0.13-0.04,0.24-0.13,0.33s-0.2,0.13-0.33,0.13h-0.88
						c-0.13,0-0.24-0.04-0.33-0.13s-0.13-0.2-0.13-0.33v-5.6c0-1.05-0.23-1.81-0.69-2.28s-1.03-0.7-1.71-0.7
						c-0.64,0-1.19,0.23-1.65,0.7s-0.69,1.22-0.69,2.26v5.62c0,0.13-0.04,0.24-0.13,0.33s-0.2,0.13-0.33,0.13h-0.88
						C869.98,338.17,869.87,338.13,869.79,338.04z"/>
					<path class="st1" d="M786.01,362.18c-0.67-0.65-1.16-1.65-1.45-3.01c-0.29-1.36-0.44-3.15-0.44-5.38s0.15-4.02,0.44-5.37
						c0.29-1.35,0.78-2.35,1.45-3s1.58-0.97,2.73-0.97c0.13,0,0.24,0.04,0.33,0.13c0.09,0.09,0.13,0.2,0.13,0.33v0.66
						c0,0.12-0.04,0.22-0.12,0.31s-0.17,0.13-0.28,0.13c-0.76,0.01-1.35,0.27-1.78,0.77s-0.73,1.31-0.92,2.42s-0.28,2.64-0.28,4.59
						c0,1.96,0.09,3.5,0.28,4.61s0.49,1.92,0.92,2.42s1.02,0.76,1.78,0.77c0.11,0,0.2,0.04,0.28,0.13s0.12,0.19,0.12,0.31v0.66
						c0,0.13-0.04,0.24-0.13,0.33c-0.09,0.09-0.2,0.13-0.33,0.13C787.59,363.15,786.68,362.83,786.01,362.18z"/>
					<path class="st1" d="M791.77,358.72c-0.93-0.97-1.42-2.29-1.49-3.97c-0.01-0.36-0.02-0.95-0.02-1.76c0-0.83,0.01-1.43,0.02-1.8
						c0.07-1.68,0.56-3,1.49-3.97s2.28-1.45,4.05-1.45c1.19,0,2.19,0.21,3.02,0.63c0.83,0.42,1.45,0.97,1.87,1.65
						s0.65,1.41,0.69,2.18c0,0.12-0.04,0.22-0.13,0.29s-0.19,0.11-0.31,0.11h-1c-0.13,0-0.24-0.03-0.32-0.1
						c-0.08-0.07-0.14-0.18-0.18-0.34c-0.23-1.03-0.64-1.75-1.23-2.16c-0.59-0.41-1.4-0.62-2.41-0.62c-2.32,0-3.53,1.29-3.62,3.88
						c-0.01,0.36-0.02,0.91-0.02,1.66c0,0.75,0.01,1.31,0.02,1.7c0.09,2.57,1.3,3.86,3.62,3.86c1,0,1.8-0.21,2.4-0.62
						c0.6-0.41,1.01-1.13,1.24-2.14c0.04-0.16,0.1-0.27,0.18-0.34c0.08-0.07,0.19-0.1,0.32-0.1h1c0.12,0,0.22,0.04,0.31,0.11
						s0.13,0.17,0.13,0.29c-0.04,0.77-0.27,1.5-0.69,2.18s-1.04,1.23-1.87,1.65c-0.83,0.42-1.83,0.63-3.02,0.63
						C794.04,360.17,792.69,359.69,791.77,358.72z"/>
					<path class="st1" d="M804.72,358.9c-0.81-0.85-1.26-2-1.34-3.47l-0.02-0.68l0.02-0.66c0.08-1.44,0.53-2.59,1.34-3.44
						c0.81-0.85,1.9-1.28,3.26-1.28c1.47,0,2.6,0.47,3.41,1.4c0.81,0.93,1.21,2.2,1.21,3.8v0.36c0,0.13-0.04,0.24-0.13,0.33
						c-0.09,0.09-0.2,0.13-0.33,0.13h-6.94v0.18c0.04,0.87,0.31,1.61,0.8,2.22s1.15,0.92,1.96,0.92c0.63,0,1.14-0.12,1.53-0.37
						s0.69-0.5,0.89-0.77c0.12-0.16,0.21-0.26,0.28-0.29c0.07-0.03,0.18-0.05,0.34-0.05h0.88c0.12,0,0.22,0.03,0.31,0.1
						c0.09,0.07,0.13,0.15,0.13,0.26c0,0.29-0.18,0.65-0.54,1.06c-0.36,0.41-0.87,0.77-1.53,1.07c-0.66,0.3-1.42,0.45-2.27,0.45
						C806.62,360.17,805.53,359.75,804.72,358.9z M810.78,354.03v-0.06c0-0.93-0.25-1.69-0.76-2.28c-0.51-0.59-1.19-0.88-2.04-0.88
						c-0.87,0-1.55,0.29-2.04,0.88c-0.49,0.59-0.74,1.35-0.74,2.28v0.06H810.78z"/>
					<path class="st1" d="M815.17,359.84c-0.09-0.09-0.13-0.2-0.13-0.33v-9.48c0-0.13,0.04-0.24,0.13-0.33
						c0.09-0.09,0.2-0.13,0.33-0.13h0.86c0.15,0,0.26,0.04,0.34,0.12s0.12,0.19,0.12,0.34v0.88c0.4-0.49,0.86-0.87,1.39-1.14
						s1.18-0.4,1.97-0.4c1.28,0,2.27,0.41,2.98,1.23c0.71,0.82,1.06,1.9,1.06,3.25v5.66c0,0.13-0.04,0.24-0.13,0.33
						s-0.2,0.13-0.33,0.13h-0.92c-0.13,0-0.24-0.04-0.33-0.13s-0.13-0.2-0.13-0.33v-5.54c0-0.96-0.23-1.71-0.7-2.24s-1.13-0.8-2-0.8
						c-0.85,0-1.53,0.27-2.04,0.81c-0.51,0.54-0.76,1.28-0.76,2.23v5.54c0,0.13-0.04,0.24-0.13,0.33s-0.2,0.13-0.33,0.13h-0.92
						C815.36,359.97,815.25,359.93,815.17,359.84z"/>
					<path class="st1" d="M827.88,356.47v-5.36h-1.58c-0.13,0-0.24-0.04-0.32-0.12c-0.08-0.08-0.12-0.19-0.12-0.32v-0.64
						c0-0.13,0.04-0.24,0.12-0.33c0.08-0.09,0.19-0.13,0.32-0.13h1.58v-3.34c0-0.13,0.04-0.24,0.12-0.33
						c0.08-0.09,0.19-0.13,0.32-0.13h0.88c0.13,0,0.24,0.04,0.33,0.13c0.09,0.09,0.13,0.2,0.13,0.33v3.34h2.48
						c0.13,0,0.24,0.04,0.33,0.13c0.09,0.09,0.13,0.2,0.13,0.33v0.64c0,0.13-0.04,0.24-0.13,0.32c-0.09,0.08-0.2,0.12-0.33,0.12
						h-2.48v5.22c0,0.68,0.11,1.19,0.33,1.54c0.22,0.35,0.6,0.52,1.13,0.52h1.22c0.13,0,0.24,0.04,0.32,0.13
						c0.08,0.09,0.12,0.2,0.12,0.33v0.66c0,0.13-0.04,0.24-0.12,0.33s-0.19,0.13-0.32,0.13h-1.36
						C828.91,359.97,827.88,358.81,827.88,356.47z"/>
					<path class="st1" d="M835.6,358.9c-0.81-0.85-1.26-2-1.34-3.47l-0.02-0.68l0.02-0.66c0.08-1.44,0.53-2.59,1.34-3.44
						c0.81-0.85,1.9-1.28,3.26-1.28c1.47,0,2.6,0.47,3.41,1.4c0.81,0.93,1.21,2.2,1.21,3.8v0.36c0,0.13-0.04,0.24-0.13,0.33
						c-0.09,0.09-0.2,0.13-0.33,0.13h-6.94v0.18c0.04,0.87,0.31,1.61,0.8,2.22s1.15,0.92,1.96,0.92c0.63,0,1.14-0.12,1.53-0.37
						s0.69-0.5,0.89-0.77c0.12-0.16,0.21-0.26,0.28-0.29c0.07-0.03,0.18-0.05,0.34-0.05h0.88c0.12,0,0.22,0.03,0.31,0.1
						c0.09,0.07,0.13,0.15,0.13,0.26c0,0.29-0.18,0.65-0.54,1.06c-0.36,0.41-0.87,0.77-1.53,1.07c-0.66,0.3-1.42,0.45-2.27,0.45
						C837.5,360.17,836.41,359.75,835.6,358.9z M841.66,354.03v-0.06c0-0.93-0.25-1.69-0.76-2.28c-0.51-0.59-1.19-0.88-2.04-0.88
						c-0.87,0-1.55,0.29-2.04,0.88c-0.49,0.59-0.74,1.35-0.74,2.28v0.06H841.66z"/>
					<path class="st1" d="M846.05,359.84c-0.09-0.09-0.13-0.2-0.13-0.33v-9.46c0-0.13,0.04-0.25,0.13-0.34
						c0.09-0.09,0.2-0.14,0.33-0.14h0.84c0.15,0,0.26,0.04,0.35,0.13c0.09,0.09,0.13,0.2,0.13,0.35v0.88
						c0.55-0.91,1.47-1.36,2.78-1.36h0.78c0.15,0,0.26,0.04,0.34,0.12s0.12,0.19,0.12,0.34v0.74c0,0.13-0.04,0.24-0.12,0.33
						s-0.19,0.13-0.34,0.13h-1.14c-0.73,0-1.31,0.21-1.73,0.64s-0.63,1.01-0.63,1.74v5.9c0,0.13-0.05,0.24-0.14,0.33
						c-0.09,0.09-0.21,0.13-0.34,0.13h-0.9C846.24,359.97,846.13,359.93,846.05,359.84z"/>
					<path class="st1" d="M859.11,358.72c-0.93-0.97-1.42-2.29-1.49-3.97c-0.01-0.36-0.02-0.95-0.02-1.76c0-0.83,0.01-1.43,0.02-1.8
						c0.07-1.68,0.56-3,1.49-3.97s2.28-1.45,4.05-1.45c1.19,0,2.19,0.21,3.02,0.63c0.83,0.42,1.45,0.97,1.87,1.65
						s0.65,1.41,0.69,2.18c0,0.12-0.04,0.22-0.13,0.29s-0.19,0.11-0.31,0.11h-1c-0.13,0-0.24-0.03-0.32-0.1
						c-0.08-0.07-0.14-0.18-0.18-0.34c-0.23-1.03-0.64-1.75-1.23-2.16c-0.59-0.41-1.4-0.62-2.41-0.62c-2.32,0-3.53,1.29-3.62,3.88
						c-0.01,0.36-0.02,0.91-0.02,1.66c0,0.75,0.01,1.31,0.02,1.7c0.09,2.57,1.3,3.86,3.62,3.86c1,0,1.8-0.21,2.4-0.62
						c0.6-0.41,1.01-1.13,1.24-2.14c0.04-0.16,0.1-0.27,0.18-0.34c0.08-0.07,0.19-0.1,0.32-0.1h1c0.12,0,0.22,0.04,0.31,0.11
						s0.13,0.17,0.13,0.29c-0.04,0.77-0.27,1.5-0.69,2.18s-1.04,1.23-1.87,1.65c-0.83,0.42-1.83,0.63-3.02,0.63
						C861.38,360.17,860.03,359.69,859.11,358.72z"/>
					<path class="st1" d="M871.17,347.48c-0.09-0.09-0.13-0.2-0.13-0.33v-1.04c0-0.13,0.04-0.25,0.13-0.34
						c0.09-0.09,0.2-0.14,0.33-0.14h1.18c0.13,0,0.25,0.05,0.34,0.14c0.09,0.09,0.14,0.21,0.14,0.34v1.04
						c0,0.13-0.05,0.24-0.14,0.33c-0.09,0.09-0.21,0.13-0.34,0.13h-1.18C871.36,347.61,871.25,347.57,871.17,347.48z M871.33,359.84
						c-0.09-0.09-0.13-0.2-0.13-0.33v-9.48c0-0.13,0.04-0.24,0.13-0.33c0.09-0.09,0.2-0.13,0.33-0.13h0.88
						c0.13,0,0.24,0.04,0.33,0.13c0.09,0.09,0.13,0.2,0.13,0.33v9.48c0,0.13-0.04,0.24-0.13,0.33s-0.2,0.13-0.33,0.13h-0.88
						C871.52,359.97,871.41,359.93,871.33,359.84z"/>
					<path class="st1" d="M876.13,359.84c-0.09-0.09-0.13-0.2-0.13-0.33v-9.46c0-0.13,0.04-0.25,0.13-0.34
						c0.09-0.09,0.2-0.14,0.33-0.14h0.84c0.15,0,0.26,0.04,0.35,0.13c0.09,0.09,0.13,0.2,0.13,0.35v0.88
						c0.55-0.91,1.47-1.36,2.78-1.36h0.78c0.15,0,0.26,0.04,0.34,0.12s0.12,0.19,0.12,0.34v0.74c0,0.13-0.04,0.24-0.12,0.33
						s-0.19,0.13-0.34,0.13h-1.14c-0.73,0-1.31,0.21-1.73,0.64s-0.63,1.01-0.63,1.74v5.9c0,0.13-0.05,0.24-0.14,0.33
						c-0.09,0.09-0.21,0.13-0.34,0.13h-0.9C876.32,359.97,876.21,359.93,876.13,359.84z"/>
					<path class="st1" d="M884.14,358.96c-0.8-0.81-1.22-1.94-1.26-3.39l-0.02-0.8l0.02-0.8c0.04-1.45,0.46-2.58,1.26-3.39
						c0.8-0.81,1.91-1.21,3.34-1.21c0.96,0,1.77,0.17,2.43,0.51s1.15,0.76,1.48,1.27c0.33,0.51,0.5,1.01,0.53,1.52
						c0.01,0.12-0.03,0.23-0.13,0.32c-0.1,0.09-0.21,0.14-0.33,0.14h-0.88c-0.13,0-0.23-0.03-0.3-0.09
						c-0.07-0.06-0.13-0.17-0.2-0.33c-0.24-0.65-0.57-1.12-0.99-1.39c-0.42-0.27-0.95-0.41-1.59-0.41c-0.84,0-1.51,0.26-2,0.78
						c-0.49,0.52-0.76,1.31-0.8,2.38l-0.02,0.7l0.02,0.7c0.04,1.07,0.31,1.86,0.8,2.38c0.49,0.52,1.16,0.78,2,0.78
						c0.65,0,1.19-0.14,1.6-0.41c0.41-0.27,0.74-0.74,0.98-1.39c0.07-0.16,0.13-0.27,0.2-0.33c0.07-0.06,0.17-0.09,0.3-0.09h0.88
						c0.12,0,0.23,0.05,0.33,0.14c0.1,0.09,0.14,0.2,0.13,0.32c-0.03,0.49-0.2,0.99-0.53,1.5c-0.33,0.51-0.82,0.93-1.48,1.28
						s-1.47,0.52-2.43,0.52C886.05,360.17,884.94,359.77,884.14,358.96z"/>
					<path class="st1" d="M894.47,359.84c-0.09-0.09-0.13-0.2-0.13-0.33v-13.28c0-0.15,0.04-0.26,0.13-0.34
						c0.09-0.08,0.2-0.12,0.33-0.12h0.88c0.13,0,0.24,0.04,0.33,0.13c0.09,0.09,0.13,0.2,0.13,0.33v13.28
						c0,0.13-0.04,0.24-0.13,0.33c-0.09,0.09-0.2,0.13-0.33,0.13h-0.88C894.66,359.97,894.55,359.93,894.47,359.84z"/>
					<path class="st1" d="M900,358.9c-0.81-0.85-1.26-2-1.34-3.47l-0.02-0.68l0.02-0.66c0.08-1.44,0.53-2.59,1.34-3.44
						c0.81-0.85,1.9-1.28,3.26-1.28c1.47,0,2.6,0.47,3.41,1.4c0.81,0.93,1.21,2.2,1.21,3.8v0.36c0,0.13-0.04,0.24-0.13,0.33
						c-0.09,0.09-0.2,0.13-0.33,0.13h-6.94v0.18c0.04,0.87,0.31,1.61,0.8,2.22s1.15,0.92,1.96,0.92c0.63,0,1.14-0.12,1.53-0.37
						s0.69-0.5,0.89-0.77c0.12-0.16,0.21-0.26,0.28-0.29c0.07-0.03,0.18-0.05,0.34-0.05h0.88c0.12,0,0.22,0.03,0.31,0.1
						c0.09,0.07,0.13,0.15,0.13,0.26c0,0.29-0.18,0.65-0.54,1.06c-0.36,0.41-0.87,0.77-1.53,1.07c-0.66,0.3-1.42,0.45-2.27,0.45
						C901.9,360.17,900.81,359.75,900,358.9z M906.06,354.03v-0.06c0-0.93-0.25-1.69-0.76-2.28c-0.51-0.59-1.19-0.88-2.04-0.88
						c-0.87,0-1.55,0.29-2.04,0.88c-0.49,0.59-0.74,1.35-0.74,2.28v0.06H906.06z"/>
					<path class="st1" d="M908.59,363.02c-0.09-0.09-0.13-0.2-0.13-0.33v-0.66c0-0.12,0.04-0.22,0.12-0.31s0.17-0.13,0.28-0.13
						c0.75-0.01,1.34-0.27,1.77-0.77s0.74-1.31,0.93-2.43s0.28-2.65,0.28-4.6c0-1.95-0.09-3.48-0.28-4.59s-0.5-1.92-0.93-2.42
						s-1.02-0.76-1.77-0.77c-0.11,0-0.2-0.04-0.28-0.13s-0.12-0.19-0.12-0.31v-0.66c0-0.13,0.04-0.24,0.13-0.33s0.19-0.13,0.31-0.13
						c1.15,0,2.06,0.32,2.73,0.97c0.67,0.65,1.16,1.65,1.45,3c0.29,1.35,0.44,3.14,0.44,5.37s-0.15,4.02-0.44,5.38
						c-0.29,1.36-0.78,2.36-1.45,3.01c-0.67,0.65-1.58,0.97-2.73,0.97C908.78,363.15,908.67,363.11,908.59,363.02z"/>
				</g>
			</g>
			<g id="MTEXT_72_" class="st8">
				<g>
					<path class="st1" d="M753.91,606.04c-0.09-0.09-0.13-0.2-0.13-0.33v-11.82h-3.86c-0.13,0-0.24-0.04-0.33-0.13
						c-0.09-0.09-0.13-0.2-0.13-0.33v-0.78c0-0.15,0.04-0.26,0.13-0.35s0.2-0.13,0.33-0.13h9.6c0.15,0,0.26,0.04,0.34,0.13
						s0.12,0.2,0.12,0.35v0.78c0,0.13-0.04,0.24-0.13,0.33c-0.09,0.09-0.2,0.13-0.33,0.13h-3.84v11.82c0,0.13-0.05,0.24-0.14,0.33
						c-0.09,0.09-0.21,0.13-0.34,0.13h-0.96C754.1,606.17,753.99,606.13,753.91,606.04z"/>
					<path class="st1" d="M760.91,605.13c-0.79-0.83-1.22-1.93-1.27-3.3l-0.02-0.86l0.02-0.86c0.05-1.37,0.48-2.47,1.29-3.3
						c0.81-0.83,1.93-1.24,3.37-1.24c1.44,0,2.56,0.41,3.37,1.24c0.81,0.83,1.24,1.93,1.29,3.3c0.03,0.29,0.04,0.58,0.04,0.86
						s-0.01,0.57-0.04,0.86c-0.05,1.37-0.48,2.47-1.27,3.3c-0.79,0.83-1.92,1.24-3.39,1.24S761.7,605.96,760.91,605.13z
						 M766.33,604.06c0.5-0.54,0.77-1.32,0.81-2.33c0.01-0.13,0.02-0.39,0.02-0.76c0-0.37-0.01-0.63-0.02-0.76
						c-0.04-1.01-0.31-1.79-0.81-2.33s-1.18-0.81-2.03-0.81s-1.53,0.27-2.03,0.81s-0.77,1.32-0.81,2.33l-0.02,0.76l0.02,0.76
						c0.04,1.01,0.31,1.79,0.81,2.33s1.18,0.81,2.03,0.81S765.83,604.6,766.33,604.06z"/>
					<path class="st1" d="M772.32,602.67v-5.36h-1.58c-0.13,0-0.24-0.04-0.32-0.12c-0.08-0.08-0.12-0.19-0.12-0.32v-0.64
						c0-0.13,0.04-0.24,0.12-0.33c0.08-0.09,0.19-0.13,0.32-0.13h1.58v-3.34c0-0.13,0.04-0.24,0.12-0.33
						c0.08-0.09,0.19-0.13,0.32-0.13h0.88c0.13,0,0.24,0.04,0.33,0.13c0.09,0.09,0.13,0.2,0.13,0.33v3.34h2.48
						c0.13,0,0.24,0.04,0.33,0.13c0.09,0.09,0.13,0.2,0.13,0.33v0.64c0,0.13-0.04,0.24-0.13,0.32c-0.09,0.08-0.2,0.12-0.33,0.12
						h-2.48v5.22c0,0.68,0.11,1.19,0.33,1.54c0.22,0.35,0.6,0.52,1.13,0.52h1.22c0.13,0,0.24,0.04,0.32,0.13
						c0.08,0.09,0.12,0.2,0.12,0.33v0.66c0,0.13-0.04,0.24-0.12,0.33s-0.19,0.13-0.32,0.13h-1.36
						C773.35,606.17,772.32,605.01,772.32,602.67z"/>
					<path class="st1" d="M780.25,605.97c-0.55-0.27-0.99-0.63-1.32-1.09c-0.33-0.46-0.49-0.97-0.49-1.53c0-0.88,0.36-1.6,1.08-2.16
						c0.72-0.56,1.7-0.93,2.94-1.12l3-0.42v-0.58c0-1.37-0.79-2.06-2.38-2.06c-0.61,0-1.11,0.12-1.48,0.37
						c-0.37,0.25-0.65,0.54-0.82,0.87c-0.05,0.13-0.11,0.22-0.17,0.27c-0.06,0.05-0.14,0.07-0.25,0.07h-0.78
						c-0.12,0-0.22-0.04-0.31-0.13s-0.13-0.19-0.13-0.31c0-0.31,0.14-0.66,0.43-1.07c0.29-0.41,0.73-0.76,1.33-1.06
						c0.6-0.3,1.33-0.45,2.2-0.45c1.49,0,2.56,0.35,3.21,1.04s0.97,1.56,0.97,2.6v6.5c0,0.13-0.04,0.24-0.13,0.33
						s-0.2,0.13-0.33,0.13h-0.88c-0.13,0-0.24-0.04-0.32-0.13c-0.08-0.09-0.12-0.2-0.12-0.33v-0.88c-0.29,0.44-0.72,0.81-1.28,1.1
						s-1.28,0.44-2.16,0.44C781.4,606.38,780.8,606.24,780.25,605.97z M784.62,604.05c0.56-0.57,0.84-1.41,0.84-2.5V601l-2.34,0.34
						c-0.96,0.13-1.69,0.36-2.18,0.68s-0.74,0.72-0.74,1.2c0,0.55,0.22,0.97,0.67,1.26c0.45,0.29,0.98,0.44,1.59,0.44
						C783.34,604.92,784.06,604.63,784.62,604.05z"/>
					<path class="st1" d="M790.33,606.04c-0.09-0.09-0.13-0.2-0.13-0.33v-13.28c0-0.15,0.04-0.26,0.13-0.34
						c0.09-0.08,0.2-0.12,0.33-0.12h0.88c0.13,0,0.24,0.04,0.33,0.13c0.09,0.09,0.13,0.2,0.13,0.33v13.28
						c0,0.13-0.04,0.24-0.13,0.33c-0.09,0.09-0.2,0.13-0.33,0.13h-0.88C790.52,606.17,790.41,606.13,790.33,606.04z"/>
					<path class="st1" d="M798.4,606.05c-0.08-0.08-0.12-0.17-0.12-0.28l0.04-0.22l4.96-12.94c0.11-0.29,0.32-0.44,0.64-0.44h1.28
						c0.32,0,0.53,0.15,0.64,0.44l4.96,12.94l0.04,0.22c0,0.11-0.04,0.2-0.13,0.28s-0.18,0.12-0.29,0.12h-0.94
						c-0.13,0-0.24-0.04-0.33-0.11c-0.09-0.07-0.14-0.15-0.17-0.23l-1.12-2.88h-6.62l-1.1,2.88c-0.11,0.23-0.27,0.34-0.5,0.34h-0.96
						C798.57,606.17,798.48,606.13,798.4,606.05z M801.82,601.29h5.48l-2.74-7.18L801.82,601.29z"/>
					<path class="st1" d="M812.87,606.04c-0.09-0.09-0.13-0.2-0.13-0.33v-9.46c0-0.13,0.04-0.25,0.13-0.34
						c0.09-0.09,0.2-0.14,0.33-0.14h0.84c0.15,0,0.26,0.04,0.35,0.13c0.09,0.09,0.13,0.2,0.13,0.35v0.88
						c0.55-0.91,1.47-1.36,2.78-1.36h0.78c0.15,0,0.26,0.04,0.34,0.12s0.12,0.19,0.12,0.34v0.74c0,0.13-0.04,0.24-0.12,0.33
						s-0.19,0.13-0.34,0.13h-1.14c-0.73,0-1.31,0.21-1.73,0.64s-0.63,1.01-0.63,1.74v5.9c0,0.13-0.05,0.24-0.14,0.33
						c-0.09,0.09-0.21,0.13-0.34,0.13h-0.9C813.06,606.17,812.95,606.13,812.87,606.04z"/>
					<path class="st1" d="M820.92,605.1c-0.81-0.85-1.26-2-1.34-3.47l-0.02-0.68l0.02-0.66c0.08-1.44,0.53-2.59,1.34-3.44
						c0.81-0.85,1.9-1.28,3.26-1.28c1.47,0,2.6,0.47,3.41,1.4c0.81,0.93,1.21,2.2,1.21,3.8v0.36c0,0.13-0.04,0.24-0.13,0.33
						c-0.09,0.09-0.2,0.13-0.33,0.13h-6.94v0.18c0.04,0.87,0.31,1.61,0.8,2.22s1.15,0.92,1.96,0.92c0.63,0,1.14-0.12,1.53-0.37
						s0.69-0.5,0.89-0.77c0.12-0.16,0.21-0.26,0.28-0.29c0.07-0.03,0.18-0.05,0.34-0.05h0.88c0.12,0,0.22,0.03,0.31,0.1
						c0.09,0.07,0.13,0.15,0.13,0.26c0,0.29-0.18,0.65-0.54,1.06c-0.36,0.41-0.87,0.77-1.53,1.07c-0.66,0.3-1.42,0.45-2.27,0.45
						C822.82,606.38,821.73,605.95,820.92,605.1z M826.98,600.23v-0.06c0-0.93-0.25-1.69-0.76-2.28c-0.51-0.59-1.19-0.88-2.04-0.88
						c-0.87,0-1.55,0.29-2.04,0.88c-0.49,0.59-0.74,1.35-0.74,2.28v0.06H826.98z"/>
					<path class="st1" d="M832.31,605.97c-0.55-0.27-0.99-0.63-1.32-1.09c-0.33-0.46-0.49-0.97-0.49-1.53c0-0.88,0.36-1.6,1.08-2.16
						c0.72-0.56,1.7-0.93,2.94-1.12l3-0.42v-0.58c0-1.37-0.79-2.06-2.38-2.06c-0.61,0-1.11,0.12-1.48,0.37
						c-0.37,0.25-0.65,0.54-0.82,0.87c-0.05,0.13-0.11,0.22-0.17,0.27c-0.06,0.05-0.14,0.07-0.25,0.07h-0.78
						c-0.12,0-0.22-0.04-0.31-0.13s-0.13-0.19-0.13-0.31c0-0.31,0.14-0.66,0.43-1.07c0.29-0.41,0.73-0.76,1.33-1.06
						c0.6-0.3,1.33-0.45,2.2-0.45c1.49,0,2.56,0.35,3.21,1.04s0.97,1.56,0.97,2.6v6.5c0,0.13-0.04,0.24-0.13,0.33
						s-0.2,0.13-0.33,0.13H838c-0.13,0-0.24-0.04-0.32-0.13c-0.08-0.09-0.12-0.2-0.12-0.33v-0.88c-0.29,0.44-0.72,0.81-1.28,1.1
						s-1.28,0.44-2.16,0.44C833.46,606.38,832.86,606.24,832.31,605.97z M836.68,604.05c0.56-0.57,0.84-1.41,0.84-2.5V601
						l-2.34,0.34c-0.96,0.13-1.69,0.36-2.18,0.68s-0.74,0.72-0.74,1.2c0,0.55,0.22,0.97,0.67,1.26c0.45,0.29,0.98,0.44,1.59,0.44
						C835.4,604.92,836.12,604.63,836.68,604.05z"/>
					<path class="st1" d="M842.26,599.04c-0.08-0.09-0.12-0.2-0.12-0.33v-1.34c0-0.15,0.04-0.26,0.12-0.35
						c0.08-0.09,0.19-0.13,0.32-0.13h1.38c0.15,0,0.26,0.04,0.35,0.13c0.09,0.09,0.13,0.2,0.13,0.35v1.34
						c0,0.13-0.05,0.24-0.14,0.33c-0.09,0.09-0.21,0.13-0.34,0.13h-1.38C842.44,599.17,842.34,599.13,842.26,599.04z M842.26,606.04
						c-0.08-0.09-0.12-0.2-0.12-0.33v-1.34c0-0.15,0.04-0.26,0.12-0.35c0.08-0.09,0.19-0.13,0.32-0.13h1.38
						c0.15,0,0.26,0.04,0.35,0.13c0.09,0.09,0.13,0.2,0.13,0.35v1.34c0,0.13-0.05,0.24-0.14,0.33c-0.09,0.09-0.21,0.13-0.34,0.13
						h-1.38C842.44,606.17,842.34,606.13,842.26,606.04z"/>
					<path class="st1" d="M754.16,627.84c-0.08-0.09-0.12-0.2-0.12-0.33v-11.28l-3.36,2.58c-0.09,0.08-0.19,0.12-0.3,0.12
						c-0.12,0-0.23-0.07-0.34-0.2l-0.48-0.62c-0.07-0.09-0.1-0.19-0.1-0.28c0-0.15,0.07-0.27,0.2-0.36l4.34-3.36
						c0.15-0.09,0.32-0.14,0.52-0.14h0.94c0.13,0,0.24,0.04,0.33,0.13s0.13,0.2,0.13,0.33v13.08c0,0.13-0.04,0.24-0.13,0.33
						s-0.2,0.13-0.33,0.13h-0.98C754.34,627.97,754.24,627.93,754.16,627.84z"/>
					<path class="st1" d="M760.68,627.63c-0.73-0.36-1.29-0.83-1.68-1.41s-0.59-1.2-0.62-1.87v-0.04c0-0.11,0.04-0.19,0.12-0.26
						s0.17-0.1,0.28-0.1h0.98c0.28,0,0.46,0.15,0.54,0.44c0.2,0.72,0.57,1.26,1.11,1.61s1.16,0.53,1.87,0.53
						c0.91,0,1.66-0.28,2.26-0.83c0.6-0.55,0.9-1.32,0.9-2.29c0-0.89-0.3-1.6-0.9-2.13c-0.6-0.53-1.35-0.79-2.26-0.79
						c-0.48,0-0.87,0.06-1.16,0.18c-0.29,0.12-0.59,0.29-0.9,0.52c-0.17,0.13-0.32,0.23-0.43,0.29c-0.11,0.06-0.24,0.09-0.37,0.09
						h-0.96c-0.12,0-0.23-0.04-0.32-0.13c-0.09-0.09-0.13-0.19-0.12-0.31l0.62-6.66c0.04-0.33,0.21-0.5,0.5-0.5h6.92
						c0.15,0,0.26,0.04,0.34,0.12c0.08,0.08,0.12,0.19,0.12,0.34v0.74c0,0.13-0.04,0.24-0.13,0.32c-0.09,0.08-0.2,0.12-0.33,0.12
						h-5.76l-0.36,4.02c0.64-0.45,1.5-0.68,2.58-0.68c0.89,0,1.71,0.18,2.44,0.53c0.73,0.35,1.32,0.87,1.75,1.55
						c0.43,0.68,0.65,1.49,0.65,2.42c0,0.99-0.22,1.84-0.65,2.55c-0.43,0.71-1.03,1.25-1.8,1.62c-0.77,0.37-1.64,0.55-2.63,0.55
						C762.28,628.17,761.41,627.99,760.68,627.63z"/>
					<path class="st1" d="M772.52,627.63c-0.73-0.36-1.29-0.83-1.68-1.41s-0.59-1.2-0.62-1.87v-0.04c0-0.11,0.04-0.19,0.12-0.26
						s0.17-0.1,0.28-0.1h0.98c0.28,0,0.46,0.15,0.54,0.44c0.2,0.72,0.57,1.26,1.11,1.61s1.16,0.53,1.87,0.53
						c0.91,0,1.66-0.28,2.26-0.83c0.6-0.55,0.9-1.32,0.9-2.29c0-0.89-0.3-1.6-0.9-2.13c-0.6-0.53-1.35-0.79-2.26-0.79
						c-0.48,0-0.87,0.06-1.16,0.18c-0.29,0.12-0.59,0.29-0.9,0.52c-0.17,0.13-0.32,0.23-0.43,0.29c-0.11,0.06-0.24,0.09-0.37,0.09
						h-0.96c-0.12,0-0.23-0.04-0.32-0.13c-0.09-0.09-0.13-0.19-0.12-0.31l0.62-6.66c0.04-0.33,0.21-0.5,0.5-0.5h6.92
						c0.15,0,0.26,0.04,0.34,0.12c0.08,0.08,0.12,0.19,0.12,0.34v0.74c0,0.13-0.04,0.24-0.13,0.32c-0.09,0.08-0.2,0.12-0.33,0.12
						h-5.76l-0.36,4.02c0.64-0.45,1.5-0.68,2.58-0.68c0.89,0,1.71,0.18,2.44,0.53c0.73,0.35,1.32,0.87,1.75,1.55
						c0.43,0.68,0.65,1.49,0.65,2.42c0,0.99-0.22,1.84-0.65,2.55c-0.43,0.71-1.03,1.25-1.8,1.62c-0.77,0.37-1.64,0.55-2.63,0.55
						C774.12,628.17,773.25,627.99,772.52,627.63z"/>
					<path class="st1" d="M783.69,626.67c-0.79-1.01-1.22-2.32-1.27-3.95l-0.02-1.72l0.02-1.78c0.04-1.61,0.46-2.92,1.27-3.93
						c0.81-1.01,2.06-1.51,3.77-1.51c1.72,0,2.98,0.5,3.79,1.51c0.81,1.01,1.23,2.32,1.27,3.93c0.01,0.37,0.02,0.97,0.02,1.78
						c0,0.79-0.01,1.36-0.02,1.72c-0.05,1.63-0.48,2.94-1.27,3.95c-0.79,1.01-2.06,1.51-3.79,1.51
						C785.74,628.17,784.48,627.67,783.69,626.67z M789.78,625.49c0.52-0.68,0.79-1.64,0.82-2.88c0.01-0.39,0.02-0.94,0.02-1.66
						c0-0.73-0.01-1.28-0.02-1.64c-0.03-1.23-0.3-2.18-0.83-2.87c-0.53-0.69-1.3-1.03-2.31-1.03c-1.01,0-1.78,0.34-2.3,1.03
						c-0.52,0.69-0.79,1.64-0.82,2.87l-0.02,1.64l0.02,1.66c0.03,1.24,0.3,2.2,0.82,2.88c0.52,0.68,1.29,1.02,2.3,1.02
						C788.48,626.51,789.26,626.17,789.78,625.49z"/>
					<path class="st1" d="M801.01,627.84c-0.09-0.09-0.13-0.2-0.13-0.33v-8.4h-1.72c-0.13,0-0.24-0.04-0.33-0.12
						c-0.09-0.08-0.13-0.19-0.13-0.32v-0.64c0-0.13,0.04-0.24,0.13-0.33c0.09-0.09,0.2-0.13,0.33-0.13h1.72v-1
						c0-1.08,0.26-1.92,0.79-2.51c0.53-0.59,1.39-0.89,2.59-0.89h1.18c0.13,0,0.24,0.04,0.33,0.13s0.13,0.2,0.13,0.33v0.64
						c0,0.13-0.04,0.24-0.13,0.32s-0.2,0.12-0.33,0.12h-1.14c-0.61,0-1.04,0.16-1.28,0.48c-0.24,0.32-0.36,0.81-0.36,1.48v0.9h2.58
						c0.13,0,0.24,0.04,0.33,0.13c0.09,0.09,0.13,0.2,0.13,0.33v0.64c0,0.13-0.04,0.24-0.13,0.32c-0.09,0.08-0.2,0.12-0.33,0.12
						h-2.58v8.4c0,0.13-0.04,0.24-0.13,0.33c-0.09,0.09-0.2,0.13-0.33,0.13h-0.86C801.2,627.97,801.09,627.93,801.01,627.84z"/>
					<path class="st1" d="M808.38,624.47v-5.36h-1.58c-0.13,0-0.24-0.04-0.32-0.12c-0.08-0.08-0.12-0.19-0.12-0.32v-0.64
						c0-0.13,0.04-0.24,0.12-0.33c0.08-0.09,0.19-0.13,0.32-0.13h1.58v-3.34c0-0.13,0.04-0.24,0.12-0.33
						c0.08-0.09,0.19-0.13,0.32-0.13h0.88c0.13,0,0.24,0.04,0.33,0.13c0.09,0.09,0.13,0.2,0.13,0.33v3.34h2.48
						c0.13,0,0.24,0.04,0.33,0.13c0.09,0.09,0.13,0.2,0.13,0.33v0.64c0,0.13-0.04,0.24-0.13,0.32c-0.09,0.08-0.2,0.12-0.33,0.12
						h-2.48v5.22c0,0.68,0.11,1.19,0.33,1.54c0.22,0.35,0.6,0.52,1.13,0.52h1.22c0.13,0,0.24,0.04,0.32,0.13
						c0.08,0.09,0.12,0.2,0.12,0.33v0.66c0,0.13-0.04,0.24-0.12,0.33s-0.19,0.13-0.32,0.13h-1.36
						C809.41,627.97,808.38,626.81,808.38,624.47z"/>
					<path class="st1" d="M814.46,620.85c-0.08-0.08-0.12-0.19-0.12-0.32v-0.42c0-0.11,0.03-0.21,0.1-0.31
						c0.07-0.1,0.19-0.22,0.38-0.37l0.92-0.66c0.71-0.49,1.22-0.87,1.54-1.13s0.56-0.51,0.73-0.75c0.17-0.24,0.25-0.5,0.25-0.78
						c0-0.31-0.11-0.55-0.33-0.73c-0.22-0.18-0.49-0.27-0.81-0.27c-0.29,0-0.52,0.05-0.69,0.14c-0.17,0.09-0.27,0.18-0.32,0.25
						s-0.12,0.2-0.21,0.39c-0.08,0.15-0.15,0.24-0.22,0.29c-0.07,0.05-0.15,0.07-0.26,0.07h-0.54c-0.24,0-0.36-0.11-0.36-0.34
						c0-0.35,0.12-0.68,0.36-0.99c0.24-0.31,0.56-0.57,0.95-0.76s0.82-0.29,1.29-0.29c0.76,0,1.37,0.22,1.84,0.65
						c0.47,0.43,0.7,0.96,0.7,1.57c0,0.47-0.1,0.88-0.31,1.23c-0.21,0.35-0.51,0.7-0.92,1.04c-0.41,0.34-1,0.78-1.79,1.33h2.88
						c0.13,0,0.24,0.04,0.32,0.12s0.12,0.19,0.12,0.32v0.4c0,0.13-0.04,0.24-0.12,0.32s-0.19,0.12-0.32,0.12h-4.74
						C814.64,620.97,814.54,620.93,814.46,620.85z"/>
					<path class="st1" d="M827.1,632c-0.08-0.09-0.12-0.2-0.12-0.33v-21.16c0-0.13,0.04-0.24,0.12-0.33s0.19-0.13,0.32-0.13h0.74
						c0.13,0,0.24,0.04,0.33,0.13s0.13,0.2,0.13,0.33v21.16c0,0.13-0.04,0.24-0.13,0.33c-0.09,0.09-0.2,0.13-0.33,0.13h-0.74
						C827.28,632.13,827.18,632.09,827.1,632z"/>
					<path class="st1" d="M840.22,627.84c-0.08-0.09-0.12-0.2-0.12-0.33v-11.28l-3.36,2.58c-0.09,0.08-0.19,0.12-0.3,0.12
						c-0.12,0-0.23-0.07-0.34-0.2l-0.48-0.62c-0.07-0.09-0.1-0.19-0.1-0.28c0-0.15,0.07-0.27,0.2-0.36l4.34-3.36
						c0.15-0.09,0.32-0.14,0.52-0.14h0.94c0.13,0,0.24,0.04,0.33,0.13s0.13,0.2,0.13,0.33v13.08c0,0.13-0.04,0.24-0.13,0.33
						s-0.2,0.13-0.33,0.13h-0.98C840.4,627.97,840.3,627.93,840.22,627.84z"/>
					<path class="st1" d="M851.23,627.84c-0.09-0.09-0.13-0.2-0.13-0.33v-2.92h-6.5c-0.13,0-0.24-0.04-0.33-0.13
						s-0.13-0.2-0.13-0.33v-0.74c0-0.19,0.07-0.39,0.22-0.6l6.02-8.48c0.07-0.11,0.17-0.19,0.3-0.25c0.13-0.06,0.28-0.09,0.44-0.09
						h1.36c0.15,0,0.26,0.04,0.34,0.12s0.12,0.19,0.12,0.34v8.48h1.82c0.13,0,0.24,0.04,0.33,0.13c0.09,0.09,0.13,0.2,0.13,0.33
						v0.76c0,0.13-0.04,0.24-0.13,0.33c-0.09,0.09-0.2,0.13-0.33,0.13h-1.82v2.92c0,0.13-0.04,0.24-0.13,0.33s-0.2,0.13-0.33,0.13
						h-0.92C851.42,627.97,851.31,627.93,851.23,627.84z M846.22,622.96h4.9v-6.96L846.22,622.96z"/>
					<path class="st1" d="M863.58,627.84c-0.09-0.09-0.13-0.2-0.13-0.33v-2.92h-6.5c-0.13,0-0.24-0.04-0.33-0.13
						s-0.13-0.2-0.13-0.33v-0.74c0-0.19,0.07-0.39,0.22-0.6l6.02-8.48c0.07-0.11,0.17-0.19,0.3-0.25c0.13-0.06,0.28-0.09,0.44-0.09
						h1.36c0.15,0,0.26,0.04,0.34,0.12s0.12,0.19,0.12,0.34v8.48h1.82c0.13,0,0.24,0.04,0.33,0.13c0.09,0.09,0.13,0.2,0.13,0.33
						v0.76c0,0.13-0.04,0.24-0.13,0.33c-0.09,0.09-0.2,0.13-0.33,0.13h-1.82v2.92c0,0.13-0.04,0.24-0.13,0.33s-0.2,0.13-0.33,0.13
						h-0.92C863.78,627.97,863.67,627.93,863.58,627.84z M858.57,622.96h4.9v-6.96L858.57,622.96z"/>
					<path class="st1" d="M874.78,627.84c-0.09-0.09-0.13-0.2-0.13-0.33v-9.48c0-0.13,0.04-0.24,0.13-0.33
						c0.09-0.09,0.2-0.13,0.33-0.13h0.84c0.13,0,0.24,0.04,0.32,0.13c0.08,0.09,0.12,0.2,0.12,0.33v0.68
						c0.72-0.89,1.69-1.34,2.92-1.34c1.47,0,2.51,0.61,3.12,1.84c0.32-0.56,0.78-1.01,1.37-1.34c0.59-0.33,1.26-0.5,1.99-0.5
						c1.09,0,1.99,0.37,2.68,1.12c0.69,0.75,1.04,1.83,1.04,3.24v5.78c0,0.13-0.04,0.24-0.13,0.33c-0.09,0.09-0.2,0.13-0.33,0.13
						h-0.86c-0.13,0-0.24-0.04-0.33-0.13s-0.13-0.2-0.13-0.33v-5.6c0-1.07-0.22-1.83-0.66-2.29c-0.44-0.46-1.02-0.69-1.74-0.69
						c-0.64,0-1.19,0.24-1.65,0.71c-0.46,0.47-0.69,1.23-0.69,2.27v5.6c0,0.13-0.04,0.24-0.13,0.33s-0.2,0.13-0.33,0.13h-0.88
						c-0.13,0-0.24-0.04-0.33-0.13s-0.13-0.2-0.13-0.33v-5.6c0-1.05-0.23-1.81-0.69-2.28s-1.03-0.7-1.71-0.7
						c-0.64,0-1.19,0.23-1.65,0.7s-0.69,1.22-0.69,2.26v5.62c0,0.13-0.04,0.24-0.13,0.33s-0.2,0.13-0.33,0.13h-0.88
						C874.98,627.97,874.87,627.93,874.78,627.84z"/>
					<path class="st1" d="M891.63,620.85c-0.08-0.08-0.12-0.19-0.12-0.32v-0.42c0-0.11,0.03-0.21,0.1-0.31
						c0.07-0.1,0.19-0.22,0.38-0.37l0.92-0.66c0.71-0.49,1.22-0.87,1.54-1.13s0.56-0.51,0.73-0.75c0.17-0.24,0.25-0.5,0.25-0.78
						c0-0.31-0.11-0.55-0.33-0.73c-0.22-0.18-0.49-0.27-0.81-0.27c-0.29,0-0.52,0.05-0.69,0.14c-0.17,0.09-0.27,0.18-0.32,0.25
						s-0.12,0.2-0.21,0.39c-0.08,0.15-0.15,0.24-0.22,0.29c-0.07,0.05-0.15,0.07-0.26,0.07h-0.54c-0.24,0-0.36-0.11-0.36-0.34
						c0-0.35,0.12-0.68,0.36-0.99c0.24-0.31,0.56-0.57,0.95-0.76s0.82-0.29,1.29-0.29c0.76,0,1.37,0.22,1.84,0.65
						c0.47,0.43,0.7,0.96,0.7,1.57c0,0.47-0.1,0.88-0.31,1.23c-0.21,0.35-0.51,0.7-0.92,1.04c-0.41,0.34-1,0.78-1.79,1.33h2.88
						c0.13,0,0.24,0.04,0.32,0.12s0.12,0.19,0.12,0.32v0.4c0,0.13-0.04,0.24-0.12,0.32s-0.19,0.12-0.32,0.12h-4.74
						C891.82,620.97,891.71,620.93,891.63,620.85z"/>
				</g>
			</g>
			<polyline class="st2" points="760.96,360.32 766.68,366.04 772.41,360.32 			"/>
			<line class="st2" x1="766.68" y1="328" x2="766.68" y2="318.17"/>
			<line class="st2" x1="766.68" y1="365.75" x2="766.68" y2="328"/>
			<polyline class="st2" points="760.97,323.91 766.69,318.19 772.42,323.91 			"/>
		</g>
		<g>
			<g>
				<line class="st6" x1="464" y1="366.14" x2="465.5" y2="366.14"/>
				<line class="st9" x1="470.56" y1="366.14" x2="751.14" y2="366.14"/>
				<line class="st6" x1="753.67" y1="366.14" x2="755.17" y2="366.14"/>
			</g>
		</g>
		<g>
			<g>
				<line class="st6" x1="464" y1="317" x2="465.5" y2="317"/>
				<line class="st9" x1="470.56" y1="317" x2="751.14" y2="317"/>
				<line class="st6" x1="753.67" y1="317" x2="755.17" y2="317"/>
			</g>
		</g>
		<g>
			<g id="MTEXT_71_" class="st8">
				<g>
					<path class="st1" d="M75.53,349.04c-0.09-0.09-0.13-0.2-0.13-0.33v-0.6c0-0.31,0.17-0.6,0.5-0.88l4.36-4.34
						c0.99-0.84,1.67-1.53,2.04-2.06s0.56-1.1,0.56-1.7c0-0.79-0.22-1.4-0.66-1.85c-0.44-0.45-1.08-0.67-1.92-0.67
						c-0.8,0-1.43,0.23-1.9,0.7c-0.47,0.47-0.75,1.09-0.86,1.88c-0.03,0.15-0.09,0.26-0.2,0.34c-0.11,0.08-0.21,0.12-0.32,0.12
						h-0.96c-0.12,0-0.22-0.04-0.3-0.12s-0.12-0.17-0.12-0.28c0.03-0.71,0.22-1.39,0.57-2.05c0.35-0.66,0.88-1.2,1.57-1.62
						s1.53-0.63,2.52-0.63c1.49,0,2.62,0.39,3.37,1.17c0.75,0.78,1.13,1.77,1.13,2.97c0,0.84-0.2,1.6-0.61,2.27
						c-0.41,0.67-1.04,1.38-1.91,2.13l-3.94,4h6.3c0.15,0,0.26,0.04,0.34,0.12c0.08,0.08,0.12,0.19,0.12,0.34v0.76
						c0,0.13-0.04,0.24-0.13,0.33c-0.09,0.09-0.2,0.13-0.33,0.13h-8.76C75.73,349.17,75.61,349.13,75.53,349.04z"/>
					<path class="st1" d="M89.69,349.04c-0.07-0.09-0.11-0.19-0.11-0.31c0-0.09,0.03-0.18,0.08-0.26l3.08-4.28
						c-0.32,0.08-0.69,0.12-1.12,0.12c-0.96-0.01-1.8-0.24-2.52-0.67c-0.72-0.43-1.27-1-1.65-1.7c-0.38-0.7-0.57-1.45-0.57-2.25
						c0-0.8,0.19-1.56,0.57-2.28c0.38-0.72,0.95-1.31,1.7-1.76s1.66-0.68,2.73-0.68c1.07,0,1.98,0.22,2.74,0.66
						c0.76,0.44,1.33,1.02,1.72,1.73c0.39,0.71,0.58,1.48,0.58,2.29c0,0.73-0.13,1.38-0.39,1.94c-0.26,0.56-0.6,1.14-1.03,1.74
						l-3.88,5.44c-0.09,0.12-0.18,0.22-0.27,0.29c-0.09,0.07-0.21,0.11-0.37,0.11h-1C89.86,349.17,89.76,349.13,89.69,349.04z
						 M93.46,342.35c0.48-0.25,0.86-0.61,1.14-1.07s0.42-0.99,0.42-1.59c0-0.61-0.14-1.15-0.42-1.62s-0.66-0.83-1.14-1.08
						c-0.48-0.25-1.01-0.38-1.58-0.38c-0.56,0-1.08,0.13-1.55,0.38c-0.47,0.25-0.85,0.61-1.13,1.08c-0.28,0.47-0.42,1.01-0.42,1.62
						c0,0.6,0.14,1.13,0.42,1.59c0.28,0.46,0.65,0.82,1.12,1.07c0.47,0.25,0.99,0.38,1.56,0.38S92.98,342.61,93.46,342.35z"/>
					<path class="st1" d="M98.11,349.04c-0.09-0.09-0.13-0.2-0.13-0.33v-1.38c0-0.13,0.04-0.25,0.13-0.34
						c0.09-0.09,0.2-0.14,0.33-0.14h1.38c0.13,0,0.24,0.05,0.33,0.14c0.09,0.09,0.13,0.21,0.13,0.34v1.38
						c0,0.13-0.04,0.24-0.13,0.33c-0.09,0.09-0.2,0.13-0.33,0.13h-1.38C98.31,349.17,98.19,349.13,98.11,349.04z"/>
					<path class="st1" d="M104.84,348.83c-0.73-0.36-1.29-0.83-1.68-1.41s-0.59-1.2-0.62-1.87v-0.04c0-0.11,0.04-0.19,0.12-0.26
						s0.17-0.1,0.28-0.1h0.98c0.28,0,0.46,0.15,0.54,0.44c0.2,0.72,0.57,1.26,1.11,1.61s1.16,0.53,1.87,0.53
						c0.91,0,1.66-0.28,2.26-0.83c0.6-0.55,0.9-1.32,0.9-2.29c0-0.89-0.3-1.6-0.9-2.13c-0.6-0.53-1.35-0.79-2.26-0.79
						c-0.48,0-0.87,0.06-1.16,0.18c-0.29,0.12-0.59,0.29-0.9,0.52c-0.17,0.13-0.32,0.23-0.43,0.29c-0.11,0.06-0.24,0.09-0.37,0.09
						h-0.96c-0.12,0-0.23-0.04-0.32-0.13c-0.09-0.09-0.13-0.19-0.12-0.31l0.62-6.66c0.04-0.33,0.21-0.5,0.5-0.5h6.92
						c0.15,0,0.26,0.04,0.34,0.12c0.08,0.08,0.12,0.19,0.12,0.34v0.74c0,0.13-0.04,0.24-0.13,0.32c-0.09,0.08-0.2,0.12-0.33,0.12
						h-5.76l-0.36,4.02c0.64-0.45,1.5-0.68,2.58-0.68c0.89,0,1.71,0.18,2.44,0.53c0.73,0.35,1.32,0.87,1.75,1.55
						c0.43,0.68,0.65,1.49,0.65,2.42c0,0.99-0.22,1.84-0.65,2.55c-0.43,0.71-1.03,1.25-1.8,1.62c-0.77,0.37-1.64,0.55-2.63,0.55
						C106.44,349.38,105.57,349.19,104.84,348.83z"/>
					<path class="st1" d="M116.68,348.87c-0.76-0.34-1.34-0.78-1.73-1.33c-0.39-0.55-0.6-1.11-0.63-1.7c0-0.12,0.04-0.22,0.12-0.29
						c0.08-0.07,0.18-0.11,0.3-0.11h0.9c0.15,0,0.27,0.03,0.36,0.09c0.09,0.06,0.17,0.18,0.22,0.35c0.17,0.68,0.55,1.16,1.13,1.44
						c0.58,0.28,1.26,0.42,2.05,0.42c0.96,0,1.72-0.23,2.29-0.69c0.57-0.46,0.85-1.12,0.85-1.97c0-1.63-0.99-2.44-2.98-2.44h-1.88
						c-0.13,0-0.24-0.04-0.33-0.13s-0.13-0.2-0.13-0.33v-0.52c0-0.2,0.07-0.37,0.22-0.52l3.9-4.32h-5.92
						c-0.13,0-0.24-0.04-0.33-0.12c-0.09-0.08-0.13-0.19-0.13-0.32v-0.72c0-0.15,0.04-0.26,0.13-0.35s0.2-0.13,0.33-0.13h7.92
						c0.15,0,0.26,0.04,0.35,0.13c0.09,0.09,0.13,0.2,0.13,0.35v0.66c0,0.15-0.07,0.3-0.2,0.46l-3.9,4.38h0.32
						c1.36,0.04,2.44,0.39,3.23,1.06c0.79,0.67,1.19,1.64,1.19,2.92c0,0.88-0.22,1.64-0.65,2.27c-0.43,0.63-1.04,1.12-1.81,1.46
						c-0.77,0.34-1.65,0.51-2.62,0.51C118.34,349.38,117.44,349.21,116.68,348.87z"/>
					<path class="st1" d="M126.64,338.67c-0.05-0.07-0.07-0.18-0.06-0.31l0.44-2.8c0.05-0.39,0.24-0.58,0.56-0.58h1.28
						c0.09,0,0.17,0.03,0.23,0.1c0.06,0.07,0.09,0.15,0.09,0.24c0,0.13-0.02,0.24-0.06,0.32l-1.04,2.7
						c-0.07,0.15-0.14,0.26-0.22,0.33c-0.08,0.07-0.2,0.11-0.36,0.11h-0.62C126.77,338.77,126.69,338.74,126.64,338.67z"/>
					<path class="st1" d="M99.05,370.84c-0.07-0.09-0.11-0.19-0.11-0.31c0-0.09,0.03-0.18,0.08-0.26l3.08-4.28
						c-0.32,0.08-0.69,0.12-1.12,0.12c-0.96-0.01-1.8-0.24-2.52-0.67c-0.72-0.43-1.27-1-1.65-1.7c-0.38-0.7-0.57-1.45-0.57-2.25
						c0-0.8,0.19-1.56,0.57-2.28c0.38-0.72,0.95-1.31,1.7-1.76s1.66-0.68,2.73-0.68c1.07,0,1.98,0.22,2.74,0.66
						c0.76,0.44,1.33,1.02,1.72,1.73c0.39,0.71,0.58,1.48,0.58,2.29c0,0.73-0.13,1.38-0.39,1.94c-0.26,0.56-0.6,1.14-1.03,1.74
						l-3.88,5.44c-0.09,0.12-0.18,0.22-0.27,0.29c-0.09,0.07-0.21,0.11-0.37,0.11h-1C99.22,370.97,99.12,370.93,99.05,370.84z
						 M102.82,364.15c0.48-0.25,0.86-0.61,1.14-1.07s0.42-0.99,0.42-1.59c0-0.61-0.14-1.15-0.42-1.62s-0.66-0.83-1.14-1.08
						c-0.48-0.25-1.01-0.38-1.58-0.38c-0.56,0-1.08,0.13-1.55,0.38c-0.47,0.25-0.85,0.61-1.13,1.08c-0.28,0.47-0.42,1.01-0.42,1.62
						c0,0.6,0.14,1.13,0.42,1.59c0.28,0.46,0.65,0.82,1.12,1.07c0.47,0.25,0.99,0.38,1.56,0.38S102.34,364.41,102.82,364.15z"/>
					<path class="st1" d="M113.83,370.84c-0.09-0.09-0.13-0.2-0.13-0.33v-9.48c0-0.13,0.04-0.24,0.13-0.33
						c0.09-0.09,0.2-0.13,0.33-0.13H115c0.13,0,0.24,0.04,0.32,0.13c0.08,0.09,0.12,0.2,0.12,0.33v0.68
						c0.72-0.89,1.69-1.34,2.92-1.34c1.47,0,2.51,0.61,3.12,1.84c0.32-0.56,0.78-1.01,1.37-1.34c0.59-0.33,1.26-0.5,1.99-0.5
						c1.09,0,1.99,0.37,2.68,1.12c0.69,0.75,1.04,1.83,1.04,3.24v5.78c0,0.13-0.04,0.24-0.13,0.33c-0.09,0.09-0.2,0.13-0.33,0.13
						h-0.86c-0.13,0-0.24-0.04-0.33-0.13s-0.13-0.2-0.13-0.33v-5.6c0-1.07-0.22-1.83-0.66-2.29c-0.44-0.46-1.02-0.69-1.74-0.69
						c-0.64,0-1.19,0.24-1.65,0.71c-0.46,0.47-0.69,1.23-0.69,2.27v5.6c0,0.13-0.04,0.24-0.13,0.33s-0.2,0.13-0.33,0.13h-0.88
						c-0.13,0-0.24-0.04-0.33-0.13s-0.13-0.2-0.13-0.33v-5.6c0-1.05-0.23-1.81-0.69-2.28s-1.03-0.7-1.71-0.7
						c-0.64,0-1.19,0.23-1.65,0.7s-0.69,1.22-0.69,2.26v5.62c0,0.13-0.04,0.24-0.13,0.33s-0.2,0.13-0.33,0.13h-0.88
						C114.02,370.97,113.91,370.93,113.83,370.84z"/>
				</g>
			</g>
			<polyline class="st2" points="105.96,553.32 111.68,559.04 117.41,553.32 			"/>
			<line class="st2" x1="111.68" y1="327" x2="111.68" y2="126.17"/>
			<line class="st2" x1="111.68" y1="558.75" x2="111.68" y2="380"/>
			<polyline class="st2" points="105.97,131.91 111.69,126.19 117.42,131.91 			"/>
		</g>
		<g>
			<g>
				<line class="st6" x1="127" y1="559" x2="128.5" y2="559"/>
				<line class="st10" x1="133.46" y1="559" x2="377.19" y2="559"/>
				<line class="st6" x1="379.67" y1="559" x2="381.17" y2="559"/>
			</g>
		</g>
		<g>
			<g id="MTEXT_68_" class="st8">
				<g>
					<path class="st1" d="M786.18,145.87c-0.76-0.34-1.34-0.78-1.73-1.33c-0.39-0.55-0.6-1.11-0.63-1.7c0-0.12,0.04-0.22,0.12-0.29
						c0.08-0.07,0.18-0.11,0.3-0.11h0.9c0.15,0,0.27,0.03,0.36,0.09c0.09,0.06,0.17,0.18,0.22,0.35c0.17,0.68,0.55,1.16,1.13,1.44
						c0.58,0.28,1.26,0.42,2.05,0.42c0.96,0,1.72-0.23,2.29-0.69c0.57-0.46,0.85-1.12,0.85-1.97c0-1.63-0.99-2.44-2.98-2.44h-1.88
						c-0.13,0-0.24-0.04-0.33-0.13s-0.13-0.2-0.13-0.33v-0.52c0-0.2,0.07-0.37,0.22-0.52l3.9-4.32h-5.92
						c-0.13,0-0.24-0.04-0.33-0.12c-0.09-0.08-0.13-0.19-0.13-0.32v-0.72c0-0.15,0.04-0.26,0.13-0.35s0.2-0.13,0.33-0.13h7.92
						c0.15,0,0.26,0.04,0.35,0.13c0.09,0.09,0.13,0.2,0.13,0.35v0.66c0,0.15-0.07,0.3-0.2,0.46l-3.9,4.38h0.32
						c1.36,0.04,2.44,0.39,3.23,1.06c0.79,0.67,1.19,1.64,1.19,2.92c0,0.88-0.22,1.64-0.65,2.27c-0.43,0.63-1.04,1.12-1.81,1.46
						c-0.77,0.34-1.65,0.51-2.62,0.51C787.84,146.38,786.94,146.21,786.18,145.87z"/>
					<path class="st1" d="M798.51,146.04c-0.07-0.09-0.11-0.19-0.11-0.31c0-0.09,0.03-0.18,0.08-0.26l3.08-4.28
						c-0.32,0.08-0.69,0.12-1.12,0.12c-0.96-0.01-1.8-0.24-2.52-0.67c-0.72-0.43-1.27-1-1.65-1.7c-0.38-0.7-0.57-1.45-0.57-2.25
						c0-0.8,0.19-1.56,0.57-2.28c0.38-0.72,0.95-1.31,1.7-1.76s1.66-0.68,2.73-0.68c1.07,0,1.98,0.22,2.74,0.66
						c0.76,0.44,1.33,1.02,1.72,1.73c0.39,0.71,0.58,1.48,0.58,2.29c0,0.73-0.13,1.38-0.39,1.94c-0.26,0.56-0.6,1.14-1.03,1.74
						l-3.88,5.44c-0.09,0.12-0.18,0.22-0.27,0.29c-0.09,0.07-0.21,0.11-0.37,0.11h-1C798.68,146.17,798.58,146.13,798.51,146.04z
						 M802.28,139.35c0.48-0.25,0.86-0.61,1.14-1.07s0.42-0.99,0.42-1.59c0-0.61-0.14-1.15-0.42-1.62s-0.66-0.83-1.14-1.08
						c-0.48-0.25-1.01-0.38-1.58-0.38c-0.56,0-1.08,0.13-1.55,0.38c-0.47,0.25-0.85,0.61-1.13,1.08c-0.28,0.47-0.42,1.01-0.42,1.62
						c0,0.6,0.14,1.13,0.42,1.59c0.28,0.46,0.65,0.82,1.12,1.07c0.47,0.25,0.99,0.38,1.56,0.38S801.8,139.61,802.28,139.35z"/>
					<path class="st1" d="M806.93,146.04c-0.09-0.09-0.13-0.2-0.13-0.33v-1.38c0-0.13,0.04-0.25,0.13-0.34
						c0.09-0.09,0.2-0.14,0.33-0.14h1.38c0.13,0,0.24,0.05,0.33,0.14c0.09,0.09,0.13,0.21,0.13,0.34v1.38
						c0,0.13-0.04,0.24-0.13,0.33c-0.09,0.09-0.2,0.13-0.33,0.13h-1.38C807.12,146.17,807.01,146.13,806.93,146.04z"/>
					<path class="st1" d="M813.66,145.87c-0.76-0.34-1.34-0.78-1.73-1.33c-0.39-0.55-0.6-1.11-0.63-1.7c0-0.12,0.04-0.22,0.12-0.29
						c0.08-0.07,0.18-0.11,0.3-0.11h0.9c0.15,0,0.27,0.03,0.36,0.09c0.09,0.06,0.17,0.18,0.22,0.35c0.17,0.68,0.55,1.16,1.13,1.44
						c0.58,0.28,1.26,0.42,2.05,0.42c0.96,0,1.72-0.23,2.29-0.69c0.57-0.46,0.85-1.12,0.85-1.97c0-1.63-0.99-2.44-2.98-2.44h-1.88
						c-0.13,0-0.24-0.04-0.33-0.13s-0.13-0.2-0.13-0.33v-0.52c0-0.2,0.07-0.37,0.22-0.52l3.9-4.32h-5.92
						c-0.13,0-0.24-0.04-0.33-0.12c-0.09-0.08-0.13-0.19-0.13-0.32v-0.72c0-0.15,0.04-0.26,0.13-0.35s0.2-0.13,0.33-0.13h7.92
						c0.15,0,0.26,0.04,0.35,0.13c0.09,0.09,0.13,0.2,0.13,0.35v0.66c0,0.15-0.07,0.3-0.2,0.46l-3.9,4.38h0.32
						c1.36,0.04,2.44,0.39,3.23,1.06c0.79,0.67,1.19,1.64,1.19,2.92c0,0.88-0.22,1.64-0.65,2.27c-0.43,0.63-1.04,1.12-1.81,1.46
						c-0.77,0.34-1.65,0.51-2.62,0.51C815.32,146.38,814.42,146.21,813.66,145.87z"/>
					<path class="st1" d="M825.11,146.04c-0.07-0.09-0.11-0.19-0.11-0.31l0.04-0.18l5-11.7h-6.6c-0.13,0-0.24-0.04-0.33-0.13
						c-0.09-0.09-0.13-0.2-0.13-0.33v-0.74c0-0.15,0.04-0.26,0.12-0.35s0.19-0.13,0.34-0.13h8.16c0.15,0,0.26,0.04,0.34,0.13
						s0.12,0.2,0.12,0.35v0.68c0,0.24-0.05,0.5-0.16,0.78l-4.94,11.56c-0.07,0.15-0.14,0.27-0.22,0.36
						c-0.08,0.09-0.19,0.14-0.34,0.14h-1C825.28,146.17,825.18,146.13,825.11,146.04z"/>
					<path class="st1" d="M833.81,135.66c-0.06-0.08-0.08-0.18-0.05-0.3l0.44-2.8c0.05-0.39,0.24-0.58,0.56-0.58h1.28
						c0.09,0,0.17,0.03,0.23,0.1c0.06,0.07,0.09,0.15,0.09,0.24c0,0.13-0.02,0.24-0.06,0.32l-1.04,2.7
						c-0.07,0.15-0.14,0.26-0.22,0.33c-0.08,0.07-0.2,0.11-0.36,0.11h-0.62C833.95,135.77,833.87,135.73,833.81,135.66z
						 M836.95,135.66c-0.06-0.08-0.08-0.18-0.05-0.3l0.44-2.8c0.05-0.39,0.24-0.58,0.56-0.58h1.28c0.09,0,0.17,0.03,0.23,0.1
						c0.06,0.07,0.09,0.15,0.09,0.24c0,0.13-0.02,0.24-0.06,0.32l-1.04,2.7c-0.07,0.15-0.14,0.26-0.22,0.33s-0.2,0.11-0.36,0.11
						h-0.62C837.09,135.77,837.01,135.73,836.95,135.66z"/>
					<path class="st1" d="M846.82,150.21c-0.08-0.09-0.12-0.2-0.12-0.33v-21.16c0-0.13,0.04-0.24,0.12-0.33s0.19-0.13,0.32-0.13
						h0.74c0.13,0,0.24,0.04,0.33,0.13s0.13,0.2,0.13,0.33v21.16c0,0.13-0.04,0.24-0.13,0.33c-0.09,0.09-0.2,0.13-0.33,0.13h-0.74
						C847,150.33,846.9,150.29,846.82,150.21z"/>
					<path class="st1" d="M859.94,146.04c-0.08-0.09-0.12-0.2-0.12-0.33v-11.28l-3.36,2.58c-0.09,0.08-0.19,0.12-0.3,0.12
						c-0.12,0-0.23-0.07-0.34-0.2l-0.48-0.62c-0.07-0.09-0.1-0.19-0.1-0.28c0-0.15,0.07-0.27,0.2-0.36l4.34-3.36
						c0.15-0.09,0.32-0.14,0.52-0.14h0.94c0.13,0,0.24,0.04,0.33,0.13s0.13,0.2,0.13,0.33v13.08c0,0.13-0.04,0.24-0.13,0.33
						s-0.2,0.13-0.33,0.13h-0.98C860.12,146.17,860.02,146.13,859.94,146.04z"/>
					<path class="st1" d="M869.79,146.04c-0.09-0.09-0.13-0.2-0.13-0.33v-9.48c0-0.13,0.04-0.24,0.13-0.33
						c0.09-0.09,0.2-0.13,0.33-0.13h0.84c0.13,0,0.24,0.04,0.32,0.13c0.08,0.09,0.12,0.2,0.12,0.33v0.68
						c0.72-0.89,1.69-1.34,2.92-1.34c1.47,0,2.51,0.61,3.12,1.84c0.32-0.56,0.78-1.01,1.37-1.34c0.59-0.33,1.26-0.5,1.99-0.5
						c1.09,0,1.99,0.37,2.68,1.12c0.69,0.75,1.04,1.83,1.04,3.24v5.78c0,0.13-0.04,0.24-0.13,0.33c-0.09,0.09-0.2,0.13-0.33,0.13
						h-0.86c-0.13,0-0.24-0.04-0.33-0.13s-0.13-0.2-0.13-0.33v-5.6c0-1.07-0.22-1.83-0.66-2.29c-0.44-0.46-1.02-0.69-1.74-0.69
						c-0.64,0-1.19,0.24-1.65,0.71c-0.46,0.47-0.69,1.23-0.69,2.27v5.6c0,0.13-0.04,0.24-0.13,0.33s-0.2,0.13-0.33,0.13h-0.88
						c-0.13,0-0.24-0.04-0.33-0.13s-0.13-0.2-0.13-0.33v-5.6c0-1.05-0.23-1.81-0.69-2.28s-1.03-0.7-1.71-0.7
						c-0.64,0-1.19,0.23-1.65,0.7s-0.69,1.22-0.69,2.26v5.62c0,0.13-0.04,0.24-0.13,0.33s-0.2,0.13-0.33,0.13h-0.88
						C869.98,146.17,869.87,146.13,869.79,146.04z"/>
					<path class="st1" d="M786.01,170.18c-0.67-0.65-1.16-1.65-1.45-3.01c-0.29-1.36-0.44-3.15-0.44-5.38s0.15-4.02,0.44-5.37
						c0.29-1.35,0.78-2.35,1.45-3s1.58-0.97,2.73-0.97c0.13,0,0.24,0.04,0.33,0.13c0.09,0.09,0.13,0.2,0.13,0.33v0.66
						c0,0.12-0.04,0.22-0.12,0.31s-0.17,0.13-0.28,0.13c-0.76,0.01-1.35,0.27-1.78,0.77s-0.73,1.31-0.92,2.42s-0.28,2.64-0.28,4.59
						c0,1.96,0.09,3.5,0.28,4.61s0.49,1.92,0.92,2.42s1.02,0.76,1.78,0.77c0.11,0,0.2,0.04,0.28,0.13s0.12,0.19,0.12,0.31v0.66
						c0,0.13-0.04,0.24-0.13,0.33c-0.09,0.09-0.2,0.13-0.33,0.13C787.59,171.15,786.68,170.83,786.01,170.18z"/>
					<path class="st1" d="M791.38,167.84c-0.08-0.09-0.12-0.2-0.12-0.33v-13.06c0-0.15,0.04-0.26,0.12-0.35s0.19-0.13,0.32-0.13
						h5.06c1.51,0,2.69,0.36,3.55,1.09c0.86,0.73,1.29,1.78,1.29,3.17s-0.43,2.44-1.29,3.16c-0.86,0.72-2.04,1.08-3.55,1.08h-3.6
						v5.04c0,0.13-0.04,0.24-0.13,0.33c-0.09,0.09-0.2,0.13-0.33,0.13h-1C791.56,167.97,791.46,167.93,791.38,167.84z
						 M796.66,160.85c2.01,0,3.02-0.87,3.02-2.62c0-0.85-0.25-1.51-0.75-1.96c-0.5-0.45-1.26-0.68-2.27-0.68h-3.5v5.26H796.66z"/>
					<path class="st1" d="M804.69,167.77c-0.55-0.27-0.99-0.63-1.32-1.09c-0.33-0.46-0.49-0.97-0.49-1.53c0-0.88,0.36-1.6,1.08-2.16
						c0.72-0.56,1.7-0.93,2.94-1.12l3-0.42v-0.58c0-1.37-0.79-2.06-2.38-2.06c-0.61,0-1.11,0.12-1.48,0.37
						c-0.37,0.25-0.65,0.54-0.82,0.87c-0.05,0.13-0.11,0.22-0.17,0.27c-0.06,0.05-0.14,0.07-0.25,0.07h-0.78
						c-0.12,0-0.22-0.04-0.31-0.13s-0.13-0.19-0.13-0.31c0-0.31,0.14-0.66,0.43-1.07c0.29-0.41,0.73-0.76,1.33-1.06
						c0.6-0.3,1.33-0.45,2.2-0.45c1.49,0,2.56,0.35,3.21,1.04s0.97,1.56,0.97,2.6v6.5c0,0.13-0.04,0.24-0.13,0.33
						s-0.2,0.13-0.33,0.13h-0.88c-0.13,0-0.24-0.04-0.32-0.13c-0.08-0.09-0.12-0.2-0.12-0.33v-0.88c-0.29,0.44-0.72,0.81-1.28,1.1
						s-1.28,0.44-2.16,0.44C805.84,168.17,805.24,168.04,804.69,167.77z M809.06,165.85c0.56-0.57,0.84-1.41,0.84-2.5v-0.56
						l-2.34,0.34c-0.96,0.13-1.69,0.36-2.18,0.68s-0.74,0.72-0.74,1.2c0,0.55,0.22,0.97,0.67,1.26c0.45,0.29,0.98,0.44,1.59,0.44
						C807.78,166.71,808.5,166.43,809.06,165.85z"/>
					<path class="st1" d="M815.85,167.72c-0.63-0.3-1.1-0.64-1.41-1.03c-0.31-0.39-0.46-0.71-0.46-0.96c0-0.13,0.05-0.24,0.14-0.31
						c0.09-0.07,0.19-0.11,0.3-0.11h0.84c0.08,0,0.14,0.01,0.19,0.04c0.05,0.03,0.11,0.09,0.19,0.18c0.31,0.37,0.65,0.67,1.03,0.88
						c0.38,0.21,0.89,0.32,1.53,0.32c0.72,0,1.3-0.13,1.73-0.4c0.43-0.27,0.65-0.65,0.65-1.16c0-0.33-0.09-0.6-0.28-0.8
						c-0.19-0.2-0.5-0.38-0.93-0.54c-0.43-0.16-1.08-0.33-1.93-0.52c-1.16-0.25-1.98-0.62-2.46-1.1c-0.48-0.48-0.72-1.1-0.72-1.86
						c0-0.49,0.15-0.97,0.44-1.43c0.29-0.46,0.73-0.83,1.31-1.12s1.27-0.43,2.07-0.43c0.84,0,1.56,0.14,2.15,0.42
						c0.59,0.28,1.04,0.61,1.34,0.98c0.3,0.37,0.45,0.69,0.45,0.94c0,0.12-0.04,0.22-0.13,0.3c-0.09,0.08-0.19,0.12-0.31,0.12h-0.76
						c-0.19,0-0.32-0.07-0.4-0.22c-0.23-0.25-0.42-0.45-0.57-0.59c-0.15-0.14-0.38-0.26-0.67-0.36c-0.29-0.1-0.66-0.15-1.1-0.15
						c-0.65,0-1.15,0.14-1.5,0.41s-0.52,0.64-0.52,1.09c0,0.28,0.07,0.52,0.22,0.71c0.15,0.19,0.43,0.37,0.84,0.54
						c0.41,0.17,1.03,0.34,1.84,0.51c1.27,0.27,2.16,0.65,2.69,1.14c0.53,0.49,0.79,1.13,0.79,1.9c0,0.57-0.16,1.09-0.49,1.56
						c-0.33,0.47-0.81,0.83-1.46,1.1c-0.65,0.27-1.42,0.4-2.31,0.4C817.26,168.17,816.48,168.02,815.85,167.72z"/>
					<path class="st1" d="M826.01,167.72c-0.63-0.3-1.1-0.64-1.41-1.03c-0.31-0.39-0.46-0.71-0.46-0.96c0-0.13,0.05-0.24,0.14-0.31
						c0.09-0.07,0.19-0.11,0.3-0.11h0.84c0.08,0,0.14,0.01,0.19,0.04c0.05,0.03,0.11,0.09,0.19,0.18c0.31,0.37,0.65,0.67,1.03,0.88
						c0.38,0.21,0.89,0.32,1.53,0.32c0.72,0,1.3-0.13,1.73-0.4c0.43-0.27,0.65-0.65,0.65-1.16c0-0.33-0.09-0.6-0.28-0.8
						c-0.19-0.2-0.5-0.38-0.93-0.54c-0.43-0.16-1.08-0.33-1.93-0.52c-1.16-0.25-1.98-0.62-2.46-1.1c-0.48-0.48-0.72-1.1-0.72-1.86
						c0-0.49,0.15-0.97,0.44-1.43c0.29-0.46,0.73-0.83,1.31-1.12s1.27-0.43,2.07-0.43c0.84,0,1.56,0.14,2.15,0.42
						c0.59,0.28,1.04,0.61,1.34,0.98c0.3,0.37,0.45,0.69,0.45,0.94c0,0.12-0.04,0.22-0.13,0.3c-0.09,0.08-0.19,0.12-0.31,0.12h-0.76
						c-0.19,0-0.32-0.07-0.4-0.22c-0.23-0.25-0.42-0.45-0.57-0.59c-0.15-0.14-0.38-0.26-0.67-0.36c-0.29-0.1-0.66-0.15-1.1-0.15
						c-0.65,0-1.15,0.14-1.5,0.41s-0.52,0.64-0.52,1.09c0,0.28,0.07,0.52,0.22,0.71c0.15,0.19,0.43,0.37,0.84,0.54
						c0.41,0.17,1.03,0.34,1.84,0.51c1.27,0.27,2.16,0.65,2.69,1.14c0.53,0.49,0.79,1.13,0.79,1.9c0,0.57-0.16,1.09-0.49,1.56
						c-0.33,0.47-0.81,0.83-1.46,1.1c-0.65,0.27-1.42,0.4-2.31,0.4C827.42,168.17,826.64,168.02,826.01,167.72z"/>
					<path class="st1" d="M834.91,155.48c-0.09-0.09-0.13-0.2-0.13-0.33v-1.04c0-0.13,0.04-0.25,0.13-0.34
						c0.09-0.09,0.2-0.14,0.33-0.14h1.18c0.13,0,0.25,0.05,0.34,0.14c0.09,0.09,0.14,0.21,0.14,0.34v1.04
						c0,0.13-0.05,0.24-0.14,0.33c-0.09,0.09-0.21,0.13-0.34,0.13h-1.18C835.1,155.61,834.99,155.57,834.91,155.48z M835.07,167.84
						c-0.09-0.09-0.13-0.2-0.13-0.33v-9.48c0-0.13,0.04-0.24,0.13-0.33c0.09-0.09,0.2-0.13,0.33-0.13h0.88
						c0.13,0,0.24,0.04,0.33,0.13c0.09,0.09,0.13,0.2,0.13,0.33v9.48c0,0.13-0.04,0.24-0.13,0.33s-0.2,0.13-0.33,0.13h-0.88
						C835.26,167.97,835.15,167.93,835.07,167.84z"/>
					<path class="st1" d="M842.62,167.47l-3.72-9.28c-0.01-0.04-0.02-0.11-0.02-0.2c0-0.12,0.04-0.22,0.12-0.3s0.17-0.12,0.28-0.12
						h0.92c0.21,0,0.37,0.11,0.48,0.32l3.08,7.98l3.08-7.98c0.03-0.08,0.08-0.15,0.17-0.22c0.09-0.07,0.19-0.1,0.31-0.1h0.92
						c0.11,0,0.2,0.04,0.28,0.12s0.12,0.18,0.12,0.3l-0.04,0.2l-3.7,9.28c-0.15,0.33-0.39,0.5-0.74,0.5h-0.8
						C843.01,167.97,842.76,167.81,842.62,167.47z"/>
					<path class="st1" d="M850.75,155.48c-0.09-0.09-0.13-0.2-0.13-0.33v-1.04c0-0.13,0.04-0.25,0.13-0.34
						c0.09-0.09,0.2-0.14,0.33-0.14h1.18c0.13,0,0.25,0.05,0.34,0.14c0.09,0.09,0.14,0.21,0.14,0.34v1.04
						c0,0.13-0.05,0.24-0.14,0.33c-0.09,0.09-0.21,0.13-0.34,0.13h-1.18C850.94,155.61,850.83,155.57,850.75,155.48z M850.91,167.84
						c-0.09-0.09-0.13-0.2-0.13-0.33v-9.48c0-0.13,0.04-0.24,0.13-0.33c0.09-0.09,0.2-0.13,0.33-0.13h0.88
						c0.13,0,0.24,0.04,0.33,0.13c0.09,0.09,0.13,0.2,0.13,0.33v9.48c0,0.13-0.04,0.24-0.13,0.33s-0.2,0.13-0.33,0.13h-0.88
						C851.1,167.97,850.99,167.93,850.91,167.84z"/>
					<path class="st1" d="M856.48,164.47v-5.36h-1.58c-0.13,0-0.24-0.04-0.32-0.12c-0.08-0.08-0.12-0.19-0.12-0.32v-0.64
						c0-0.13,0.04-0.24,0.12-0.33c0.08-0.09,0.19-0.13,0.32-0.13h1.58v-3.34c0-0.13,0.04-0.24,0.12-0.33
						c0.08-0.09,0.19-0.13,0.32-0.13h0.88c0.13,0,0.24,0.04,0.33,0.13c0.09,0.09,0.13,0.2,0.13,0.33v3.34h2.48
						c0.13,0,0.24,0.04,0.33,0.13c0.09,0.09,0.13,0.2,0.13,0.33v0.64c0,0.13-0.04,0.24-0.13,0.32c-0.09,0.08-0.2,0.12-0.33,0.12
						h-2.48v5.22c0,0.68,0.11,1.19,0.33,1.54c0.22,0.35,0.6,0.52,1.13,0.52h1.22c0.13,0,0.24,0.04,0.32,0.13
						c0.08,0.09,0.12,0.2,0.12,0.33v0.66c0,0.13-0.04,0.24-0.12,0.33s-0.19,0.13-0.32,0.13h-1.36
						C857.51,167.97,856.48,166.81,856.48,164.47z"/>
					<path class="st1" d="M864.86,171.65c-0.08-0.08-0.12-0.17-0.12-0.28c0-0.04,0.03-0.16,0.1-0.36l1.56-3.66l-3.82-9.02
						c-0.08-0.16-0.12-0.27-0.12-0.34c0.01-0.12,0.06-0.22,0.14-0.3s0.17-0.12,0.28-0.12h0.92c0.21,0,0.37,0.11,0.48,0.32l3.08,7.36
						l3.16-7.36c0.11-0.21,0.27-0.32,0.48-0.32h0.9c0.11,0,0.2,0.04,0.28,0.12s0.12,0.17,0.12,0.28c0,0.09-0.03,0.21-0.1,0.36
						l-5.66,13.12c-0.07,0.11-0.14,0.19-0.21,0.24c-0.07,0.05-0.17,0.08-0.29,0.08h-0.88C865.04,171.77,864.94,171.73,864.86,171.65
						z"/>
					<path class="st1" d="M878.15,167.84c-0.09-0.09-0.13-0.2-0.13-0.35v-0.8c0-0.23,0.05-0.41,0.14-0.54
						c0.09-0.13,0.15-0.21,0.16-0.22l7.5-10.28h-7.16c-0.13,0-0.24-0.04-0.33-0.13c-0.09-0.09-0.13-0.2-0.13-0.33v-0.74
						c0-0.15,0.04-0.26,0.13-0.35s0.2-0.13,0.33-0.13h9c0.15,0,0.26,0.04,0.35,0.13s0.13,0.2,0.13,0.35v0.8
						c0,0.24-0.09,0.47-0.26,0.7l-7.42,10.34h7.42c0.15,0,0.26,0.04,0.35,0.13c0.09,0.09,0.13,0.2,0.13,0.33v0.76
						c0,0.13-0.05,0.24-0.14,0.33c-0.09,0.09-0.21,0.13-0.34,0.13h-9.4C878.34,167.97,878.23,167.93,878.15,167.84z"/>
					<path class="st1" d="M891.17,166.93c-0.79-0.83-1.22-1.93-1.27-3.3l-0.02-0.86l0.02-0.86c0.05-1.37,0.48-2.47,1.29-3.3
						c0.81-0.83,1.93-1.24,3.37-1.24c1.44,0,2.56,0.41,3.37,1.24c0.81,0.83,1.24,1.93,1.29,3.3c0.03,0.29,0.04,0.58,0.04,0.86
						s-0.01,0.57-0.04,0.86c-0.05,1.37-0.48,2.47-1.27,3.3c-0.79,0.83-1.92,1.24-3.39,1.24S891.96,167.76,891.17,166.93z
						 M896.59,165.86c0.5-0.54,0.77-1.32,0.81-2.33c0.01-0.13,0.02-0.39,0.02-0.76c0-0.37-0.01-0.63-0.02-0.76
						c-0.04-1.01-0.31-1.79-0.81-2.33s-1.18-0.81-2.03-0.81s-1.53,0.27-2.03,0.81s-0.77,1.32-0.81,2.33l-0.02,0.76l0.02,0.76
						c0.04,1.01,0.31,1.79,0.81,2.33s1.18,0.81,2.03,0.81S896.09,166.4,896.59,165.86z"/>
					<path class="st1" d="M901.91,167.84c-0.09-0.09-0.13-0.2-0.13-0.33v-9.48c0-0.13,0.04-0.24,0.13-0.33
						c0.09-0.09,0.2-0.13,0.33-0.13h0.86c0.15,0,0.26,0.04,0.34,0.12s0.12,0.19,0.12,0.34v0.88c0.4-0.49,0.86-0.87,1.39-1.14
						s1.18-0.4,1.97-0.4c1.28,0,2.27,0.41,2.98,1.23c0.71,0.82,1.06,1.9,1.06,3.25v5.66c0,0.13-0.04,0.24-0.13,0.33
						s-0.2,0.13-0.33,0.13h-0.92c-0.13,0-0.24-0.04-0.33-0.13s-0.13-0.2-0.13-0.33v-5.54c0-0.96-0.23-1.71-0.7-2.24s-1.13-0.8-2-0.8
						c-0.85,0-1.53,0.27-2.04,0.81c-0.51,0.54-0.76,1.28-0.76,2.23v5.54c0,0.13-0.04,0.24-0.13,0.33s-0.2,0.13-0.33,0.13h-0.92
						C902.1,167.97,901.99,167.93,901.91,167.84z"/>
					<path class="st1" d="M914.72,166.9c-0.81-0.85-1.26-2-1.34-3.47l-0.02-0.68l0.02-0.66c0.08-1.44,0.53-2.59,1.34-3.44
						c0.81-0.85,1.9-1.28,3.26-1.28c1.47,0,2.6,0.47,3.41,1.4c0.81,0.93,1.21,2.2,1.21,3.8v0.36c0,0.13-0.04,0.24-0.13,0.33
						c-0.09,0.09-0.2,0.13-0.33,0.13h-6.94v0.18c0.04,0.87,0.31,1.61,0.8,2.22s1.15,0.92,1.96,0.92c0.63,0,1.14-0.12,1.53-0.37
						s0.69-0.5,0.89-0.77c0.12-0.16,0.21-0.26,0.28-0.29c0.07-0.03,0.18-0.05,0.34-0.05h0.88c0.12,0,0.22,0.03,0.31,0.1
						c0.09,0.07,0.13,0.15,0.13,0.26c0,0.29-0.18,0.65-0.54,1.06c-0.36,0.41-0.87,0.77-1.53,1.07c-0.66,0.3-1.42,0.45-2.27,0.45
						C916.62,168.17,915.53,167.75,914.72,166.9z M920.78,162.03v-0.06c0-0.93-0.25-1.69-0.76-2.28c-0.51-0.59-1.19-0.88-2.04-0.88
						c-0.87,0-1.55,0.29-2.04,0.88c-0.49,0.59-0.74,1.35-0.74,2.28v0.06H920.78z"/>
					<path class="st1" d="M923.31,171.02c-0.09-0.09-0.13-0.2-0.13-0.33v-0.66c0-0.12,0.04-0.22,0.12-0.31s0.17-0.13,0.28-0.13
						c0.75-0.01,1.34-0.27,1.77-0.77s0.74-1.31,0.93-2.43s0.28-2.65,0.28-4.6c0-1.95-0.09-3.48-0.28-4.59s-0.5-1.92-0.93-2.42
						s-1.02-0.76-1.77-0.77c-0.11,0-0.2-0.04-0.28-0.13s-0.12-0.19-0.12-0.31v-0.66c0-0.13,0.04-0.24,0.13-0.33s0.19-0.13,0.31-0.13
						c1.15,0,2.06,0.32,2.73,0.97c0.67,0.65,1.16,1.65,1.45,3c0.29,1.35,0.44,3.14,0.44,5.37s-0.15,4.02-0.44,5.38
						c-0.29,1.36-0.78,2.36-1.45,3.01c-0.67,0.65-1.58,0.97-2.73,0.97C923.5,171.15,923.39,171.11,923.31,171.02z"/>
				</g>
			</g>
			<polyline class="st2" points="760.96,168.32 766.68,174.04 772.41,168.32 			"/>
			<line class="st2" x1="766.68" y1="136" x2="766.68" y2="126.17"/>
			<line class="st2" x1="766.68" y1="173.75" x2="766.68" y2="136"/>
			<polyline class="st2" points="760.97,131.91 766.69,126.19 772.42,131.91 			"/>
		</g>
		<g>
			<g>
				<line class="st6" x1="489" y1="174.14" x2="490.5" y2="174.14"/>
				<line class="st11" x1="495.54" y1="174.14" x2="751.15" y2="174.14"/>
				<line class="st6" x1="753.67" y1="174.14" x2="755.17" y2="174.14"/>
			</g>
		</g>
		<g>
			<g>
				<line class="st6" x1="489" y1="125" x2="490.5" y2="125"/>
				<line class="st11" x1="495.54" y1="125" x2="751.15" y2="125"/>
				<line class="st6" x1="753.67" y1="125" x2="755.17" y2="125"/>
			</g>
		</g>
		<g>
			<g>
				<line class="st6" x1="127" y1="125" x2="128.5" y2="125"/>
				<line class="st10" x1="133.46" y1="125" x2="377.19" y2="125"/>
				<line class="st6" x1="379.67" y1="125" x2="381.17" y2="125"/>
			</g>
		</g>
		<g>
			<g id="MTEXT_88_" class="st8">
				<g>
					<path class="st1" d="M633.93,513.49c-0.81-0.35-1.42-0.8-1.84-1.37s-0.64-1.18-0.67-1.83c0-0.11,0.04-0.2,0.12-0.28
						c0.08-0.08,0.18-0.12,0.3-0.12h0.98c0.24,0,0.41,0.13,0.5,0.4c0.12,0.56,0.46,1.04,1.03,1.45c0.57,0.41,1.38,0.61,2.43,0.61
						c1.13,0,1.98-0.2,2.54-0.6c0.56-0.4,0.84-0.95,0.84-1.66c0-0.45-0.14-0.83-0.41-1.12c-0.27-0.29-0.68-0.55-1.22-0.77
						s-1.35-0.49-2.43-0.81c-1.03-0.29-1.84-0.61-2.45-0.94s-1.06-0.74-1.37-1.23s-0.46-1.1-0.46-1.85c0-0.72,0.19-1.36,0.58-1.93
						s0.95-1.01,1.68-1.34s1.6-0.49,2.6-0.49c1.04,0,1.93,0.18,2.67,0.55c0.74,0.37,1.3,0.83,1.69,1.38
						c0.39,0.55,0.59,1.11,0.62,1.67c0,0.12-0.04,0.22-0.12,0.3c-0.08,0.08-0.18,0.12-0.3,0.12h-1c-0.11,0-0.21-0.03-0.3-0.1
						c-0.09-0.07-0.16-0.17-0.2-0.3c-0.08-0.57-0.4-1.05-0.96-1.42c-0.56-0.37-1.26-0.56-2.1-0.56c-0.91,0-1.63,0.18-2.16,0.53
						s-0.8,0.88-0.8,1.57c0,0.47,0.12,0.85,0.37,1.14c0.25,0.29,0.63,0.55,1.14,0.78s1.26,0.49,2.25,0.78
						c1.13,0.32,2.02,0.64,2.67,0.96c0.65,0.32,1.13,0.72,1.45,1.19s0.48,1.08,0.48,1.83c0,1.25-0.48,2.23-1.43,2.93
						s-2.24,1.05-3.87,1.05C635.68,514.01,634.73,513.84,633.93,513.49z"/>
					<path class="st1" d="M645.53,513.61c-0.55-0.27-0.99-0.63-1.32-1.09c-0.33-0.46-0.49-0.97-0.49-1.53c0-0.88,0.36-1.6,1.08-2.16
						c0.72-0.56,1.7-0.93,2.94-1.12l3-0.42v-0.58c0-1.37-0.79-2.06-2.38-2.06c-0.61,0-1.11,0.12-1.48,0.37s-0.65,0.54-0.82,0.87
						c-0.05,0.13-0.11,0.22-0.17,0.27c-0.06,0.05-0.14,0.07-0.25,0.07h-0.78c-0.12,0-0.22-0.04-0.31-0.13
						c-0.09-0.09-0.13-0.19-0.13-0.31c0-0.31,0.14-0.66,0.43-1.07c0.29-0.41,0.73-0.76,1.33-1.06c0.6-0.3,1.33-0.45,2.2-0.45
						c1.49,0,2.56,0.35,3.21,1.04s0.97,1.56,0.97,2.6v6.5c0,0.13-0.04,0.24-0.13,0.33c-0.09,0.09-0.2,0.13-0.33,0.13h-0.88
						c-0.13,0-0.24-0.04-0.32-0.13c-0.08-0.09-0.12-0.2-0.12-0.33v-0.88c-0.29,0.44-0.72,0.81-1.28,1.1s-1.28,0.44-2.16,0.44
						C646.68,514.01,646.08,513.88,645.53,513.61z M649.9,511.69c0.56-0.57,0.84-1.41,0.84-2.5v-0.56l-2.34,0.34
						c-0.96,0.13-1.69,0.36-2.18,0.68s-0.74,0.72-0.74,1.2c0,0.55,0.22,0.97,0.67,1.26c0.45,0.29,0.98,0.44,1.59,0.44
						C648.62,512.55,649.34,512.27,649.9,511.69z"/>
					<path class="st1" d="M656.53,513.68c-0.09-0.09-0.13-0.2-0.13-0.33v-8.4h-1.72c-0.13,0-0.24-0.04-0.33-0.12
						c-0.09-0.08-0.13-0.19-0.13-0.32v-0.64c0-0.13,0.04-0.24,0.13-0.33c0.09-0.09,0.2-0.13,0.33-0.13h1.72v-1
						c0-1.08,0.26-1.92,0.79-2.51c0.53-0.59,1.39-0.89,2.59-0.89h1.18c0.13,0,0.24,0.04,0.33,0.13c0.09,0.09,0.13,0.2,0.13,0.33
						v0.64c0,0.13-0.04,0.24-0.13,0.32s-0.2,0.12-0.33,0.12h-1.14c-0.61,0-1.04,0.16-1.28,0.48c-0.24,0.32-0.36,0.81-0.36,1.48v0.9
						h2.58c0.13,0,0.24,0.04,0.33,0.13c0.09,0.09,0.13,0.2,0.13,0.33v0.64c0,0.13-0.04,0.24-0.13,0.32
						c-0.09,0.08-0.2,0.12-0.33,0.12h-2.58v8.4c0,0.13-0.04,0.24-0.13,0.33c-0.09,0.09-0.2,0.13-0.33,0.13h-0.86
						C656.72,513.81,656.61,513.77,656.53,513.68z"/>
					<path class="st1" d="M663.66,512.74c-0.81-0.85-1.26-2-1.34-3.47l-0.02-0.68l0.02-0.66c0.08-1.44,0.53-2.59,1.34-3.44
						c0.81-0.85,1.9-1.28,3.26-1.28c1.47,0,2.6,0.47,3.41,1.4c0.81,0.93,1.21,2.2,1.21,3.8v0.36c0,0.13-0.04,0.24-0.13,0.33
						c-0.09,0.09-0.2,0.13-0.33,0.13h-6.94v0.18c0.04,0.87,0.31,1.61,0.8,2.22s1.15,0.92,1.96,0.92c0.63,0,1.14-0.12,1.53-0.37
						c0.39-0.25,0.69-0.5,0.89-0.77c0.12-0.16,0.21-0.26,0.28-0.29s0.18-0.05,0.34-0.05h0.88c0.12,0,0.22,0.03,0.31,0.1
						c0.09,0.07,0.13,0.15,0.13,0.26c0,0.29-0.18,0.65-0.54,1.06c-0.36,0.41-0.87,0.77-1.53,1.07c-0.66,0.3-1.42,0.45-2.27,0.45
						C665.56,514.01,664.47,513.59,663.66,512.74z M669.72,507.87v-0.06c0-0.93-0.25-1.69-0.76-2.28s-1.19-0.88-2.04-0.88
						c-0.87,0-1.55,0.29-2.04,0.88s-0.74,1.35-0.74,2.28v0.06H669.72z"/>
					<path class="st1" d="M674.82,510.31v-5.36h-1.58c-0.13,0-0.24-0.04-0.32-0.12c-0.08-0.08-0.12-0.19-0.12-0.32v-0.64
						c0-0.13,0.04-0.24,0.12-0.33s0.19-0.13,0.32-0.13h1.58v-3.34c0-0.13,0.04-0.24,0.12-0.33c0.08-0.09,0.19-0.13,0.32-0.13h0.88
						c0.13,0,0.24,0.04,0.33,0.13c0.09,0.09,0.13,0.2,0.13,0.33v3.34h2.48c0.13,0,0.24,0.04,0.33,0.13c0.09,0.09,0.13,0.2,0.13,0.33
						v0.64c0,0.13-0.04,0.24-0.13,0.32c-0.09,0.08-0.2,0.12-0.33,0.12h-2.48v5.22c0,0.68,0.11,1.19,0.33,1.54
						c0.22,0.35,0.6,0.52,1.13,0.52h1.22c0.13,0,0.24,0.04,0.32,0.13s0.12,0.2,0.12,0.33v0.66c0,0.13-0.04,0.24-0.12,0.33
						c-0.08,0.09-0.19,0.13-0.32,0.13h-1.36C675.85,513.81,674.82,512.65,674.82,510.31z"/>
					<path class="st1" d="M683.19,517.49c-0.08-0.08-0.12-0.17-0.12-0.28c0-0.04,0.03-0.16,0.1-0.36l1.56-3.66l-3.82-9.02
						c-0.08-0.16-0.12-0.27-0.12-0.34c0.01-0.12,0.06-0.22,0.14-0.3s0.17-0.12,0.28-0.12h0.92c0.21,0,0.37,0.11,0.48,0.32l3.08,7.36
						l3.16-7.36c0.11-0.21,0.27-0.32,0.48-0.32h0.9c0.11,0,0.2,0.04,0.28,0.12s0.12,0.17,0.12,0.28c0,0.09-0.03,0.21-0.1,0.36
						l-5.66,13.12c-0.07,0.11-0.14,0.19-0.21,0.24s-0.17,0.08-0.29,0.08h-0.88C683.38,517.61,683.27,517.57,683.19,517.49z"/>
					<path class="st1" d="M631.08,535.49c-0.08-0.08-0.12-0.17-0.12-0.28l0.04-0.22l4.96-12.94c0.11-0.29,0.32-0.44,0.64-0.44h1.28
						c0.32,0,0.53,0.15,0.64,0.44l4.96,12.94l0.04,0.22c0,0.11-0.04,0.2-0.13,0.28s-0.18,0.12-0.29,0.12h-0.94
						c-0.13,0-0.24-0.04-0.33-0.11c-0.09-0.07-0.14-0.15-0.17-0.23l-1.12-2.88h-6.62l-1.1,2.88c-0.11,0.23-0.27,0.34-0.5,0.34h-0.96
						C631.25,535.61,631.16,535.57,631.08,535.49z M634.5,530.73h5.48l-2.74-7.18L634.5,530.73z"/>
					<path class="st1" d="M645.55,535.48c-0.09-0.09-0.13-0.2-0.13-0.33v-9.46c0-0.13,0.04-0.25,0.13-0.34
						c0.09-0.09,0.2-0.14,0.33-0.14h0.84c0.15,0,0.26,0.04,0.35,0.13c0.09,0.09,0.13,0.2,0.13,0.35v0.88
						c0.55-0.91,1.47-1.36,2.78-1.36h0.78c0.15,0,0.26,0.04,0.34,0.12s0.12,0.19,0.12,0.34v0.74c0,0.13-0.04,0.24-0.12,0.33
						c-0.08,0.09-0.19,0.13-0.34,0.13h-1.14c-0.73,0-1.31,0.21-1.73,0.64c-0.42,0.43-0.63,1.01-0.63,1.74v5.9
						c0,0.13-0.05,0.24-0.14,0.33c-0.09,0.09-0.21,0.13-0.34,0.13h-0.9C645.74,535.61,645.63,535.57,645.55,535.48z"/>
					<path class="st1" d="M653.6,534.54c-0.81-0.85-1.26-2-1.34-3.47l-0.02-0.68l0.02-0.66c0.08-1.44,0.53-2.59,1.34-3.44
						c0.81-0.85,1.9-1.28,3.26-1.28c1.47,0,2.6,0.47,3.41,1.4c0.81,0.93,1.21,2.2,1.21,3.8v0.36c0,0.13-0.04,0.24-0.13,0.33
						c-0.09,0.09-0.2,0.13-0.33,0.13h-6.94v0.18c0.04,0.87,0.31,1.61,0.8,2.22s1.15,0.92,1.96,0.92c0.63,0,1.14-0.12,1.53-0.37
						c0.39-0.25,0.69-0.5,0.89-0.77c0.12-0.16,0.21-0.26,0.28-0.29c0.07-0.03,0.18-0.05,0.34-0.05h0.88c0.12,0,0.22,0.03,0.31,0.1
						s0.13,0.15,0.13,0.26c0,0.29-0.18,0.65-0.54,1.06s-0.87,0.77-1.53,1.07c-0.66,0.3-1.42,0.45-2.27,0.45
						C655.5,535.81,654.41,535.39,653.6,534.54z M659.66,529.67v-0.06c0-0.93-0.25-1.69-0.76-2.28c-0.51-0.59-1.19-0.88-2.04-0.88
						c-0.87,0-1.55,0.29-2.04,0.88c-0.49,0.59-0.74,1.35-0.74,2.28v0.06H659.66z"/>
					<path class="st1" d="M664.99,535.41c-0.55-0.27-0.99-0.63-1.32-1.09c-0.33-0.46-0.49-0.97-0.49-1.53c0-0.88,0.36-1.6,1.08-2.16
						s1.7-0.93,2.94-1.12l3-0.42v-0.58c0-1.37-0.79-2.06-2.38-2.06c-0.61,0-1.11,0.12-1.48,0.37c-0.37,0.25-0.65,0.54-0.82,0.87
						c-0.05,0.13-0.11,0.22-0.17,0.27c-0.06,0.05-0.14,0.07-0.25,0.07h-0.78c-0.12,0-0.22-0.04-0.31-0.13
						c-0.09-0.09-0.13-0.19-0.13-0.31c0-0.31,0.14-0.66,0.43-1.07c0.29-0.41,0.73-0.76,1.33-1.06c0.6-0.3,1.33-0.45,2.2-0.45
						c1.49,0,2.56,0.35,3.21,1.04s0.97,1.56,0.97,2.6v6.5c0,0.13-0.04,0.24-0.13,0.33c-0.09,0.09-0.2,0.13-0.33,0.13h-0.88
						c-0.13,0-0.24-0.04-0.32-0.13c-0.08-0.09-0.12-0.2-0.12-0.33v-0.88c-0.29,0.44-0.72,0.81-1.28,1.1s-1.28,0.44-2.16,0.44
						C666.14,535.81,665.54,535.68,664.99,535.41z M669.36,533.49c0.56-0.57,0.84-1.41,0.84-2.5v-0.56l-2.34,0.34
						c-0.96,0.13-1.69,0.36-2.18,0.68s-0.74,0.72-0.74,1.2c0,0.55,0.22,0.97,0.67,1.26c0.45,0.29,0.98,0.44,1.59,0.44
						C668.08,534.35,668.79,534.07,669.36,533.49z"/>
				</g>
			</g>
			<line class="st12" x1="623.69" y1="508.43" x2="589.54" y2="474.28"/>
		</g>
	</g>
</g>
<g id="_x32_D_x24_AG-GUIDES">
</g>
<g id="_x32_D_x24_AG-DIAGRAM">
</g>
<g id="_x32_D_x24_AG-DETAILS-DIAGRAM">
</g>
<g id="_x32_D_x24_AG-DETAILS">
	<g id="POLYLINE_2283_">
		<line class="st2" x1="514.88" y1="190.52" x2="449.3" y2="124.94"/>
	</g>
	<g id="POLYLINE_2282_">
		<line class="st2" x1="657.06" y1="332.7" x2="591.48" y2="267.12"/>
	</g>
	<g id="POLYLINE_2281_">
		<line class="st2" x1="333.58" y1="210.74" x2="299.3" y2="176.46"/>
	</g>
	<g id="POLYLINE_2280_">
		<line class="st2" x1="605.54" y1="482.7" x2="571.26" y2="448.42"/>
	</g>
	<g id="POLYLINE_2279_">
		<line class="st2" x1="343.16" y1="203.52" x2="308.61" y2="168.97"/>
	</g>
	<g id="POLYLINE_2278_">
		<line class="st2" x1="613.03" y1="473.39" x2="578.48" y2="438.84"/>
	</g>
	<g id="POLYLINE_2277_">
		<line class="st2" x1="388.02" y1="181.21" x2="350.74" y2="143.93"/>
	</g>
	<g id="POLYLINE_2276_">
		<line class="st2" x1="638.07" y1="431.26" x2="600.79" y2="393.98"/>
	</g>
	<g id="POLYLINE_2275_">
		<line class="st2" x1="375.74" y1="185.72" x2="339.44" y2="149.42"/>
	</g>
	<g id="POLYLINE_2274_">
		<line class="st2" x1="632.58" y1="442.56" x2="596.28" y2="406.26"/>
	</g>
	<g id="POLYLINE_2273_">
		<line class="st2" x1="364.2" y1="190.98" x2="328.66" y2="155.44"/>
	</g>
	<g id="POLYLINE_2272_">
		<line class="st2" x1="626.56" y1="453.34" x2="591.02" y2="417.8"/>
	</g>
	<g id="POLYLINE_2271_">
		<line class="st2" x1="353.36" y1="196.93" x2="318.39" y2="161.96"/>
	</g>
	<g id="POLYLINE_2270_">
		<line class="st2" x1="620.04" y1="463.61" x2="585.08" y2="428.64"/>
	</g>
	<g id="POLYLINE_2269_">
		<line class="st2" x1="401.15" y1="177.55" x2="362.6" y2="139"/>
	</g>
	<g id="POLYLINE_2268_">
		<line class="st2" x1="643" y1="419.4" x2="604.45" y2="380.85"/>
	</g>
	<g id="POLYLINE_2267_">
		<line class="st2" x1="415.24" y1="174.84" x2="375.07" y2="134.67"/>
	</g>
	<g id="POLYLINE_2266_">
		<line class="st2" x1="647.33" y1="406.93" x2="607.16" y2="366.76"/>
	</g>
	<g id="POLYLINE_2265_">
		<line class="st2" x1="430.48" y1="173.29" x2="388.2" y2="131.01"/>
	</g>
	<g id="POLYLINE_2264_">
		<line class="st2" x1="650.99" y1="393.8" x2="608.71" y2="351.52"/>
	</g>
	<g id="POLYLINE_2263_">
		<line class="st2" x1="447.15" y1="173.17" x2="402.06" y2="128.08"/>
	</g>
	<g id="POLYLINE_2262_">
		<line class="st2" x1="653.92" y1="379.94" x2="608.83" y2="334.85"/>
	</g>
	<g id="POLYLINE_2261_">
		<line class="st2" x1="465.77" y1="175" x2="416.76" y2="125.99"/>
	</g>
	<g id="POLYLINE_2260_">
		<line class="st2" x1="656.01" y1="365.24" x2="607" y2="316.23"/>
	</g>
	<g id="POLYLINE_2259_">
		<line class="st2" x1="487.36" y1="179.79" x2="432.44" y2="124.87"/>
	</g>
	<g id="POLYLINE_2258_">
		<line class="st2" x1="657.13" y1="349.56" x2="602.21" y2="294.64"/>
	</g>
	<g id="POLYLINE_2257_">
		<line class="st2" x1="289.2" y1="418.25" x2="222.97" y2="352.02"/>
	</g>
	<g id="POLYLINE_2256_">
		<line class="st2" x1="429.98" y1="559.03" x2="363.75" y2="492.8"/>
	</g>
	<g id="POLYLINE_2255_">
		<line class="st2" x1="324.61" y1="218.56" x2="290.45" y2="184.4"/>
	</g>
	<g id="POLYLINE_2254_">
		<line class="st2" x1="597.6" y1="491.55" x2="563.44" y2="457.39"/>
	</g>
	<g id="POLYLINE_2253_">
		<line class="st2" x1="278.08" y1="390.34" x2="222.85" y2="335.11"/>
	</g>
	<g id="POLYLINE_2252_">
		<line class="st2" x1="446.89" y1="559.15" x2="391.66" y2="503.92"/>
	</g>
	<g id="POLYLINE_2251_">
		<line class="st2" x1="273.13" y1="368.59" x2="223.92" y2="319.38"/>
	</g>
	<g id="POLYLINE_2250_">
		<line class="st2" x1="462.62" y1="558.08" x2="413.41" y2="508.87"/>
	</g>
	<g id="POLYLINE_2249_">
		<line class="st2" x1="271.2" y1="349.87" x2="225.98" y2="304.65"/>
	</g>
	<g id="POLYLINE_2248_">
		<line class="st2" x1="477.35" y1="556.02" x2="432.13" y2="510.8"/>
	</g>
	<g id="POLYLINE_2247_">
		<line class="st2" x1="271.25" y1="333.13" x2="228.87" y2="290.75"/>
	</g>
	<g id="POLYLINE_2246_">
		<line class="st2" x1="491.25" y1="553.13" x2="448.87" y2="510.75"/>
	</g>
	<g id="POLYLINE_2245_">
		<line class="st2" x1="283.52" y1="278.22" x2="247.18" y2="241.89"/>
	</g>
	<g id="POLYLINE_2244_">
		<line class="st2" x1="540.11" y1="534.82" x2="503.78" y2="498.48"/>
	</g>
	<g id="POLYLINE_2243_">
		<line class="st2" x1="288.75" y1="266.66" x2="253.18" y2="231.09"/>
	</g>
	<g id="POLYLINE_2242_">
		<line class="st2" x1="550.91" y1="528.82" x2="515.34" y2="493.25"/>
	</g>
	<g id="POLYLINE_2241_">
		<line class="st2" x1="308.43" y1="235.96" x2="274.14" y2="201.67"/>
	</g>
	<g id="POLYLINE_2240_">
		<line class="st2" x1="580.33" y1="507.86" x2="546.04" y2="473.57"/>
	</g>
	<g id="POLYLINE_2239_">
		<line class="st2" x1="316.22" y1="226.96" x2="282.07" y2="192.81"/>
	</g>
	<g id="POLYLINE_2238_">
		<line class="st2" x1="589.19" y1="499.93" x2="555.04" y2="465.78"/>
	</g>
	<g id="POLYLINE_2237_">
		<line class="st2" x1="275.42" y1="303.71" x2="236.81" y2="265.1"/>
	</g>
	<g id="POLYLINE_2236_">
		<line class="st2" x1="516.9" y1="545.19" x2="478.29" y2="506.58"/>
	</g>
	<g id="POLYLINE_2235_">
		<line class="st2" x1="279.05" y1="290.54" x2="241.71" y2="253.21"/>
	</g>
	<g id="POLYLINE_2234_">
		<line class="st2" x1="528.79" y1="540.29" x2="491.46" y2="502.95"/>
	</g>
	<g id="POLYLINE_2233_">
		<line class="st2" x1="272.76" y1="317.84" x2="232.51" y2="277.59"/>
	</g>
	<g id="POLYLINE_2232_">
		<line class="st2" x1="504.41" y1="549.49" x2="464.16" y2="509.24"/>
	</g>
	<g id="POLYLINE_2231_">
		<line class="st2" x1="294.67" y1="255.79" x2="259.69" y2="220.81"/>
	</g>
	<g id="POLYLINE_2230_">
		<line class="st2" x1="561.19" y1="522.31" x2="526.21" y2="487.33"/>
	</g>
	<g id="POLYLINE_2229_">
		<line class="st2" x1="301.24" y1="245.57" x2="266.68" y2="211"/>
	</g>
	<g id="POLYLINE_2228_">
		<line class="st2" x1="571" y1="515.32" x2="536.43" y2="480.76"/>
	</g>
	<g id="POLYLINE_2227_">
		<line class="st2" x1="655.49" y1="314.34" x2="467.66" y2="126.51"/>
	</g>
	<g id="POLYLINE_2226_">
		<line class="st2" x1="651.87" y1="293.93" x2="488.07" y2="130.13"/>
	</g>
	<g id="POLYLINE_2225_">
		<line class="st2" x1="645.11" y1="270.37" x2="511.63" y2="136.89"/>
	</g>
	<g id="POLYLINE_2224_">
		<line class="st2" x1="632.16" y1="240.62" x2="541.38" y2="149.84"/>
	</g>
	<g id="POLYLINE_2223_">
		<line class="st2" x1="337.15" y1="533.37" x2="248.63" y2="444.85"/>
	</g>
	<g id="POLYLINE_2222_">
		<line class="st2" x1="367.31" y1="546.74" x2="235.26" y2="414.69"/>
	</g>
	<g id="POLYLINE_2221_">
		<line class="st2" x1="391.03" y1="553.67" x2="228.33" y2="390.97"/>
	</g>
	<g id="POLYLINE_2220_">
		<line class="st2" x1="411.55" y1="557.39" x2="224.61" y2="370.45"/>
	</g>
</g>
<g id="_x32_D_x24_AG-SPORTS">
	<g id="POLYLINE_1279_">
		<path class="st2" d="M464.07,340.16c-0.96-12.57-11.47-22.3-24.07-22.3c-12.61,0-23.11,9.73-24.07,22.3"/>
	</g>
	<g id="POLYLINE_1278_">
		<path class="st2" d="M415.93,343.84c0.96,12.57,11.47,22.3,24.07,22.3c12.61,0,23.11-9.73,24.07-22.3"/>
	</g>
	<g id="POLYLINE_1277_">
		<line class="st2" x1="464.07" y1="343.84" x2="415.93" y2="343.84"/>
	</g>
	<g id="POLYLINE_1276_">
		<line class="st2" x1="415.93" y1="340.16" x2="464.07" y2="340.16"/>
	</g>
	<g id="POLYLINE_1275_">
		<path class="st2" d="M469.05,342c0.02-9.74-4.99-19.01-13.16-24.32c-14.93-9.71-34.93-3.9-42.33,12.3
			c-3.46,7.55-3.46,16.48,0,24.03c7.4,16.2,27.4,22.02,42.33,12.3C464.06,361.01,469.07,351.74,469.05,342z"/>
	</g>
	<g id="POLYLINE_1274_">
		<path class="st126" d="M608.98,342c0.04-56.93-28.87-110.36-76.56-141.46c-41.53-27.19-93.46-34.7-140.99-20.39
			c-46.58,13.93-85.22,47.67-105.28,91.96c-20.15,44.24-20.15,95.54,0,139.78c20.49,45.22,60.3,79.39,108.1,92.78
			c46.79,13.21,97.49,5.43,138.17-21.21C580.11,452.36,609.02,398.93,608.98,342z"/>
	</g>
	<g id="POLYLINE_1273_">
		<path class="st126" d="M657.26,342c0.04-73.22-37.11-141.87-98.43-181.88c-53.43-34.97-120.12-44.61-181.27-26.21
			c-59.91,17.92-109.55,61.28-135.36,118.23c-25.91,56.91-25.91,122.82,0,179.72c26.37,58.16,77.5,102.05,138.99,119.28
			c60.18,16.98,125.32,6.98,177.64-27.26C620.15,483.87,657.3,415.22,657.26,342z"/>
	</g>
	<g id="POLYLINE_1272_">
		<rect x="150.32" y="52.32" class="st126" width="579.36" height="579.36"/>
	</g>
</g>
<g id="_x32_D_x24_AG-OUTLINE">
	<g id="POLYLINE_826_">
		<rect x="150.32" y="52.32" class="st135" width="579.36" height="579.36"/>
	</g>
</g>
</svg>
