<?xml version="1.0" encoding="utf-8"?>
<!-- Generator: Adobe Illustrator 25.0.1, SVG Export Plug-In . SVG Version: 6.00 Build 0)  -->
<svg version="1.1" xmlns="http://www.w3.org/2000/svg" xmlns:xlink="http://www.w3.org/1999/xlink" x="0px" y="0px" width="1000px"
	 height="700px" viewBox="0 0 1000 700" style="enable-background:new 0 0 1000 700;" xml:space="preserve">
<style type="text/css">
	.st0{fill:#FFFFFF;}
	.st1{fill:#E74C3C;}
	.st2{fill:none;stroke:#E74C3C;stroke-width:2;stroke-linecap:round;stroke-linejoin:round;stroke-miterlimit:10;}
	.st3{opacity:0.98;}
	.st4{fill:none;stroke:#E74C3C;stroke-width:2.75;stroke-linecap:round;stroke-linejoin:round;}
	.st5{fill:none;stroke:#E74C3C;stroke-width:2.75;stroke-linecap:round;stroke-linejoin:round;stroke-dasharray:3.0379,7.0883;}
	.st6{fill:none;stroke:#E74C3C;stroke-width:2.75;stroke-linecap:round;stroke-linejoin:round;stroke-dasharray:3.0478,7.1115;}
	.st7{fill:none;stroke:#E74C3C;stroke-width:2.75;stroke-linecap:round;stroke-linejoin:round;stroke-dasharray:3.0327,7.0763;}
	
		.st8{fill:none;stroke:#E74C3C;stroke-width:2.75;stroke-linecap:round;stroke-linejoin:round;stroke-miterlimit:10;stroke-dasharray:3,7;}
	.st9{fill:none;stroke:#E74C3C;stroke-width:3;stroke-linecap:round;stroke-linejoin:round;stroke-dasharray:5.016,7.0224;}
	.st10{fill:none;stroke:#E74C3C;stroke-width:3;stroke-linecap:round;stroke-linejoin:round;stroke-dasharray:4.9726,6.9617;}
	.st11{fill:none;stroke:#E74C3C;stroke-width:3;stroke-linecap:round;stroke-linejoin:round;stroke-dasharray:4.9761,6.9666;}
	.st12{fill:none;stroke:#E74C3C;stroke-width:3;stroke-linecap:round;stroke-linejoin:round;stroke-dasharray:4.9669,6.9536;}
	.st13{fill:none;stroke:#E74C3C;stroke-width:3;stroke-linecap:round;stroke-linejoin:round;}
	.st14{fill:none;stroke:#E74C3C;stroke-width:3;stroke-linecap:round;stroke-linejoin:round;stroke-dasharray:5.0034,7.0047;}
	.st15{fill:none;stroke:#E74C3C;stroke-width:3;stroke-linecap:round;stroke-linejoin:round;stroke-dasharray:4.8873,6.8422;}
	.st16{fill:none;stroke:#E74C3C;stroke-width:3;stroke-linecap:round;stroke-linejoin:round;stroke-dasharray:3.9316,5.5042;}
	.st17{fill:none;stroke:#E74C3C;stroke-width:3;stroke-linecap:round;stroke-linejoin:round;stroke-dasharray:4.6999,6.5798;}
	.st18{fill:none;stroke:#E74C3C;stroke-width:3;stroke-linecap:round;stroke-linejoin:round;stroke-dasharray:5.8557,8.198;}
	.st19{fill:none;stroke:#E74C3C;stroke-width:3;stroke-linecap:round;stroke-linejoin:round;stroke-dasharray:4.7562,6.6587;}
	.st20{fill:none;stroke:#E74C3C;stroke-width:3;stroke-linecap:round;stroke-linejoin:round;stroke-dasharray:5.044,7.0617;}
	.st21{fill:none;stroke:#E74C3C;stroke-width:3;stroke-linecap:round;stroke-linejoin:round;stroke-dasharray:4.8561,6.7986;}
	.st22{fill:none;stroke:#E74C3C;stroke-width:3;stroke-linecap:round;stroke-linejoin:round;stroke-dasharray:4.7428,6.64;}
	.st23{fill:none;stroke:#E74C3C;stroke-width:3;stroke-linecap:round;stroke-linejoin:round;stroke-dasharray:4.9542,6.9359;}
	.st24{fill:none;stroke:#E74C3C;stroke-width:3;stroke-linecap:round;stroke-linejoin:round;stroke-dasharray:4.7335,6.627;}
	.st25{fill:none;stroke:#E74C3C;stroke-width:3;stroke-linecap:round;stroke-linejoin:round;stroke-dasharray:2.5211,3.5295;}
	.st26{fill:none;stroke:#E74C3C;stroke-width:3;stroke-linecap:round;stroke-linejoin:round;stroke-dasharray:4.3631,6.1083;}
	.st27{fill:none;stroke:#E74C3C;stroke-width:3;stroke-linecap:round;stroke-linejoin:round;stroke-dasharray:5.1567,7.2194;}
	.st28{fill:none;stroke:#E74C3C;stroke-width:3;stroke-linecap:round;stroke-linejoin:round;stroke-dasharray:4.659,6.5226;}
	.st29{fill:none;stroke:#E74C3C;stroke-width:3;stroke-linecap:round;stroke-linejoin:round;stroke-dasharray:5.2234,7.3127;}
	.st30{fill:none;stroke:#E74C3C;stroke-width:3;stroke-linecap:round;stroke-linejoin:round;stroke-dasharray:4.9616,6.9463;}
	.st31{fill:none;stroke:#E74C3C;stroke-width:3;stroke-linecap:round;stroke-linejoin:round;stroke-dasharray:4.9905,6.9868;}
	.st32{fill:none;stroke:#E74C3C;stroke-width:3;stroke-linecap:round;stroke-linejoin:round;stroke-dasharray:5.2088,7.2923;}
	.st33{fill:none;stroke:#E74C3C;stroke-width:3;stroke-linecap:round;stroke-linejoin:round;stroke-dasharray:4.9553,6.9374;}
	.st34{fill:none;stroke:#E74C3C;stroke-width:3;stroke-linecap:round;stroke-linejoin:round;stroke-dasharray:5.007,7.0098;}
	.st35{fill:none;stroke:#E74C3C;stroke-width:3.25;stroke-linecap:round;stroke-linejoin:round;}
	.st36{fill:none;stroke:#E74C3C;stroke-width:3.25;stroke-linecap:round;stroke-linejoin:round;stroke-dasharray:4.0423,7.074;}
	.st37{fill:none;stroke:#E74C3C;stroke-width:3;stroke-linecap:round;stroke-linejoin:round;stroke-dasharray:4.9773,6.9683;}
	.st38{fill:none;stroke:#E74C3C;stroke-width:3;stroke-linecap:round;stroke-linejoin:round;stroke-dasharray:5.0749,7.1048;}
	.st39{fill:none;stroke:#E74C3C;stroke-width:3;stroke-linecap:round;stroke-linejoin:round;stroke-dasharray:4.1035,5.7448;}
	.st40{fill:none;stroke:#E74C3C;stroke-width:3;stroke-linecap:round;stroke-linejoin:round;stroke-dasharray:4.8819,6.8347;}
	.st41{fill:none;stroke:#E74C3C;stroke-width:3;stroke-linecap:round;stroke-linejoin:round;stroke-dasharray:4.3958,6.1541;}
	.st42{fill:none;stroke:#E74C3C;stroke-width:3;stroke-linecap:round;stroke-linejoin:round;stroke-dasharray:4.9423,6.9192;}
	.st43{fill:none;stroke:#E74C3C;stroke-width:3;stroke-linecap:round;stroke-linejoin:round;stroke-dasharray:5.0436,7.0611;}
	.st44{fill:none;stroke:#E74C3C;stroke-width:3;stroke-linecap:round;stroke-linejoin:round;stroke-dasharray:5.0372,7.052;}
	.st45{fill:none;stroke:#E74C3C;stroke-width:3;stroke-linecap:round;stroke-linejoin:round;stroke-dasharray:4.9284,6.8998;}
	.st46{fill:none;stroke:#E74C3C;stroke-width:3;stroke-linecap:round;stroke-linejoin:round;stroke-dasharray:5.1412,7.1976;}
	.st47{fill:none;stroke:#E74C3C;stroke-width:3;stroke-linecap:round;stroke-linejoin:round;stroke-dasharray:5.0707,7.0989;}
	.st48{fill:none;stroke:#E74C3C;stroke-width:3;stroke-linecap:round;stroke-linejoin:round;stroke-dasharray:4.991,6.9875;}
	.st49{fill:none;stroke:#E74C3C;stroke-width:3;stroke-linecap:round;stroke-linejoin:round;stroke-dasharray:4.986,6.9804;}
	.st50{fill:none;stroke:#E74C3C;stroke-linecap:round;stroke-linejoin:round;stroke-miterlimit:10;}
	.st51{fill:none;stroke:#E74C3C;stroke-width:2.75;stroke-linecap:round;stroke-linejoin:round;stroke-miterlimit:10;}
	.st52{fill:none;stroke:#E74C3C;stroke-width:1.5;stroke-linecap:round;stroke-linejoin:round;stroke-miterlimit:10;}
	.st53{fill:none;stroke:#E74C3C;stroke-width:3.5;stroke-linecap:round;stroke-linejoin:round;stroke-miterlimit:10;}
</style>
<g id="FILL-BACKGROUND">
	<rect x="0" y="0" class="st0" width="1000" height="700"/>
</g>
<g id="N-TEXT">
	<g id="MTEXT_18_">
		<g>
			<g>
				<path class="st1" d="M45.45,634.07v-16h10.59v2.79h-7.21v3.81h6.51v2.79h-6.51v6.61H45.45z"/>
				<path class="st1" d="M61.7,618.07v16h-3.38v-16H61.7z"/>
				<path class="st1" d="M63.88,620.86v-2.79h13.14v2.79h-4.9v13.21h-3.34v-13.21H63.88z"/>
				<path class="st1" d="M79.98,634.07h-3.62l5.52-16h4.36l5.52,16h-3.62l-4.01-12.34H84L79.98,634.07z M79.76,627.79h8.56v2.64
					h-8.56V627.79z"/>
				<path class="st1" d="M98.78,634.07v-16h6.31c1.21,0,2.24,0.21,3.1,0.64c0.86,0.43,1.51,1.04,1.96,1.82
					c0.45,0.78,0.68,1.7,0.68,2.76c0,1.06-0.23,1.98-0.69,2.74c-0.46,0.76-1.12,1.35-1.99,1.75s-1.92,0.61-3.14,0.61h-4.23v-2.72
					h3.68c0.65,0,1.18-0.09,1.61-0.27c0.43-0.18,0.75-0.44,0.96-0.8c0.21-0.35,0.32-0.79,0.32-1.32c0-0.53-0.11-0.98-0.32-1.34
					c-0.21-0.36-0.53-0.64-0.96-0.83c-0.43-0.19-0.97-0.29-1.62-0.29h-2.28v13.23H98.78z M107.42,626.79l3.98,7.28h-3.73l-3.89-7.28
					H107.42z"/>
				<path class="st1" d="M118.42,634.31c-1.23,0-2.3-0.25-3.18-0.75c-0.89-0.5-1.57-1.22-2.05-2.14c-0.48-0.92-0.72-2.02-0.72-3.29
					c0-1.23,0.24-2.32,0.72-3.25c0.48-0.93,1.15-1.66,2.03-2.18c0.87-0.52,1.9-0.78,3.07-0.78c0.79,0,1.53,0.13,2.21,0.38
					c0.68,0.25,1.28,0.63,1.8,1.14c0.51,0.51,0.91,1.14,1.2,1.9c0.29,0.76,0.43,1.66,0.43,2.68v0.91H113.8v-2.06h7
					c0-0.48-0.1-0.9-0.31-1.27c-0.21-0.37-0.5-0.66-0.86-0.87s-0.79-0.32-1.28-0.32c-0.51,0-0.95,0.12-1.34,0.35
					c-0.39,0.23-0.69,0.54-0.91,0.93c-0.22,0.39-0.33,0.82-0.34,1.29v1.96c0,0.59,0.11,1.11,0.33,1.54c0.22,0.43,0.54,0.77,0.94,1
					s0.89,0.35,1.45,0.35c0.37,0,0.71-0.05,1.02-0.16c0.31-0.1,0.57-0.26,0.79-0.47c0.22-0.21,0.39-0.46,0.5-0.77l3.08,0.2
					c-0.16,0.74-0.48,1.38-0.96,1.93c-0.48,0.55-1.1,0.98-1.86,1.28S119.41,634.31,118.42,634.31z"/>
				<path class="st1" d="M131.52,634.31c-1.23,0-2.29-0.26-3.17-0.79s-1.56-1.25-2.03-2.18c-0.47-0.93-0.71-2-0.71-3.22
					c0-1.23,0.24-2.31,0.71-3.24s1.15-1.66,2.04-2.18c0.88-0.52,1.93-0.79,3.14-0.79c1.05,0,1.96,0.19,2.75,0.57
					c0.79,0.38,1.41,0.91,1.87,1.6c0.46,0.69,0.71,1.5,0.76,2.42h-3.14c-0.09-0.6-0.32-1.08-0.7-1.45
					c-0.38-0.37-0.87-0.55-1.48-0.55c-0.52,0-0.96,0.14-1.35,0.42c-0.38,0.28-0.68,0.68-0.89,1.21c-0.21,0.53-0.32,1.17-0.32,1.93
					c0,0.77,0.11,1.42,0.32,1.95c0.21,0.54,0.51,0.95,0.89,1.23c0.39,0.28,0.84,0.42,1.35,0.42c0.38,0,0.72-0.08,1.03-0.23
					s0.56-0.38,0.76-0.68c0.2-0.3,0.33-0.66,0.39-1.08h3.14c-0.05,0.92-0.3,1.72-0.75,2.42s-1.06,1.24-1.84,1.63
					S132.59,634.31,131.52,634.31z"/>
				<path class="st1" d="M146.72,628.96v-6.89h3.33v12h-3.2v-2.18h-0.12c-0.27,0.7-0.72,1.27-1.35,1.7
					c-0.63,0.43-1.39,0.64-2.29,0.64c-0.8,0-1.51-0.18-2.12-0.55c-0.61-0.36-1.08-0.88-1.43-1.55c-0.34-0.67-0.51-1.48-0.52-2.41
					v-7.64h3.33v7.05c0,0.71,0.2,1.27,0.57,1.68c0.38,0.41,0.88,0.62,1.51,0.62c0.4,0,0.78-0.09,1.12-0.28
					c0.35-0.18,0.63-0.46,0.85-0.82C146.62,629.95,146.72,629.5,146.72,628.96z"/>
				<path class="st1" d="M152.7,634.07v-12h3.23v2.09h0.12c0.22-0.74,0.59-1.31,1.1-1.69s1.11-0.57,1.78-0.57
					c0.17,0,0.35,0.01,0.54,0.03c0.19,0.02,0.36,0.05,0.51,0.09v2.95c-0.16-0.05-0.37-0.09-0.65-0.12
					c-0.28-0.04-0.53-0.05-0.76-0.05c-0.49,0-0.93,0.11-1.31,0.32s-0.69,0.5-0.91,0.88c-0.22,0.38-0.33,0.81-0.33,1.3v6.79H152.7z"
					/>
				<path class="st1" d="M173.26,622.07l-4.2,12h-3.75l-4.2-12h3.52l2.49,8.59h0.12l2.48-8.59H173.26z"/>
				<path class="st1" d="M180.03,634.31c-1.23,0-2.3-0.25-3.18-0.75c-0.89-0.5-1.57-1.22-2.05-2.14c-0.48-0.92-0.72-2.02-0.72-3.29
					c0-1.23,0.24-2.32,0.72-3.25c0.48-0.93,1.15-1.66,2.03-2.18c0.87-0.52,1.9-0.78,3.07-0.78c0.79,0,1.53,0.13,2.21,0.38
					c0.68,0.25,1.28,0.63,1.8,1.14c0.51,0.51,0.91,1.14,1.2,1.9c0.29,0.76,0.43,1.66,0.43,2.68v0.91H175.4v-2.06h7
					c0-0.48-0.1-0.9-0.31-1.27c-0.21-0.37-0.5-0.66-0.86-0.87s-0.79-0.32-1.28-0.32c-0.51,0-0.95,0.12-1.34,0.35
					c-0.39,0.23-0.69,0.54-0.91,0.93c-0.22,0.39-0.33,0.82-0.34,1.29v1.96c0,0.59,0.11,1.11,0.33,1.54c0.22,0.43,0.54,0.77,0.94,1
					s0.89,0.35,1.45,0.35c0.37,0,0.71-0.05,1.02-0.16c0.31-0.1,0.57-0.26,0.79-0.47c0.22-0.21,0.39-0.46,0.5-0.77l3.08,0.2
					c-0.16,0.74-0.48,1.38-0.96,1.93c-0.48,0.55-1.1,0.98-1.86,1.28S181.02,634.31,180.03,634.31z"/>
				<path class="st1" d="M44.84,647.26v-2.79h13.14v2.79h-4.9v13.21h-3.34v-13.21H44.84z"/>
				<path class="st1" d="M61.89,660.7c-0.77,0-1.45-0.13-2.05-0.4c-0.6-0.27-1.07-0.67-1.42-1.2c-0.35-0.53-0.52-1.19-0.52-1.98
					c0-0.67,0.12-1.23,0.37-1.68c0.24-0.45,0.58-0.82,1-1.09c0.42-0.28,0.9-0.48,1.44-0.62s1.11-0.24,1.7-0.3
					c0.7-0.07,1.26-0.14,1.69-0.21c0.43-0.06,0.74-0.16,0.93-0.29c0.19-0.13,0.29-0.32,0.29-0.58v-0.05c0-0.49-0.16-0.88-0.46-1.15
					c-0.31-0.27-0.75-0.41-1.32-0.41c-0.6,0-1.08,0.13-1.43,0.39c-0.35,0.26-0.59,0.59-0.7,0.99l-3.08-0.25
					c0.16-0.73,0.46-1.36,0.92-1.89c0.46-0.53,1.05-0.95,1.78-1.23s1.57-0.43,2.53-0.43c0.67,0,1.31,0.08,1.92,0.23
					c0.61,0.16,1.16,0.4,1.63,0.73s0.85,0.75,1.13,1.26c0.28,0.51,0.41,1.13,0.41,1.84v8.09h-3.16v-1.66H65.4
					c-0.19,0.38-0.45,0.7-0.77,0.99c-0.32,0.28-0.71,0.51-1.16,0.66S62.48,660.7,61.89,660.7z M62.84,658.4
					c0.49,0,0.92-0.1,1.3-0.29s0.67-0.46,0.88-0.79c0.21-0.33,0.32-0.71,0.32-1.13v-1.27c-0.1,0.07-0.25,0.13-0.43,0.18
					s-0.38,0.1-0.61,0.15c-0.22,0.04-0.45,0.08-0.67,0.12c-0.22,0.03-0.43,0.06-0.61,0.09c-0.39,0.06-0.73,0.15-1.02,0.27
					c-0.29,0.12-0.52,0.29-0.68,0.5c-0.16,0.21-0.24,0.47-0.24,0.79c0,0.45,0.17,0.8,0.5,1.04C61.91,658.29,62.33,658.4,62.84,658.4
					z"/>
				<path class="st1" d="M71.23,660.47v-12h3.23v2.09h0.12c0.22-0.74,0.59-1.31,1.1-1.69s1.11-0.57,1.78-0.57
					c0.17,0,0.35,0.01,0.54,0.03c0.19,0.02,0.36,0.05,0.51,0.09v2.95c-0.16-0.05-0.37-0.09-0.65-0.12
					c-0.28-0.04-0.53-0.05-0.76-0.05c-0.49,0-0.93,0.11-1.31,0.32s-0.69,0.5-0.91,0.88c-0.22,0.38-0.33,0.81-0.33,1.3v6.79H71.23z"
					/>
				<path class="st1" d="M85.07,665.22c-1.08,0-2-0.15-2.77-0.44c-0.77-0.29-1.38-0.69-1.83-1.2c-0.45-0.51-0.75-1.07-0.88-1.7
					l3.08-0.41c0.09,0.24,0.24,0.46,0.45,0.67c0.2,0.21,0.47,0.38,0.81,0.5c0.34,0.13,0.75,0.19,1.23,0.19
					c0.72,0,1.32-0.18,1.79-0.53c0.47-0.35,0.71-0.94,0.71-1.76v-2.2h-0.14c-0.15,0.33-0.36,0.65-0.66,0.95
					c-0.29,0.3-0.67,0.54-1.12,0.73c-0.46,0.19-1.01,0.28-1.64,0.28c-0.9,0-1.72-0.21-2.46-0.63c-0.74-0.42-1.32-1.06-1.76-1.93
					c-0.44-0.87-0.65-1.96-0.65-3.29c0-1.36,0.22-2.49,0.66-3.41c0.44-0.91,1.03-1.59,1.77-2.05c0.74-0.45,1.55-0.68,2.43-0.68
					c0.67,0,1.23,0.11,1.69,0.34s0.82,0.51,1.1,0.84c0.28,0.34,0.49,0.67,0.64,0.99h0.12v-2.02h3.3v12.12
					c0,1.02-0.25,1.88-0.75,2.56s-1.19,1.2-2.07,1.55C87.23,665.05,86.21,665.22,85.07,665.22z M85.14,657.8
					c0.54,0,0.99-0.13,1.36-0.4c0.37-0.27,0.66-0.65,0.86-1.16c0.2-0.5,0.3-1.11,0.3-1.81s-0.1-1.31-0.3-1.83
					c-0.2-0.52-0.48-0.92-0.86-1.21c-0.38-0.29-0.83-0.43-1.37-0.43c-0.55,0-1.01,0.15-1.38,0.44c-0.38,0.29-0.66,0.7-0.85,1.22
					c-0.19,0.52-0.29,1.12-0.29,1.8c0,0.69,0.1,1.29,0.29,1.79c0.2,0.5,0.48,0.89,0.85,1.16C84.13,657.67,84.59,657.8,85.14,657.8z"
					/>
				<path class="st1" d="M99.06,660.71c-1.23,0-2.3-0.25-3.18-0.75c-0.89-0.5-1.57-1.22-2.05-2.14c-0.48-0.92-0.72-2.02-0.72-3.29
					c0-1.23,0.24-2.32,0.72-3.25c0.48-0.93,1.15-1.66,2.03-2.18c0.87-0.52,1.9-0.78,3.07-0.78c0.79,0,1.53,0.13,2.21,0.38
					c0.68,0.25,1.28,0.63,1.8,1.14c0.51,0.51,0.91,1.14,1.2,1.9c0.29,0.76,0.43,1.66,0.43,2.68v0.91H94.44v-2.06h7
					c0-0.48-0.1-0.9-0.31-1.27c-0.21-0.37-0.5-0.66-0.86-0.87s-0.79-0.32-1.28-0.32c-0.51,0-0.95,0.12-1.34,0.35
					c-0.39,0.23-0.69,0.54-0.91,0.93c-0.22,0.39-0.33,0.82-0.34,1.29v1.96c0,0.59,0.11,1.11,0.33,1.54c0.22,0.43,0.54,0.77,0.94,1
					s0.89,0.35,1.45,0.35c0.37,0,0.71-0.05,1.02-0.16c0.31-0.1,0.57-0.26,0.79-0.47c0.22-0.21,0.39-0.46,0.5-0.77l3.08,0.2
					c-0.16,0.74-0.48,1.38-0.96,1.93c-0.48,0.55-1.1,0.98-1.86,1.28S100.05,660.71,99.06,660.71z"/>
				<path class="st1" d="M113.12,648.47v2.5h-7.23v-2.5H113.12z M107.54,645.6h3.33v11.19c0,0.31,0.05,0.55,0.14,0.71
					c0.09,0.17,0.23,0.29,0.39,0.36c0.17,0.07,0.37,0.1,0.59,0.1c0.16,0,0.31-0.01,0.47-0.04c0.16-0.03,0.28-0.05,0.36-0.07
					l0.52,2.48c-0.17,0.05-0.4,0.11-0.7,0.18c-0.3,0.07-0.67,0.11-1.1,0.13c-0.8,0.03-1.5-0.08-2.11-0.32s-1.07-0.62-1.4-1.14
					c-0.33-0.52-0.5-1.17-0.49-1.95V645.6z"/>
				<path class="st1" d="M121.12,654.06c0-1.94,0.26-3.72,0.78-5.35c0.52-1.63,1.31-3.14,2.38-4.53h3.18
					c-0.41,0.52-0.78,1.14-1.13,1.89c-0.35,0.74-0.65,1.56-0.91,2.44c-0.26,0.89-0.46,1.8-0.61,2.75c-0.15,0.95-0.22,1.88-0.22,2.81
					c0,1.23,0.13,2.48,0.38,3.74c0.25,1.26,0.6,2.43,1.03,3.5c0.43,1.08,0.92,1.96,1.46,2.65h-3.18c-1.07-1.39-1.86-2.9-2.38-4.53
					C121.38,657.79,121.12,656,121.12,654.06z"/>
				<path class="st1" d="M144.15,652.47c0,1.75-0.33,3.23-0.99,4.45c-0.66,1.22-1.55,2.16-2.69,2.8c-1.13,0.64-2.41,0.96-3.82,0.96
					c-1.42,0-2.7-0.32-3.83-0.97c-1.13-0.65-2.02-1.58-2.68-2.8c-0.66-1.22-0.98-2.71-0.98-4.45c0-1.74,0.33-3.23,0.98-4.45
					c0.66-1.22,1.55-2.16,2.68-2.8c1.13-0.64,2.41-0.96,3.83-0.96c1.41,0,2.68,0.32,3.82,0.96c1.13,0.64,2.03,1.58,2.69,2.8
					C143.82,649.25,144.15,650.73,144.15,652.47z M140.72,652.47c0-1.13-0.17-2.08-0.5-2.86c-0.34-0.78-0.81-1.36-1.42-1.77
					c-0.61-0.4-1.32-0.6-2.14-0.6c-0.82,0-1.53,0.2-2.14,0.6c-0.61,0.4-1.08,0.99-1.42,1.77c-0.34,0.78-0.5,1.73-0.5,2.86
					c0,1.13,0.17,2.08,0.5,2.86c0.34,0.78,0.81,1.36,1.42,1.77c0.61,0.4,1.32,0.6,2.14,0.6c0.82,0,1.53-0.2,2.14-0.6
					c0.61-0.4,1.08-0.99,1.42-1.77C140.56,654.56,140.72,653.6,140.72,652.47z"/>
				<path class="st1" d="M149.92,644.47v16h-3.33v-16H149.92z"/>
				<path class="st1" d="M154.63,664.97c-0.42,0-0.82-0.03-1.18-0.1c-0.37-0.07-0.67-0.15-0.91-0.25l0.75-2.48
					c0.39,0.12,0.74,0.18,1.06,0.2c0.31,0.01,0.59-0.06,0.82-0.22c0.23-0.16,0.42-0.42,0.57-0.8l0.2-0.51l-4.3-12.34h3.5l2.48,8.81
					h0.12l2.51-8.81l3.52,0.02l-4.66,13.28c-0.22,0.65-0.53,1.21-0.91,1.69c-0.38,0.48-0.87,0.85-1.45,1.12
					C156.16,664.84,155.45,664.97,154.63,664.97z"/>
				<path class="st1" d="M165.47,660.47v-12h3.17v2.12h0.14c0.25-0.7,0.67-1.26,1.25-1.66c0.58-0.41,1.28-0.61,2.09-0.61
					c0.82,0,1.52,0.2,2.1,0.61c0.58,0.41,0.96,0.96,1.16,1.66h0.12c0.24-0.69,0.69-1.24,1.33-1.65c0.64-0.41,1.4-0.62,2.29-0.62
					c1.12,0,2.03,0.36,2.73,1.07c0.7,0.71,1.05,1.72,1.05,3.02v8.07h-3.32v-7.41c0-0.67-0.18-1.17-0.53-1.5
					c-0.35-0.33-0.8-0.5-1.33-0.5c-0.6,0-1.08,0.19-1.41,0.57c-0.34,0.38-0.51,0.89-0.51,1.51v7.33h-3.23v-7.48
					c0-0.59-0.17-1.06-0.5-1.41c-0.34-0.35-0.78-0.52-1.32-0.52c-0.37,0-0.7,0.09-1,0.28c-0.29,0.19-0.53,0.44-0.7,0.77
					c-0.17,0.33-0.26,0.72-0.26,1.16v7.2H165.47z"/>
				<path class="st1" d="M185.53,664.97v-16.5h3.28v2.02h0.15c0.15-0.32,0.36-0.65,0.64-0.99c0.28-0.34,0.64-0.62,1.09-0.84
					c0.45-0.23,1.01-0.34,1.68-0.34c0.88,0,1.68,0.23,2.42,0.68c0.74,0.46,1.33,1.14,1.77,2.05c0.44,0.91,0.66,2.06,0.66,3.43
					c0,1.34-0.21,2.47-0.64,3.39c-0.43,0.92-1.01,1.61-1.75,2.09c-0.74,0.47-1.56,0.71-2.47,0.71c-0.65,0-1.19-0.11-1.64-0.32
					c-0.45-0.21-0.82-0.48-1.11-0.81c-0.29-0.33-0.51-0.65-0.66-0.99h-0.1v6.42H185.53z M188.79,654.47c0,0.71,0.1,1.34,0.3,1.87
					c0.2,0.53,0.48,0.94,0.86,1.24c0.38,0.29,0.83,0.44,1.37,0.44c0.54,0,1-0.15,1.38-0.45c0.38-0.3,0.66-0.72,0.86-1.25
					c0.2-0.53,0.29-1.15,0.29-1.85c0-0.69-0.1-1.3-0.29-1.83c-0.19-0.53-0.48-0.94-0.85-1.23s-0.84-0.45-1.38-0.45
					c-0.54,0-1,0.14-1.37,0.43c-0.37,0.29-0.66,0.69-0.86,1.22C188.89,653.14,188.79,653.76,188.79,654.47z"/>
				<path class="st1" d="M201.12,646.93c-0.5,0-0.92-0.16-1.27-0.49c-0.35-0.33-0.53-0.72-0.53-1.19c0-0.46,0.18-0.86,0.53-1.19
					c0.35-0.33,0.78-0.5,1.27-0.5c0.5,0,0.93,0.16,1.28,0.49s0.53,0.72,0.53,1.19c0,0.46-0.18,0.86-0.53,1.19
					C202.04,646.76,201.62,646.93,201.12,646.93z M199.44,660.47v-12h3.33v12H199.44z"/>
				<path class="st1" d="M210.85,660.71c-1.23,0-2.29-0.26-3.17-0.79s-1.56-1.25-2.03-2.18c-0.47-0.93-0.71-2-0.71-3.22
					c0-1.23,0.24-2.31,0.71-3.24s1.15-1.66,2.04-2.18c0.88-0.52,1.93-0.79,3.14-0.79c1.05,0,1.96,0.19,2.75,0.57
					c0.79,0.38,1.41,0.91,1.87,1.6c0.46,0.69,0.71,1.5,0.76,2.42h-3.14c-0.09-0.6-0.32-1.08-0.7-1.45
					c-0.38-0.37-0.87-0.55-1.48-0.55c-0.52,0-0.96,0.14-1.35,0.42c-0.38,0.28-0.68,0.68-0.89,1.21c-0.21,0.53-0.32,1.17-0.32,1.93
					c0,0.77,0.11,1.42,0.32,1.95c0.21,0.54,0.51,0.95,0.89,1.23c0.39,0.28,0.84,0.42,1.35,0.42c0.38,0,0.72-0.08,1.03-0.23
					s0.56-0.38,0.76-0.68c0.2-0.3,0.33-0.66,0.39-1.08h3.14c-0.05,0.92-0.3,1.72-0.75,2.42s-1.06,1.24-1.84,1.63
					S211.92,660.71,210.85,660.71z"/>
				<path class="st1" d="M232.19,649.08c-0.06-0.63-0.33-1.12-0.8-1.47c-0.47-0.35-1.12-0.52-1.93-0.52c-0.55,0-1.02,0.08-1.4,0.23
					c-0.38,0.15-0.67,0.37-0.87,0.64c-0.2,0.27-0.3,0.58-0.3,0.92c-0.01,0.29,0.05,0.54,0.18,0.75c0.13,0.21,0.32,0.4,0.55,0.55
					c0.23,0.15,0.5,0.29,0.81,0.4c0.31,0.11,0.64,0.21,0.98,0.29l1.44,0.34c0.7,0.16,1.34,0.36,1.92,0.62
					c0.58,0.26,1.09,0.58,1.52,0.96c0.43,0.38,0.76,0.83,1,1.34c0.24,0.52,0.36,1.11,0.36,1.77c-0.01,0.98-0.25,1.83-0.75,2.54
					c-0.49,0.72-1.2,1.27-2.12,1.66c-0.92,0.39-2.04,0.59-3.34,0.59c-1.29,0-2.42-0.2-3.37-0.59c-0.96-0.4-1.7-0.98-2.23-1.76
					c-0.53-0.78-0.81-1.74-0.84-2.89h3.27c0.04,0.54,0.19,0.98,0.46,1.34c0.27,0.36,0.64,0.62,1.1,0.8s0.98,0.27,1.57,0.27
					c0.57,0,1.07-0.08,1.5-0.25c0.42-0.17,0.75-0.4,0.99-0.7s0.35-0.64,0.35-1.02c0-0.36-0.11-0.66-0.32-0.91
					c-0.21-0.24-0.52-0.45-0.92-0.62c-0.4-0.17-0.9-0.33-1.48-0.47l-1.74-0.44c-1.35-0.33-2.41-0.84-3.2-1.54
					c-0.78-0.7-1.17-1.64-1.16-2.82c-0.01-0.97,0.25-1.81,0.78-2.54c0.52-0.72,1.24-1.29,2.16-1.7c0.92-0.41,1.96-0.61,3.12-0.61
					c1.19,0,2.23,0.2,3.11,0.61c0.89,0.41,1.58,0.97,2.07,1.7c0.49,0.72,0.75,1.56,0.77,2.52H232.19z"/>
				<path class="st1" d="M239.54,646.93c-0.5,0-0.92-0.16-1.27-0.49c-0.35-0.33-0.53-0.72-0.53-1.19c0-0.46,0.18-0.86,0.53-1.19
					c0.35-0.33,0.78-0.5,1.27-0.5c0.5,0,0.93,0.16,1.28,0.49s0.53,0.72,0.53,1.19c0,0.46-0.18,0.86-0.53,1.19
					C240.45,646.76,240.03,646.93,239.54,646.93z M237.86,660.47v-12h3.33v12H237.86z"/>
				<path class="st1" d="M243.78,660.47v-1.98l5.88-7.27v-0.09h-5.67v-2.66h9.68v2.16l-5.52,7.09v0.09h5.72v2.66H243.78z"/>
				<path class="st1" d="M261.54,660.71c-1.23,0-2.3-0.25-3.18-0.75c-0.89-0.5-1.57-1.22-2.05-2.14c-0.48-0.92-0.72-2.02-0.72-3.29
					c0-1.23,0.24-2.32,0.72-3.25c0.48-0.93,1.15-1.66,2.03-2.18c0.87-0.52,1.9-0.78,3.07-0.78c0.79,0,1.53,0.13,2.21,0.38
					c0.68,0.25,1.28,0.63,1.8,1.14c0.51,0.51,0.91,1.14,1.2,1.9c0.29,0.76,0.43,1.66,0.43,2.68v0.91h-10.13v-2.06h7
					c0-0.48-0.1-0.9-0.31-1.27c-0.21-0.37-0.5-0.66-0.86-0.87s-0.79-0.32-1.28-0.32c-0.51,0-0.95,0.12-1.34,0.35
					c-0.39,0.23-0.69,0.54-0.91,0.93c-0.22,0.39-0.33,0.82-0.34,1.29v1.96c0,0.59,0.11,1.11,0.33,1.54c0.22,0.43,0.54,0.77,0.94,1
					s0.89,0.35,1.45,0.35c0.37,0,0.71-0.05,1.02-0.16c0.31-0.1,0.57-0.26,0.79-0.47c0.22-0.21,0.39-0.46,0.5-0.77l3.08,0.2
					c-0.16,0.74-0.48,1.38-0.96,1.93c-0.48,0.55-1.1,0.98-1.86,1.28S262.53,660.71,261.54,660.71z"/>
				<path class="st1" d="M274.83,654.06c0,1.94-0.26,3.73-0.78,5.36c-0.52,1.63-1.31,3.14-2.38,4.53h-3.18
					c0.41-0.52,0.78-1.15,1.13-1.89c0.35-0.75,0.65-1.56,0.91-2.44c0.26-0.88,0.46-1.8,0.61-2.75c0.15-0.95,0.22-1.89,0.22-2.81
					c0-1.23-0.13-2.48-0.38-3.74c-0.25-1.26-0.6-2.42-1.03-3.5c-0.44-1.08-0.92-1.96-1.46-2.64h3.18c1.07,1.39,1.86,2.9,2.38,4.53
					C274.57,650.34,274.83,652.12,274.83,654.06z"/>
			</g>
		</g>
	</g>
</g>
<g id="N-DIMENSIONS">
	<g>
		<g>
			<g id="POLYLINE_144_">
				<polyline class="st2" points="132.72,73.45 126.99,79.17 132.72,84.9 				"/>
			</g>
			<g id="POLYLINE_143_">
				<line class="st2" x1="126.99" y1="79.17" x2="270" y2="79.17"/>
			</g>
			<g id="POLYLINE_142_">
				<line class="st2" x1="512" y1="79.17" x2="652.07" y2="79.17"/>
			</g>
			<g id="POLYLINE_141_">
				<polyline class="st2" points="646.33,73.46 652.06,79.18 646.33,84.91 				"/>
			</g>
			<g id="MTEXT_19_">
				<g>
					<path class="st1" d="M291.15,86.32c-0.09-0.09-0.13-0.2-0.13-0.33v-2.92h-6.5c-0.13,0-0.24-0.04-0.33-0.13s-0.13-0.2-0.13-0.33
						v-0.74c0-0.19,0.07-0.39,0.22-0.6l6.02-8.48c0.07-0.11,0.17-0.19,0.3-0.25c0.13-0.06,0.28-0.09,0.44-0.09h1.36
						c0.15,0,0.26,0.04,0.34,0.12s0.12,0.19,0.12,0.34v8.48h1.82c0.13,0,0.24,0.04,0.33,0.13c0.09,0.09,0.13,0.2,0.13,0.33v0.76
						c0,0.13-0.04,0.24-0.13,0.33c-0.09,0.09-0.2,0.13-0.33,0.13h-1.82v2.92c0,0.13-0.04,0.24-0.13,0.33s-0.2,0.13-0.33,0.13h-0.92
						C291.35,86.45,291.24,86.41,291.15,86.32z M286.14,81.43h4.9v-6.96L286.14,81.43z"/>
					<path class="st1" d="M299.43,86.14c-0.79-0.34-1.41-0.83-1.85-1.47c-0.44-0.64-0.66-1.39-0.66-2.24c0-0.79,0.2-1.48,0.59-2.07
						s0.92-1.05,1.59-1.37c-0.53-0.31-0.95-0.71-1.24-1.21c-0.29-0.5-0.44-1.09-0.44-1.77c0-1.16,0.43-2.08,1.3-2.75
						c0.87-0.67,2.01-1.01,3.42-1.01s2.55,0.33,3.41,1c0.86,0.67,1.29,1.59,1.29,2.76c0,0.67-0.15,1.25-0.44,1.75
						c-0.29,0.5-0.7,0.91-1.22,1.23c0.67,0.32,1.2,0.78,1.59,1.37s0.59,1.29,0.59,2.09c0,0.85-0.22,1.6-0.66,2.23
						c-0.44,0.63-1.06,1.12-1.85,1.46c-0.79,0.34-1.7,0.51-2.71,0.51S300.22,86.48,299.43,86.14z M304.51,84.37
						c0.63-0.48,0.95-1.12,0.95-1.92s-0.32-1.44-0.95-1.92c-0.63-0.48-1.42-0.72-2.37-0.72c-0.96,0-1.76,0.24-2.39,0.72
						c-0.63,0.48-0.95,1.12-0.95,1.92s0.32,1.44,0.95,1.92c0.63,0.48,1.43,0.72,2.39,0.72C303.09,85.09,303.88,84.85,304.51,84.37z
						 M304.2,77.65c0.56-0.4,0.84-0.93,0.84-1.6c0-0.68-0.28-1.22-0.83-1.63c-0.55-0.41-1.24-0.61-2.07-0.61
						c-0.84,0-1.53,0.2-2.08,0.61c-0.55,0.41-0.82,0.95-0.82,1.63c0,0.68,0.27,1.22,0.82,1.63c0.55,0.41,1.24,0.61,2.08,0.61
						C302.95,78.27,303.64,78.05,304.2,77.65z"/>
					<path class="st1" d="M309.69,75.93c-0.06-0.08-0.08-0.18-0.05-0.3l0.44-2.8c0.05-0.39,0.24-0.58,0.56-0.58h1.28
						c0.09,0,0.17,0.03,0.23,0.1c0.06,0.07,0.09,0.15,0.09,0.24c0,0.13-0.02,0.24-0.06,0.32l-1.04,2.7
						c-0.07,0.15-0.14,0.26-0.22,0.33c-0.08,0.07-0.2,0.11-0.36,0.11h-0.62C309.83,76.05,309.75,76.01,309.69,75.93z M312.83,75.93
						c-0.06-0.08-0.08-0.18-0.05-0.3l0.44-2.8c0.05-0.39,0.24-0.58,0.56-0.58h1.28c0.09,0,0.17,0.03,0.23,0.1
						c0.06,0.07,0.09,0.15,0.09,0.24c0,0.13-0.02,0.24-0.06,0.32l-1.04,2.7c-0.07,0.15-0.14,0.26-0.22,0.33s-0.2,0.11-0.36,0.11
						h-0.62C312.97,76.05,312.89,76.01,312.83,75.93z"/>
					<path class="st1" d="M322.7,90.48c-0.08-0.09-0.12-0.2-0.12-0.33V68.99c0-0.13,0.04-0.24,0.12-0.33s0.19-0.13,0.32-0.13h0.74
						c0.13,0,0.24,0.04,0.33,0.13s0.13,0.2,0.13,0.33v21.16c0,0.13-0.04,0.24-0.13,0.33c-0.09,0.09-0.2,0.13-0.33,0.13h-0.74
						C322.88,90.61,322.78,90.57,322.7,90.48z"/>
					<path class="st1" d="M335.82,86.32c-0.08-0.09-0.12-0.2-0.12-0.33V74.71l-3.36,2.58c-0.09,0.08-0.19,0.12-0.3,0.12
						c-0.12,0-0.23-0.07-0.34-0.2l-0.48-0.62c-0.07-0.09-0.1-0.19-0.1-0.28c0-0.15,0.07-0.27,0.2-0.36l4.34-3.36
						c0.15-0.09,0.32-0.14,0.52-0.14h0.94c0.13,0,0.24,0.04,0.33,0.13s0.13,0.2,0.13,0.33v13.08c0,0.13-0.04,0.24-0.13,0.33
						s-0.2,0.13-0.33,0.13h-0.98C336,86.45,335.9,86.41,335.82,86.32z"/>
					<path class="st1" d="M340.23,86.32c-0.09-0.09-0.13-0.2-0.13-0.33v-0.6c0-0.31,0.17-0.6,0.5-0.88l4.36-4.34
						c0.99-0.84,1.67-1.53,2.04-2.06s0.56-1.1,0.56-1.7c0-0.79-0.22-1.4-0.66-1.85c-0.44-0.45-1.08-0.67-1.92-0.67
						c-0.8,0-1.43,0.23-1.9,0.7c-0.47,0.47-0.75,1.09-0.86,1.88c-0.03,0.15-0.09,0.26-0.2,0.34c-0.11,0.08-0.21,0.12-0.32,0.12
						h-0.96c-0.12,0-0.22-0.04-0.3-0.12s-0.12-0.17-0.12-0.28c0.03-0.71,0.22-1.39,0.57-2.05c0.35-0.66,0.88-1.2,1.57-1.62
						s1.53-0.63,2.52-0.63c1.49,0,2.62,0.39,3.37,1.17c0.75,0.78,1.13,1.77,1.13,2.97c0,0.84-0.2,1.6-0.61,2.27
						c-0.41,0.67-1.04,1.38-1.91,2.13l-3.94,4h6.3c0.15,0,0.26,0.04,0.34,0.12c0.08,0.08,0.12,0.19,0.12,0.34v0.76
						c0,0.13-0.04,0.24-0.13,0.33c-0.09,0.09-0.2,0.13-0.33,0.13h-8.76C340.42,86.45,340.31,86.41,340.23,86.32z"/>
					<path class="st1" d="M351.91,86.32c-0.09-0.09-0.13-0.2-0.13-0.33v-0.6c0-0.31,0.17-0.6,0.5-0.88l4.36-4.34
						c0.99-0.84,1.67-1.53,2.04-2.06s0.56-1.1,0.56-1.7c0-0.79-0.22-1.4-0.66-1.85c-0.44-0.45-1.08-0.67-1.92-0.67
						c-0.8,0-1.43,0.23-1.9,0.7c-0.47,0.47-0.75,1.09-0.86,1.88c-0.03,0.15-0.09,0.26-0.2,0.34c-0.11,0.08-0.21,0.12-0.32,0.12
						h-0.96c-0.12,0-0.22-0.04-0.3-0.12S352,76.64,352,76.53c0.03-0.71,0.22-1.39,0.57-2.05c0.35-0.66,0.88-1.2,1.57-1.62
						s1.53-0.63,2.52-0.63c1.49,0,2.62,0.39,3.37,1.17c0.75,0.78,1.13,1.77,1.13,2.97c0,0.84-0.2,1.6-0.61,2.27
						c-0.41,0.67-1.04,1.38-1.91,2.13l-3.94,4h6.3c0.15,0,0.26,0.04,0.34,0.12c0.08,0.08,0.12,0.19,0.12,0.34v0.76
						c0,0.13-0.04,0.24-0.13,0.33c-0.09,0.09-0.2,0.13-0.33,0.13h-8.76C352.1,86.45,351.99,86.41,351.91,86.32z"/>
					<path class="st1" d="M369.72,85.44c-0.8-0.81-1.22-1.94-1.26-3.39l-0.02-0.8l0.02-0.8c0.04-1.45,0.46-2.58,1.26-3.39
						c0.8-0.81,1.91-1.21,3.34-1.21c0.96,0,1.77,0.17,2.43,0.51s1.15,0.76,1.48,1.27c0.33,0.51,0.5,1.01,0.53,1.52
						c0.01,0.12-0.03,0.23-0.13,0.32c-0.1,0.09-0.21,0.14-0.33,0.14h-0.88c-0.13,0-0.23-0.03-0.3-0.09
						c-0.07-0.06-0.13-0.17-0.2-0.33c-0.24-0.65-0.57-1.12-0.99-1.39c-0.42-0.27-0.95-0.41-1.59-0.41c-0.84,0-1.51,0.26-2,0.78
						c-0.49,0.52-0.76,1.31-0.8,2.38l-0.02,0.7l0.02,0.7c0.04,1.07,0.31,1.86,0.8,2.38c0.49,0.52,1.16,0.78,2,0.78
						c0.65,0,1.19-0.14,1.6-0.41c0.41-0.27,0.74-0.74,0.98-1.39c0.07-0.16,0.13-0.27,0.2-0.33c0.07-0.06,0.17-0.09,0.3-0.09h0.88
						c0.12,0,0.23,0.05,0.33,0.14c0.1,0.09,0.14,0.2,0.13,0.32c-0.03,0.49-0.2,0.99-0.53,1.5c-0.33,0.51-0.82,0.93-1.48,1.28
						s-1.47,0.52-2.43,0.52C371.63,86.65,370.52,86.25,369.72,85.44z"/>
					<path class="st1" d="M380.03,86.32c-0.09-0.09-0.13-0.2-0.13-0.33v-9.48c0-0.13,0.04-0.24,0.13-0.33
						c0.09-0.09,0.2-0.13,0.33-0.13h0.84c0.13,0,0.24,0.04,0.32,0.13c0.08,0.09,0.12,0.2,0.12,0.33v0.68
						c0.72-0.89,1.69-1.34,2.92-1.34c1.47,0,2.51,0.61,3.12,1.84c0.32-0.56,0.78-1.01,1.37-1.34c0.59-0.33,1.26-0.5,1.99-0.5
						c1.09,0,1.99,0.37,2.68,1.12c0.69,0.75,1.04,1.83,1.04,3.24v5.78c0,0.13-0.04,0.24-0.13,0.33c-0.09,0.09-0.2,0.13-0.33,0.13
						h-0.86c-0.13,0-0.24-0.04-0.33-0.13s-0.13-0.2-0.13-0.33v-5.6c0-1.07-0.22-1.83-0.66-2.29c-0.44-0.46-1.02-0.69-1.74-0.69
						c-0.64,0-1.19,0.24-1.65,0.71c-0.46,0.47-0.69,1.23-0.69,2.27v5.6c0,0.13-0.04,0.24-0.13,0.33s-0.2,0.13-0.33,0.13h-0.88
						c-0.13,0-0.24-0.04-0.33-0.13s-0.13-0.2-0.13-0.33v-5.6c0-1.05-0.23-1.81-0.69-2.28s-1.03-0.7-1.71-0.7
						c-0.64,0-1.19,0.23-1.65,0.7s-0.69,1.22-0.69,2.26v5.62c0,0.13-0.04,0.24-0.13,0.33s-0.2,0.13-0.33,0.13h-0.88
						C380.22,86.45,380.11,86.41,380.03,86.32z"/>
					<path class="st1" d="M404.13,88.66c-0.67-0.65-1.16-1.65-1.45-3.01c-0.29-1.36-0.44-3.15-0.44-5.38s0.15-4.02,0.44-5.37
						c0.29-1.35,0.78-2.35,1.45-3s1.58-0.97,2.73-0.97c0.13,0,0.24,0.04,0.33,0.13c0.09,0.09,0.13,0.2,0.13,0.33v0.66
						c0,0.12-0.04,0.22-0.12,0.31s-0.17,0.13-0.28,0.13c-0.76,0.01-1.35,0.27-1.78,0.77s-0.73,1.31-0.92,2.42s-0.28,2.64-0.28,4.59
						c0,1.96,0.09,3.5,0.28,4.61s0.49,1.92,0.92,2.42s1.02,0.76,1.78,0.77c0.11,0,0.2,0.04,0.28,0.13s0.12,0.19,0.12,0.31v0.66
						c0,0.13-0.04,0.24-0.13,0.33c-0.09,0.09-0.2,0.13-0.33,0.13C405.71,89.63,404.8,89.31,404.13,88.66z"/>
					<path class="st1" d="M409.5,86.32c-0.08-0.09-0.12-0.2-0.12-0.33V72.93c0-0.15,0.04-0.26,0.12-0.35s0.19-0.13,0.32-0.13h4.52
						c2.01,0,3.47,0.45,4.36,1.35c0.89,0.9,1.35,2.26,1.38,4.07c0.01,0.39,0.02,0.91,0.02,1.56s-0.01,1.18-0.02,1.58
						c-0.03,1.27-0.23,2.3-0.61,3.09c-0.38,0.79-0.98,1.38-1.79,1.77s-1.89,0.58-3.24,0.58h-4.62
						C409.68,86.45,409.58,86.41,409.5,86.32z M414.34,84.79c0.93,0,1.68-0.13,2.23-0.39c0.55-0.26,0.95-0.67,1.2-1.22
						c0.25-0.55,0.38-1.3,0.41-2.25c0.03-0.8,0.04-1.3,0.04-1.5c0-0.21-0.01-0.71-0.04-1.48c-0.03-1.33-0.34-2.31-0.95-2.93
						c-0.61-0.62-1.6-0.93-2.99-0.93h-2.98v10.7H414.34z"/>
					<path class="st1" d="M422.85,73.96c-0.09-0.09-0.13-0.2-0.13-0.33v-1.04c0-0.13,0.04-0.25,0.13-0.34
						c0.09-0.09,0.2-0.14,0.33-0.14h1.18c0.13,0,0.25,0.05,0.34,0.14c0.09,0.09,0.14,0.21,0.14,0.34v1.04
						c0,0.13-0.05,0.24-0.14,0.33c-0.09,0.09-0.21,0.13-0.34,0.13h-1.18C423.04,74.09,422.93,74.05,422.85,73.96z M423.01,86.32
						c-0.09-0.09-0.13-0.2-0.13-0.33v-9.48c0-0.13,0.04-0.24,0.13-0.33c0.09-0.09,0.2-0.13,0.33-0.13h0.88
						c0.13,0,0.24,0.04,0.33,0.13c0.09,0.09,0.13,0.2,0.13,0.33v9.48c0,0.13-0.04,0.24-0.13,0.33s-0.2,0.13-0.33,0.13h-0.88
						C423.2,86.45,423.09,86.41,423.01,86.32z"/>
					<path class="st1" d="M428.75,86.25c-0.55-0.27-0.99-0.63-1.32-1.09c-0.33-0.46-0.49-0.97-0.49-1.53c0-0.88,0.36-1.6,1.08-2.16
						c0.72-0.56,1.7-0.93,2.94-1.12l3-0.42v-0.58c0-1.37-0.79-2.06-2.38-2.06c-0.61,0-1.11,0.12-1.48,0.37
						c-0.37,0.25-0.65,0.54-0.82,0.87c-0.05,0.13-0.11,0.22-0.17,0.27c-0.06,0.05-0.14,0.07-0.25,0.07h-0.78
						c-0.12,0-0.22-0.04-0.31-0.13s-0.13-0.19-0.13-0.31c0-0.31,0.14-0.66,0.43-1.07c0.29-0.41,0.73-0.76,1.33-1.06
						c0.6-0.3,1.33-0.45,2.2-0.45c1.49,0,2.56,0.35,3.21,1.04s0.97,1.56,0.97,2.6v6.5c0,0.13-0.04,0.24-0.13,0.33
						s-0.2,0.13-0.33,0.13h-0.88c-0.13,0-0.24-0.04-0.32-0.13c-0.08-0.09-0.12-0.2-0.12-0.33v-0.88c-0.29,0.44-0.72,0.81-1.28,1.1
						s-1.28,0.44-2.16,0.44C429.9,86.65,429.3,86.52,428.75,86.25z M433.12,84.33c0.56-0.57,0.84-1.41,0.84-2.5v-0.56l-2.34,0.34
						c-0.96,0.13-1.69,0.36-2.18,0.68s-0.74,0.72-0.74,1.2c0,0.55,0.22,0.97,0.67,1.26c0.45,0.29,0.98,0.44,1.59,0.44
						C431.84,85.19,432.56,84.91,433.12,84.33z"/>
					<path class="st1" d="M438.81,86.32c-0.09-0.09-0.13-0.2-0.13-0.33v-9.48c0-0.13,0.04-0.24,0.13-0.33
						c0.09-0.09,0.2-0.13,0.33-0.13h0.84c0.13,0,0.24,0.04,0.32,0.13c0.08,0.09,0.12,0.2,0.12,0.33v0.68
						c0.72-0.89,1.69-1.34,2.92-1.34c1.47,0,2.51,0.61,3.12,1.84c0.32-0.56,0.78-1.01,1.37-1.34c0.59-0.33,1.26-0.5,1.99-0.5
						c1.09,0,1.99,0.37,2.68,1.12c0.69,0.75,1.04,1.83,1.04,3.24v5.78c0,0.13-0.04,0.24-0.13,0.33c-0.09,0.09-0.2,0.13-0.33,0.13
						h-0.86c-0.13,0-0.24-0.04-0.33-0.13s-0.13-0.2-0.13-0.33v-5.6c0-1.07-0.22-1.83-0.66-2.29c-0.44-0.46-1.02-0.69-1.74-0.69
						c-0.64,0-1.19,0.24-1.65,0.71c-0.46,0.47-0.69,1.23-0.69,2.27v5.6c0,0.13-0.04,0.24-0.13,0.33s-0.2,0.13-0.33,0.13h-0.88
						c-0.13,0-0.24-0.04-0.33-0.13s-0.13-0.2-0.13-0.33v-5.6c0-1.05-0.23-1.81-0.69-2.28s-1.03-0.7-1.71-0.7
						c-0.64,0-1.19,0.23-1.65,0.7s-0.69,1.22-0.69,2.26v5.62c0,0.13-0.04,0.24-0.13,0.33s-0.2,0.13-0.33,0.13h-0.88
						C439,86.45,438.89,86.41,438.81,86.32z"/>
					<path class="st1" d="M457.3,85.38c-0.81-0.85-1.26-2-1.34-3.47l-0.02-0.68l0.02-0.66c0.08-1.44,0.53-2.59,1.34-3.44
						c0.81-0.85,1.9-1.28,3.26-1.28c1.47,0,2.6,0.47,3.41,1.4c0.81,0.93,1.21,2.2,1.21,3.8v0.36c0,0.13-0.04,0.24-0.13,0.33
						c-0.09,0.09-0.2,0.13-0.33,0.13h-6.94v0.18c0.04,0.87,0.31,1.61,0.8,2.22s1.15,0.92,1.96,0.92c0.63,0,1.14-0.12,1.53-0.37
						s0.69-0.5,0.89-0.77c0.12-0.16,0.21-0.26,0.28-0.29c0.07-0.03,0.18-0.05,0.34-0.05h0.88c0.12,0,0.22,0.03,0.31,0.1
						c0.09,0.07,0.13,0.15,0.13,0.26c0,0.29-0.18,0.65-0.54,1.06c-0.36,0.41-0.87,0.77-1.53,1.07c-0.66,0.3-1.42,0.45-2.27,0.45
						C459.2,86.65,458.11,86.23,457.3,85.38z M463.36,80.51v-0.06c0-0.93-0.25-1.69-0.76-2.28c-0.51-0.59-1.19-0.88-2.04-0.88
						c-0.87,0-1.55,0.29-2.04,0.88c-0.49,0.59-0.74,1.35-0.74,2.28v0.06H463.36z"/>
					<path class="st1" d="M468.46,82.95v-5.36h-1.58c-0.13,0-0.24-0.04-0.32-0.12c-0.08-0.08-0.12-0.19-0.12-0.32v-0.64
						c0-0.13,0.04-0.24,0.12-0.33c0.08-0.09,0.19-0.13,0.32-0.13h1.58v-3.34c0-0.13,0.04-0.24,0.12-0.33
						c0.08-0.09,0.19-0.13,0.32-0.13h0.88c0.13,0,0.24,0.04,0.33,0.13c0.09,0.09,0.13,0.2,0.13,0.33v3.34h2.48
						c0.13,0,0.24,0.04,0.33,0.13c0.09,0.09,0.13,0.2,0.13,0.33v0.64c0,0.13-0.04,0.24-0.13,0.32c-0.09,0.08-0.2,0.12-0.33,0.12
						h-2.48v5.22c0,0.68,0.11,1.19,0.33,1.54c0.22,0.35,0.6,0.52,1.13,0.52h1.22c0.13,0,0.24,0.04,0.32,0.13
						c0.08,0.09,0.12,0.2,0.12,0.33v0.66c0,0.13-0.04,0.24-0.12,0.33s-0.19,0.13-0.32,0.13h-1.36
						C469.49,86.45,468.46,85.29,468.46,82.95z"/>
					<path class="st1" d="M476.18,85.38c-0.81-0.85-1.26-2-1.34-3.47l-0.02-0.68l0.02-0.66c0.08-1.44,0.53-2.59,1.34-3.44
						c0.81-0.85,1.9-1.28,3.26-1.28c1.47,0,2.6,0.47,3.41,1.4c0.81,0.93,1.21,2.2,1.21,3.8v0.36c0,0.13-0.04,0.24-0.13,0.33
						c-0.09,0.09-0.2,0.13-0.33,0.13h-6.94v0.18c0.04,0.87,0.31,1.61,0.8,2.22s1.15,0.92,1.96,0.92c0.63,0,1.14-0.12,1.53-0.37
						s0.69-0.5,0.89-0.77c0.12-0.16,0.21-0.26,0.28-0.29c0.07-0.03,0.18-0.05,0.34-0.05h0.88c0.12,0,0.22,0.03,0.31,0.1
						c0.09,0.07,0.13,0.15,0.13,0.26c0,0.29-0.18,0.65-0.54,1.06c-0.36,0.41-0.87,0.77-1.53,1.07c-0.66,0.3-1.42,0.45-2.27,0.45
						C478.08,86.65,476.99,86.23,476.18,85.38z M482.24,80.51v-0.06c0-0.93-0.25-1.69-0.76-2.28c-0.51-0.59-1.19-0.88-2.04-0.88
						c-0.87,0-1.55,0.29-2.04,0.88c-0.49,0.59-0.74,1.35-0.74,2.28v0.06H482.24z"/>
					<path class="st1" d="M486.62,86.32c-0.09-0.09-0.13-0.2-0.13-0.33v-9.46c0-0.13,0.04-0.25,0.13-0.34
						c0.09-0.09,0.2-0.14,0.33-0.14h0.84c0.15,0,0.26,0.04,0.35,0.13c0.09,0.09,0.13,0.2,0.13,0.35v0.88
						c0.55-0.91,1.47-1.36,2.78-1.36h0.78c0.15,0,0.26,0.04,0.34,0.12s0.12,0.19,0.12,0.34v0.74c0,0.13-0.04,0.24-0.12,0.33
						s-0.19,0.13-0.34,0.13h-1.14c-0.73,0-1.31,0.21-1.73,0.64s-0.63,1.01-0.63,1.74v5.9c0,0.13-0.05,0.24-0.14,0.33
						c-0.09,0.09-0.21,0.13-0.34,0.13h-0.9C486.82,86.45,486.71,86.41,486.62,86.32z"/>
					<path class="st1" d="M492.35,89.5c-0.09-0.09-0.13-0.2-0.13-0.33v-0.66c0-0.12,0.04-0.22,0.12-0.31s0.17-0.13,0.28-0.13
						c0.75-0.01,1.34-0.27,1.77-0.77s0.74-1.31,0.93-2.43s0.28-2.65,0.28-4.6c0-1.95-0.09-3.48-0.28-4.59s-0.5-1.92-0.93-2.42
						s-1.02-0.76-1.77-0.77c-0.11,0-0.2-0.04-0.28-0.13s-0.12-0.19-0.12-0.31v-0.66c0-0.13,0.04-0.24,0.13-0.33s0.19-0.13,0.31-0.13
						c1.15,0,2.06,0.32,2.73,0.97c0.67,0.65,1.16,1.65,1.45,3c0.29,1.35,0.44,3.14,0.44,5.37s-0.15,4.02-0.44,5.38
						c-0.29,1.36-0.78,2.36-1.45,3.01c-0.67,0.65-1.58,0.97-2.73,0.97C492.54,89.63,492.43,89.59,492.35,89.5z"/>
				</g>
			</g>
		</g>
		<g>
			<g id="POLYLINE_128_">
				<polyline class="st2" points="771.98,76.45 766.25,82.17 771.98,87.9 				"/>
			</g>
			<g id="POLYLINE_127_">
				<line class="st2" x1="766.25" y1="82.17" x2="871" y2="82.17"/>
			</g>
			<g id="POLYLINE_122_">
				<line class="st2" x1="871" y1="82.17" x2="901.62" y2="82.17"/>
			</g>
			<g id="POLYLINE_121_">
				<polyline class="st2" points="895.88,76.46 901.61,82.18 895.88,87.91 				"/>
			</g>
			<g id="MTEXT_17_">
				<g>
					<path class="st1" d="M740.09,59.32c-0.08-0.09-0.12-0.2-0.12-0.33V47.71l-3.36,2.58c-0.09,0.08-0.19,0.12-0.3,0.12
						c-0.12,0-0.23-0.07-0.34-0.2l-0.48-0.62c-0.07-0.09-0.1-0.19-0.1-0.28c0-0.15,0.07-0.27,0.2-0.36l4.34-3.36
						c0.15-0.09,0.32-0.14,0.52-0.14h0.94c0.13,0,0.24,0.04,0.33,0.13s0.13,0.2,0.13,0.33v13.08c0,0.13-0.04,0.24-0.13,0.33
						s-0.2,0.13-0.33,0.13h-0.98C740.27,59.45,740.17,59.41,740.09,59.32z"/>
					<path class="st1" d="M745.94,58.14c-0.79-1.01-1.22-2.32-1.27-3.95l-0.02-1.72l0.02-1.78c0.04-1.61,0.46-2.92,1.27-3.93
						c0.81-1.01,2.06-1.51,3.77-1.51c1.72,0,2.98,0.5,3.79,1.51c0.81,1.01,1.23,2.32,1.27,3.93c0.01,0.37,0.02,0.97,0.02,1.78
						c0,0.79-0.01,1.36-0.02,1.72c-0.05,1.63-0.48,2.94-1.27,3.95c-0.79,1.01-2.06,1.51-3.79,1.51
						C747.99,59.65,746.73,59.15,745.94,58.14z M752.03,56.97c0.52-0.68,0.79-1.64,0.82-2.88c0.01-0.39,0.02-0.94,0.02-1.66
						c0-0.73-0.01-1.28-0.02-1.64c-0.03-1.23-0.3-2.18-0.83-2.87c-0.53-0.69-1.3-1.03-2.31-1.03c-1.01,0-1.78,0.34-2.3,1.03
						c-0.52,0.69-0.79,1.64-0.82,2.87l-0.02,1.64l0.02,1.66c0.03,1.24,0.3,2.2,0.82,2.88c0.52,0.68,1.29,1.02,2.3,1.02
						C750.73,57.99,751.51,57.65,752.03,56.97z"/>
					<path class="st1" d="M757.26,48.93c-0.06-0.08-0.08-0.18-0.05-0.3l0.44-2.8c0.05-0.39,0.24-0.58,0.56-0.58h1.28
						c0.09,0,0.17,0.03,0.23,0.1c0.06,0.07,0.09,0.15,0.09,0.24c0,0.13-0.02,0.24-0.06,0.32l-1.04,2.7
						c-0.07,0.15-0.14,0.26-0.22,0.33c-0.08,0.07-0.2,0.11-0.36,0.11h-0.62C757.4,49.05,757.32,49.01,757.26,48.93z M760.4,48.93
						c-0.06-0.08-0.08-0.18-0.05-0.3l0.44-2.8c0.05-0.39,0.24-0.58,0.56-0.58h1.28c0.09,0,0.17,0.03,0.23,0.1
						c0.06,0.07,0.09,0.15,0.09,0.24c0,0.13-0.02,0.24-0.06,0.32l-1.04,2.7c-0.07,0.15-0.14,0.26-0.22,0.33s-0.2,0.11-0.36,0.11
						h-0.62C760.54,49.05,760.46,49.01,760.4,48.93z"/>
					<path class="st1" d="M763.7,54.13c-0.09-0.08-0.13-0.19-0.13-0.32v-0.72c0-0.13,0.04-0.24,0.13-0.33
						c0.09-0.09,0.2-0.13,0.33-0.13h6c0.13,0,0.24,0.04,0.33,0.13c0.09,0.09,0.13,0.2,0.13,0.33v0.72c0,0.13-0.04,0.24-0.13,0.32
						s-0.2,0.12-0.33,0.12h-6C763.89,54.25,763.78,54.21,763.7,54.13z"/>
					<path class="st1" d="M776.33,59.32c-0.08-0.09-0.12-0.2-0.12-0.33V47.71l-3.36,2.58c-0.09,0.08-0.19,0.12-0.3,0.12
						c-0.12,0-0.23-0.07-0.34-0.2l-0.48-0.62c-0.07-0.09-0.1-0.19-0.1-0.28c0-0.15,0.07-0.27,0.2-0.36l4.34-3.36
						c0.15-0.09,0.32-0.14,0.52-0.14h0.94c0.13,0,0.24,0.04,0.33,0.13s0.13,0.2,0.13,0.33v13.08c0,0.13-0.04,0.24-0.13,0.33
						s-0.2,0.13-0.33,0.13h-0.98C776.51,59.45,776.41,59.41,776.33,59.32z"/>
					<path class="st1" d="M782.85,59.11c-0.73-0.36-1.29-0.83-1.68-1.41s-0.59-1.2-0.62-1.87v-0.04c0-0.11,0.04-0.19,0.12-0.26
						s0.17-0.1,0.28-0.1h0.98c0.28,0,0.46,0.15,0.54,0.44c0.2,0.72,0.57,1.26,1.11,1.61s1.16,0.53,1.87,0.53
						c0.91,0,1.66-0.28,2.26-0.83c0.6-0.55,0.9-1.32,0.9-2.29c0-0.89-0.3-1.6-0.9-2.13c-0.6-0.53-1.35-0.79-2.26-0.79
						c-0.48,0-0.87,0.06-1.16,0.18c-0.29,0.12-0.59,0.29-0.9,0.52c-0.17,0.13-0.32,0.23-0.43,0.29c-0.11,0.06-0.24,0.09-0.37,0.09
						h-0.96c-0.12,0-0.23-0.04-0.32-0.13c-0.09-0.09-0.13-0.19-0.12-0.31l0.62-6.66c0.04-0.33,0.21-0.5,0.5-0.5h6.92
						c0.15,0,0.26,0.04,0.34,0.12c0.08,0.08,0.12,0.19,0.12,0.34v0.74c0,0.13-0.04,0.24-0.13,0.32c-0.09,0.08-0.2,0.12-0.33,0.12
						h-5.76l-0.36,4.02c0.64-0.45,1.5-0.68,2.58-0.68c0.89,0,1.71,0.18,2.44,0.53c0.73,0.35,1.32,0.87,1.75,1.55
						c0.43,0.68,0.65,1.49,0.65,2.42c0,0.99-0.22,1.84-0.65,2.55c-0.43,0.71-1.03,1.25-1.8,1.62c-0.77,0.37-1.64,0.55-2.63,0.55
						C784.45,59.65,783.58,59.47,782.85,59.11z"/>
					<path class="st1" d="M792.68,48.93c-0.06-0.08-0.08-0.18-0.05-0.3l0.44-2.8c0.05-0.39,0.24-0.58,0.56-0.58h1.28
						c0.09,0,0.17,0.03,0.23,0.1c0.06,0.07,0.09,0.15,0.09,0.24c0,0.13-0.02,0.24-0.06,0.32l-1.04,2.7
						c-0.07,0.15-0.14,0.26-0.22,0.33c-0.08,0.07-0.2,0.11-0.36,0.11h-0.62C792.82,49.05,792.74,49.01,792.68,48.93z M795.82,48.93
						c-0.06-0.08-0.08-0.18-0.05-0.3l0.44-2.8c0.05-0.39,0.24-0.58,0.56-0.58h1.28c0.09,0,0.17,0.03,0.23,0.1
						c0.06,0.07,0.09,0.15,0.09,0.24c0,0.13-0.02,0.24-0.06,0.32l-1.04,2.7c-0.07,0.15-0.14,0.26-0.22,0.33s-0.2,0.11-0.36,0.11
						h-0.62C795.96,49.05,795.88,49.01,795.82,48.93z"/>
					<path class="st1" d="M805.69,63.48c-0.08-0.09-0.12-0.2-0.12-0.33V41.99c0-0.13,0.04-0.24,0.12-0.33s0.19-0.13,0.32-0.13h0.74
						c0.13,0,0.24,0.04,0.33,0.13s0.13,0.2,0.13,0.33v21.16c0,0.13-0.04,0.24-0.13,0.33c-0.09,0.09-0.2,0.13-0.33,0.13h-0.74
						C805.87,63.61,805.77,63.57,805.69,63.48z"/>
					<path class="st1" d="M814.72,59.32c-0.09-0.09-0.13-0.2-0.13-0.33v-0.6c0-0.31,0.17-0.6,0.5-0.88l4.36-4.34
						c0.99-0.84,1.67-1.53,2.04-2.06s0.56-1.1,0.56-1.7c0-0.79-0.22-1.4-0.66-1.85c-0.44-0.45-1.08-0.67-1.92-0.67
						c-0.8,0-1.43,0.23-1.9,0.7c-0.47,0.47-0.75,1.09-0.86,1.88c-0.03,0.15-0.09,0.26-0.2,0.34c-0.11,0.08-0.21,0.12-0.32,0.12
						h-0.96c-0.12,0-0.22-0.04-0.3-0.12s-0.12-0.17-0.12-0.28c0.03-0.71,0.22-1.39,0.57-2.05c0.35-0.66,0.88-1.2,1.57-1.62
						s1.53-0.63,2.52-0.63c1.49,0,2.62,0.39,3.37,1.17c0.75,0.78,1.13,1.77,1.13,2.97c0,0.84-0.2,1.6-0.61,2.27
						c-0.41,0.67-1.04,1.38-1.91,2.13l-3.94,4h6.3c0.15,0,0.26,0.04,0.34,0.12c0.08,0.08,0.12,0.19,0.12,0.34v0.76
						c0,0.13-0.04,0.24-0.13,0.33c-0.09,0.09-0.2,0.13-0.33,0.13h-8.76C814.91,59.45,814.8,59.41,814.72,59.32z"/>
					<path class="st1" d="M828.51,59.11c-0.73-0.36-1.29-0.83-1.68-1.41s-0.59-1.2-0.62-1.87v-0.04c0-0.11,0.04-0.19,0.12-0.26
						s0.17-0.1,0.28-0.1h0.98c0.28,0,0.46,0.15,0.54,0.44c0.2,0.72,0.57,1.26,1.11,1.61s1.16,0.53,1.87,0.53
						c0.91,0,1.66-0.28,2.26-0.83c0.6-0.55,0.9-1.32,0.9-2.29c0-0.89-0.3-1.6-0.9-2.13c-0.6-0.53-1.35-0.79-2.26-0.79
						c-0.48,0-0.87,0.06-1.16,0.18c-0.29,0.12-0.59,0.29-0.9,0.52c-0.17,0.13-0.32,0.23-0.43,0.29c-0.11,0.06-0.24,0.09-0.37,0.09
						h-0.96c-0.12,0-0.23-0.04-0.32-0.13c-0.09-0.09-0.13-0.19-0.12-0.31l0.62-6.66c0.04-0.33,0.21-0.5,0.5-0.5h6.92
						c0.15,0,0.26,0.04,0.34,0.12c0.08,0.08,0.12,0.19,0.12,0.34v0.74c0,0.13-0.04,0.24-0.13,0.32c-0.09,0.08-0.2,0.12-0.33,0.12
						h-5.76l-0.36,4.02c0.64-0.45,1.5-0.68,2.58-0.68c0.89,0,1.71,0.18,2.44,0.53c0.73,0.35,1.32,0.87,1.75,1.55
						c0.43,0.68,0.65,1.49,0.65,2.42c0,0.99-0.22,1.84-0.65,2.55c-0.43,0.71-1.03,1.25-1.8,1.62c-0.77,0.37-1.64,0.55-2.63,0.55
						C830.11,59.65,829.24,59.47,828.51,59.11z"/>
					<path class="st1" d="M838.44,59.32c-0.09-0.09-0.13-0.2-0.13-0.33v-1.38c0-0.13,0.04-0.25,0.13-0.34
						c0.09-0.09,0.2-0.14,0.33-0.14h1.38c0.13,0,0.24,0.05,0.33,0.14c0.09,0.09,0.13,0.21,0.13,0.34v1.38
						c0,0.13-0.04,0.24-0.13,0.33c-0.09,0.09-0.2,0.13-0.33,0.13h-1.38C838.63,59.45,838.52,59.41,838.44,59.32z"/>
					<path class="st1" d="M849.34,59.32c-0.09-0.09-0.13-0.2-0.13-0.33v-2.92h-6.5c-0.13,0-0.24-0.04-0.33-0.13s-0.13-0.2-0.13-0.33
						v-0.74c0-0.19,0.07-0.39,0.22-0.6l6.02-8.48c0.07-0.11,0.17-0.19,0.3-0.25c0.13-0.06,0.28-0.09,0.44-0.09h1.36
						c0.15,0,0.26,0.04,0.34,0.12s0.12,0.19,0.12,0.34v8.48h1.82c0.13,0,0.24,0.04,0.33,0.13c0.09,0.09,0.13,0.2,0.13,0.33v0.76
						c0,0.13-0.04,0.24-0.13,0.33c-0.09,0.09-0.2,0.13-0.33,0.13h-1.82v2.92c0,0.13-0.04,0.24-0.13,0.33s-0.2,0.13-0.33,0.13h-0.92
						C849.53,59.45,849.42,59.41,849.34,59.32z M844.33,54.43h4.9v-6.96L844.33,54.43z"/>
					<path class="st1" d="M855.5,54.13c-0.09-0.08-0.13-0.19-0.13-0.32v-0.72c0-0.13,0.04-0.24,0.13-0.33
						c0.09-0.09,0.2-0.13,0.33-0.13h6c0.13,0,0.24,0.04,0.33,0.13c0.09,0.09,0.13,0.2,0.13,0.33v0.72c0,0.13-0.04,0.24-0.13,0.32
						s-0.2,0.12-0.33,0.12h-6C855.69,54.25,855.58,54.21,855.5,54.13z"/>
					<path class="st1" d="M866.45,59.14c-0.76-0.34-1.34-0.78-1.73-1.33c-0.39-0.55-0.6-1.11-0.63-1.7c0-0.12,0.04-0.22,0.12-0.29
						c0.08-0.07,0.18-0.11,0.3-0.11h0.9c0.15,0,0.27,0.03,0.36,0.09c0.09,0.06,0.17,0.18,0.22,0.35c0.17,0.68,0.55,1.16,1.13,1.44
						c0.58,0.28,1.26,0.42,2.05,0.42c0.96,0,1.72-0.23,2.29-0.69c0.57-0.46,0.85-1.12,0.85-1.97c0-1.63-0.99-2.44-2.98-2.44h-1.88
						c-0.13,0-0.24-0.04-0.33-0.13s-0.13-0.2-0.13-0.33v-0.52c0-0.2,0.07-0.37,0.22-0.52l3.9-4.32h-5.92
						c-0.13,0-0.24-0.04-0.33-0.12c-0.09-0.08-0.13-0.19-0.13-0.32v-0.72c0-0.15,0.04-0.26,0.13-0.35s0.2-0.13,0.33-0.13h7.92
						c0.15,0,0.26,0.04,0.35,0.13c0.09,0.09,0.13,0.2,0.13,0.35v0.66c0,0.15-0.07,0.3-0.2,0.46l-3.9,4.38h0.32
						c1.36,0.04,2.44,0.39,3.23,1.06c0.79,0.67,1.19,1.64,1.19,2.92c0,0.88-0.22,1.64-0.65,2.27c-0.43,0.63-1.04,1.12-1.81,1.46
						c-0.77,0.34-1.65,0.51-2.62,0.51C868.11,59.65,867.21,59.48,866.45,59.14z"/>
					<path class="st1" d="M878.82,59.14c-0.79-0.34-1.41-0.83-1.85-1.47c-0.44-0.64-0.66-1.39-0.66-2.24c0-0.79,0.2-1.48,0.59-2.07
						s0.92-1.05,1.59-1.37c-0.53-0.31-0.95-0.71-1.24-1.21c-0.29-0.5-0.44-1.09-0.44-1.77c0-1.16,0.43-2.08,1.3-2.75
						c0.87-0.67,2.01-1.01,3.42-1.01s2.55,0.33,3.41,1c0.86,0.67,1.29,1.59,1.29,2.76c0,0.67-0.15,1.25-0.44,1.75
						c-0.29,0.5-0.7,0.91-1.22,1.23c0.67,0.32,1.2,0.78,1.59,1.37s0.59,1.29,0.59,2.09c0,0.85-0.22,1.6-0.66,2.23
						c-0.44,0.63-1.06,1.12-1.85,1.46c-0.79,0.34-1.7,0.51-2.71,0.51S879.61,59.48,878.82,59.14z M883.9,57.37
						c0.63-0.48,0.95-1.12,0.95-1.92s-0.32-1.44-0.95-1.92c-0.63-0.48-1.42-0.72-2.37-0.72c-0.96,0-1.76,0.24-2.39,0.72
						c-0.63,0.48-0.95,1.12-0.95,1.92s0.32,1.44,0.95,1.92c0.63,0.48,1.43,0.72,2.39,0.72C882.47,58.09,883.26,57.85,883.9,57.37z
						 M883.59,50.65c0.56-0.4,0.84-0.93,0.84-1.6c0-0.68-0.28-1.22-0.83-1.63c-0.55-0.41-1.24-0.61-2.07-0.61
						c-0.84,0-1.53,0.2-2.08,0.61c-0.55,0.41-0.82,0.95-0.82,1.63c0,0.68,0.27,1.22,0.82,1.63c0.55,0.41,1.24,0.61,2.08,0.61
						C882.34,51.27,883.03,51.05,883.59,50.65z"/>
					<path class="st1" d="M889.16,59.32c-0.09-0.09-0.13-0.2-0.13-0.33v-1.38c0-0.13,0.04-0.25,0.13-0.34
						c0.09-0.09,0.2-0.14,0.33-0.14h1.38c0.13,0,0.24,0.05,0.33,0.14c0.09,0.09,0.13,0.21,0.13,0.34v1.38
						c0,0.13-0.04,0.24-0.13,0.33c-0.09,0.09-0.2,0.13-0.33,0.13h-1.38C889.35,59.45,889.24,59.41,889.16,59.32z"/>
					<path class="st1" d="M896.53,59.32c-0.08-0.09-0.12-0.2-0.12-0.33V47.71l-3.36,2.58c-0.09,0.08-0.19,0.12-0.3,0.12
						c-0.12,0-0.23-0.07-0.34-0.2l-0.48-0.62c-0.07-0.09-0.1-0.19-0.1-0.28c0-0.15,0.07-0.27,0.2-0.36l4.34-3.36
						c0.15-0.09,0.32-0.14,0.52-0.14h0.94c0.13,0,0.24,0.04,0.33,0.13s0.13,0.2,0.13,0.33v13.08c0,0.13-0.04,0.24-0.13,0.33
						s-0.2,0.13-0.33,0.13h-0.98C896.71,59.45,896.61,59.41,896.53,59.32z"/>
					<path class="st1" d="M907.07,58.44c-0.8-0.81-1.22-1.94-1.26-3.39l-0.02-0.8l0.02-0.8c0.04-1.45,0.46-2.58,1.26-3.39
						c0.8-0.81,1.91-1.21,3.34-1.21c0.96,0,1.77,0.17,2.43,0.51s1.15,0.76,1.48,1.27c0.33,0.51,0.5,1.01,0.53,1.52
						c0.01,0.12-0.03,0.23-0.13,0.32c-0.1,0.09-0.21,0.14-0.33,0.14h-0.88c-0.13,0-0.23-0.03-0.3-0.09
						c-0.07-0.06-0.13-0.17-0.2-0.33c-0.24-0.65-0.57-1.12-0.99-1.39c-0.42-0.27-0.95-0.41-1.59-0.41c-0.84,0-1.51,0.26-2,0.78
						c-0.49,0.52-0.76,1.31-0.8,2.38l-0.02,0.7l0.02,0.7c0.04,1.07,0.31,1.86,0.8,2.38c0.49,0.52,1.16,0.78,2,0.78
						c0.65,0,1.19-0.14,1.6-0.41c0.41-0.27,0.74-0.74,0.98-1.39c0.07-0.16,0.13-0.27,0.2-0.33c0.07-0.06,0.17-0.09,0.3-0.09h0.88
						c0.12,0,0.23,0.05,0.33,0.14c0.1,0.09,0.14,0.2,0.13,0.32c-0.03,0.49-0.2,0.99-0.53,1.5c-0.33,0.51-0.82,0.93-1.48,1.28
						s-1.47,0.52-2.43,0.52C908.98,59.65,907.87,59.25,907.07,58.44z"/>
					<path class="st1" d="M917.38,59.32c-0.09-0.09-0.13-0.2-0.13-0.33v-9.48c0-0.13,0.04-0.24,0.13-0.33
						c0.09-0.09,0.2-0.13,0.33-0.13h0.84c0.13,0,0.24,0.04,0.32,0.13c0.08,0.09,0.12,0.2,0.12,0.33v0.68
						c0.72-0.89,1.69-1.34,2.92-1.34c1.47,0,2.51,0.61,3.12,1.84c0.32-0.56,0.78-1.01,1.37-1.34c0.59-0.33,1.26-0.5,1.99-0.5
						c1.09,0,1.99,0.37,2.68,1.12c0.69,0.75,1.04,1.83,1.04,3.24v5.78c0,0.13-0.04,0.24-0.13,0.33c-0.09,0.09-0.2,0.13-0.33,0.13
						h-0.86c-0.13,0-0.24-0.04-0.33-0.13s-0.13-0.2-0.13-0.33v-5.6c0-1.07-0.22-1.83-0.66-2.29c-0.44-0.46-1.02-0.69-1.74-0.69
						c-0.64,0-1.19,0.24-1.65,0.71c-0.46,0.47-0.69,1.23-0.69,2.27v5.6c0,0.13-0.04,0.24-0.13,0.33s-0.2,0.13-0.33,0.13h-0.88
						c-0.13,0-0.24-0.04-0.33-0.13s-0.13-0.2-0.13-0.33v-5.6c0-1.05-0.23-1.81-0.69-2.28s-1.03-0.7-1.71-0.7
						c-0.64,0-1.19,0.23-1.65,0.7s-0.69,1.22-0.69,2.26v5.62c0,0.13-0.04,0.24-0.13,0.33s-0.2,0.13-0.33,0.13h-0.88
						C917.57,59.45,917.46,59.41,917.38,59.32z"/>
				</g>
			</g>
		</g>
		<g>
			<g id="POLYLINE_120_">
				<polyline class="st2" points="607.98,374.45 602.25,380.17 607.98,385.9 				"/>
			</g>
			<g id="POLYLINE_119_">
				<line class="st2" x1="602.25" y1="380.17" x2="611" y2="380.17"/>
			</g>
			<g id="POLYLINE_118_">
				<line class="st2" x1="611" y1="380.17" x2="641.62" y2="380.17"/>
			</g>
			<g id="POLYLINE_117_">
				<polyline class="st2" points="635.88,374.46 641.61,380.18 635.88,385.91 				"/>
			</g>
			<g id="MTEXT_14_">
				<g>
					<path class="st1" d="M668.91,386.32c-0.09-0.09-0.13-0.2-0.13-0.33v-2.92h-6.5c-0.13,0-0.24-0.04-0.33-0.13
						s-0.13-0.2-0.13-0.33v-0.74c0-0.19,0.07-0.39,0.22-0.6l6.02-8.48c0.07-0.11,0.17-0.19,0.3-0.25c0.13-0.06,0.28-0.09,0.44-0.09
						h1.36c0.15,0,0.26,0.04,0.34,0.12s0.12,0.19,0.12,0.34v8.48h1.82c0.13,0,0.24,0.04,0.33,0.13c0.09,0.09,0.13,0.2,0.13,0.33
						v0.76c0,0.13-0.04,0.24-0.13,0.33c-0.09,0.09-0.2,0.13-0.33,0.13h-1.82v2.92c0,0.13-0.04,0.24-0.13,0.33s-0.2,0.13-0.33,0.13
						h-0.92C669.1,386.45,668.99,386.41,668.91,386.32z M663.9,381.43h4.9v-6.96L663.9,381.43z"/>
					<path class="st1" d="M674.73,386.32c-0.09-0.09-0.13-0.2-0.13-0.33v-1.38c0-0.13,0.04-0.25,0.13-0.34
						c0.09-0.09,0.2-0.14,0.33-0.14h1.38c0.13,0,0.24,0.05,0.33,0.14c0.09,0.09,0.13,0.21,0.13,0.34v1.38
						c0,0.13-0.04,0.24-0.13,0.33c-0.09,0.09-0.2,0.13-0.33,0.13h-1.38C674.92,386.45,674.81,386.41,674.73,386.32z"/>
					<path class="st1" d="M681.67,386.14c-0.79-0.34-1.41-0.83-1.85-1.47c-0.44-0.64-0.66-1.39-0.66-2.24c0-0.79,0.2-1.48,0.59-2.07
						s0.92-1.05,1.59-1.37c-0.53-0.31-0.95-0.71-1.24-1.21c-0.29-0.5-0.44-1.09-0.44-1.77c0-1.16,0.43-2.08,1.3-2.75
						c0.87-0.67,2.01-1.01,3.42-1.01s2.55,0.33,3.41,1c0.86,0.67,1.29,1.59,1.29,2.76c0,0.67-0.15,1.25-0.44,1.75
						c-0.29,0.5-0.7,0.91-1.22,1.23c0.67,0.32,1.2,0.78,1.59,1.37s0.59,1.29,0.59,2.09c0,0.85-0.22,1.6-0.66,2.23
						c-0.44,0.63-1.06,1.12-1.85,1.46c-0.79,0.34-1.7,0.51-2.71,0.51S682.46,386.48,681.67,386.14z M686.75,384.37
						c0.63-0.48,0.95-1.12,0.95-1.92s-0.32-1.44-0.95-1.92c-0.63-0.48-1.42-0.72-2.37-0.72c-0.96,0-1.76,0.24-2.39,0.72
						c-0.63,0.48-0.95,1.12-0.95,1.92s0.32,1.44,0.95,1.92c0.63,0.48,1.43,0.72,2.39,0.72
						C685.32,385.09,686.11,384.85,686.75,384.37z M686.44,377.65c0.56-0.4,0.84-0.93,0.84-1.6c0-0.68-0.28-1.22-0.83-1.63
						c-0.55-0.41-1.24-0.61-2.07-0.61c-0.84,0-1.53,0.2-2.08,0.61c-0.55,0.41-0.82,0.95-0.82,1.63c0,0.68,0.27,1.22,0.82,1.63
						c0.55,0.41,1.24,0.61,2.08,0.61C685.19,378.27,685.88,378.05,686.44,377.65z"/>
					<path class="st1" d="M691.93,375.93c-0.06-0.08-0.08-0.18-0.05-0.3l0.44-2.8c0.05-0.39,0.24-0.58,0.56-0.58h1.28
						c0.09,0,0.17,0.03,0.23,0.1c0.06,0.07,0.09,0.15,0.09,0.24c0,0.13-0.02,0.24-0.06,0.32l-1.04,2.7
						c-0.07,0.15-0.14,0.26-0.22,0.33c-0.08,0.07-0.2,0.11-0.36,0.11h-0.62C692.07,376.05,691.99,376.01,691.93,375.93z
						 M695.07,375.93c-0.06-0.08-0.08-0.18-0.05-0.3l0.44-2.8c0.05-0.39,0.24-0.58,0.56-0.58h1.28c0.09,0,0.17,0.03,0.23,0.1
						c0.06,0.07,0.09,0.15,0.09,0.24c0,0.13-0.02,0.24-0.06,0.32l-1.04,2.7c-0.07,0.15-0.14,0.26-0.22,0.33s-0.2,0.11-0.36,0.11
						h-0.62C695.21,376.05,695.13,376.01,695.07,375.93z"/>
					<path class="st1" d="M666.4,408.32c-0.08-0.09-0.12-0.2-0.12-0.33v-11.28l-3.36,2.58c-0.09,0.08-0.19,0.12-0.3,0.12
						c-0.12,0-0.23-0.07-0.34-0.2l-0.48-0.62c-0.07-0.09-0.1-0.19-0.1-0.28c0-0.15,0.07-0.27,0.2-0.36l4.34-3.36
						c0.15-0.09,0.32-0.14,0.52-0.14h0.94c0.13,0,0.24,0.04,0.33,0.13s0.13,0.2,0.13,0.33v13.08c0,0.13-0.04,0.24-0.13,0.33
						s-0.2,0.13-0.33,0.13h-0.98C666.58,408.45,666.48,408.41,666.4,408.32z"/>
					<path class="st1" d="M670.81,408.32c-0.09-0.09-0.13-0.2-0.13-0.33v-0.6c0-0.31,0.17-0.6,0.5-0.88l4.36-4.34
						c0.99-0.84,1.67-1.53,2.04-2.06s0.56-1.1,0.56-1.7c0-0.79-0.22-1.4-0.66-1.85c-0.44-0.45-1.08-0.67-1.92-0.67
						c-0.8,0-1.43,0.23-1.9,0.7c-0.47,0.47-0.75,1.09-0.86,1.88c-0.03,0.15-0.09,0.26-0.2,0.34c-0.11,0.08-0.21,0.12-0.32,0.12
						h-0.96c-0.12,0-0.22-0.04-0.3-0.12s-0.12-0.17-0.12-0.28c0.03-0.71,0.22-1.39,0.57-2.05c0.35-0.66,0.88-1.2,1.57-1.62
						s1.53-0.63,2.52-0.63c1.49,0,2.62,0.39,3.37,1.17c0.75,0.78,1.13,1.77,1.13,2.97c0,0.84-0.2,1.6-0.61,2.27
						c-0.41,0.67-1.04,1.38-1.91,2.13l-3.94,4h6.3c0.15,0,0.26,0.04,0.34,0.12c0.08,0.08,0.12,0.19,0.12,0.34v0.76
						c0,0.13-0.04,0.24-0.13,0.33c-0.09,0.09-0.2,0.13-0.33,0.13h-8.76C671,408.45,670.89,408.41,670.81,408.32z"/>
					<path class="st1" d="M682.87,408.32c-0.09-0.09-0.13-0.2-0.13-0.33v-1.38c0-0.13,0.04-0.25,0.13-0.34
						c0.09-0.09,0.2-0.14,0.33-0.14h1.38c0.13,0,0.24,0.05,0.33,0.14c0.09,0.09,0.13,0.21,0.13,0.34v1.38
						c0,0.13-0.04,0.24-0.13,0.33c-0.09,0.09-0.2,0.13-0.33,0.13h-1.38C683.06,408.45,682.95,408.41,682.87,408.32z"/>
					<path class="st1" d="M687.49,408.32c-0.09-0.09-0.13-0.2-0.13-0.33v-0.6c0-0.31,0.17-0.6,0.5-0.88l4.36-4.34
						c0.99-0.84,1.67-1.53,2.04-2.06s0.56-1.1,0.56-1.7c0-0.79-0.22-1.4-0.66-1.85c-0.44-0.45-1.08-0.67-1.92-0.67
						c-0.8,0-1.43,0.23-1.9,0.7c-0.47,0.47-0.75,1.09-0.86,1.88c-0.03,0.15-0.09,0.26-0.2,0.34c-0.11,0.08-0.21,0.12-0.32,0.12H688
						c-0.12,0-0.22-0.04-0.3-0.12s-0.12-0.17-0.12-0.28c0.03-0.71,0.22-1.39,0.57-2.05c0.35-0.66,0.88-1.2,1.57-1.62
						s1.53-0.63,2.52-0.63c1.49,0,2.62,0.39,3.37,1.17c0.75,0.78,1.13,1.77,1.13,2.97c0,0.84-0.2,1.6-0.61,2.27
						c-0.41,0.67-1.04,1.38-1.91,2.13l-3.94,4h6.3c0.15,0,0.26,0.04,0.34,0.12c0.08,0.08,0.12,0.19,0.12,0.34v0.76
						c0,0.13-0.04,0.24-0.13,0.33c-0.09,0.09-0.2,0.13-0.33,0.13h-8.76C687.68,408.45,687.57,408.41,687.49,408.32z"/>
					<path class="st1" d="M705.3,407.44c-0.8-0.81-1.22-1.94-1.26-3.39l-0.02-0.8l0.02-0.8c0.04-1.45,0.46-2.58,1.26-3.39
						c0.8-0.81,1.91-1.21,3.34-1.21c0.96,0,1.77,0.17,2.43,0.51s1.15,0.76,1.48,1.27c0.33,0.51,0.5,1.01,0.53,1.52
						c0.01,0.12-0.03,0.23-0.13,0.32c-0.1,0.09-0.21,0.14-0.33,0.14h-0.88c-0.13,0-0.23-0.03-0.3-0.09
						c-0.07-0.06-0.13-0.17-0.2-0.33c-0.24-0.65-0.57-1.12-0.99-1.39c-0.42-0.27-0.95-0.41-1.59-0.41c-0.84,0-1.51,0.26-2,0.78
						c-0.49,0.52-0.76,1.31-0.8,2.38l-0.02,0.7l0.02,0.7c0.04,1.07,0.31,1.86,0.8,2.38c0.49,0.52,1.16,0.78,2,0.78
						c0.65,0,1.19-0.14,1.6-0.41c0.41-0.27,0.74-0.74,0.98-1.39c0.07-0.16,0.13-0.27,0.2-0.33c0.07-0.06,0.17-0.09,0.3-0.09h0.88
						c0.12,0,0.23,0.05,0.33,0.14c0.1,0.09,0.14,0.2,0.13,0.32c-0.03,0.49-0.2,0.99-0.53,1.5c-0.33,0.51-0.82,0.93-1.48,1.28
						s-1.47,0.52-2.43,0.52C707.21,408.65,706.1,408.25,705.3,407.44z"/>
					<path class="st1" d="M715.61,408.32c-0.09-0.09-0.13-0.2-0.13-0.33v-9.48c0-0.13,0.04-0.24,0.13-0.33
						c0.09-0.09,0.2-0.13,0.33-0.13h0.84c0.13,0,0.24,0.04,0.32,0.13c0.08,0.09,0.12,0.2,0.12,0.33v0.68
						c0.72-0.89,1.69-1.34,2.92-1.34c1.47,0,2.51,0.61,3.12,1.84c0.32-0.56,0.78-1.01,1.37-1.34c0.59-0.33,1.26-0.5,1.99-0.5
						c1.09,0,1.99,0.37,2.68,1.12c0.69,0.75,1.04,1.83,1.04,3.24v5.78c0,0.13-0.04,0.24-0.13,0.33c-0.09,0.09-0.2,0.13-0.33,0.13
						h-0.86c-0.13,0-0.24-0.04-0.33-0.13s-0.13-0.2-0.13-0.33v-5.6c0-1.07-0.22-1.83-0.66-2.29c-0.44-0.46-1.02-0.69-1.74-0.69
						c-0.64,0-1.19,0.24-1.65,0.71c-0.46,0.47-0.69,1.23-0.69,2.27v5.6c0,0.13-0.04,0.24-0.13,0.33s-0.2,0.13-0.33,0.13h-0.88
						c-0.13,0-0.24-0.04-0.33-0.13s-0.13-0.2-0.13-0.33v-5.6c0-1.05-0.23-1.81-0.69-2.28s-1.03-0.7-1.71-0.7
						c-0.64,0-1.19,0.23-1.65,0.7s-0.69,1.22-0.69,2.26v5.62c0,0.13-0.04,0.24-0.13,0.33s-0.2,0.13-0.33,0.13h-0.88
						C715.8,408.45,715.69,408.41,715.61,408.32z"/>
				</g>
			</g>
		</g>
		<g>
			<g>
				<line class="st4" x1="652.06" y1="309.11" x2="652.06" y2="307.61"/>
				<line class="st5" x1="652.06" y1="300.52" x2="652.06" y2="101.54"/>
				<line class="st4" x1="652.06" y1="98" x2="652.06" y2="96.5"/>
			</g>
		</g>
		<g>
			<g>
				<line class="st4" x1="126.06" y1="309.11" x2="126.06" y2="307.61"/>
				<line class="st5" x1="126.06" y1="300.52" x2="126.06" y2="101.54"/>
				<line class="st4" x1="126.06" y1="98" x2="126.06" y2="96.5"/>
			</g>
		</g>
	</g>
</g>
<g id="_x32_D_x24_AG-DIAGRAM">
</g>
<g id="_x32_D_x24_AG-DETAILS">
	<g id="POLYLINE_570_">
		<path class="st50" d="M466.4,372.68c0.04-26.47-13.48-51.45-35.66-65.9c-40.53-26.32-94.61-10.6-114.72,33.34
			c-9.38,20.55-9.38,44.56,0,65.12c20.11,43.94,74.19,59.66,114.72,33.34C452.92,424.13,466.44,399.15,466.4,372.68z"/>
	</g>
	<g id="POLYLINE_569_">
		<path class="st50" d="M518.53,372.68c0.04-44.06-22.37-85.48-59.28-109.54c-32.13-21.05-72.39-26.87-109.17-15.79
			c-36.04,10.76-66.01,36.94-81.52,71.21c-15.6,34.22-15.6,74.02,0,108.24c15.85,34.99,46.71,61.49,83.71,71.84
			c36.2,10.23,75.53,4.19,106.99-16.42C496.16,458.16,518.57,416.74,518.53,372.68z"/>
	</g>
	<g id="POLYLINE_568_">
		<path class="st50" d="M570.66,372.68c0.04-61.65-31.27-119.5-82.9-153.18c-44.97-29.45-101.2-37.58-152.67-22.07
			c-50.43,15.07-92.28,51.63-114,99.58c-21.82,47.9-21.82,103.47,0,151.37c22.18,48.96,65.3,85.96,117.06,100.46
			c50.65,14.3,105.58,5.87,149.61-22.96C539.4,492.18,570.71,434.33,570.66,372.68z"/>
	</g>
	<g id="POLYLINE_567_">
		<path class="st50" d="M622.79,372.68c0.04-79.24-40.16-153.52-106.52-196.83c-57.83-37.84-129.99-48.28-196.17-28.36
			c-64.83,19.39-118.55,66.31-146.48,127.95c-28.04,61.58-28.04,132.91,0,194.49c28.53,62.94,83.87,110.43,150.41,129.09
			c65.12,18.37,135.62,7.55,192.24-29.51C582.64,526.21,622.84,451.92,622.79,372.68z"/>
	</g>
</g>
<g id="_x32_D_x24_AG-SPORTS">
	<g id="POLYLINE_186_">
		<path class="st50" d="M401.23,372.68c0.01-6.18-4.23-11.63-10.22-13.13c-8.52-2.14-16.78,4.23-16.87,13.02
			c-0.06,8.89,8.26,15.41,16.87,13.25C397,384.31,401.24,378.86,401.23,372.68z"/>
	</g>
	<g id="POLYLINE_185_">
		<path class="st51" d="M414.26,372.68c0.03-8.91-4.57-17.4-12.04-22.25c-13.66-8.89-31.97-3.57-38.74,11.26
			c-3.17,6.9-3.17,15.09,0,21.99c6.77,14.83,25.08,20.15,38.74,11.26C409.69,390.08,414.29,381.59,414.26,372.68z"/>
	</g>
	<g id="POLYLINE_184_">
		<path class="st51" d="M440.33,372.68c0.03-17.69-9.03-34.43-23.85-44.08c-27.09-17.61-63.3-7.08-76.73,22.3
			c-6.27,13.73-6.27,29.83,0,43.55c13.43,29.38,49.64,39.9,76.73,22.3C431.3,407.11,440.36,390.37,440.33,372.68z"/>
	</g>
	<g id="POLYLINE_183_">
		<path class="st51" d="M492.46,372.68c0.04-35.26-17.93-68.46-47.47-87.72c-25.71-16.85-58-21.52-87.43-12.64
			c-28.84,8.61-52.88,29.6-65.28,57.02c-12.49,27.38-12.49,59.29,0,86.68c12.67,28.01,37.43,49.25,67.03,57.53
			c28.96,8.19,60.5,3.35,85.67-13.15C474.54,441.15,492.5,407.95,492.46,372.68z"/>
	</g>
	<g id="POLYLINE_159_">
		<path class="st51" d="M544.6,372.68c0.05-52.85-26.82-102.5-71.09-131.36c-38.56-25.25-86.79-32.22-130.92-18.93
			c-43.24,12.92-79.14,44.28-97.76,85.39c-18.71,41.06-18.71,88.74,0,129.8c19.02,41.98,56,73.72,100.38,86.15
			c43.43,12.27,90.55,5.03,128.3-19.69C517.77,475.18,544.64,425.53,544.6,372.68z"/>
	</g>
	<g id="POLYLINE_158_">
		<path class="st51" d="M596.73,372.68c0.04-70.44-35.71-136.51-94.71-175.01c-51.39-33.64-115.6-42.93-174.42-25.22
			c-57.63,17.24-105.41,58.97-130.24,113.76c-24.93,54.74-24.93,118.18,0,172.93c25.35,55.95,74.59,98.2,133.74,114.78
			c57.89,16.34,120.6,6.71,170.93-26.23C561.02,509.2,596.77,443.13,596.73,372.68z"/>
	</g>
	<g id="POLYLINE_157_">
		<path class="st51" d="M648.86,372.68c0.04-88.04-44.6-170.53-118.33-218.65c-64.25-42.04-144.39-53.63-217.92-31.51
			c-72.03,21.55-131.68,73.65-162.72,142.13c-31.15,68.43-31.15,147.63,0,216.05c31.71,69.93,93.15,122.67,167.09,143.4
			c72.36,20.41,150.65,8.4,213.55-32.78C604.26,543.22,648.9,460.72,648.86,372.68z"/>
	</g>
	<g id="POLYLINE_156_">
		<rect x="768.22" y="111.5" class="st51" width="132.67" height="522.36"/>
	</g>
</g>
<g id="_x32_D_x24_AG-OUTLINE">
	<g id="POLYLINE_7_">
		<path class="st53" d="M648.86,372.68c0.05-89.21-45.76-172.6-121.07-220.42c-63.76-40.6-142.62-51.53-215.02-29.79
			c-73.17,21.84-133.48,75.13-164.17,145.06c-28.98,65.75-29.46,141.19-1.29,207.3c30.26,71.35,91.2,125.88,165.46,148.05
			c72.4,21.74,151.26,10.81,215.02-29.79C603.1,545.28,648.91,461.89,648.86,372.68z"/>
	</g>
	<g id="POLYLINE_6_">
		<rect x="768.22" y="111.5" class="st53" width="132.67" height="522.36"/>
	</g>
</g>
</svg>
