<?xml version="1.0" encoding="utf-8"?>
<!-- Generator: Adobe Illustrator 25.0.1, SVG Export Plug-In . SVG Version: 6.00 Build 0)  -->
<svg version="1.1" xmlns="http://www.w3.org/2000/svg" xmlns:xlink="http://www.w3.org/1999/xlink" x="0px" y="0px" width="1000px"
	 height="475px" viewBox="0 0 1000 475" style="enable-background:new 0 0 1000 475;" xml:space="preserve">
<style type="text/css">
	.st0{fill:#FFFFFF;}
	.st1{fill:none;stroke:#E74C3C;stroke-width:2;stroke-linecap:round;stroke-linejoin:round;stroke-miterlimit:10;}
	.st2{fill:#E74C3C;}
	.st3{opacity:0.98;}
	.st4{fill:none;stroke:#F03823;stroke-width:2.25;stroke-linecap:round;stroke-linejoin:round;}
	.st5{fill:none;stroke:#F03823;stroke-width:2.25;stroke-linecap:round;stroke-linejoin:round;stroke-dasharray:3.907,5.8605;}
	.st6{fill:none;stroke:#F03823;stroke-width:2.25;stroke-linecap:round;stroke-linejoin:round;stroke-dasharray:4.0694,6.1041;}
	.st7{fill:none;stroke:#E74C3C;stroke-width:2.5;stroke-linecap:round;stroke-linejoin:round;}
	.st8{fill:none;stroke:#E74C3C;stroke-width:2.5;stroke-linecap:round;stroke-linejoin:round;stroke-dasharray:2.9851,5.9702;}
	.st9{fill:none;stroke:#E74C3C;stroke-width:3;stroke-linecap:round;stroke-linejoin:round;}
	.st10{fill:none;stroke:#E74C3C;stroke-width:3;stroke-linecap:round;stroke-linejoin:round;stroke-dasharray:5.0161,7.0226;}
	.st11{fill:none;stroke:#E74C3C;stroke-width:3;stroke-linecap:round;stroke-linejoin:round;stroke-dasharray:5.0322,7.0451;}
	.st12{fill:none;stroke:#E74C3C;stroke-width:3;stroke-linecap:round;stroke-linejoin:round;stroke-dasharray:5.0471,7.0659;}
	.st13{fill:none;stroke:#E74C3C;stroke-width:3;stroke-linecap:round;stroke-linejoin:round;stroke-dasharray:5.0698,7.0977;}
	.st14{fill:none;stroke:#E74C3C;stroke-width:3;stroke-linecap:round;stroke-linejoin:round;stroke-dasharray:4.9784,6.9698;}
	.st15{fill:none;stroke:#E74C3C;stroke-width:3;stroke-linecap:round;stroke-linejoin:round;stroke-dasharray:4.9803,6.9725;}
	.st16{fill:none;stroke:#E74C3C;stroke-width:3;stroke-linecap:round;stroke-linejoin:round;stroke-dasharray:5.0335,7.0469;}
	.st17{fill:none;stroke:#E74C3C;stroke-width:3;stroke-linecap:round;stroke-linejoin:round;stroke-dasharray:4.9296,6.9015;}
	.st18{fill:none;stroke:#E74C3C;stroke-width:3;stroke-linecap:round;stroke-linejoin:round;stroke-dasharray:5.0129,7.0181;}
	.st19{fill:none;stroke:#E74C3C;stroke-width:3;stroke-linecap:round;stroke-linejoin:round;stroke-dasharray:5.0156,7.0219;}
	.st20{fill:none;stroke:#E74C3C;stroke-width:3;stroke-linecap:round;stroke-linejoin:round;stroke-dasharray:5.0453,7.0634;}
	.st21{fill:none;stroke:#E74C3C;stroke-width:3;stroke-linecap:round;stroke-linejoin:round;stroke-dasharray:4.9583,6.9417;}
	.st22{fill:none;stroke:#E74C3C;stroke-width:3;stroke-linecap:round;stroke-linejoin:round;stroke-dasharray:5.0175,7.0245;}
	.st23{fill:none;stroke:#E74C3C;stroke-width:3;stroke-linecap:round;stroke-linejoin:round;stroke-dasharray:4.9769,6.9677;}
	.st24{fill:none;stroke:#E74C3C;stroke-width:3;stroke-linecap:round;stroke-linejoin:round;stroke-dasharray:5.1621,7.227;}
	.st25{fill:none;stroke:#E74C3C;stroke-width:3;stroke-linecap:round;stroke-linejoin:round;stroke-dasharray:5.0116,7.0163;}
	.st26{fill:none;stroke:#E74C3C;stroke-width:3;stroke-linecap:round;stroke-linejoin:round;stroke-dasharray:5.0722,7.101;}
	.st27{fill:none;stroke:#E74C3C;stroke-width:3;stroke-linecap:round;stroke-linejoin:round;stroke-dasharray:4.9762,6.9667;}
	.st28{fill:none;stroke:#E74C3C;stroke-width:3;stroke-linecap:round;stroke-linejoin:round;stroke-dasharray:4.838,6.7731;}
	.st29{fill:none;stroke:#E74C3C;stroke-width:3;stroke-linecap:round;stroke-linejoin:round;stroke-dasharray:4.9965,6.9951;}
	.st30{fill:none;stroke:#E74C3C;stroke-width:3;stroke-linecap:round;stroke-linejoin:round;stroke-dasharray:4.9068,6.8696;}
	.st31{fill:none;stroke:#E74C3C;stroke-width:3;stroke-linecap:round;stroke-linejoin:round;stroke-dasharray:5.0095,7.0133;}
	.st32{fill:none;stroke:#E74C3C;stroke-width:3;stroke-linecap:round;stroke-linejoin:round;stroke-dasharray:5.07,7.0981;}
	.st33{fill:none;stroke:#E74C3C;stroke-width:3;stroke-linecap:round;stroke-linejoin:round;stroke-dasharray:4.9741,6.9638;}
	.st34{fill:none;stroke:#E74C3C;stroke-width:3;stroke-linecap:round;stroke-linejoin:round;stroke-dasharray:4.9946,6.9925;}
	.st35{fill:none;stroke:#E74C3C;stroke-width:3;stroke-linecap:round;stroke-linejoin:round;stroke-dasharray:5.0507,7.071;}
	.st36{fill:none;stroke:#E74C3C;stroke-width:3;stroke-linecap:round;stroke-linejoin:round;stroke-dasharray:4.9421,6.919;}
	.st37{fill:none;stroke:#E74C3C;stroke-width:3;stroke-linecap:round;stroke-linejoin:round;stroke-dasharray:4.9769,6.9676;}
	.st38{fill:none;stroke:#E74C3C;stroke-width:3;stroke-linecap:round;stroke-linejoin:round;stroke-dasharray:4.9073,6.8702;}
	.st39{fill:none;stroke:#E74C3C;stroke-width:1.5;stroke-linecap:round;stroke-linejoin:round;stroke-miterlimit:10;}
	.st40{fill:none;stroke:#E74C3C;stroke-width:2.75;stroke-linecap:round;stroke-linejoin:round;stroke-miterlimit:10;}
	.st41{fill:none;stroke:#E74C3C;stroke-width:3.5;stroke-linecap:round;stroke-linejoin:round;stroke-miterlimit:10;}
	.st42{fill:none;stroke:#E74C3C;stroke-width:3;stroke-linecap:round;stroke-linejoin:round;stroke-miterlimit:10;}
</style>
<g id="FILL-BACKGROUND">
	<rect x="0" class="st0" width="1000" height="475"/>
</g>
<g id="N-DIMENSIONS">
	<g>
		<g>
			<g id="POLYLINE_371_">
				<polyline class="st1" points="64.54,421.07 58.81,426.79 64.54,432.52 				"/>
			</g>
			<g id="POLYLINE_370_">
				<line class="st1" x1="58.81" y1="426.79" x2="453" y2="426.79"/>
			</g>
			<g id="POLYLINE_369_">
				<line class="st1" x1="642.33" y1="426.79" x2="852.19" y2="426.79"/>
			</g>
			<g id="POLYLINE_368_">
				<polyline class="st1" points="846.45,421.08 852.18,426.8 846.45,432.53 				"/>
			</g>
			<g id="MTEXT_43_">
				<g>
					<path class="st2" d="M461.51,433.94c-0.09-0.09-0.13-0.2-0.13-0.33v-0.6c0-0.31,0.17-0.6,0.5-0.88l4.36-4.34
						c0.99-0.84,1.67-1.53,2.04-2.06s0.56-1.1,0.56-1.7c0-0.79-0.22-1.4-0.66-1.85c-0.44-0.45-1.08-0.67-1.92-0.67
						c-0.8,0-1.43,0.23-1.9,0.7c-0.47,0.47-0.75,1.09-0.86,1.88c-0.03,0.15-0.09,0.26-0.2,0.34c-0.11,0.08-0.21,0.12-0.32,0.12
						h-0.96c-0.12,0-0.22-0.04-0.3-0.12s-0.12-0.17-0.12-0.28c0.03-0.71,0.22-1.39,0.57-2.05s0.88-1.2,1.57-1.62
						s1.53-0.63,2.52-0.63c1.49,0,2.62,0.39,3.37,1.17c0.75,0.78,1.13,1.77,1.13,2.97c0,0.84-0.2,1.6-0.61,2.27
						c-0.41,0.67-1.04,1.38-1.91,2.13l-3.94,4h6.3c0.15,0,0.26,0.04,0.34,0.12c0.08,0.08,0.12,0.19,0.12,0.34v0.76
						c0,0.13-0.04,0.24-0.13,0.33s-0.2,0.13-0.33,0.13h-8.76C461.71,434.07,461.6,434.03,461.51,433.94z"/>
					<path class="st2" d="M474.79,433.94c-0.07-0.09-0.11-0.19-0.11-0.31l0.04-0.18l5-11.7h-6.6c-0.13,0-0.24-0.04-0.33-0.13
						c-0.09-0.09-0.13-0.2-0.13-0.33v-0.74c0-0.15,0.04-0.26,0.12-0.35s0.19-0.13,0.34-0.13h8.16c0.15,0,0.26,0.04,0.34,0.13
						s0.12,0.2,0.12,0.35v0.68c0,0.24-0.05,0.5-0.16,0.78l-4.94,11.56c-0.07,0.15-0.14,0.27-0.22,0.36
						c-0.08,0.09-0.19,0.14-0.34,0.14h-1C474.96,434.07,474.86,434.03,474.79,433.94z"/>
					<path class="st2" d="M483.49,423.55c-0.06-0.08-0.08-0.18-0.05-0.3l0.44-2.8c0.05-0.39,0.24-0.58,0.56-0.58h1.28
						c0.09,0,0.17,0.03,0.23,0.1c0.06,0.07,0.09,0.15,0.09,0.24c0,0.13-0.02,0.24-0.06,0.32l-1.04,2.7
						c-0.07,0.15-0.14,0.26-0.22,0.33c-0.08,0.07-0.2,0.11-0.36,0.11h-0.62C483.63,423.67,483.55,423.63,483.49,423.55z
						 M486.63,423.55c-0.06-0.08-0.08-0.18-0.05-0.3l0.44-2.8c0.05-0.39,0.24-0.58,0.56-0.58h1.28c0.09,0,0.17,0.03,0.23,0.1
						c0.06,0.07,0.09,0.15,0.09,0.24c0,0.13-0.02,0.24-0.06,0.32l-1.04,2.7c-0.07,0.15-0.14,0.26-0.22,0.33s-0.2,0.11-0.36,0.11
						h-0.62C486.77,423.67,486.69,423.63,486.63,423.55z"/>
					<path class="st2" d="M496.5,438.1c-0.08-0.09-0.12-0.2-0.12-0.33v-21.16c0-0.13,0.04-0.24,0.12-0.33s0.19-0.13,0.32-0.13h0.74
						c0.13,0,0.24,0.04,0.33,0.13c0.09,0.09,0.13,0.2,0.13,0.33v21.16c0,0.13-0.04,0.24-0.13,0.33c-0.09,0.09-0.2,0.13-0.33,0.13
						h-0.74C496.69,438.23,496.58,438.19,496.5,438.1z"/>
					<path class="st2" d="M507.79,433.62c-0.78-0.43-1.38-1.02-1.78-1.75s-0.61-1.53-0.61-2.4c0-1.15,0.46-2.37,1.38-3.68l3.82-5.32
						c0.01-0.01,0.05-0.06,0.11-0.14c0.06-0.08,0.14-0.14,0.23-0.19c0.09-0.05,0.2-0.07,0.32-0.07h0.98c0.12,0,0.22,0.04,0.29,0.13
						c0.07,0.09,0.11,0.19,0.11,0.31c0,0.07-0.03,0.15-0.1,0.26l-2.92,4.08c0.35-0.08,0.73-0.12,1.16-0.12
						c0.97,0,1.83,0.22,2.57,0.65c0.74,0.43,1.31,1.01,1.72,1.72c0.41,0.71,0.61,1.5,0.61,2.35c0,0.85-0.2,1.65-0.61,2.39
						c-0.41,0.74-1,1.33-1.77,1.77s-1.69,0.66-2.74,0.66C509.49,434.27,508.57,434.05,507.79,433.62z M512.16,432.25
						c0.49-0.24,0.89-0.6,1.18-1.07c0.29-0.47,0.44-1.04,0.44-1.71c0-0.65-0.15-1.22-0.45-1.69c-0.3-0.47-0.7-0.83-1.19-1.08
						c-0.49-0.25-1.03-0.37-1.6-0.37c-0.57,0-1.11,0.12-1.6,0.37c-0.49,0.25-0.89,0.61-1.18,1.08c-0.29,0.47-0.44,1.04-0.44,1.69
						c0,0.67,0.15,1.24,0.44,1.71c0.29,0.47,0.69,0.83,1.18,1.07c0.49,0.24,1.03,0.36,1.6,0.36
						C511.12,432.61,511.66,432.49,512.16,432.25z"/>
					<path class="st2" d="M520.05,433.76c-0.79-0.34-1.41-0.83-1.85-1.47c-0.44-0.64-0.66-1.39-0.66-2.24c0-0.79,0.2-1.48,0.59-2.07
						c0.39-0.59,0.92-1.05,1.59-1.37c-0.53-0.31-0.95-0.71-1.24-1.21s-0.44-1.09-0.44-1.77c0-1.16,0.43-2.08,1.3-2.75
						c0.87-0.67,2.01-1.01,3.42-1.01c1.41,0,2.55,0.33,3.41,1c0.86,0.67,1.29,1.59,1.29,2.76c0,0.67-0.15,1.25-0.44,1.75
						c-0.29,0.5-0.7,0.91-1.22,1.23c0.67,0.32,1.2,0.78,1.59,1.37c0.39,0.59,0.59,1.29,0.59,2.09c0,0.85-0.22,1.6-0.66,2.23
						c-0.44,0.63-1.06,1.12-1.85,1.46c-0.79,0.34-1.7,0.51-2.71,0.51S520.84,434.1,520.05,433.76z M525.13,431.99
						c0.63-0.48,0.95-1.12,0.95-1.92s-0.32-1.44-0.95-1.92c-0.63-0.48-1.42-0.72-2.37-0.72c-0.96,0-1.76,0.24-2.39,0.72
						c-0.63,0.48-0.95,1.12-0.95,1.92s0.32,1.44,0.95,1.92c0.63,0.48,1.43,0.72,2.39,0.72
						C523.71,432.71,524.49,432.47,525.13,431.99z M524.82,425.27c0.56-0.4,0.84-0.93,0.84-1.6c0-0.68-0.28-1.22-0.83-1.63
						c-0.55-0.41-1.24-0.61-2.07-0.61c-0.84,0-1.53,0.2-2.08,0.61c-0.55,0.41-0.82,0.95-0.82,1.63c0,0.68,0.27,1.22,0.82,1.63
						c0.55,0.41,1.24,0.61,2.08,0.61C523.57,425.88,524.26,425.67,524.82,425.27z"/>
					<path class="st2" d="M530.39,433.94c-0.09-0.09-0.13-0.2-0.13-0.33v-1.38c0-0.13,0.04-0.25,0.13-0.34
						c0.09-0.09,0.2-0.14,0.33-0.14h1.38c0.13,0,0.24,0.05,0.33,0.14c0.09,0.09,0.13,0.21,0.13,0.34v1.38
						c0,0.13-0.04,0.24-0.13,0.33c-0.09,0.09-0.2,0.13-0.33,0.13h-1.38C530.59,434.07,530.47,434.03,530.39,433.94z"/>
					<path class="st2" d="M537.03,433.62c-0.78-0.43-1.38-1.02-1.78-1.75s-0.61-1.53-0.61-2.4c0-1.15,0.46-2.37,1.38-3.68l3.82-5.32
						c0.01-0.01,0.05-0.06,0.11-0.14c0.06-0.08,0.14-0.14,0.23-0.19c0.09-0.05,0.2-0.07,0.32-0.07h0.98c0.12,0,0.22,0.04,0.29,0.13
						c0.07,0.09,0.11,0.19,0.11,0.31c0,0.07-0.03,0.15-0.1,0.26l-2.92,4.08c0.35-0.08,0.73-0.12,1.16-0.12
						c0.97,0,1.83,0.22,2.57,0.65c0.74,0.43,1.31,1.01,1.72,1.72c0.41,0.71,0.61,1.5,0.61,2.35c0,0.85-0.2,1.65-0.61,2.39
						c-0.41,0.74-1,1.33-1.77,1.77s-1.69,0.66-2.74,0.66C538.73,434.27,537.81,434.05,537.03,433.62z M541.4,432.25
						c0.49-0.24,0.89-0.6,1.18-1.07c0.29-0.47,0.44-1.04,0.44-1.71c0-0.65-0.15-1.22-0.45-1.69c-0.3-0.47-0.7-0.83-1.19-1.08
						c-0.49-0.25-1.03-0.37-1.6-0.37c-0.57,0-1.11,0.12-1.6,0.37c-0.49,0.25-0.89,0.61-1.18,1.08c-0.29,0.47-0.44,1.04-0.44,1.69
						c0,0.67,0.15,1.24,0.44,1.71c0.29,0.47,0.69,0.83,1.18,1.07c0.49,0.24,1.03,0.36,1.6,0.36
						C540.37,432.61,540.9,432.49,541.4,432.25z"/>
					<path class="st2" d="M552.9,433.06c-0.8-0.81-1.22-1.94-1.26-3.39l-0.02-0.8l0.02-0.8c0.04-1.45,0.46-2.58,1.26-3.39
						s1.91-1.21,3.34-1.21c0.96,0,1.77,0.17,2.43,0.51s1.15,0.76,1.48,1.27c0.33,0.51,0.5,1.01,0.53,1.52
						c0.01,0.12-0.03,0.23-0.13,0.32c-0.1,0.09-0.21,0.14-0.33,0.14h-0.88c-0.13,0-0.23-0.03-0.3-0.09
						c-0.07-0.06-0.13-0.17-0.2-0.33c-0.24-0.65-0.57-1.12-0.99-1.39c-0.42-0.27-0.95-0.41-1.59-0.41c-0.84,0-1.51,0.26-2,0.78
						c-0.49,0.52-0.76,1.31-0.8,2.38l-0.02,0.7l0.02,0.7c0.04,1.07,0.31,1.86,0.8,2.38c0.49,0.52,1.16,0.78,2,0.78
						c0.65,0,1.19-0.14,1.6-0.41c0.41-0.27,0.74-0.74,0.98-1.39c0.07-0.16,0.13-0.27,0.2-0.33c0.07-0.06,0.17-0.09,0.3-0.09h0.88
						c0.12,0,0.23,0.05,0.33,0.14c0.1,0.09,0.14,0.2,0.13,0.32c-0.03,0.49-0.2,0.99-0.53,1.5s-0.82,0.93-1.48,1.28
						s-1.47,0.52-2.43,0.52C554.81,434.27,553.7,433.87,552.9,433.06z"/>
					<path class="st2" d="M563.21,433.94c-0.09-0.09-0.13-0.2-0.13-0.33v-9.48c0-0.13,0.04-0.24,0.13-0.33
						c0.09-0.09,0.2-0.13,0.33-0.13h0.84c0.13,0,0.24,0.04,0.32,0.13c0.08,0.09,0.12,0.2,0.12,0.33v0.68
						c0.72-0.89,1.69-1.34,2.92-1.34c1.47,0,2.51,0.61,3.12,1.84c0.32-0.56,0.78-1.01,1.37-1.34c0.59-0.33,1.26-0.5,1.99-0.5
						c1.09,0,1.99,0.37,2.68,1.12c0.69,0.75,1.04,1.83,1.04,3.24v5.78c0,0.13-0.04,0.24-0.13,0.33c-0.09,0.09-0.2,0.13-0.33,0.13
						h-0.86c-0.13,0-0.24-0.04-0.33-0.13c-0.09-0.09-0.13-0.2-0.13-0.33v-5.6c0-1.07-0.22-1.83-0.66-2.29s-1.02-0.69-1.74-0.69
						c-0.64,0-1.19,0.24-1.65,0.71c-0.46,0.47-0.69,1.23-0.69,2.27v5.6c0,0.13-0.04,0.24-0.13,0.33c-0.09,0.09-0.2,0.13-0.33,0.13
						h-0.88c-0.13,0-0.24-0.04-0.33-0.13c-0.09-0.09-0.13-0.2-0.13-0.33v-5.6c0-1.05-0.23-1.81-0.69-2.28
						c-0.46-0.47-1.03-0.7-1.71-0.7c-0.64,0-1.19,0.23-1.65,0.7c-0.46,0.47-0.69,1.22-0.69,2.26v5.62c0,0.13-0.04,0.24-0.13,0.33
						c-0.09,0.09-0.2,0.13-0.33,0.13h-0.88C563.4,434.07,563.29,434.03,563.21,433.94z"/>
					<path class="st2" d="M587.31,436.28c-0.67-0.65-1.16-1.65-1.45-3.01c-0.29-1.36-0.44-3.15-0.44-5.38s0.15-4.02,0.44-5.37
						s0.78-2.35,1.45-3c0.67-0.65,1.58-0.97,2.73-0.97c0.13,0,0.24,0.04,0.33,0.13s0.13,0.2,0.13,0.33v0.66
						c0,0.12-0.04,0.22-0.12,0.31s-0.17,0.13-0.28,0.13c-0.76,0.01-1.35,0.27-1.78,0.77c-0.43,0.5-0.73,1.31-0.92,2.42
						c-0.19,1.11-0.28,2.64-0.28,4.59c0,1.96,0.09,3.5,0.28,4.61c0.19,1.11,0.49,1.92,0.92,2.42c0.43,0.5,1.02,0.76,1.78,0.77
						c0.11,0,0.2,0.04,0.28,0.13s0.12,0.19,0.12,0.31v0.66c0,0.13-0.04,0.24-0.13,0.33s-0.2,0.13-0.33,0.13
						C588.89,437.25,587.98,436.93,587.31,436.28z"/>
					<path class="st2" d="M592.69,433.94c-0.09-0.09-0.13-0.2-0.13-0.33v-13.06c0-0.15,0.04-0.26,0.12-0.35s0.19-0.13,0.34-0.13
						h0.94c0.24,0,0.41,0.1,0.5,0.3l4.26,8.18l4.3-8.18c0.11-0.2,0.27-0.3,0.48-0.3h0.94c0.15,0,0.26,0.04,0.34,0.13
						s0.12,0.2,0.12,0.35v13.06c0,0.13-0.04,0.24-0.13,0.33c-0.09,0.09-0.2,0.13-0.33,0.13h-0.92c-0.13,0-0.24-0.04-0.32-0.13
						s-0.12-0.2-0.12-0.33v-9.94l-3.42,6.62c-0.13,0.28-0.35,0.42-0.64,0.42h-0.6c-0.28,0-0.49-0.14-0.64-0.42l-3.4-6.62v9.94
						c0,0.13-0.04,0.24-0.13,0.33c-0.09,0.09-0.2,0.13-0.33,0.13h-0.9C592.88,434.07,592.77,434.03,592.69,433.94z"/>
					<path class="st2" d="M609.23,433.87c-0.55-0.27-0.99-0.63-1.32-1.09c-0.33-0.46-0.49-0.97-0.49-1.53c0-0.88,0.36-1.6,1.08-2.16
						c0.72-0.56,1.7-0.93,2.94-1.12l3-0.42v-0.58c0-1.37-0.79-2.06-2.38-2.06c-0.62,0-1.11,0.12-1.48,0.37
						c-0.37,0.25-0.65,0.54-0.82,0.87c-0.05,0.13-0.11,0.22-0.17,0.27c-0.06,0.05-0.14,0.07-0.25,0.07h-0.78
						c-0.12,0-0.22-0.04-0.31-0.13c-0.09-0.09-0.13-0.19-0.13-0.31c0-0.31,0.14-0.66,0.43-1.07c0.29-0.41,0.73-0.76,1.33-1.06
						c0.6-0.3,1.33-0.45,2.2-0.45c1.49,0,2.56,0.35,3.21,1.04s0.97,1.56,0.97,2.6v6.5c0,0.13-0.04,0.24-0.13,0.33
						c-0.09,0.09-0.2,0.13-0.33,0.13h-0.88c-0.13,0-0.24-0.04-0.32-0.13s-0.12-0.2-0.12-0.33v-0.88c-0.29,0.44-0.72,0.81-1.28,1.1
						c-0.56,0.29-1.28,0.44-2.16,0.44C610.38,434.27,609.78,434.14,609.23,433.87z M613.6,431.95c0.56-0.57,0.84-1.41,0.84-2.5
						v-0.56l-2.34,0.34c-0.96,0.13-1.69,0.36-2.18,0.68c-0.49,0.32-0.74,0.72-0.74,1.2c0,0.55,0.22,0.97,0.67,1.26
						c0.45,0.29,0.98,0.44,1.59,0.44C612.32,432.81,613.04,432.52,613.6,431.95z"/>
					<path class="st2" d="M618.38,433.95c-0.08-0.08-0.12-0.18-0.12-0.3s0.05-0.25,0.14-0.38l3.48-4.52l-3.26-4.3
						c-0.11-0.15-0.16-0.27-0.16-0.36c0-0.12,0.04-0.22,0.13-0.3c0.09-0.08,0.18-0.12,0.29-0.12h0.96c0.2,0,0.37,0.11,0.52,0.32
						l2.7,3.5l2.7-3.5c0.08-0.11,0.16-0.19,0.23-0.24c0.07-0.05,0.17-0.08,0.29-0.08h0.92c0.11,0,0.2,0.04,0.28,0.12
						s0.12,0.17,0.12,0.28c0,0.13-0.05,0.26-0.14,0.38l-3.3,4.34l3.48,4.48c0.09,0.13,0.14,0.26,0.14,0.38s-0.04,0.22-0.12,0.3
						s-0.18,0.12-0.3,0.12h-0.98c-0.2,0-0.37-0.1-0.52-0.3l-2.86-3.7l-2.86,3.7c-0.08,0.09-0.16,0.17-0.23,0.22
						c-0.07,0.05-0.17,0.08-0.29,0.08h-0.94C618.56,434.07,618.46,434.03,618.38,433.95z"/>
					<path class="st2" d="M628.47,437.12c-0.09-0.09-0.13-0.2-0.13-0.33v-0.66c0-0.12,0.04-0.22,0.12-0.31s0.17-0.13,0.28-0.13
						c0.75-0.01,1.34-0.27,1.77-0.77s0.74-1.31,0.93-2.43c0.19-1.12,0.28-2.65,0.28-4.6c0-1.95-0.09-3.48-0.28-4.59
						c-0.19-1.11-0.5-1.92-0.93-2.42s-1.02-0.76-1.77-0.77c-0.11,0-0.2-0.04-0.28-0.13s-0.12-0.19-0.12-0.31v-0.66
						c0-0.13,0.04-0.24,0.13-0.33c0.09-0.09,0.19-0.13,0.31-0.13c1.15,0,2.06,0.32,2.73,0.97c0.67,0.65,1.16,1.65,1.45,3
						s0.44,3.14,0.44,5.37s-0.15,4.02-0.44,5.38c-0.29,1.36-0.78,2.36-1.45,3.01c-0.67,0.65-1.58,0.97-2.73,0.97
						C628.66,437.25,628.55,437.21,628.47,437.12z"/>
				</g>
			</g>
		</g>
		<g>
			<g id="POLYLINE_367_">
				<polyline class="st1" points="64.54,232.07 58.81,237.79 64.54,243.52 				"/>
			</g>
			<g id="POLYLINE_366_">
				<line class="st1" x1="58.81" y1="237.79" x2="118" y2="237.79"/>
			</g>
			<g id="POLYLINE_362_">
				<line class="st1" x1="204" y1="237.79" x2="264.19" y2="237.79"/>
			</g>
			<g id="POLYLINE_361_">
				<polyline class="st1" points="258.45,232.08 264.18,237.8 258.45,243.53 				"/>
			</g>
			<g id="MTEXT_42_">
				<g>
					<path class="st2" d="M132.3,244.94c-0.07-0.09-0.11-0.19-0.11-0.31l0.04-0.18l5-11.7h-6.6c-0.13,0-0.24-0.04-0.33-0.13
						c-0.09-0.09-0.13-0.2-0.13-0.33v-0.74c0-0.15,0.04-0.26,0.12-0.35s0.19-0.13,0.34-0.13h8.16c0.15,0,0.26,0.04,0.34,0.13
						s0.12,0.2,0.12,0.35v0.68c0,0.24-0.05,0.5-0.16,0.78l-4.94,11.56c-0.07,0.15-0.14,0.27-0.22,0.36
						c-0.08,0.09-0.19,0.14-0.34,0.14h-1C132.47,245.07,132.37,245.03,132.3,244.94z"/>
					<path class="st2" d="M141,234.55c-0.06-0.08-0.08-0.18-0.05-0.3l0.44-2.8c0.05-0.39,0.24-0.58,0.56-0.58h1.28
						c0.09,0,0.17,0.03,0.23,0.1c0.06,0.07,0.09,0.15,0.09,0.24c0,0.13-0.02,0.24-0.06,0.32l-1.04,2.7
						c-0.07,0.15-0.14,0.26-0.22,0.33c-0.08,0.07-0.2,0.11-0.36,0.11h-0.62C141.14,234.67,141.06,234.63,141,234.55z M144.14,234.55
						c-0.06-0.08-0.08-0.18-0.05-0.3l0.44-2.8c0.05-0.39,0.24-0.58,0.56-0.58h1.28c0.09,0,0.17,0.03,0.23,0.1
						c0.06,0.07,0.09,0.15,0.09,0.24c0,0.13-0.02,0.24-0.06,0.32l-1.04,2.7c-0.07,0.15-0.14,0.26-0.22,0.33s-0.2,0.11-0.36,0.11
						h-0.62C144.28,234.67,144.2,234.63,144.14,234.55z"/>
					<path class="st2" d="M147.44,239.75c-0.09-0.08-0.13-0.19-0.13-0.32v-0.72c0-0.13,0.04-0.24,0.13-0.33
						c0.09-0.09,0.2-0.13,0.33-0.13h6c0.13,0,0.24,0.04,0.33,0.13c0.09,0.09,0.13,0.2,0.13,0.33v0.72c0,0.13-0.04,0.24-0.13,0.32
						s-0.2,0.12-0.33,0.12h-6C147.63,239.87,147.52,239.83,147.44,239.75z"/>
					<path class="st2" d="M157.16,244.94c-0.07-0.09-0.11-0.19-0.11-0.31l0.04-0.18l5-11.7h-6.6c-0.13,0-0.24-0.04-0.33-0.13
						c-0.09-0.09-0.13-0.2-0.13-0.33v-0.74c0-0.15,0.04-0.26,0.12-0.35s0.19-0.13,0.34-0.13h8.16c0.15,0,0.26,0.04,0.34,0.13
						s0.12,0.2,0.12,0.35v0.68c0,0.24-0.05,0.5-0.16,0.78l-4.94,11.56c-0.07,0.15-0.14,0.27-0.22,0.36
						c-0.08,0.09-0.19,0.14-0.34,0.14h-1C157.33,245.07,157.23,245.03,157.16,244.94z"/>
					<path class="st2" d="M164.82,244.94c-0.09-0.09-0.13-0.2-0.13-0.33v-1.38c0-0.13,0.04-0.25,0.13-0.34
						c0.09-0.09,0.2-0.14,0.33-0.14h1.38c0.13,0,0.24,0.05,0.33,0.14c0.09,0.09,0.13,0.21,0.13,0.34v1.38
						c0,0.13-0.04,0.24-0.13,0.33c-0.09,0.09-0.2,0.13-0.33,0.13h-1.38C165.01,245.07,164.9,245.03,164.82,244.94z"/>
					<path class="st2" d="M169.44,244.94c-0.09-0.09-0.13-0.2-0.13-0.33v-0.6c0-0.31,0.17-0.6,0.5-0.88l4.36-4.34
						c0.99-0.84,1.67-1.53,2.04-2.06s0.56-1.1,0.56-1.7c0-0.79-0.22-1.4-0.66-1.85c-0.44-0.45-1.08-0.67-1.92-0.67
						c-0.8,0-1.43,0.23-1.9,0.7c-0.47,0.47-0.75,1.09-0.86,1.88c-0.03,0.15-0.09,0.26-0.2,0.34c-0.11,0.08-0.21,0.12-0.32,0.12
						h-0.96c-0.12,0-0.22-0.04-0.3-0.12s-0.12-0.17-0.12-0.28c0.03-0.71,0.22-1.39,0.57-2.05c0.35-0.66,0.88-1.2,1.57-1.62
						s1.53-0.63,2.52-0.63c1.49,0,2.62,0.39,3.37,1.17c0.75,0.78,1.13,1.77,1.13,2.97c0,0.84-0.2,1.6-0.61,2.27
						c-0.41,0.67-1.04,1.38-1.91,2.13l-3.94,4h6.3c0.15,0,0.26,0.04,0.34,0.12c0.08,0.08,0.12,0.19,0.12,0.34v0.76
						c0,0.13-0.04,0.24-0.13,0.33c-0.09,0.09-0.2,0.13-0.33,0.13h-8.76C169.63,245.07,169.52,245.03,169.44,244.94z"/>
					<path class="st2" d="M183.23,244.73c-0.73-0.36-1.29-0.83-1.68-1.41s-0.59-1.2-0.62-1.87v-0.04c0-0.11,0.04-0.19,0.12-0.26
						s0.17-0.1,0.28-0.1h0.98c0.28,0,0.46,0.15,0.54,0.44c0.2,0.72,0.57,1.26,1.11,1.61s1.16,0.53,1.87,0.53
						c0.91,0,1.66-0.28,2.26-0.83c0.6-0.55,0.9-1.32,0.9-2.29c0-0.89-0.3-1.6-0.9-2.13c-0.6-0.53-1.35-0.79-2.26-0.79
						c-0.48,0-0.87,0.06-1.16,0.18c-0.29,0.12-0.59,0.29-0.9,0.52c-0.17,0.13-0.32,0.23-0.43,0.29c-0.11,0.06-0.24,0.09-0.37,0.09
						h-0.96c-0.12,0-0.23-0.04-0.32-0.13c-0.09-0.09-0.13-0.19-0.12-0.31l0.62-6.66c0.04-0.33,0.21-0.5,0.5-0.5h6.92
						c0.15,0,0.26,0.04,0.34,0.12c0.08,0.08,0.12,0.19,0.12,0.34v0.74c0,0.13-0.04,0.24-0.13,0.32c-0.09,0.08-0.2,0.12-0.33,0.12
						h-5.76l-0.36,4.02c0.64-0.45,1.5-0.68,2.58-0.68c0.89,0,1.71,0.18,2.44,0.53c0.73,0.35,1.32,0.87,1.75,1.55
						c0.43,0.68,0.65,1.49,0.65,2.42c0,0.99-0.22,1.84-0.65,2.55c-0.43,0.71-1.03,1.25-1.8,1.62c-0.77,0.37-1.64,0.55-2.63,0.55
						C184.83,245.27,183.96,245.09,183.23,244.73z"/>
					<path class="st2" d="M193.06,234.55c-0.06-0.08-0.08-0.18-0.05-0.3l0.44-2.8c0.05-0.39,0.24-0.58,0.56-0.58h1.28
						c0.09,0,0.17,0.03,0.23,0.1c0.06,0.07,0.09,0.15,0.09,0.24c0,0.13-0.02,0.24-0.06,0.32l-1.04,2.7
						c-0.07,0.15-0.14,0.26-0.22,0.33c-0.08,0.07-0.2,0.11-0.36,0.11h-0.62C193.2,234.67,193.12,234.63,193.06,234.55z
						 M196.2,234.55c-0.06-0.08-0.08-0.18-0.05-0.3l0.44-2.8c0.05-0.39,0.24-0.58,0.56-0.58h1.28c0.09,0,0.17,0.03,0.23,0.1
						c0.06,0.07,0.09,0.15,0.09,0.24c0,0.13-0.02,0.24-0.06,0.32l-1.04,2.7c-0.07,0.15-0.14,0.26-0.22,0.33s-0.2,0.11-0.36,0.11
						h-0.62C196.34,234.67,196.26,234.63,196.2,234.55z"/>
					<path class="st2" d="M97.59,266.94c-0.08-0.09-0.12-0.2-0.12-0.33v-11.28l-3.36,2.58c-0.09,0.08-0.19,0.12-0.3,0.12
						c-0.12,0-0.23-0.07-0.34-0.2l-0.48-0.62c-0.07-0.09-0.1-0.19-0.1-0.28c0-0.15,0.07-0.27,0.2-0.36l4.34-3.36
						c0.15-0.09,0.32-0.14,0.52-0.14h0.94c0.13,0,0.24,0.04,0.33,0.13s0.13,0.2,0.13,0.33v13.08c0,0.13-0.04,0.24-0.13,0.33
						s-0.2,0.13-0.33,0.13h-0.98C97.77,267.07,97.67,267.03,97.59,266.94z"/>
					<path class="st2" d="M103.6,266.94c-0.07-0.09-0.11-0.19-0.11-0.31l0.04-0.18l5-11.7h-6.6c-0.13,0-0.24-0.04-0.33-0.13
						c-0.09-0.09-0.13-0.2-0.13-0.33v-0.74c0-0.15,0.04-0.26,0.12-0.35s0.19-0.13,0.34-0.13h8.16c0.15,0,0.26,0.04,0.34,0.13
						s0.12,0.2,0.12,0.35v0.68c0,0.24-0.05,0.5-0.16,0.78l-4.94,11.56c-0.07,0.15-0.14,0.27-0.22,0.36
						c-0.08,0.09-0.19,0.14-0.34,0.14h-1C103.77,267.07,103.67,267.03,103.6,266.94z"/>
					<path class="st2" d="M113.8,266.94c-0.07-0.09-0.11-0.19-0.11-0.31l0.04-0.18l5-11.7h-6.6c-0.13,0-0.24-0.04-0.33-0.13
						c-0.09-0.09-0.13-0.2-0.13-0.33v-0.74c0-0.15,0.04-0.26,0.12-0.35s0.19-0.13,0.34-0.13h8.16c0.15,0,0.26,0.04,0.34,0.13
						s0.12,0.2,0.12,0.35v0.68c0,0.24-0.05,0.5-0.16,0.78l-4.94,11.56c-0.07,0.15-0.14,0.27-0.22,0.36
						c-0.08,0.09-0.19,0.14-0.34,0.14h-1C113.97,267.07,113.87,267.03,113.8,266.94z"/>
					<path class="st2" d="M121.46,266.94c-0.09-0.09-0.13-0.2-0.13-0.33v-1.38c0-0.13,0.04-0.25,0.13-0.34
						c0.09-0.09,0.2-0.14,0.33-0.14h1.38c0.13,0,0.24,0.05,0.33,0.14c0.09,0.09,0.13,0.21,0.13,0.34v1.38
						c0,0.13-0.04,0.24-0.13,0.33c-0.09,0.09-0.2,0.13-0.33,0.13h-1.38C121.65,267.07,121.54,267.03,121.46,266.94z"/>
					<path class="st2" d="M128.4,266.76c-0.79-0.34-1.41-0.83-1.85-1.47c-0.44-0.64-0.66-1.39-0.66-2.24c0-0.79,0.2-1.48,0.59-2.07
						s0.92-1.05,1.59-1.37c-0.53-0.31-0.95-0.71-1.24-1.21c-0.29-0.5-0.44-1.09-0.44-1.77c0-1.16,0.43-2.08,1.3-2.75
						c0.87-0.67,2.01-1.01,3.42-1.01s2.55,0.33,3.41,1c0.86,0.67,1.29,1.59,1.29,2.76c0,0.67-0.15,1.25-0.44,1.75
						c-0.29,0.5-0.7,0.91-1.22,1.23c0.67,0.32,1.2,0.78,1.59,1.37s0.59,1.29,0.59,2.09c0,0.85-0.22,1.6-0.66,2.23
						c-0.44,0.63-1.06,1.12-1.85,1.46c-0.79,0.34-1.7,0.51-2.71,0.51S129.19,267.1,128.4,266.76z M133.48,264.99
						c0.63-0.48,0.95-1.12,0.95-1.92s-0.32-1.44-0.95-1.92c-0.63-0.48-1.42-0.72-2.37-0.72c-0.96,0-1.76,0.24-2.39,0.72
						c-0.63,0.48-0.95,1.12-0.95,1.92s0.32,1.44,0.95,1.92c0.63,0.48,1.43,0.72,2.39,0.72
						C132.05,265.71,132.84,265.47,133.48,264.99z M133.17,258.27c0.56-0.4,0.84-0.93,0.84-1.6c0-0.68-0.28-1.22-0.83-1.63
						c-0.55-0.41-1.24-0.61-2.07-0.61c-0.84,0-1.53,0.2-2.08,0.61c-0.55,0.41-0.82,0.95-0.82,1.63c0,0.68,0.27,1.22,0.82,1.63
						c0.55,0.41,1.24,0.61,2.08,0.61C131.92,258.88,132.61,258.67,133.17,258.27z"/>
					<path class="st2" d="M138.96,261.75c-0.09-0.08-0.13-0.19-0.13-0.32v-0.72c0-0.13,0.04-0.24,0.13-0.33
						c0.09-0.09,0.2-0.13,0.33-0.13h6c0.13,0,0.24,0.04,0.33,0.13c0.09,0.09,0.13,0.2,0.13,0.33v0.72c0,0.13-0.04,0.24-0.13,0.32
						s-0.2,0.12-0.33,0.12h-6C139.15,261.87,139.04,261.83,138.96,261.75z"/>
					<path class="st2" d="M151.59,266.94c-0.08-0.09-0.12-0.2-0.12-0.33v-11.28l-3.36,2.58c-0.09,0.08-0.19,0.12-0.3,0.12
						c-0.12,0-0.23-0.07-0.34-0.2l-0.48-0.62c-0.07-0.09-0.1-0.19-0.1-0.28c0-0.15,0.07-0.27,0.2-0.36l4.34-3.36
						c0.15-0.09,0.32-0.14,0.52-0.14h0.94c0.13,0,0.24,0.04,0.33,0.13s0.13,0.2,0.13,0.33v13.08c0,0.13-0.04,0.24-0.13,0.33
						s-0.2,0.13-0.33,0.13h-0.98C151.77,267.07,151.67,267.03,151.59,266.94z"/>
					<path class="st2" d="M158.52,266.76c-0.79-0.34-1.41-0.83-1.85-1.47c-0.44-0.64-0.66-1.39-0.66-2.24c0-0.79,0.2-1.48,0.59-2.07
						s0.92-1.05,1.59-1.37c-0.53-0.31-0.95-0.71-1.24-1.21c-0.29-0.5-0.44-1.09-0.44-1.77c0-1.16,0.43-2.08,1.3-2.75
						c0.87-0.67,2.01-1.01,3.42-1.01s2.55,0.33,3.41,1c0.86,0.67,1.29,1.59,1.29,2.76c0,0.67-0.15,1.25-0.44,1.75
						c-0.29,0.5-0.7,0.91-1.22,1.23c0.67,0.32,1.2,0.78,1.59,1.37s0.59,1.29,0.59,2.09c0,0.85-0.22,1.6-0.66,2.23
						c-0.44,0.63-1.06,1.12-1.85,1.46c-0.79,0.34-1.7,0.51-2.71,0.51S159.31,267.1,158.52,266.76z M163.6,264.99
						c0.63-0.48,0.95-1.12,0.95-1.92s-0.32-1.44-0.95-1.92c-0.63-0.48-1.42-0.72-2.37-0.72c-0.96,0-1.76,0.24-2.39,0.72
						c-0.63,0.48-0.95,1.12-0.95,1.92s0.32,1.44,0.95,1.92c0.63,0.48,1.43,0.72,2.39,0.72C162.17,265.71,162.96,265.47,163.6,264.99
						z M163.29,258.27c0.56-0.4,0.84-0.93,0.84-1.6c0-0.68-0.28-1.22-0.83-1.63c-0.55-0.41-1.24-0.61-2.07-0.61
						c-0.84,0-1.53,0.2-2.08,0.61c-0.55,0.41-0.82,0.95-0.82,1.63c0,0.68,0.27,1.22,0.82,1.63c0.55,0.41,1.24,0.61,2.08,0.61
						C162.04,258.88,162.73,258.67,163.29,258.27z"/>
					<path class="st2" d="M175.28,266.94c-0.09-0.09-0.13-0.2-0.13-0.33v-2.92h-6.5c-0.13,0-0.24-0.04-0.33-0.13
						s-0.13-0.2-0.13-0.33v-0.74c0-0.19,0.07-0.39,0.22-0.6l6.02-8.48c0.07-0.11,0.17-0.19,0.3-0.25c0.13-0.06,0.28-0.09,0.44-0.09
						h1.36c0.15,0,0.26,0.04,0.34,0.12s0.12,0.19,0.12,0.34v8.48h1.82c0.13,0,0.24,0.04,0.33,0.13c0.09,0.09,0.13,0.2,0.13,0.33
						v0.76c0,0.13-0.04,0.24-0.13,0.33c-0.09,0.09-0.2,0.13-0.33,0.13h-1.82v2.92c0,0.13-0.04,0.24-0.13,0.33s-0.2,0.13-0.33,0.13
						h-0.92C175.47,267.07,175.36,267.03,175.28,266.94z M170.27,262.05h4.9v-6.96L170.27,262.05z"/>
					<path class="st2" d="M181.1,266.94c-0.09-0.09-0.13-0.2-0.13-0.33v-1.38c0-0.13,0.04-0.25,0.13-0.34
						c0.09-0.09,0.2-0.14,0.33-0.14h1.38c0.13,0,0.24,0.05,0.33,0.14c0.09,0.09,0.13,0.21,0.13,0.34v1.38
						c0,0.13-0.04,0.24-0.13,0.33c-0.09,0.09-0.2,0.13-0.33,0.13h-1.38C181.29,267.07,181.18,267.03,181.1,266.94z"/>
					<path class="st2" d="M185.72,266.94c-0.09-0.09-0.13-0.2-0.13-0.33v-0.6c0-0.31,0.17-0.6,0.5-0.88l4.36-4.34
						c0.99-0.84,1.67-1.53,2.04-2.06s0.56-1.1,0.56-1.7c0-0.79-0.22-1.4-0.66-1.85c-0.44-0.45-1.08-0.67-1.92-0.67
						c-0.8,0-1.43,0.23-1.9,0.7c-0.47,0.47-0.75,1.09-0.86,1.88c-0.03,0.15-0.09,0.26-0.2,0.34c-0.11,0.08-0.21,0.12-0.32,0.12
						h-0.96c-0.12,0-0.22-0.04-0.3-0.12s-0.12-0.17-0.12-0.28c0.03-0.71,0.22-1.39,0.57-2.05c0.35-0.66,0.88-1.2,1.57-1.62
						s1.53-0.63,2.52-0.63c1.49,0,2.62,0.39,3.37,1.17c0.75,0.78,1.13,1.77,1.13,2.97c0,0.84-0.2,1.6-0.61,2.27
						c-0.41,0.67-1.04,1.38-1.91,2.13l-3.94,4h6.3c0.15,0,0.26,0.04,0.34,0.12c0.08,0.08,0.12,0.19,0.12,0.34v0.76
						c0,0.13-0.04,0.24-0.13,0.33c-0.09,0.09-0.2,0.13-0.33,0.13h-8.76C185.91,267.07,185.8,267.03,185.72,266.94z"/>
					<path class="st2" d="M202.84,266.94c-0.09-0.09-0.13-0.2-0.13-0.33v-9.48c0-0.13,0.04-0.24,0.13-0.33
						c0.09-0.09,0.2-0.13,0.33-0.13h0.84c0.13,0,0.24,0.04,0.32,0.13c0.08,0.09,0.12,0.2,0.12,0.33v0.68
						c0.72-0.89,1.69-1.34,2.92-1.34c1.47,0,2.51,0.61,3.12,1.84c0.32-0.56,0.78-1.01,1.37-1.34c0.59-0.33,1.26-0.5,1.99-0.5
						c1.09,0,1.99,0.37,2.68,1.12c0.69,0.75,1.04,1.83,1.04,3.24v5.78c0,0.13-0.04,0.24-0.13,0.33c-0.09,0.09-0.2,0.13-0.33,0.13
						h-0.86c-0.13,0-0.24-0.04-0.33-0.13s-0.13-0.2-0.13-0.33v-5.6c0-1.07-0.22-1.83-0.66-2.29c-0.44-0.46-1.02-0.69-1.74-0.69
						c-0.64,0-1.19,0.24-1.65,0.71c-0.46,0.47-0.69,1.23-0.69,2.27v5.6c0,0.13-0.04,0.24-0.13,0.33s-0.2,0.13-0.33,0.13h-0.88
						c-0.13,0-0.24-0.04-0.33-0.13s-0.13-0.2-0.13-0.33v-5.6c0-1.05-0.23-1.81-0.69-2.28s-1.03-0.7-1.71-0.7
						c-0.64,0-1.19,0.23-1.65,0.7s-0.69,1.22-0.69,2.26v5.62c0,0.13-0.04,0.24-0.13,0.33s-0.2,0.13-0.33,0.13h-0.88
						C203.03,267.07,202.92,267.03,202.84,266.94z"/>
					<path class="st2" d="M220.6,266.94c-0.09-0.09-0.13-0.2-0.13-0.33v-9.48c0-0.13,0.04-0.24,0.13-0.33
						c0.09-0.09,0.2-0.13,0.33-0.13h0.84c0.13,0,0.24,0.04,0.32,0.13c0.08,0.09,0.12,0.2,0.12,0.33v0.68
						c0.72-0.89,1.69-1.34,2.92-1.34c1.47,0,2.51,0.61,3.12,1.84c0.32-0.56,0.78-1.01,1.37-1.34c0.59-0.33,1.26-0.5,1.99-0.5
						c1.09,0,1.99,0.37,2.68,1.12c0.69,0.75,1.04,1.83,1.04,3.24v5.78c0,0.13-0.04,0.24-0.13,0.33c-0.09,0.09-0.2,0.13-0.33,0.13
						h-0.86c-0.13,0-0.24-0.04-0.33-0.13s-0.13-0.2-0.13-0.33v-5.6c0-1.07-0.22-1.83-0.66-2.29c-0.44-0.46-1.02-0.69-1.74-0.69
						c-0.64,0-1.19,0.24-1.65,0.71c-0.46,0.47-0.69,1.23-0.69,2.27v5.6c0,0.13-0.04,0.24-0.13,0.33s-0.2,0.13-0.33,0.13h-0.88
						c-0.13,0-0.24-0.04-0.33-0.13s-0.13-0.2-0.13-0.33v-5.6c0-1.05-0.23-1.81-0.69-2.28s-1.03-0.7-1.71-0.7
						c-0.64,0-1.19,0.23-1.65,0.7s-0.69,1.22-0.69,2.26v5.62c0,0.13-0.04,0.24-0.13,0.33s-0.2,0.13-0.33,0.13h-0.88
						C220.79,267.07,220.68,267.03,220.6,266.94z"/>
				</g>
			</g>
		</g>
		<g>
			<g id="POLYLINE_360_">
				<polyline class="st1" points="873.48,68.05 867.76,62.33 862.03,68.05 				"/>
			</g>
			<g id="POLYLINE_359_">
				<line class="st1" x1="867.76" y1="62.33" x2="867.76" y2="77.97"/>
			</g>
			<g id="POLYLINE_358_">
				<line class="st1" x1="867.76" y1="78.31" x2="867.76" y2="313.93"/>
			</g>
			<g id="POLYLINE_5_">
				<polyline class="st1" points="873.47,308.19 867.75,313.92 862.02,308.19 				"/>
			</g>
			<g id="MTEXT_41_" class="st3">
				<g>
					<path class="st2" d="M687.53,42.48c-0.79-0.34-1.41-0.83-1.85-1.47c-0.44-0.64-0.66-1.39-0.66-2.24c0-0.79,0.2-1.48,0.59-2.07
						c0.39-0.59,0.92-1.05,1.59-1.37c-0.53-0.31-0.95-0.71-1.24-1.21c-0.29-0.5-0.44-1.09-0.44-1.77c0-1.16,0.43-2.08,1.3-2.75
						c0.87-0.67,2.01-1.01,3.42-1.01c1.41,0,2.55,0.33,3.41,1c0.86,0.67,1.29,1.59,1.29,2.76c0,0.67-0.15,1.25-0.44,1.75
						s-0.7,0.91-1.22,1.23c0.67,0.32,1.2,0.78,1.59,1.37c0.39,0.59,0.59,1.29,0.59,2.09c0,0.85-0.22,1.6-0.66,2.23
						c-0.44,0.63-1.06,1.12-1.85,1.46c-0.79,0.34-1.7,0.51-2.71,0.51S688.32,42.82,687.53,42.48z M692.61,40.71
						c0.63-0.48,0.95-1.12,0.95-1.92s-0.32-1.44-0.95-1.92c-0.63-0.48-1.42-0.72-2.37-0.72c-0.96,0-1.76,0.24-2.39,0.72
						c-0.63,0.48-0.95,1.12-0.95,1.92s0.32,1.44,0.95,1.92c0.63,0.48,1.43,0.72,2.39,0.72C691.19,41.43,691.98,41.19,692.61,40.71z
						 M692.3,33.99c0.56-0.4,0.84-0.93,0.84-1.6c0-0.68-0.28-1.22-0.83-1.63c-0.55-0.41-1.24-0.61-2.07-0.61
						c-0.84,0-1.53,0.2-2.08,0.61c-0.55,0.41-0.82,0.95-0.82,1.63c0,0.68,0.27,1.22,0.82,1.63c0.55,0.41,1.24,0.61,2.08,0.61
						C691.05,34.6,691.74,34.39,692.3,33.99z"/>
					<path class="st2" d="M697.87,42.66c-0.09-0.09-0.13-0.2-0.13-0.33v-1.38c0-0.13,0.04-0.25,0.13-0.34
						c0.09-0.09,0.2-0.14,0.33-0.14h1.38c0.13,0,0.24,0.05,0.33,0.14c0.09,0.09,0.13,0.21,0.13,0.34v1.38
						c0,0.13-0.04,0.24-0.13,0.33c-0.09,0.09-0.2,0.13-0.33,0.13h-1.38C698.07,42.79,697.96,42.75,697.87,42.66z"/>
					<path class="st2" d="M708.77,42.66c-0.09-0.09-0.13-0.2-0.13-0.33v-2.92h-6.5c-0.13,0-0.24-0.04-0.33-0.13
						c-0.09-0.09-0.13-0.2-0.13-0.33v-0.74c0-0.19,0.07-0.39,0.22-0.6l6.02-8.48c0.07-0.11,0.17-0.19,0.3-0.25
						c0.13-0.06,0.28-0.09,0.44-0.09h1.36c0.15,0,0.26,0.04,0.34,0.12s0.12,0.19,0.12,0.34v8.48h1.82c0.13,0,0.24,0.04,0.33,0.13
						c0.09,0.09,0.13,0.2,0.13,0.33v0.76c0,0.13-0.04,0.24-0.13,0.33c-0.09,0.09-0.2,0.13-0.33,0.13h-1.82v2.92
						c0,0.13-0.04,0.24-0.13,0.33c-0.09,0.09-0.2,0.13-0.33,0.13h-0.92C708.97,42.79,708.86,42.75,708.77,42.66z M703.76,37.77h4.9
						v-6.96L703.76,37.77z"/>
					<path class="st2" d="M716.79,42.34c-0.78-0.43-1.37-1.02-1.78-1.75s-0.61-1.53-0.61-2.4c0-1.15,0.46-2.37,1.38-3.68l3.82-5.32
						c0.01-0.01,0.05-0.06,0.11-0.14c0.06-0.08,0.14-0.14,0.23-0.19s0.2-0.07,0.32-0.07h0.98c0.12,0,0.21,0.04,0.29,0.13
						s0.11,0.19,0.11,0.31c0,0.07-0.03,0.15-0.1,0.26l-2.92,4.08c0.35-0.08,0.73-0.12,1.16-0.12c0.97,0,1.83,0.22,2.57,0.65
						c0.74,0.43,1.31,1.01,1.72,1.72c0.41,0.71,0.61,1.5,0.61,2.35c0,0.85-0.2,1.65-0.61,2.39c-0.41,0.74-1,1.33-1.77,1.77
						s-1.69,0.66-2.74,0.66C718.49,42.99,717.57,42.77,716.79,42.34z M721.16,40.97c0.49-0.24,0.89-0.6,1.18-1.07
						c0.29-0.47,0.44-1.04,0.44-1.71c0-0.65-0.15-1.22-0.45-1.69c-0.3-0.47-0.7-0.83-1.19-1.08c-0.49-0.25-1.03-0.37-1.6-0.37
						c-0.57,0-1.11,0.12-1.6,0.37c-0.49,0.25-0.89,0.61-1.18,1.08c-0.29,0.47-0.44,1.04-0.44,1.69c0,0.67,0.15,1.24,0.44,1.71
						c0.29,0.47,0.69,0.83,1.18,1.07c0.49,0.24,1.03,0.36,1.6,0.36C720.13,41.33,720.67,41.21,721.16,40.97z"/>
					<path class="st2" d="M726.63,32.27c-0.06-0.08-0.08-0.18-0.05-0.3l0.44-2.8c0.05-0.39,0.24-0.58,0.56-0.58h1.28
						c0.09,0,0.17,0.03,0.23,0.1c0.06,0.07,0.09,0.15,0.09,0.24c0,0.13-0.02,0.24-0.06,0.32l-1.04,2.7
						c-0.07,0.15-0.14,0.26-0.22,0.33s-0.2,0.11-0.36,0.11h-0.62C726.78,32.39,726.69,32.35,726.63,32.27z M729.77,32.27
						c-0.06-0.08-0.08-0.18-0.05-0.3l0.44-2.8c0.05-0.39,0.24-0.58,0.56-0.58H732c0.09,0,0.17,0.03,0.23,0.1
						c0.06,0.07,0.09,0.15,0.09,0.24c0,0.13-0.02,0.24-0.06,0.32l-1.04,2.7c-0.07,0.15-0.14,0.26-0.22,0.33s-0.2,0.11-0.36,0.11
						h-0.62C729.91,32.39,729.83,32.35,729.77,32.27z"/>
					<path class="st2" d="M739.64,46.82c-0.08-0.09-0.12-0.2-0.12-0.33V25.33c0-0.13,0.04-0.24,0.12-0.33s0.19-0.13,0.32-0.13h0.74
						c0.13,0,0.24,0.04,0.33,0.13c0.09,0.09,0.13,0.2,0.13,0.33v21.16c0,0.13-0.04,0.24-0.13,0.33c-0.09,0.09-0.2,0.13-0.33,0.13
						h-0.74C739.83,46.95,739.72,46.91,739.64,46.82z"/>
					<path class="st2" d="M748.67,42.66c-0.09-0.09-0.13-0.2-0.13-0.33v-0.6c0-0.31,0.17-0.6,0.5-0.88l4.36-4.34
						c0.99-0.84,1.67-1.53,2.04-2.06s0.56-1.1,0.56-1.7c0-0.79-0.22-1.4-0.66-1.85c-0.44-0.45-1.08-0.67-1.92-0.67
						c-0.8,0-1.43,0.23-1.9,0.7c-0.47,0.47-0.75,1.09-0.86,1.88c-0.03,0.15-0.09,0.26-0.2,0.34s-0.21,0.12-0.32,0.12h-0.96
						c-0.12,0-0.22-0.04-0.3-0.12s-0.12-0.17-0.12-0.28c0.03-0.71,0.22-1.39,0.57-2.05c0.35-0.66,0.88-1.2,1.57-1.62
						s1.53-0.63,2.52-0.63c1.49,0,2.62,0.39,3.37,1.17s1.13,1.77,1.13,2.97c0,0.84-0.21,1.6-0.61,2.27
						c-0.41,0.67-1.04,1.38-1.91,2.13l-3.94,4h6.3c0.15,0,0.26,0.04,0.34,0.12c0.08,0.08,0.12,0.19,0.12,0.34v0.76
						c0,0.13-0.04,0.24-0.13,0.33c-0.09,0.09-0.2,0.13-0.33,0.13H749C748.87,42.79,748.76,42.75,748.67,42.66z"/>
					<path class="st2" d="M764.44,42.66c-0.08-0.09-0.12-0.2-0.12-0.33V31.05l-3.36,2.58c-0.09,0.08-0.19,0.12-0.3,0.12
						c-0.12,0-0.23-0.07-0.34-0.2l-0.48-0.62c-0.07-0.09-0.1-0.19-0.1-0.28c0-0.15,0.07-0.27,0.2-0.36l4.34-3.36
						c0.15-0.09,0.32-0.14,0.52-0.14h0.94c0.13,0,0.24,0.04,0.33,0.13c0.09,0.09,0.13,0.2,0.13,0.33v13.08
						c0,0.13-0.04,0.24-0.13,0.33c-0.09,0.09-0.2,0.13-0.33,0.13h-0.98C764.63,42.79,764.52,42.75,764.44,42.66z"/>
					<path class="st2" d="M769.23,42.66c-0.09-0.09-0.13-0.2-0.13-0.33v-1.38c0-0.13,0.04-0.25,0.13-0.34
						c0.09-0.09,0.2-0.14,0.33-0.14h1.38c0.13,0,0.24,0.05,0.33,0.14c0.09,0.09,0.13,0.21,0.13,0.34v1.38
						c0,0.13-0.04,0.24-0.13,0.33c-0.09,0.09-0.2,0.13-0.33,0.13h-1.38C769.43,42.79,769.32,42.75,769.23,42.66z"/>
					<path class="st2" d="M775.96,42.45c-0.73-0.36-1.29-0.83-1.68-1.41s-0.59-1.2-0.62-1.87v-0.04c0-0.11,0.04-0.19,0.12-0.26
						s0.17-0.1,0.28-0.1h0.98c0.28,0,0.46,0.15,0.54,0.44c0.2,0.72,0.57,1.26,1.11,1.61c0.54,0.35,1.16,0.53,1.87,0.53
						c0.91,0,1.66-0.28,2.26-0.83c0.6-0.55,0.9-1.32,0.9-2.29c0-0.89-0.3-1.6-0.9-2.13c-0.6-0.53-1.35-0.79-2.26-0.79
						c-0.48,0-0.87,0.06-1.16,0.18s-0.59,0.29-0.9,0.52c-0.17,0.13-0.32,0.23-0.43,0.29c-0.11,0.06-0.24,0.09-0.37,0.09h-0.96
						c-0.12,0-0.23-0.04-0.32-0.13c-0.09-0.09-0.13-0.19-0.12-0.31l0.62-6.66c0.04-0.33,0.21-0.5,0.5-0.5h6.92
						c0.15,0,0.26,0.04,0.34,0.12c0.08,0.08,0.12,0.19,0.12,0.34v0.74c0,0.13-0.04,0.24-0.13,0.32c-0.09,0.08-0.2,0.12-0.33,0.12
						h-5.76l-0.36,4.02c0.64-0.45,1.5-0.68,2.58-0.68c0.89,0,1.71,0.18,2.44,0.53c0.73,0.35,1.32,0.87,1.75,1.55
						c0.43,0.68,0.65,1.49,0.65,2.42c0,0.99-0.22,1.84-0.65,2.55c-0.43,0.71-1.03,1.25-1.8,1.62c-0.77,0.37-1.64,0.55-2.63,0.55
						C777.56,42.99,776.69,42.81,775.96,42.45z"/>
					<path class="st2" d="M791.82,41.78c-0.8-0.81-1.22-1.94-1.26-3.39l-0.02-0.8l0.02-0.8c0.04-1.45,0.46-2.58,1.26-3.39
						s1.91-1.21,3.34-1.21c0.96,0,1.77,0.17,2.43,0.51s1.15,0.76,1.48,1.27c0.33,0.51,0.5,1.01,0.53,1.52
						c0.01,0.12-0.03,0.23-0.13,0.32c-0.1,0.09-0.21,0.14-0.33,0.14h-0.88c-0.13,0-0.23-0.03-0.3-0.09
						c-0.07-0.06-0.13-0.17-0.2-0.33c-0.24-0.65-0.57-1.12-0.99-1.39c-0.42-0.27-0.95-0.41-1.59-0.41c-0.84,0-1.51,0.26-2,0.78
						c-0.49,0.52-0.76,1.31-0.8,2.38l-0.02,0.7l0.02,0.7c0.04,1.07,0.31,1.86,0.8,2.38c0.49,0.52,1.16,0.78,2,0.78
						c0.65,0,1.19-0.14,1.6-0.41c0.41-0.27,0.74-0.74,0.98-1.39c0.07-0.16,0.13-0.27,0.2-0.33c0.07-0.06,0.17-0.09,0.3-0.09h0.88
						c0.12,0,0.23,0.05,0.33,0.14c0.1,0.09,0.14,0.2,0.13,0.32c-0.03,0.49-0.2,0.99-0.53,1.5s-0.82,0.93-1.48,1.28
						s-1.47,0.52-2.43,0.52C793.73,42.99,792.62,42.59,791.82,41.78z"/>
					<path class="st2" d="M802.13,42.66c-0.09-0.09-0.13-0.2-0.13-0.33v-9.48c0-0.13,0.04-0.24,0.13-0.33
						c0.09-0.09,0.2-0.13,0.33-0.13h0.84c0.13,0,0.24,0.04,0.32,0.13c0.08,0.09,0.12,0.2,0.12,0.33v0.68
						c0.72-0.89,1.69-1.34,2.92-1.34c1.47,0,2.51,0.61,3.12,1.84c0.32-0.56,0.78-1.01,1.37-1.34c0.59-0.33,1.26-0.5,1.99-0.5
						c1.09,0,1.99,0.37,2.68,1.12c0.69,0.75,1.04,1.83,1.04,3.24v5.78c0,0.13-0.04,0.24-0.13,0.33c-0.09,0.09-0.2,0.13-0.33,0.13
						h-0.86c-0.13,0-0.24-0.04-0.33-0.13c-0.09-0.09-0.13-0.2-0.13-0.33v-5.6c0-1.07-0.22-1.83-0.66-2.29s-1.02-0.69-1.74-0.69
						c-0.64,0-1.19,0.24-1.65,0.71c-0.46,0.47-0.69,1.23-0.69,2.27v5.6c0,0.13-0.04,0.24-0.13,0.33c-0.09,0.09-0.2,0.13-0.33,0.13
						H809c-0.13,0-0.24-0.04-0.33-0.13c-0.09-0.09-0.13-0.2-0.13-0.33v-5.6c0-1.05-0.23-1.81-0.69-2.28
						c-0.46-0.47-1.03-0.7-1.71-0.7c-0.64,0-1.19,0.23-1.65,0.7c-0.46,0.47-0.69,1.22-0.69,2.26v5.62c0,0.13-0.04,0.24-0.13,0.33
						c-0.09,0.09-0.2,0.13-0.33,0.13h-0.88C802.33,42.79,802.22,42.75,802.13,42.66z"/>
					<path class="st2" d="M826.23,45c-0.67-0.65-1.16-1.65-1.45-3.01c-0.29-1.36-0.44-3.15-0.44-5.38s0.15-4.02,0.44-5.37
						s0.78-2.35,1.45-3c0.67-0.65,1.58-0.97,2.73-0.97c0.13,0,0.24,0.04,0.33,0.13s0.13,0.2,0.13,0.33v0.66
						c0,0.12-0.04,0.22-0.12,0.31s-0.17,0.13-0.28,0.13c-0.76,0.01-1.35,0.27-1.78,0.77c-0.43,0.5-0.73,1.31-0.92,2.42
						c-0.19,1.11-0.28,2.64-0.28,4.59c0,1.96,0.09,3.5,0.28,4.61c0.19,1.11,0.49,1.92,0.92,2.42c0.43,0.5,1.02,0.76,1.78,0.77
						c0.11,0,0.2,0.04,0.28,0.13s0.12,0.19,0.12,0.31v0.66c0,0.13-0.04,0.24-0.13,0.33s-0.2,0.13-0.33,0.13
						C827.81,45.97,826.9,45.65,826.23,45z"/>
					<path class="st2" d="M831.61,42.66c-0.09-0.09-0.13-0.2-0.13-0.33V29.27c0-0.15,0.04-0.26,0.12-0.35s0.19-0.13,0.34-0.13h0.94
						c0.24,0,0.41,0.1,0.5,0.3l4.26,8.18l4.3-8.18c0.11-0.2,0.27-0.3,0.48-0.3h0.94c0.15,0,0.26,0.04,0.34,0.13s0.12,0.2,0.12,0.35
						v13.06c0,0.13-0.04,0.24-0.13,0.33c-0.09,0.09-0.2,0.13-0.33,0.13h-0.92c-0.13,0-0.24-0.04-0.32-0.13s-0.12-0.2-0.12-0.33
						v-9.94l-3.42,6.62c-0.13,0.28-0.35,0.42-0.64,0.42h-0.6c-0.28,0-0.49-0.14-0.64-0.42l-3.4-6.62v9.94
						c0,0.13-0.04,0.24-0.13,0.33c-0.09,0.09-0.2,0.13-0.33,0.13h-0.9C831.81,42.79,831.7,42.75,831.61,42.66z"/>
					<path class="st2" d="M848.15,42.59c-0.55-0.27-0.99-0.63-1.32-1.09c-0.33-0.46-0.49-0.97-0.49-1.53c0-0.88,0.36-1.6,1.08-2.16
						c0.72-0.56,1.7-0.93,2.94-1.12l3-0.42v-0.58c0-1.37-0.79-2.06-2.38-2.06c-0.62,0-1.11,0.12-1.48,0.37
						c-0.37,0.25-0.65,0.54-0.82,0.87c-0.05,0.13-0.11,0.22-0.17,0.27c-0.06,0.05-0.14,0.07-0.25,0.07h-0.78
						c-0.12,0-0.22-0.04-0.31-0.13c-0.09-0.09-0.13-0.19-0.13-0.31c0-0.31,0.14-0.66,0.43-1.07c0.29-0.41,0.73-0.76,1.33-1.06
						c0.6-0.3,1.33-0.45,2.2-0.45c1.49,0,2.56,0.35,3.21,1.04s0.97,1.56,0.97,2.6v6.5c0,0.13-0.04,0.24-0.13,0.33
						c-0.09,0.09-0.2,0.13-0.33,0.13h-0.88c-0.13,0-0.24-0.04-0.32-0.13s-0.12-0.2-0.12-0.33v-0.88c-0.29,0.44-0.72,0.81-1.28,1.1
						c-0.56,0.29-1.28,0.44-2.16,0.44C849.31,42.99,848.7,42.86,848.15,42.59z M852.52,40.67c0.56-0.57,0.84-1.41,0.84-2.5v-0.56
						l-2.34,0.34c-0.96,0.13-1.69,0.36-2.18,0.68c-0.49,0.32-0.74,0.72-0.74,1.2c0,0.55,0.22,0.97,0.67,1.26
						c0.45,0.29,0.98,0.44,1.59,0.44C851.24,41.53,851.96,41.24,852.52,40.67z"/>
					<path class="st2" d="M857.3,42.67c-0.08-0.08-0.12-0.18-0.12-0.3s0.05-0.25,0.14-0.38l3.48-4.52l-3.26-4.3
						c-0.11-0.15-0.16-0.27-0.16-0.36c0-0.12,0.04-0.22,0.13-0.3c0.09-0.08,0.18-0.12,0.29-0.12h0.96c0.2,0,0.37,0.11,0.52,0.32
						l2.7,3.5l2.7-3.5c0.08-0.11,0.16-0.19,0.23-0.24c0.07-0.05,0.17-0.08,0.29-0.08h0.92c0.11,0,0.2,0.04,0.28,0.12
						s0.12,0.17,0.12,0.28c0,0.13-0.05,0.26-0.14,0.38l-3.3,4.34l3.48,4.48c0.09,0.13,0.14,0.26,0.14,0.38s-0.04,0.22-0.12,0.3
						s-0.18,0.12-0.3,0.12h-0.98c-0.2,0-0.37-0.1-0.52-0.3l-2.86-3.7l-2.86,3.7c-0.08,0.09-0.16,0.17-0.23,0.22
						c-0.07,0.05-0.17,0.08-0.29,0.08h-0.94C857.48,42.79,857.38,42.75,857.3,42.67z"/>
					<path class="st2" d="M867.39,45.84c-0.09-0.09-0.13-0.2-0.13-0.33v-0.66c0-0.12,0.04-0.22,0.12-0.31s0.17-0.13,0.28-0.13
						c0.75-0.01,1.34-0.27,1.77-0.77s0.74-1.31,0.93-2.43c0.19-1.12,0.28-2.65,0.28-4.6c0-1.95-0.09-3.48-0.28-4.59
						c-0.19-1.11-0.5-1.92-0.93-2.42s-1.02-0.76-1.77-0.77c-0.11,0-0.2-0.04-0.28-0.13s-0.12-0.19-0.12-0.31v-0.66
						c0-0.13,0.04-0.24,0.13-0.33c0.09-0.09,0.19-0.13,0.31-0.13c1.15,0,2.06,0.32,2.73,0.97c0.67,0.65,1.16,1.65,1.45,3
						s0.44,3.14,0.44,5.37s-0.15,4.02-0.44,5.38c-0.29,1.36-0.78,2.36-1.45,3.01c-0.67,0.65-1.58,0.97-2.73,0.97
						C867.58,45.97,867.48,45.93,867.39,45.84z"/>
				</g>
			</g>
		</g>
		<g>
			<g id="MTEXT_40_" class="st3">
				<g>
					<path class="st2" d="M693.85,360.66c-0.09-0.09-0.13-0.2-0.13-0.33v-1.38c0-0.13,0.04-0.25,0.13-0.34
						c0.09-0.09,0.2-0.14,0.33-0.14h1.38c0.13,0,0.24,0.05,0.33,0.14c0.09,0.09,0.13,0.21,0.13,0.34v1.38
						c0,0.13-0.04,0.24-0.13,0.33s-0.2,0.13-0.33,0.13h-1.38C694.05,360.79,693.94,360.75,693.85,360.66z"/>
					<path class="st2" d="M700.49,360.34c-0.78-0.43-1.37-1.02-1.78-1.75s-0.61-1.53-0.61-2.4c0-1.15,0.46-2.37,1.38-3.68l3.82-5.32
						c0.01-0.01,0.05-0.06,0.11-0.14c0.06-0.08,0.14-0.14,0.23-0.19s0.2-0.07,0.32-0.07h0.98c0.12,0,0.21,0.04,0.29,0.13
						s0.11,0.19,0.11,0.31c0,0.07-0.03,0.15-0.1,0.26l-2.92,4.08c0.35-0.08,0.73-0.12,1.16-0.12c0.97,0,1.83,0.22,2.57,0.65
						c0.74,0.43,1.31,1.01,1.72,1.72c0.41,0.71,0.61,1.5,0.61,2.35c0,0.85-0.2,1.65-0.61,2.39c-0.41,0.74-1,1.33-1.77,1.77
						s-1.69,0.66-2.74,0.66C702.2,360.99,701.27,360.77,700.49,360.34z M704.86,358.97c0.49-0.24,0.89-0.6,1.18-1.07
						c0.29-0.47,0.44-1.04,0.44-1.71c0-0.65-0.15-1.22-0.45-1.69c-0.3-0.47-0.7-0.83-1.19-1.08c-0.49-0.25-1.03-0.37-1.6-0.37
						c-0.57,0-1.11,0.12-1.6,0.37c-0.49,0.25-0.89,0.61-1.18,1.08c-0.29,0.47-0.44,1.04-0.44,1.69c0,0.67,0.15,1.24,0.44,1.71
						c0.29,0.47,0.69,0.83,1.18,1.07c0.49,0.24,1.03,0.36,1.6,0.36C703.83,359.33,704.37,359.21,704.86,358.97z"/>
					<path class="st2" d="M712.34,360.48c-0.76-0.34-1.34-0.78-1.73-1.33c-0.39-0.55-0.6-1.11-0.63-1.7c0-0.12,0.04-0.22,0.12-0.29
						c0.08-0.07,0.18-0.11,0.3-0.11h0.9c0.15,0,0.27,0.03,0.36,0.09c0.09,0.06,0.17,0.18,0.22,0.35c0.17,0.68,0.55,1.16,1.13,1.44
						c0.58,0.28,1.26,0.42,2.05,0.42c0.96,0,1.72-0.23,2.29-0.69c0.57-0.46,0.85-1.12,0.85-1.97c0-1.63-0.99-2.44-2.98-2.44h-1.88
						c-0.13,0-0.24-0.04-0.33-0.13c-0.09-0.09-0.13-0.2-0.13-0.33v-0.52c0-0.2,0.07-0.37,0.22-0.52l3.9-4.32h-5.92
						c-0.13,0-0.24-0.04-0.33-0.12c-0.09-0.08-0.13-0.19-0.13-0.32v-0.72c0-0.15,0.04-0.26,0.13-0.35c0.09-0.09,0.2-0.13,0.33-0.13
						H719c0.15,0,0.26,0.04,0.35,0.13c0.09,0.09,0.13,0.2,0.13,0.35v0.66c0,0.15-0.07,0.3-0.2,0.46l-3.9,4.38h0.32
						c1.36,0.04,2.44,0.39,3.23,1.06c0.79,0.67,1.19,1.64,1.19,2.92c0,0.88-0.22,1.64-0.65,2.27c-0.43,0.63-1.04,1.12-1.81,1.46
						c-0.77,0.34-1.65,0.51-2.62,0.51C714,360.99,713.1,360.82,712.34,360.48z"/>
					<path class="st2" d="M722.29,350.27c-0.06-0.08-0.08-0.18-0.05-0.3l0.44-2.8c0.05-0.39,0.24-0.58,0.56-0.58h1.28
						c0.09,0,0.17,0.03,0.23,0.1c0.06,0.07,0.09,0.15,0.09,0.24c0,0.13-0.02,0.24-0.06,0.32l-1.04,2.7
						c-0.07,0.15-0.14,0.26-0.22,0.33c-0.08,0.07-0.2,0.11-0.36,0.11h-0.62C722.44,350.39,722.35,350.35,722.29,350.27z
						 M725.43,350.27c-0.06-0.08-0.08-0.18-0.05-0.3l0.44-2.8c0.05-0.39,0.24-0.58,0.56-0.58h1.28c0.09,0,0.17,0.03,0.23,0.1
						c0.06,0.07,0.09,0.15,0.09,0.24c0,0.13-0.02,0.24-0.06,0.32l-1.04,2.7c-0.07,0.15-0.14,0.26-0.22,0.33s-0.2,0.11-0.36,0.11
						h-0.62C725.58,350.39,725.49,350.35,725.43,350.27z"/>
					<path class="st2" d="M728.73,355.47c-0.09-0.08-0.13-0.19-0.13-0.32v-0.72c0-0.13,0.04-0.24,0.13-0.33
						c0.09-0.09,0.2-0.13,0.33-0.13h6c0.13,0,0.24,0.04,0.33,0.13c0.09,0.09,0.13,0.2,0.13,0.33v0.72c0,0.13-0.04,0.24-0.13,0.32
						c-0.09,0.08-0.2,0.12-0.33,0.12h-6C728.93,355.59,728.82,355.55,728.73,355.47z"/>
					<path class="st2" d="M738.39,360.66c-0.09-0.09-0.13-0.2-0.13-0.33v-1.38c0-0.13,0.04-0.25,0.13-0.34
						c0.09-0.09,0.2-0.14,0.33-0.14h1.38c0.13,0,0.24,0.05,0.33,0.14c0.09,0.09,0.13,0.21,0.13,0.34v1.38
						c0,0.13-0.04,0.24-0.13,0.33s-0.2,0.13-0.33,0.13h-1.38C738.59,360.79,738.48,360.75,738.39,360.66z"/>
					<path class="st2" d="M745.33,360.48c-0.79-0.34-1.41-0.83-1.85-1.47c-0.44-0.64-0.66-1.39-0.66-2.24c0-0.79,0.2-1.48,0.59-2.07
						c0.39-0.59,0.92-1.05,1.59-1.37c-0.53-0.31-0.95-0.71-1.24-1.21c-0.29-0.5-0.44-1.09-0.44-1.77c0-1.16,0.43-2.08,1.3-2.75
						c0.87-0.67,2.01-1.01,3.42-1.01c1.41,0,2.55,0.33,3.41,1c0.86,0.67,1.29,1.59,1.29,2.76c0,0.67-0.15,1.25-0.44,1.75
						s-0.7,0.91-1.22,1.23c0.67,0.32,1.2,0.78,1.59,1.37c0.39,0.59,0.59,1.29,0.59,2.09c0,0.85-0.22,1.6-0.66,2.23
						c-0.44,0.63-1.06,1.12-1.85,1.46c-0.79,0.34-1.7,0.51-2.71,0.51S746.12,360.82,745.33,360.48z M750.41,358.71
						c0.63-0.48,0.95-1.12,0.95-1.92s-0.32-1.44-0.95-1.92c-0.63-0.48-1.42-0.72-2.37-0.72c-0.96,0-1.76,0.24-2.39,0.72
						c-0.63,0.48-0.95,1.12-0.95,1.92s0.32,1.44,0.95,1.92c0.63,0.48,1.43,0.72,2.39,0.72
						C748.99,359.43,749.78,359.19,750.41,358.71z M750.1,351.99c0.56-0.4,0.84-0.93,0.84-1.6c0-0.68-0.28-1.22-0.83-1.63
						c-0.55-0.41-1.24-0.61-2.07-0.61c-0.84,0-1.53,0.2-2.08,0.61c-0.55,0.41-0.82,0.95-0.82,1.63c0,0.68,0.27,1.22,0.82,1.63
						c0.55,0.41,1.24,0.61,2.08,0.61C748.86,352.6,749.54,352.39,750.1,351.99z"/>
					<path class="st2" d="M757.6,360.48c-0.76-0.34-1.34-0.78-1.73-1.33c-0.39-0.55-0.6-1.11-0.63-1.7c0-0.12,0.04-0.22,0.12-0.29
						c0.08-0.07,0.18-0.11,0.3-0.11h0.9c0.15,0,0.27,0.03,0.36,0.09c0.09,0.06,0.17,0.18,0.22,0.35c0.17,0.68,0.55,1.16,1.13,1.44
						c0.58,0.28,1.26,0.42,2.05,0.42c0.96,0,1.72-0.23,2.29-0.69c0.57-0.46,0.85-1.12,0.85-1.97c0-1.63-0.99-2.44-2.98-2.44h-1.88
						c-0.13,0-0.24-0.04-0.33-0.13c-0.09-0.09-0.13-0.2-0.13-0.33v-0.52c0-0.2,0.07-0.37,0.22-0.52l3.9-4.32h-5.92
						c-0.13,0-0.24-0.04-0.33-0.12c-0.09-0.08-0.13-0.19-0.13-0.32v-0.72c0-0.15,0.04-0.26,0.13-0.35c0.09-0.09,0.2-0.13,0.33-0.13
						h7.92c0.15,0,0.26,0.04,0.35,0.13c0.09,0.09,0.13,0.2,0.13,0.35v0.66c0,0.15-0.07,0.3-0.2,0.46l-3.9,4.38h0.32
						c1.36,0.04,2.44,0.39,3.23,1.06c0.79,0.67,1.19,1.64,1.19,2.92c0,0.88-0.22,1.64-0.65,2.27c-0.43,0.63-1.04,1.12-1.81,1.46
						c-0.77,0.34-1.65,0.51-2.62,0.51C759.26,360.99,758.36,360.82,757.6,360.48z"/>
					<path class="st2" d="M767.55,350.27c-0.06-0.08-0.08-0.18-0.05-0.3l0.44-2.8c0.05-0.39,0.24-0.58,0.56-0.58h1.28
						c0.09,0,0.17,0.03,0.23,0.1c0.06,0.07,0.09,0.15,0.09,0.24c0,0.13-0.02,0.24-0.06,0.32l-1.04,2.7
						c-0.07,0.15-0.14,0.26-0.22,0.33c-0.08,0.07-0.2,0.11-0.36,0.11h-0.62C767.7,350.39,767.61,350.35,767.55,350.27z
						 M770.69,350.27c-0.06-0.08-0.08-0.18-0.05-0.3l0.44-2.8c0.05-0.39,0.24-0.58,0.56-0.58h1.28c0.09,0,0.17,0.03,0.23,0.1
						c0.06,0.07,0.09,0.15,0.09,0.24c0,0.13-0.02,0.24-0.06,0.32l-1.04,2.7c-0.07,0.15-0.14,0.26-0.22,0.33s-0.2,0.11-0.36,0.11
						h-0.62C770.84,350.39,770.75,350.35,770.69,350.27z"/>
					<path class="st2" d="M780.56,364.82c-0.08-0.09-0.12-0.2-0.12-0.33v-21.16c0-0.13,0.04-0.24,0.12-0.33s0.19-0.13,0.32-0.13
						h0.74c0.13,0,0.24,0.04,0.33,0.13c0.09,0.09,0.13,0.2,0.13,0.33v21.16c0,0.13-0.04,0.24-0.13,0.33
						c-0.09,0.09-0.2,0.13-0.33,0.13h-0.74C780.75,364.95,780.64,364.91,780.56,364.82z"/>
					<path class="st2" d="M793.68,360.66c-0.08-0.09-0.12-0.2-0.12-0.33v-11.28l-3.36,2.58c-0.09,0.08-0.19,0.12-0.3,0.12
						c-0.12,0-0.23-0.07-0.34-0.2l-0.48-0.62c-0.07-0.09-0.1-0.19-0.1-0.28c0-0.15,0.07-0.27,0.2-0.36l4.34-3.36
						c0.15-0.09,0.32-0.14,0.52-0.14h0.94c0.13,0,0.24,0.04,0.33,0.13c0.09,0.09,0.13,0.2,0.13,0.33v13.08
						c0,0.13-0.04,0.24-0.13,0.33c-0.09,0.09-0.2,0.13-0.33,0.13H794C793.87,360.79,793.76,360.75,793.68,360.66z"/>
					<path class="st2" d="M800.35,360.34c-0.78-0.43-1.38-1.02-1.78-1.75s-0.61-1.53-0.61-2.4c0-1.15,0.46-2.37,1.38-3.68l3.82-5.32
						c0.01-0.01,0.05-0.06,0.11-0.14c0.06-0.08,0.14-0.14,0.23-0.19c0.09-0.05,0.2-0.07,0.32-0.07h0.98c0.12,0,0.22,0.04,0.29,0.13
						c0.07,0.09,0.11,0.19,0.11,0.31c0,0.07-0.03,0.15-0.1,0.26l-2.92,4.08c0.35-0.08,0.73-0.12,1.16-0.12
						c0.97,0,1.83,0.22,2.57,0.65c0.74,0.43,1.31,1.01,1.72,1.72c0.41,0.71,0.61,1.5,0.61,2.35c0,0.85-0.2,1.65-0.61,2.39
						c-0.41,0.74-1,1.33-1.77,1.77s-1.69,0.66-2.74,0.66C802.05,360.99,801.13,360.77,800.35,360.34z M804.72,358.97
						c0.49-0.24,0.89-0.6,1.18-1.07c0.29-0.47,0.44-1.04,0.44-1.71c0-0.65-0.15-1.22-0.45-1.69c-0.3-0.47-0.7-0.83-1.19-1.08
						c-0.49-0.25-1.03-0.37-1.6-0.37c-0.57,0-1.11,0.12-1.6,0.37c-0.49,0.25-0.89,0.61-1.18,1.08c-0.29,0.47-0.44,1.04-0.44,1.69
						c0,0.67,0.15,1.24,0.44,1.71c0.29,0.47,0.69,0.83,1.18,1.07c0.49,0.24,1.03,0.36,1.6,0.36
						C803.69,359.33,804.23,359.21,804.72,358.97z"/>
					<path class="st2" d="M810.49,355.47c-0.09-0.08-0.13-0.19-0.13-0.32v-0.72c0-0.13,0.04-0.24,0.13-0.33
						c0.09-0.09,0.2-0.13,0.33-0.13h6c0.13,0,0.24,0.04,0.33,0.13c0.09,0.09,0.13,0.2,0.13,0.33v0.72c0,0.13-0.04,0.24-0.13,0.32
						c-0.09,0.08-0.2,0.12-0.33,0.12h-6C810.69,355.59,810.58,355.55,810.49,355.47z"/>
					<path class="st2" d="M818.97,360.66c-0.09-0.09-0.13-0.2-0.13-0.33v-0.6c0-0.31,0.17-0.6,0.5-0.88l4.36-4.34
						c0.99-0.84,1.67-1.53,2.04-2.06s0.56-1.1,0.56-1.7c0-0.79-0.22-1.4-0.66-1.85c-0.44-0.45-1.08-0.67-1.92-0.67
						c-0.8,0-1.43,0.23-1.9,0.7c-0.47,0.47-0.75,1.09-0.86,1.88c-0.03,0.15-0.09,0.26-0.2,0.34c-0.11,0.08-0.21,0.12-0.32,0.12
						h-0.96c-0.12,0-0.22-0.04-0.3-0.12s-0.12-0.17-0.12-0.28c0.03-0.71,0.22-1.39,0.57-2.05s0.88-1.2,1.57-1.62
						s1.53-0.63,2.52-0.63c1.49,0,2.62,0.39,3.37,1.17c0.75,0.78,1.13,1.77,1.13,2.97c0,0.84-0.2,1.6-0.61,2.27
						c-0.41,0.67-1.04,1.38-1.91,2.13l-3.94,4h6.3c0.15,0,0.26,0.04,0.34,0.12c0.08,0.08,0.12,0.19,0.12,0.34v0.76
						c0,0.13-0.04,0.24-0.13,0.33s-0.2,0.13-0.33,0.13h-8.76C819.17,360.79,819.06,360.75,818.97,360.66z"/>
					<path class="st2" d="M834.74,360.66c-0.08-0.09-0.12-0.2-0.12-0.33v-11.28l-3.36,2.58c-0.09,0.08-0.19,0.12-0.3,0.12
						c-0.12,0-0.23-0.07-0.34-0.2l-0.48-0.62c-0.07-0.09-0.1-0.19-0.1-0.28c0-0.15,0.07-0.27,0.2-0.36l4.34-3.36
						c0.15-0.09,0.32-0.14,0.52-0.14h0.94c0.13,0,0.24,0.04,0.33,0.13c0.09,0.09,0.13,0.2,0.13,0.33v13.08
						c0,0.13-0.04,0.24-0.13,0.33c-0.09,0.09-0.2,0.13-0.33,0.13h-0.98C834.93,360.79,834.82,360.75,834.74,360.66z"/>
					<path class="st2" d="M844.59,360.66c-0.09-0.09-0.13-0.2-0.13-0.33v-9.48c0-0.13,0.04-0.24,0.13-0.33
						c0.09-0.09,0.2-0.13,0.33-0.13h0.84c0.13,0,0.24,0.04,0.32,0.13c0.08,0.09,0.12,0.2,0.12,0.33v0.68
						c0.72-0.89,1.69-1.34,2.92-1.34c1.47,0,2.51,0.61,3.12,1.84c0.32-0.56,0.78-1.01,1.37-1.34c0.59-0.33,1.26-0.5,1.99-0.5
						c1.09,0,1.99,0.37,2.68,1.12c0.69,0.75,1.04,1.83,1.04,3.24v5.78c0,0.13-0.04,0.24-0.13,0.33c-0.09,0.09-0.2,0.13-0.33,0.13
						H858c-0.13,0-0.24-0.04-0.33-0.13c-0.09-0.09-0.13-0.2-0.13-0.33v-5.6c0-1.07-0.22-1.83-0.66-2.29s-1.02-0.69-1.74-0.69
						c-0.64,0-1.19,0.24-1.65,0.71c-0.46,0.47-0.69,1.23-0.69,2.27v5.6c0,0.13-0.04,0.24-0.13,0.33c-0.09,0.09-0.2,0.13-0.33,0.13
						h-0.88c-0.13,0-0.24-0.04-0.33-0.13c-0.09-0.09-0.13-0.2-0.13-0.33v-5.6c0-1.05-0.23-1.81-0.69-2.28
						c-0.46-0.47-1.03-0.7-1.71-0.7c-0.64,0-1.19,0.23-1.65,0.7c-0.46,0.47-0.69,1.22-0.69,2.26v5.62c0,0.13-0.04,0.24-0.13,0.33
						c-0.09,0.09-0.2,0.13-0.33,0.13h-0.88C844.79,360.79,844.68,360.75,844.59,360.66z"/>
					<path class="st2" d="M862.35,360.66c-0.09-0.09-0.13-0.2-0.13-0.33v-9.48c0-0.13,0.04-0.24,0.13-0.33
						c0.09-0.09,0.2-0.13,0.33-0.13h0.84c0.13,0,0.24,0.04,0.32,0.13c0.08,0.09,0.12,0.2,0.12,0.33v0.68
						c0.72-0.89,1.69-1.34,2.92-1.34c1.47,0,2.51,0.61,3.12,1.84c0.32-0.56,0.78-1.01,1.37-1.34c0.59-0.33,1.26-0.5,1.99-0.5
						c1.09,0,1.99,0.37,2.68,1.12c0.69,0.75,1.04,1.83,1.04,3.24v5.78c0,0.13-0.04,0.24-0.13,0.33s-0.2,0.13-0.33,0.13h-0.86
						c-0.13,0-0.24-0.04-0.33-0.13c-0.09-0.09-0.13-0.2-0.13-0.33v-5.6c0-1.07-0.22-1.83-0.66-2.29c-0.44-0.46-1.02-0.69-1.74-0.69
						c-0.64,0-1.19,0.24-1.65,0.71c-0.46,0.47-0.69,1.23-0.69,2.27v5.6c0,0.13-0.04,0.24-0.13,0.33c-0.09,0.09-0.2,0.13-0.33,0.13
						h-0.88c-0.13,0-0.24-0.04-0.33-0.13c-0.09-0.09-0.13-0.2-0.13-0.33v-5.6c0-1.05-0.23-1.81-0.69-2.28
						c-0.46-0.47-1.03-0.7-1.71-0.7c-0.64,0-1.19,0.23-1.65,0.7c-0.46,0.47-0.69,1.22-0.69,2.26v5.62c0,0.13-0.04,0.24-0.13,0.33
						c-0.09,0.09-0.2,0.13-0.33,0.13h-0.88C862.54,360.79,862.44,360.75,862.35,360.66z"/>
				</g>
			</g>
			<polyline class="st1" points="867.02,390.21 872.75,395.93 878.47,390.21 			"/>
			<line class="st1" x1="872.75" y1="395.64" x2="872.75" y2="374.33"/>
			<polyline class="st1" points="867.03,380.07 872.76,374.34 878.48,380.07 			"/>
		</g>
		<g>
			<g id="MTEXT_39_" class="st3">
				<g>
					<path class="st2" d="M34.65,347.95c-0.08-0.09-0.12-0.2-0.12-0.33v-11.28l-3.36,2.58c-0.09,0.08-0.19,0.12-0.3,0.12
						c-0.12,0-0.23-0.07-0.34-0.2l-0.48-0.62c-0.07-0.09-0.1-0.19-0.1-0.28c0-0.15,0.07-0.27,0.2-0.36l4.34-3.36
						c0.15-0.09,0.32-0.14,0.52-0.14h0.94c0.13,0,0.24,0.04,0.33,0.13s0.13,0.2,0.13,0.33v13.08c0,0.13-0.04,0.24-0.13,0.33
						s-0.2,0.13-0.33,0.13h-0.98C34.84,348.08,34.73,348.04,34.65,347.95z"/>
					<path class="st2" d="M39.44,347.95c-0.09-0.09-0.13-0.2-0.13-0.33v-1.38c0-0.13,0.04-0.25,0.13-0.34
						c0.09-0.09,0.2-0.14,0.33-0.14h1.38c0.13,0,0.24,0.05,0.33,0.14c0.09,0.09,0.13,0.21,0.13,0.34v1.38
						c0,0.13-0.04,0.24-0.13,0.33c-0.09,0.09-0.2,0.13-0.33,0.13h-1.38C39.64,348.08,39.53,348.04,39.44,347.95z"/>
					<path class="st2" d="M46.81,347.95c-0.08-0.09-0.12-0.2-0.12-0.33v-11.28l-3.36,2.58c-0.09,0.08-0.19,0.12-0.3,0.12
						c-0.12,0-0.23-0.07-0.34-0.2l-0.48-0.62c-0.07-0.09-0.1-0.19-0.1-0.28c0-0.15,0.07-0.27,0.2-0.36l4.34-3.36
						c0.15-0.09,0.32-0.14,0.52-0.14h0.94c0.13,0,0.24,0.04,0.33,0.13s0.13,0.2,0.13,0.33v13.08c0,0.13-0.04,0.24-0.13,0.33
						s-0.2,0.13-0.33,0.13h-0.98C47,348.08,46.89,348.04,46.81,347.95z"/>
					<path class="st2" d="M51.22,347.95c-0.09-0.09-0.13-0.2-0.13-0.33v-0.6c0-0.31,0.17-0.6,0.5-0.88l4.36-4.34
						c0.99-0.84,1.67-1.53,2.04-2.06s0.56-1.1,0.56-1.7c0-0.79-0.22-1.4-0.66-1.85c-0.44-0.45-1.08-0.67-1.92-0.67
						c-0.8,0-1.43,0.23-1.9,0.7c-0.47,0.47-0.75,1.09-0.86,1.88c-0.03,0.15-0.09,0.26-0.2,0.34c-0.11,0.08-0.21,0.12-0.32,0.12
						h-0.96c-0.12,0-0.22-0.04-0.3-0.12s-0.12-0.17-0.12-0.28c0.03-0.71,0.22-1.39,0.57-2.05c0.35-0.66,0.88-1.2,1.57-1.62
						s1.53-0.63,2.52-0.63c1.49,0,2.62,0.39,3.37,1.17c0.75,0.78,1.13,1.77,1.13,2.97c0,0.84-0.2,1.6-0.61,2.27
						c-0.41,0.67-1.04,1.38-1.91,2.13l-3.94,4h6.3c0.15,0,0.26,0.04,0.34,0.12c0.08,0.08,0.12,0.19,0.12,0.34v0.76
						c0,0.13-0.04,0.24-0.13,0.33c-0.09,0.09-0.2,0.13-0.33,0.13h-8.76C51.42,348.08,51.31,348.04,51.22,347.95z"/>
					<path class="st2" d="M65.01,347.74c-0.73-0.36-1.29-0.83-1.68-1.41s-0.59-1.2-0.62-1.87v-0.04c0-0.11,0.04-0.19,0.12-0.26
						s0.17-0.1,0.28-0.1h0.98c0.28,0,0.46,0.15,0.54,0.44c0.2,0.72,0.57,1.26,1.11,1.61s1.16,0.53,1.87,0.53
						c0.91,0,1.66-0.28,2.26-0.83c0.6-0.55,0.9-1.32,0.9-2.29c0-0.89-0.3-1.6-0.9-2.13c-0.6-0.53-1.35-0.79-2.26-0.79
						c-0.48,0-0.87,0.06-1.16,0.18c-0.29,0.12-0.59,0.29-0.9,0.52c-0.17,0.13-0.32,0.23-0.43,0.29c-0.11,0.06-0.24,0.09-0.37,0.09
						h-0.96c-0.12,0-0.23-0.04-0.32-0.13c-0.09-0.09-0.13-0.19-0.12-0.31l0.62-6.66c0.04-0.33,0.21-0.5,0.5-0.5h6.92
						c0.15,0,0.26,0.04,0.34,0.12c0.08,0.08,0.12,0.19,0.12,0.34v0.74c0,0.13-0.04,0.24-0.13,0.32c-0.09,0.08-0.2,0.12-0.33,0.12
						h-5.76l-0.36,4.02c0.64-0.45,1.5-0.68,2.58-0.68c0.89,0,1.71,0.18,2.44,0.53c0.73,0.35,1.32,0.87,1.75,1.55
						c0.43,0.68,0.65,1.49,0.65,2.42c0,0.99-0.22,1.84-0.65,2.55c-0.43,0.71-1.03,1.25-1.8,1.62c-0.77,0.37-1.64,0.55-2.63,0.55
						C66.61,348.28,65.74,348.1,65.01,347.74z"/>
					<path class="st2" d="M74.84,337.56c-0.06-0.08-0.08-0.18-0.05-0.3l0.44-2.8c0.05-0.39,0.24-0.58,0.56-0.58h1.28
						c0.09,0,0.17,0.03,0.23,0.1c0.06,0.07,0.09,0.15,0.09,0.24c0,0.13-0.02,0.24-0.06,0.32l-1.04,2.7
						c-0.07,0.15-0.14,0.26-0.22,0.33c-0.08,0.07-0.2,0.11-0.36,0.11h-0.62C74.98,337.68,74.9,337.64,74.84,337.56z M77.98,337.56
						c-0.06-0.08-0.08-0.18-0.05-0.3l0.44-2.8c0.05-0.39,0.24-0.58,0.56-0.58h1.28c0.09,0,0.17,0.03,0.23,0.1
						c0.06,0.07,0.09,0.15,0.09,0.24c0,0.13-0.02,0.24-0.06,0.32l-1.04,2.7c-0.07,0.15-0.14,0.26-0.22,0.33s-0.2,0.11-0.36,0.11
						h-0.62C78.12,337.68,78.04,337.64,77.98,337.56z"/>
					<path class="st2" d="M87.85,352.11c-0.08-0.09-0.12-0.2-0.12-0.33v-21.16c0-0.13,0.04-0.24,0.12-0.33s0.19-0.13,0.32-0.13h0.74
						c0.13,0,0.24,0.04,0.33,0.13s0.13,0.2,0.13,0.33v21.16c0,0.13-0.04,0.24-0.13,0.33c-0.09,0.09-0.2,0.13-0.33,0.13h-0.74
						C88.04,352.24,87.93,352.2,87.85,352.11z"/>
					<path class="st2" d="M96.88,347.95c-0.09-0.09-0.13-0.2-0.13-0.33v-0.6c0-0.31,0.17-0.6,0.5-0.88l4.36-4.34
						c0.99-0.84,1.67-1.53,2.04-2.06s0.56-1.1,0.56-1.7c0-0.79-0.22-1.4-0.66-1.85c-0.44-0.45-1.08-0.67-1.92-0.67
						c-0.8,0-1.43,0.23-1.9,0.7c-0.47,0.47-0.75,1.09-0.86,1.88c-0.03,0.15-0.09,0.26-0.2,0.34c-0.11,0.08-0.21,0.12-0.32,0.12
						h-0.96c-0.12,0-0.22-0.04-0.3-0.12s-0.12-0.17-0.12-0.28c0.03-0.71,0.22-1.39,0.57-2.05c0.35-0.66,0.88-1.2,1.57-1.62
						s1.53-0.63,2.52-0.63c1.49,0,2.62,0.39,3.37,1.17c0.75,0.78,1.13,1.77,1.13,2.97c0,0.84-0.2,1.6-0.61,2.27
						c-0.41,0.67-1.04,1.38-1.91,2.13l-3.94,4h6.3c0.15,0,0.26,0.04,0.34,0.12c0.08,0.08,0.12,0.19,0.12,0.34v0.76
						c0,0.13-0.04,0.24-0.13,0.33c-0.09,0.09-0.2,0.13-0.33,0.13h-8.76C97.08,348.08,96.96,348.04,96.88,347.95z"/>
					<path class="st2" d="M111.08,347.77c-0.79-0.34-1.41-0.83-1.85-1.47c-0.44-0.64-0.66-1.39-0.66-2.24c0-0.79,0.2-1.48,0.59-2.07
						s0.92-1.05,1.59-1.37c-0.53-0.31-0.95-0.71-1.24-1.21c-0.29-0.5-0.44-1.09-0.44-1.77c0-1.16,0.43-2.08,1.3-2.75
						c0.87-0.67,2.01-1.01,3.42-1.01s2.55,0.33,3.41,1c0.86,0.67,1.29,1.59,1.29,2.76c0,0.67-0.15,1.25-0.44,1.75
						c-0.29,0.5-0.7,0.91-1.22,1.23c0.67,0.32,1.2,0.78,1.59,1.37s0.59,1.29,0.59,2.09c0,0.85-0.22,1.6-0.66,2.23
						c-0.44,0.63-1.06,1.12-1.85,1.46c-0.79,0.34-1.7,0.51-2.71,0.51S111.87,348.11,111.08,347.77z M116.16,346
						c0.63-0.48,0.95-1.12,0.95-1.92s-0.32-1.44-0.95-1.92c-0.63-0.48-1.42-0.72-2.37-0.72c-0.96,0-1.76,0.24-2.39,0.72
						c-0.63,0.48-0.95,1.12-0.95,1.92s0.32,1.44,0.95,1.92c0.63,0.48,1.43,0.72,2.39,0.72C114.74,346.72,115.53,346.48,116.16,346z
						 M115.85,339.28c0.56-0.4,0.84-0.93,0.84-1.6c0-0.68-0.28-1.22-0.83-1.63c-0.55-0.41-1.24-0.61-2.07-0.61
						c-0.84,0-1.53,0.2-2.08,0.61c-0.55,0.41-0.82,0.95-0.82,1.63c0,0.68,0.27,1.22,0.82,1.63c0.55,0.41,1.24,0.61,2.08,0.61
						C114.6,339.89,115.29,339.68,115.85,339.28z"/>
					<path class="st2" d="M121.42,347.95c-0.09-0.09-0.13-0.2-0.13-0.33v-1.38c0-0.13,0.04-0.25,0.13-0.34
						c0.09-0.09,0.2-0.14,0.33-0.14h1.38c0.13,0,0.24,0.05,0.33,0.14c0.09,0.09,0.13,0.21,0.13,0.34v1.38
						c0,0.13-0.04,0.24-0.13,0.33c-0.09,0.09-0.2,0.13-0.33,0.13h-1.38C121.62,348.08,121.5,348.04,121.42,347.95z"/>
					<path class="st2" d="M128.06,347.63c-0.78-0.43-1.37-1.02-1.78-1.75s-0.61-1.53-0.61-2.4c0-1.15,0.46-2.37,1.38-3.68l3.82-5.32
						c0.01-0.01,0.05-0.06,0.11-0.14s0.14-0.14,0.23-0.19c0.09-0.05,0.2-0.07,0.32-0.07h0.98c0.12,0,0.22,0.04,0.29,0.13
						c0.07,0.09,0.11,0.19,0.11,0.31c0,0.07-0.03,0.15-0.1,0.26l-2.92,4.08c0.35-0.08,0.73-0.12,1.16-0.12
						c0.97,0,1.83,0.22,2.57,0.65c0.74,0.43,1.31,1.01,1.72,1.72c0.41,0.71,0.61,1.5,0.61,2.35c0,0.85-0.2,1.65-0.61,2.39
						c-0.41,0.74-1,1.33-1.77,1.77s-1.69,0.66-2.74,0.66C129.76,348.28,128.84,348.06,128.06,347.63z M132.43,346.26
						c0.49-0.24,0.89-0.6,1.18-1.07c0.29-0.47,0.44-1.04,0.44-1.71c0-0.65-0.15-1.22-0.45-1.69c-0.3-0.47-0.7-0.83-1.19-1.08
						c-0.49-0.25-1.03-0.37-1.6-0.37s-1.11,0.12-1.6,0.37c-0.49,0.25-0.89,0.61-1.18,1.08c-0.29,0.47-0.44,1.04-0.44,1.69
						c0,0.67,0.15,1.24,0.44,1.71c0.29,0.47,0.69,0.83,1.18,1.07c0.49,0.24,1.03,0.36,1.6,0.36
						C131.4,346.62,131.93,346.5,132.43,346.26z"/>
					<path class="st2" d="M143.24,347.95c-0.09-0.09-0.13-0.2-0.13-0.33v-9.48c0-0.13,0.04-0.24,0.13-0.33
						c0.09-0.09,0.2-0.13,0.33-0.13h0.84c0.13,0,0.24,0.04,0.32,0.13c0.08,0.09,0.12,0.2,0.12,0.33v0.68
						c0.72-0.89,1.69-1.34,2.92-1.34c1.47,0,2.51,0.61,3.12,1.84c0.32-0.56,0.78-1.01,1.37-1.34c0.59-0.33,1.26-0.5,1.99-0.5
						c1.09,0,1.99,0.37,2.68,1.12c0.69,0.75,1.04,1.83,1.04,3.24v5.78c0,0.13-0.04,0.24-0.13,0.33c-0.09,0.09-0.2,0.13-0.33,0.13
						h-0.86c-0.13,0-0.24-0.04-0.33-0.13s-0.13-0.2-0.13-0.33v-5.6c0-1.07-0.22-1.83-0.66-2.29c-0.44-0.46-1.02-0.69-1.74-0.69
						c-0.64,0-1.19,0.24-1.65,0.71c-0.46,0.47-0.69,1.23-0.69,2.27v5.6c0,0.13-0.04,0.24-0.13,0.33s-0.2,0.13-0.33,0.13h-0.88
						c-0.13,0-0.24-0.04-0.33-0.13s-0.13-0.2-0.13-0.33v-5.6c0-1.05-0.23-1.81-0.69-2.28s-1.03-0.7-1.71-0.7
						c-0.64,0-1.19,0.23-1.65,0.7s-0.69,1.22-0.69,2.26v5.62c0,0.13-0.04,0.24-0.13,0.33s-0.2,0.13-0.33,0.13h-0.88
						C143.43,348.08,143.33,348.04,143.24,347.95z"/>
					<path class="st2" d="M161,347.95c-0.09-0.09-0.13-0.2-0.13-0.33v-9.48c0-0.13,0.04-0.24,0.13-0.33
						c0.09-0.09,0.2-0.13,0.33-0.13h0.84c0.13,0,0.24,0.04,0.32,0.13c0.08,0.09,0.12,0.2,0.12,0.33v0.68
						c0.72-0.89,1.69-1.34,2.92-1.34c1.47,0,2.51,0.61,3.12,1.84c0.32-0.56,0.78-1.01,1.37-1.34c0.59-0.33,1.26-0.5,1.99-0.5
						c1.09,0,1.99,0.37,2.68,1.12c0.69,0.75,1.04,1.83,1.04,3.24v5.78c0,0.13-0.04,0.24-0.13,0.33c-0.09,0.09-0.2,0.13-0.33,0.13
						h-0.86c-0.13,0-0.24-0.04-0.33-0.13s-0.13-0.2-0.13-0.33v-5.6c0-1.07-0.22-1.83-0.66-2.29c-0.44-0.46-1.02-0.69-1.74-0.69
						c-0.64,0-1.19,0.24-1.65,0.71c-0.46,0.47-0.69,1.23-0.69,2.27v5.6c0,0.13-0.04,0.24-0.13,0.33s-0.2,0.13-0.33,0.13h-0.88
						c-0.13,0-0.24-0.04-0.33-0.13s-0.13-0.2-0.13-0.33v-5.6c0-1.05-0.23-1.81-0.69-2.28s-1.03-0.7-1.71-0.7
						c-0.64,0-1.19,0.23-1.65,0.7s-0.69,1.22-0.69,2.26v5.62c0,0.13-0.04,0.24-0.13,0.33s-0.2,0.13-0.33,0.13h-0.88
						C161.19,348.08,161.08,348.04,161,347.95z"/>
				</g>
			</g>
			<polyline class="st1" points="33.02,396.21 38.75,401.93 44.47,396.21 			"/>
			<line class="st1" x1="38.75" y1="401.64" x2="38.75" y2="367.33"/>
			<polyline class="st1" points="33.03,373.07 38.76,367.34 44.48,373.07 			"/>
		</g>
	</g>
	<g>
		<g id="MTEXT_49_">
			<g>
				<g>
					<path class="st2" d="M217.61,85.82c-0.07-0.09-0.11-0.19-0.11-0.31l0.04-0.18l5-11.7h-6.6c-0.13,0-0.24-0.04-0.33-0.13
						c-0.09-0.09-0.13-0.2-0.13-0.33v-0.74c0-0.15,0.04-0.26,0.12-0.35s0.19-0.13,0.34-0.13h8.16c0.15,0,0.26,0.04,0.34,0.13
						s0.12,0.2,0.12,0.35v0.68c0,0.24-0.05,0.5-0.16,0.78l-4.94,11.56c-0.07,0.15-0.14,0.27-0.22,0.36
						c-0.08,0.09-0.19,0.14-0.34,0.14h-1C217.78,85.95,217.68,85.91,217.61,85.82z"/>
					<path class="st2" d="M227.81,85.82c-0.07-0.09-0.11-0.19-0.11-0.31l0.04-0.18l5-11.7h-6.6c-0.13,0-0.24-0.04-0.33-0.13
						c-0.09-0.09-0.13-0.2-0.13-0.33v-0.74c0-0.15,0.04-0.26,0.12-0.35s0.19-0.13,0.34-0.13h8.16c0.15,0,0.26,0.04,0.34,0.13
						s0.12,0.2,0.12,0.35v0.68c0,0.24-0.05,0.5-0.16,0.78l-4.94,11.56c-0.07,0.15-0.14,0.27-0.22,0.36
						c-0.08,0.09-0.19,0.14-0.34,0.14h-1C227.98,85.95,227.88,85.91,227.81,85.82z"/>
					<path class="st2" d="M235.47,85.82c-0.09-0.09-0.13-0.2-0.13-0.33v-1.38c0-0.13,0.04-0.25,0.13-0.34
						c0.09-0.09,0.2-0.14,0.33-0.14h1.38c0.13,0,0.24,0.05,0.33,0.14c0.09,0.09,0.13,0.21,0.13,0.34v1.38
						c0,0.13-0.04,0.24-0.13,0.33c-0.09,0.09-0.2,0.13-0.33,0.13h-1.38C235.67,85.95,235.56,85.91,235.47,85.82z"/>
					<path class="st2" d="M242.2,85.61c-0.73-0.36-1.29-0.83-1.68-1.41s-0.59-1.2-0.62-1.87v-0.04c0-0.11,0.04-0.19,0.12-0.26
						s0.17-0.1,0.28-0.1h0.98c0.28,0,0.46,0.15,0.54,0.44c0.2,0.72,0.57,1.26,1.11,1.61s1.16,0.53,1.87,0.53
						c0.91,0,1.66-0.28,2.26-0.83c0.6-0.55,0.9-1.32,0.9-2.29c0-0.89-0.3-1.6-0.9-2.13c-0.6-0.53-1.35-0.79-2.26-0.79
						c-0.48,0-0.87,0.06-1.16,0.18c-0.29,0.12-0.59,0.29-0.9,0.52c-0.17,0.13-0.32,0.23-0.43,0.29c-0.11,0.06-0.24,0.09-0.37,0.09
						h-0.96c-0.12,0-0.23-0.04-0.32-0.13c-0.09-0.09-0.13-0.19-0.12-0.31l0.62-6.66c0.04-0.33,0.21-0.5,0.5-0.5h6.92
						c0.15,0,0.26,0.04,0.34,0.12c0.08,0.08,0.12,0.19,0.12,0.34v0.74c0,0.13-0.04,0.24-0.13,0.32c-0.09,0.08-0.2,0.12-0.33,0.12
						h-5.76l-0.36,4.02c0.64-0.45,1.5-0.68,2.58-0.68c0.89,0,1.71,0.18,2.44,0.53c0.73,0.35,1.32,0.87,1.75,1.55
						c0.43,0.68,0.65,1.49,0.65,2.42c0,0.99-0.22,1.84-0.65,2.55c-0.43,0.71-1.03,1.25-1.8,1.62c-0.77,0.37-1.64,0.55-2.63,0.55
						C243.8,86.15,242.93,85.97,242.2,85.61z"/>
					<path class="st2" d="M257.21,73.46c-0.09-0.09-0.13-0.2-0.13-0.33v-1.04c0-0.13,0.04-0.25,0.13-0.34
						c0.09-0.09,0.2-0.14,0.33-0.14h1.18c0.13,0,0.25,0.05,0.34,0.14c0.09,0.09,0.14,0.21,0.14,0.34v1.04
						c0,0.13-0.05,0.24-0.14,0.33c-0.09,0.09-0.21,0.13-0.34,0.13h-1.18C257.41,73.59,257.3,73.54,257.21,73.46z M257.37,85.82
						c-0.09-0.09-0.13-0.2-0.13-0.33v-9.48c0-0.13,0.04-0.24,0.13-0.33c0.09-0.09,0.2-0.13,0.33-0.13h0.88
						c0.13,0,0.24,0.04,0.33,0.13c0.09,0.09,0.13,0.2,0.13,0.33v9.48c0,0.13-0.04,0.24-0.13,0.33s-0.2,0.13-0.33,0.13h-0.88
						C257.57,85.95,257.46,85.91,257.37,85.82z"/>
					<path class="st2" d="M262.17,85.82c-0.09-0.09-0.13-0.2-0.13-0.33v-9.48c0-0.13,0.04-0.24,0.13-0.33
						c0.09-0.09,0.2-0.13,0.33-0.13h0.86c0.15,0,0.26,0.04,0.34,0.12s0.12,0.19,0.12,0.34v0.88c0.4-0.49,0.86-0.87,1.39-1.14
						s1.18-0.4,1.97-0.4c1.28,0,2.27,0.41,2.98,1.23c0.71,0.82,1.06,1.9,1.06,3.25v5.66c0,0.13-0.04,0.24-0.13,0.33
						s-0.2,0.13-0.33,0.13h-0.92c-0.13,0-0.24-0.04-0.33-0.13s-0.13-0.2-0.13-0.33v-5.54c0-0.96-0.23-1.71-0.7-2.24s-1.13-0.8-2-0.8
						c-0.85,0-1.53,0.27-2.04,0.81c-0.51,0.54-0.76,1.28-0.76,2.23v5.54c0,0.13-0.04,0.24-0.13,0.33s-0.2,0.13-0.33,0.13h-0.92
						C262.37,85.95,262.26,85.91,262.17,85.82z"/>
					<path class="st2" d="M273.27,79.21c-0.05-0.05-0.08-0.11-0.08-0.19v-0.35c0-0.18,0.1-0.35,0.29-0.51l2.54-2.53
						c0.58-0.49,0.97-0.89,1.19-1.2c0.22-0.31,0.33-0.64,0.33-0.99c0-0.46-0.13-0.82-0.38-1.08c-0.26-0.26-0.63-0.39-1.12-0.39
						c-0.47,0-0.83,0.14-1.11,0.41c-0.27,0.27-0.44,0.64-0.5,1.1c-0.02,0.09-0.05,0.15-0.12,0.2s-0.12,0.07-0.19,0.07h-0.56
						c-0.07,0-0.13-0.02-0.17-0.07s-0.07-0.1-0.07-0.16c0.02-0.41,0.13-0.81,0.33-1.2c0.21-0.38,0.51-0.7,0.92-0.94
						s0.89-0.37,1.47-0.37c0.87,0,1.53,0.23,1.96,0.68c0.44,0.46,0.66,1.03,0.66,1.73c0,0.49-0.12,0.93-0.36,1.32
						c-0.24,0.39-0.61,0.81-1.11,1.24l-2.3,2.33h3.67c0.09,0,0.15,0.02,0.2,0.07c0.05,0.05,0.07,0.11,0.07,0.2v0.44
						c0,0.08-0.03,0.14-0.08,0.19c-0.05,0.05-0.11,0.08-0.19,0.08h-5.11C273.38,79.29,273.32,79.26,273.27,79.21z"/>
					<path class="st2" d="M218.12,107.41c-0.73-0.36-1.29-0.83-1.68-1.41s-0.59-1.2-0.62-1.87v-0.04c0-0.11,0.04-0.19,0.12-0.26
						s0.17-0.1,0.28-0.1h0.98c0.28,0,0.46,0.15,0.54,0.44c0.2,0.72,0.57,1.26,1.11,1.61s1.16,0.53,1.87,0.53
						c0.91,0,1.66-0.28,2.26-0.83c0.6-0.55,0.9-1.32,0.9-2.29c0-0.89-0.3-1.6-0.9-2.13c-0.6-0.53-1.35-0.79-2.26-0.79
						c-0.48,0-0.87,0.06-1.16,0.18c-0.29,0.12-0.59,0.29-0.9,0.52c-0.17,0.13-0.32,0.23-0.43,0.29c-0.11,0.06-0.24,0.09-0.37,0.09
						h-0.96c-0.12,0-0.23-0.04-0.32-0.13c-0.09-0.09-0.13-0.19-0.12-0.31l0.62-6.66c0.04-0.33,0.21-0.5,0.5-0.5h6.92
						c0.15,0,0.26,0.04,0.34,0.12c0.08,0.08,0.12,0.19,0.12,0.34v0.74c0,0.13-0.04,0.24-0.13,0.32c-0.09,0.08-0.2,0.12-0.33,0.12
						h-5.76l-0.36,4.02c0.64-0.45,1.5-0.68,2.58-0.68c0.89,0,1.71,0.18,2.44,0.53c0.73,0.35,1.32,0.87,1.75,1.55
						c0.43,0.68,0.65,1.49,0.65,2.42c0,0.99-0.22,1.84-0.65,2.55c-0.43,0.71-1.03,1.25-1.8,1.62c-0.77,0.37-1.64,0.55-2.63,0.55
						C219.72,107.95,218.85,107.77,218.12,107.41z"/>
					<path class="st2" d="M229.29,106.44c-0.79-1.01-1.22-2.32-1.27-3.95l-0.02-1.72l0.02-1.78c0.04-1.61,0.46-2.92,1.27-3.93
						c0.81-1.01,2.06-1.51,3.77-1.51c1.72,0,2.98,0.5,3.79,1.51c0.81,1.01,1.23,2.32,1.27,3.93c0.01,0.37,0.02,0.97,0.02,1.78
						c0,0.79-0.01,1.36-0.02,1.72c-0.05,1.63-0.48,2.94-1.27,3.95c-0.79,1.01-2.06,1.51-3.79,1.51
						C231.34,107.95,230.08,107.45,229.29,106.44z M235.38,105.27c0.52-0.68,0.79-1.64,0.82-2.88c0.01-0.39,0.02-0.94,0.02-1.66
						c0-0.73-0.01-1.28-0.02-1.64c-0.03-1.23-0.3-2.18-0.83-2.87c-0.53-0.69-1.3-1.03-2.31-1.03c-1.01,0-1.78,0.34-2.3,1.03
						c-0.52,0.69-0.79,1.64-0.82,2.87l-0.02,1.64l0.02,1.66c0.03,1.24,0.3,2.2,0.82,2.88c0.52,0.68,1.29,1.02,2.3,1.02
						C234.09,106.29,234.86,105.95,235.38,105.27z"/>
					<path class="st2" d="M241.95,106.44c-0.79-1.01-1.22-2.32-1.27-3.95l-0.02-1.72l0.02-1.78c0.04-1.61,0.46-2.92,1.27-3.93
						c0.81-1.01,2.06-1.51,3.77-1.51c1.72,0,2.98,0.5,3.79,1.51c0.81,1.01,1.23,2.32,1.27,3.93c0.01,0.37,0.02,0.97,0.02,1.78
						c0,0.79-0.01,1.36-0.02,1.72c-0.05,1.63-0.48,2.94-1.27,3.95c-0.79,1.01-2.06,1.51-3.79,1.51
						C244,107.95,242.74,107.45,241.95,106.44z M248.04,105.27c0.52-0.68,0.79-1.64,0.82-2.88c0.01-0.39,0.02-0.94,0.02-1.66
						c0-0.73-0.01-1.28-0.02-1.64c-0.03-1.23-0.3-2.18-0.83-2.87c-0.53-0.69-1.3-1.03-2.31-1.03c-1.01,0-1.78,0.34-2.3,1.03
						c-0.52,0.69-0.79,1.64-0.82,2.87l-0.02,1.64l0.02,1.66c0.03,1.24,0.3,2.2,0.82,2.88c0.52,0.68,1.29,1.02,2.3,1.02
						C246.75,106.29,247.52,105.95,248.04,105.27z"/>
					<path class="st2" d="M259.3,106.74c-0.8-0.81-1.22-1.94-1.26-3.39l-0.02-0.8l0.02-0.8c0.04-1.45,0.46-2.58,1.26-3.39
						c0.8-0.81,1.91-1.21,3.34-1.21c0.96,0,1.77,0.17,2.43,0.51s1.15,0.76,1.48,1.27c0.33,0.51,0.5,1.01,0.53,1.52
						c0.01,0.12-0.03,0.23-0.13,0.32c-0.1,0.09-0.21,0.14-0.33,0.14h-0.88c-0.13,0-0.23-0.03-0.3-0.09
						c-0.07-0.06-0.13-0.17-0.2-0.33c-0.24-0.65-0.57-1.12-0.99-1.39c-0.42-0.27-0.95-0.41-1.59-0.41c-0.84,0-1.51,0.26-2,0.78
						c-0.49,0.52-0.76,1.31-0.8,2.38l-0.02,0.7l0.02,0.7c0.04,1.07,0.31,1.86,0.8,2.38c0.49,0.52,1.16,0.78,2,0.78
						c0.65,0,1.19-0.14,1.6-0.41c0.41-0.27,0.74-0.74,0.98-1.39c0.07-0.16,0.13-0.27,0.2-0.33c0.07-0.06,0.17-0.09,0.3-0.09h0.88
						c0.12,0,0.23,0.05,0.33,0.14c0.1,0.09,0.14,0.2,0.13,0.32c-0.03,0.49-0.2,0.99-0.53,1.5c-0.33,0.51-0.82,0.93-1.48,1.28
						s-1.47,0.52-2.43,0.52C261.21,107.95,260.1,107.54,259.3,106.74z"/>
					<path class="st2" d="M269.61,107.62c-0.09-0.09-0.13-0.2-0.13-0.33v-9.48c0-0.13,0.04-0.24,0.13-0.33
						c0.09-0.09,0.2-0.13,0.33-0.13h0.84c0.13,0,0.24,0.04,0.32,0.13c0.08,0.09,0.12,0.2,0.12,0.33v0.68
						c0.72-0.89,1.69-1.34,2.92-1.34c1.47,0,2.51,0.61,3.12,1.84c0.32-0.56,0.78-1.01,1.37-1.34c0.59-0.33,1.26-0.5,1.99-0.5
						c1.09,0,1.99,0.37,2.68,1.12c0.69,0.75,1.04,1.83,1.04,3.24v5.78c0,0.13-0.04,0.24-0.13,0.33c-0.09,0.09-0.2,0.13-0.33,0.13
						h-0.86c-0.13,0-0.24-0.04-0.33-0.13s-0.13-0.2-0.13-0.33v-5.6c0-1.07-0.22-1.83-0.66-2.29c-0.44-0.46-1.02-0.69-1.74-0.69
						c-0.64,0-1.19,0.24-1.65,0.71c-0.46,0.47-0.69,1.23-0.69,2.27v5.6c0,0.13-0.04,0.24-0.13,0.33s-0.2,0.13-0.33,0.13h-0.88
						c-0.13,0-0.24-0.04-0.33-0.13s-0.13-0.2-0.13-0.33v-5.6c0-1.05-0.23-1.81-0.69-2.28s-1.03-0.7-1.71-0.7
						c-0.64,0-1.19,0.23-1.65,0.7s-0.69,1.22-0.69,2.26v5.62c0,0.13-0.04,0.24-0.13,0.33s-0.2,0.13-0.33,0.13h-0.88
						C269.81,107.75,269.7,107.71,269.61,107.62z"/>
					<path class="st2" d="M286.39,101.01c-0.05-0.05-0.08-0.11-0.08-0.19v-0.35c0-0.18,0.1-0.35,0.29-0.51l2.54-2.53
						c0.58-0.49,0.97-0.89,1.19-1.2c0.22-0.31,0.33-0.64,0.33-0.99c0-0.46-0.13-0.82-0.38-1.08c-0.26-0.26-0.63-0.39-1.12-0.39
						c-0.47,0-0.83,0.14-1.11,0.41c-0.27,0.27-0.44,0.64-0.5,1.1c-0.02,0.09-0.05,0.15-0.12,0.2s-0.12,0.07-0.19,0.07h-0.56
						c-0.07,0-0.13-0.02-0.17-0.07s-0.07-0.1-0.07-0.16c0.02-0.41,0.13-0.81,0.33-1.2c0.21-0.38,0.51-0.7,0.92-0.94
						s0.89-0.37,1.47-0.37c0.87,0,1.53,0.23,1.96,0.68c0.44,0.46,0.66,1.03,0.66,1.73c0,0.49-0.12,0.93-0.36,1.32
						c-0.24,0.39-0.61,0.81-1.11,1.24l-2.3,2.33h3.67c0.09,0,0.15,0.02,0.2,0.07c0.05,0.05,0.07,0.11,0.07,0.2v0.44
						c0,0.08-0.03,0.14-0.08,0.19c-0.05,0.05-0.11,0.08-0.19,0.08h-5.11C286.5,101.09,286.44,101.06,286.39,101.01z"/>
					<path class="st2" d="M300.52,109.96c-0.67-0.65-1.16-1.65-1.45-3.01c-0.29-1.36-0.44-3.15-0.44-5.38s0.15-4.02,0.44-5.37
						c0.29-1.35,0.78-2.35,1.45-3s1.58-0.97,2.73-0.97c0.13,0,0.24,0.04,0.33,0.13c0.09,0.09,0.13,0.2,0.13,0.33v0.66
						c0,0.12-0.04,0.22-0.12,0.31s-0.17,0.13-0.28,0.13c-0.76,0.01-1.35,0.27-1.78,0.77s-0.73,1.31-0.92,2.42s-0.28,2.64-0.28,4.59
						c0,1.96,0.09,3.5,0.28,4.61s0.49,1.92,0.92,2.42s1.02,0.76,1.78,0.77c0.11,0,0.2,0.04,0.28,0.13s0.12,0.19,0.12,0.31v0.66
						c0,0.13-0.04,0.24-0.13,0.33c-0.09,0.09-0.2,0.13-0.33,0.13C302.1,110.93,301.19,110.6,300.52,109.96z"/>
					<path class="st2" d="M305.9,107.62c-0.09-0.09-0.13-0.2-0.13-0.33V94.23c0-0.15,0.04-0.26,0.12-0.35s0.19-0.13,0.34-0.13h0.94
						c0.24,0,0.41,0.1,0.5,0.3l4.26,8.18l4.3-8.18c0.11-0.2,0.27-0.3,0.48-0.3h0.94c0.15,0,0.26,0.04,0.34,0.13
						c0.08,0.09,0.12,0.2,0.12,0.35v13.06c0,0.13-0.04,0.24-0.13,0.33s-0.2,0.13-0.33,0.13h-0.92c-0.13,0-0.24-0.04-0.32-0.13
						s-0.12-0.2-0.12-0.33v-9.94l-3.42,6.62c-0.13,0.28-0.35,0.42-0.64,0.42h-0.6c-0.28,0-0.49-0.14-0.64-0.42l-3.4-6.62v9.94
						c0,0.13-0.04,0.24-0.13,0.33c-0.09,0.09-0.2,0.13-0.33,0.13h-0.9C306.1,107.75,305.99,107.71,305.9,107.62z"/>
					<path class="st2" d="M322.44,107.55c-0.55-0.27-0.99-0.63-1.32-1.09c-0.33-0.46-0.49-0.97-0.49-1.53c0-0.88,0.36-1.6,1.08-2.16
						c0.72-0.56,1.7-0.93,2.94-1.12l3-0.42v-0.58c0-1.37-0.79-2.06-2.38-2.06c-0.61,0-1.11,0.12-1.48,0.37
						c-0.37,0.25-0.65,0.54-0.82,0.87c-0.05,0.13-0.11,0.22-0.17,0.27c-0.06,0.05-0.14,0.07-0.25,0.07h-0.78
						c-0.12,0-0.22-0.04-0.31-0.13s-0.13-0.19-0.13-0.31c0-0.31,0.14-0.66,0.43-1.07c0.29-0.41,0.73-0.76,1.33-1.06
						c0.6-0.3,1.33-0.45,2.2-0.45c1.49,0,2.56,0.35,3.21,1.04s0.97,1.56,0.97,2.6v6.5c0,0.13-0.04,0.24-0.13,0.33
						s-0.2,0.13-0.33,0.13h-0.88c-0.13,0-0.24-0.04-0.32-0.13c-0.08-0.09-0.12-0.2-0.12-0.33v-0.88c-0.29,0.44-0.72,0.81-1.28,1.1
						s-1.28,0.44-2.16,0.44C323.6,107.95,322.99,107.81,322.44,107.55z M326.81,105.63c0.56-0.57,0.84-1.41,0.84-2.5v-0.56
						l-2.34,0.34c-0.96,0.13-1.69,0.36-2.18,0.68s-0.74,0.72-0.74,1.2c0,0.55,0.22,0.97,0.67,1.26c0.45,0.29,0.98,0.44,1.59,0.44
						C325.53,106.49,326.25,106.2,326.81,105.63z"/>
					<path class="st2" d="M331.59,107.63c-0.08-0.08-0.12-0.18-0.12-0.3s0.05-0.25,0.14-0.38l3.48-4.52l-3.26-4.3
						c-0.11-0.15-0.16-0.27-0.16-0.36c0-0.12,0.04-0.22,0.13-0.3s0.18-0.12,0.29-0.12h0.96c0.2,0,0.37,0.11,0.52,0.32l2.7,3.5
						l2.7-3.5c0.08-0.11,0.16-0.19,0.23-0.24c0.07-0.05,0.17-0.08,0.29-0.08h0.92c0.11,0,0.2,0.04,0.28,0.12s0.12,0.17,0.12,0.28
						c0,0.13-0.05,0.26-0.14,0.38l-3.3,4.34l3.48,4.48c0.09,0.13,0.14,0.26,0.14,0.38s-0.04,0.22-0.12,0.3s-0.18,0.12-0.3,0.12
						h-0.98c-0.2,0-0.37-0.1-0.52-0.3l-2.86-3.7l-2.86,3.7c-0.08,0.09-0.16,0.17-0.23,0.22c-0.07,0.05-0.17,0.08-0.29,0.08h-0.94
						C331.77,107.75,331.67,107.71,331.59,107.63z"/>
					<path class="st2" d="M349.9,107.43c-0.81-0.35-1.42-0.8-1.84-1.37c-0.42-0.57-0.64-1.18-0.67-1.83c0-0.11,0.04-0.2,0.12-0.28
						c0.08-0.08,0.18-0.12,0.3-0.12h0.98c0.24,0,0.41,0.13,0.5,0.4c0.12,0.56,0.46,1.04,1.03,1.45c0.57,0.41,1.38,0.61,2.43,0.61
						c1.13,0,1.98-0.2,2.54-0.6c0.56-0.4,0.84-0.95,0.84-1.66c0-0.45-0.14-0.83-0.41-1.12c-0.27-0.29-0.68-0.55-1.22-0.77
						c-0.54-0.22-1.35-0.49-2.43-0.81c-1.03-0.29-1.84-0.61-2.45-0.94c-0.61-0.33-1.06-0.74-1.37-1.23s-0.46-1.1-0.46-1.85
						c0-0.72,0.19-1.36,0.58-1.93c0.39-0.57,0.95-1.01,1.68-1.34c0.73-0.33,1.6-0.49,2.6-0.49c1.04,0,1.93,0.18,2.67,0.55
						c0.74,0.37,1.3,0.83,1.69,1.38c0.39,0.55,0.59,1.11,0.62,1.67c0,0.12-0.04,0.22-0.12,0.3c-0.08,0.08-0.18,0.12-0.3,0.12h-1
						c-0.11,0-0.21-0.03-0.3-0.1c-0.09-0.07-0.16-0.17-0.2-0.3c-0.08-0.57-0.4-1.05-0.96-1.42c-0.56-0.37-1.26-0.56-2.1-0.56
						c-0.91,0-1.63,0.18-2.16,0.53c-0.53,0.35-0.8,0.88-0.8,1.57c0,0.47,0.12,0.85,0.37,1.14c0.25,0.29,0.63,0.55,1.14,0.78
						s1.26,0.49,2.25,0.78c1.13,0.32,2.02,0.64,2.67,0.96c0.65,0.32,1.13,0.72,1.45,1.19c0.32,0.47,0.48,1.08,0.48,1.83
						c0,1.25-0.48,2.23-1.43,2.93c-0.95,0.7-2.24,1.05-3.87,1.05C351.66,107.95,350.71,107.77,349.9,107.43z"/>
					<path class="st2" d="M361.37,106.72c-0.69-0.82-1.04-1.91-1.04-3.27v-5.64c0-0.13,0.04-0.24,0.13-0.33
						c0.09-0.09,0.2-0.13,0.33-0.13h0.92c0.13,0,0.24,0.04,0.33,0.13c0.09,0.09,0.13,0.2,0.13,0.33v5.54c0,2.03,0.88,3.04,2.64,3.04
						c0.85,0,1.53-0.27,2.03-0.81s0.75-1.28,0.75-2.23v-5.54c0-0.13,0.04-0.24,0.13-0.33c0.09-0.09,0.2-0.13,0.33-0.13h0.92
						c0.13,0,0.24,0.04,0.33,0.13c0.09,0.09,0.13,0.2,0.13,0.33v9.48c0,0.13-0.04,0.24-0.13,0.33s-0.2,0.13-0.33,0.13h-0.86
						c-0.13,0-0.24-0.04-0.33-0.13s-0.13-0.2-0.13-0.33v-0.9c-0.39,0.52-0.84,0.91-1.36,1.17c-0.52,0.26-1.18,0.39-1.98,0.39
						C363.04,107.95,362.06,107.54,361.37,106.72z"/>
					<path class="st2" d="M372.56,107.62c-0.09-0.09-0.13-0.2-0.13-0.33v-9.46c0-0.13,0.04-0.25,0.13-0.34
						c0.09-0.09,0.2-0.14,0.33-0.14h0.84c0.15,0,0.26,0.04,0.35,0.13c0.09,0.09,0.13,0.2,0.13,0.35v0.88
						c0.55-0.91,1.47-1.36,2.78-1.36h0.78c0.15,0,0.26,0.04,0.34,0.12s0.12,0.19,0.12,0.34v0.74c0,0.13-0.04,0.24-0.12,0.33
						s-0.19,0.13-0.34,0.13h-1.14c-0.73,0-1.31,0.21-1.73,0.64s-0.63,1.01-0.63,1.74v5.9c0,0.13-0.05,0.24-0.14,0.33
						c-0.09,0.09-0.21,0.13-0.34,0.13h-0.9C372.75,107.75,372.64,107.71,372.56,107.62z"/>
					<path class="st2" d="M381.12,107.62c-0.09-0.09-0.13-0.2-0.13-0.33v-8.4h-1.72c-0.13,0-0.24-0.04-0.33-0.12
						c-0.09-0.08-0.13-0.19-0.13-0.32v-0.64c0-0.13,0.04-0.24,0.13-0.33c0.09-0.09,0.2-0.13,0.33-0.13h1.72v-1
						c0-1.08,0.26-1.92,0.79-2.51c0.53-0.59,1.39-0.89,2.59-0.89h1.18c0.13,0,0.24,0.04,0.33,0.13s0.13,0.2,0.13,0.33v0.64
						c0,0.13-0.04,0.24-0.13,0.32s-0.2,0.12-0.33,0.12h-1.14c-0.61,0-1.04,0.16-1.28,0.48c-0.24,0.32-0.36,0.81-0.36,1.48v0.9h2.58
						c0.13,0,0.24,0.04,0.33,0.13c0.09,0.09,0.13,0.2,0.13,0.33v0.64c0,0.13-0.04,0.24-0.13,0.32c-0.09,0.08-0.2,0.12-0.33,0.12
						h-2.58v8.4c0,0.13-0.04,0.24-0.13,0.33c-0.09,0.09-0.2,0.13-0.33,0.13h-0.86C381.31,107.75,381.2,107.71,381.12,107.62z"/>
					<path class="st2" d="M388.52,107.55c-0.55-0.27-0.99-0.63-1.32-1.09c-0.33-0.46-0.49-0.97-0.49-1.53c0-0.88,0.36-1.6,1.08-2.16
						c0.72-0.56,1.7-0.93,2.94-1.12l3-0.42v-0.58c0-1.37-0.79-2.06-2.38-2.06c-0.61,0-1.11,0.12-1.48,0.37
						c-0.37,0.25-0.65,0.54-0.82,0.87c-0.05,0.13-0.11,0.22-0.17,0.27c-0.06,0.05-0.14,0.07-0.25,0.07h-0.78
						c-0.12,0-0.22-0.04-0.31-0.13s-0.13-0.19-0.13-0.31c0-0.31,0.14-0.66,0.43-1.07c0.29-0.41,0.73-0.76,1.33-1.06
						c0.6-0.3,1.33-0.45,2.2-0.45c1.49,0,2.56,0.35,3.21,1.04s0.97,1.56,0.97,2.6v6.5c0,0.13-0.04,0.24-0.13,0.33
						s-0.2,0.13-0.33,0.13h-0.88c-0.13,0-0.24-0.04-0.32-0.13c-0.08-0.09-0.12-0.2-0.12-0.33v-0.88c-0.29,0.44-0.72,0.81-1.28,1.1
						s-1.28,0.44-2.16,0.44C389.67,107.95,389.07,107.81,388.52,107.55z M392.89,105.63c0.56-0.57,0.84-1.41,0.84-2.5v-0.56
						l-2.34,0.34c-0.96,0.13-1.69,0.36-2.18,0.68s-0.74,0.72-0.74,1.2c0,0.55,0.22,0.97,0.67,1.26c0.45,0.29,0.98,0.44,1.59,0.44
						C391.61,106.49,392.33,106.2,392.89,105.63z"/>
					<path class="st2" d="M399.27,106.74c-0.8-0.81-1.22-1.94-1.26-3.39l-0.02-0.8l0.02-0.8c0.04-1.45,0.46-2.58,1.26-3.39
						c0.8-0.81,1.91-1.21,3.34-1.21c0.96,0,1.77,0.17,2.43,0.51s1.15,0.76,1.48,1.27c0.33,0.51,0.5,1.01,0.53,1.52
						c0.01,0.12-0.03,0.23-0.13,0.32c-0.1,0.09-0.21,0.14-0.33,0.14h-0.88c-0.13,0-0.23-0.03-0.3-0.09
						c-0.07-0.06-0.13-0.17-0.2-0.33c-0.24-0.65-0.57-1.12-0.99-1.39c-0.42-0.27-0.95-0.41-1.59-0.41c-0.84,0-1.51,0.26-2,0.78
						c-0.49,0.52-0.76,1.31-0.8,2.38l-0.02,0.7l0.02,0.7c0.04,1.07,0.31,1.86,0.8,2.38c0.49,0.52,1.16,0.78,2,0.78
						c0.65,0,1.19-0.14,1.6-0.41c0.41-0.27,0.74-0.74,0.98-1.39c0.07-0.16,0.13-0.27,0.2-0.33c0.07-0.06,0.17-0.09,0.3-0.09h0.88
						c0.12,0,0.23,0.05,0.33,0.14c0.1,0.09,0.14,0.2,0.13,0.32c-0.03,0.49-0.2,0.99-0.53,1.5c-0.33,0.51-0.82,0.93-1.48,1.28
						s-1.47,0.52-2.43,0.52C401.18,107.95,400.07,107.54,399.27,106.74z"/>
					<path class="st2" d="M410.31,106.68c-0.81-0.85-1.26-2-1.34-3.47l-0.02-0.68l0.02-0.66c0.08-1.44,0.53-2.59,1.34-3.44
						c0.81-0.85,1.9-1.28,3.26-1.28c1.47,0,2.6,0.47,3.41,1.4c0.81,0.93,1.21,2.2,1.21,3.8v0.36c0,0.13-0.04,0.24-0.13,0.33
						c-0.09,0.09-0.2,0.13-0.33,0.13h-6.94v0.18c0.04,0.87,0.31,1.61,0.8,2.22s1.15,0.92,1.96,0.92c0.63,0,1.14-0.12,1.53-0.37
						s0.69-0.5,0.89-0.77c0.12-0.16,0.21-0.26,0.28-0.29c0.07-0.03,0.18-0.05,0.34-0.05h0.88c0.12,0,0.22,0.03,0.31,0.1
						c0.09,0.07,0.13,0.15,0.13,0.26c0,0.29-0.18,0.65-0.54,1.06c-0.36,0.41-0.87,0.77-1.53,1.07c-0.66,0.3-1.42,0.45-2.27,0.45
						C412.21,107.95,411.12,107.53,410.31,106.68z M416.37,101.81v-0.06c0-0.93-0.25-1.69-0.76-2.28c-0.51-0.59-1.19-0.88-2.04-0.88
						c-0.87,0-1.55,0.29-2.04,0.88c-0.49,0.59-0.74,1.35-0.74,2.28v0.06H416.37z"/>
					<path class="st2" d="M418.9,110.8c-0.09-0.09-0.13-0.2-0.13-0.33v-0.66c0-0.12,0.04-0.22,0.12-0.31s0.17-0.13,0.28-0.13
						c0.75-0.01,1.34-0.27,1.77-0.77s0.74-1.31,0.93-2.43s0.28-2.65,0.28-4.6c0-1.95-0.09-3.48-0.28-4.59s-0.5-1.92-0.93-2.42
						s-1.02-0.76-1.77-0.77c-0.11,0-0.2-0.04-0.28-0.13s-0.12-0.19-0.12-0.31v-0.66c0-0.13,0.04-0.24,0.13-0.33s0.19-0.13,0.31-0.13
						c1.15,0,2.06,0.32,2.73,0.97c0.67,0.65,1.16,1.65,1.45,3c0.29,1.35,0.44,3.14,0.44,5.37s-0.15,4.02-0.44,5.38
						c-0.29,1.36-0.78,2.36-1.45,3.01c-0.67,0.65-1.58,0.97-2.73,0.97C419.09,110.93,418.98,110.88,418.9,110.8z"/>
				</g>
			</g>
		</g>
		<g>
			<g>
				<line class="st7" x1="557.82" y1="123.2" x2="556.32" y2="123.2"/>
				<line class="st8" x1="550.35" y1="123.2" x2="221.99" y2="123.2"/>
				<line class="st7" x1="219" y1="123.2" x2="217.5" y2="123.2"/>
			</g>
		</g>
	</g>
</g>
<g id="N-TEXT">
</g>
<g id="_x32_D_x24_AG-DIAGRAM">
</g>
<g id="_x32_D_x24_AG-DETAILS">
	<g id="POLYLINE_480_">
		<path class="st1" d="M77.4,402.04c-0.03-10.72,2.53-21.42,7.2-31.06"/>
	</g>
	<g id="POLYLINE_479_">
		<path class="st1" d="M101.08,399.92c0.26-9.63,2.62-19.19,6.68-27.92"/>
	</g>
	<g id="POLYLINE_478_">
		<path class="st1" d="M243.04,398.61c0.4-8.49,2.41-16.9,5.78-24.7"/>
	</g>
	<g id="POLYLINE_477_">
		<path class="st1" d="M195.69,399.88c0.27-9.62,2.62-19.16,6.68-27.87"/>
	</g>
	<g id="POLYLINE_476_">
		<path class="st1" d="M219.34,399.83c0.27-9.53,2.59-19,6.59-27.64"/>
	</g>
	<g id="POLYLINE_475_">
		<path class="st1" d="M172.04,399.88c0.27-9.62,2.62-19.16,6.68-27.87"/>
	</g>
	<g id="POLYLINE_474_">
		<path class="st1" d="M124.73,399.88c0.27-9.62,2.62-19.16,6.68-27.87"/>
	</g>
	<g id="POLYLINE_473_">
		<path class="st1" d="M148.39,399.88c0.27-9.62,2.62-19.16,6.68-27.87"/>
	</g>
	<g id="POLYLINE_472_">
		<path class="st1" d="M851.97,389.5c-0.74-0.08-358.62,0.15-359.28-0.08c-0.66-0.14-1.28-0.47-1.76-0.94
			c-0.68-0.66-1.07-1.59-1.06-2.54c0-0.94,0.39-1.88,1.06-2.54c0.5-0.49,1.14-0.83,1.82-0.96c0.75-0.2,358.45,0.01,359.22-0.06"/>
	</g>
	<g id="POLYLINE_471_">
		<path class="st1" d="M77.4,209.21c-0.02-14.53,2.39-29.1,7.2-42.82"/>
	</g>
	<g id="POLYLINE_470_">
		<path class="st1" d="M101.08,206.3c0.27-13.06,2.51-26.11,6.68-38.49"/>
	</g>
	<g id="POLYLINE_469_">
		<path class="st1" d="M243.04,204.48c0.4-11.5,2.34-23.07,5.78-34.05"/>
	</g>
	<g id="POLYLINE_468_">
		<path class="st1" d="M195.69,206.24c0.27-13.04,2.51-26.06,6.68-38.42"/>
	</g>
	<g id="POLYLINE_467_">
		<path class="st1" d="M219.34,206.17c0.28-12.93,2.49-25.85,6.59-38.11"/>
	</g>
	<g id="POLYLINE_466_">
		<path class="st1" d="M172.04,206.24c0.27-13.04,2.51-26.06,6.68-38.42"/>
	</g>
	<g id="POLYLINE_465_">
		<path class="st1" d="M124.73,206.24c0.27-13.04,2.51-26.06,6.68-38.42"/>
	</g>
	<g id="POLYLINE_464_">
		<path class="st1" d="M148.39,206.24c0.27-13.04,2.51-26.06,6.68-38.42"/>
	</g>
	<g id="POLYLINE_463_">
		<line class="st1" x1="764.36" y1="290.42" x2="764.36" y2="83.63"/>
	</g>
	<g id="POLYLINE_462_">
		<line class="st1" x1="780.48" y1="285.19" x2="780.48" y2="88.86"/>
	</g>
	<g id="POLYLINE_461_">
		<line class="st1" x1="797.24" y1="276.63" x2="797.24" y2="97.43"/>
	</g>
	<g id="POLYLINE_460_">
		<line class="st1" x1="813.45" y1="262.96" x2="813.45" y2="111.09"/>
	</g>
	<g id="POLYLINE_459_">
		<line class="st1" x1="665.84" y1="293.15" x2="665.84" y2="80.91"/>
	</g>
	<g id="POLYLINE_458_">
		<line class="st1" x1="748.69" y1="293.6" x2="748.69" y2="80.45"/>
	</g>
	<g id="POLYLINE_457_">
		<line class="st1" x1="694.64" y1="295.9" x2="694.64" y2="78.16"/>
	</g>
	<g id="POLYLINE_456_">
		<line class="st1" x1="708.15" y1="296.32" x2="708.15" y2="77.73"/>
	</g>
	<g id="POLYLINE_455_">
		<line class="st1" x1="721.66" y1="296.13" x2="721.66" y2="77.92"/>
	</g>
	<g id="POLYLINE_454_">
		<line class="st1" x1="735.17" y1="295.26" x2="735.17" y2="78.8"/>
	</g>
	<g id="POLYLINE_453_">
		<line class="st1" x1="681.13" y1="294.92" x2="681.13" y2="79.14"/>
	</g>
	<g id="POLYLINE_452_">
		<line class="st1" x1="649.72" y1="290.48" x2="649.72" y2="83.58"/>
	</g>
	<g id="POLYLINE_451_">
		<line class="st1" x1="613.78" y1="281.4" x2="613.78" y2="92.65"/>
	</g>
	<g id="POLYLINE_450_">
		<line class="st1" x1="631.7" y1="286.49" x2="631.7" y2="87.56"/>
	</g>
	<g id="POLYLINE_449_">
		<line class="st1" x1="593.06" y1="274.25" x2="593.06" y2="99.8"/>
	</g>
	<g id="POLYLINE_448_">
		<line class="st1" x1="570" y1="265.13" x2="570" y2="108.92"/>
	</g>
	<g id="POLYLINE_447_">
		<line class="st1" x1="544.15" y1="254.06" x2="544.15" y2="120"/>
	</g>
	<g id="POLYLINE_446_">
		<line class="st1" x1="514.88" y1="240.83" x2="514.88" y2="133.23"/>
	</g>
	<g id="POLYLINE_445_">
		<line class="st1" x1="418.51" y1="193.9" x2="837.36" y2="193.9"/>
	</g>
	<g id="POLYLINE_444_">
		<line class="st1" x1="442.7" y1="204.79" x2="836.63" y2="204.79"/>
	</g>
	<g id="POLYLINE_443_">
		<line class="st1" x1="593.82" y1="274.53" x2="800.35" y2="274.53"/>
	</g>
	<g id="POLYLINE_442_">
		<line class="st1" x1="546.69" y1="255.17" x2="819.65" y2="255.17"/>
	</g>
	<g id="POLYLINE_441_">
		<line class="st1" x1="485.38" y1="226.76" x2="832.64" y2="226.76"/>
	</g>
	<g id="POLYLINE_440_">
		<line class="st1" x1="509.99" y1="238.56" x2="828.63" y2="238.56"/>
	</g>
	<g id="POLYLINE_439_">
		<line class="st1" x1="462.54" y1="215.09" x2="835.24" y2="215.09"/>
	</g>
	<g id="POLYLINE_438_">
		<line class="st1" x1="418.51" y1="180.15" x2="837.36" y2="180.15"/>
	</g>
	<g id="POLYLINE_437_">
		<line class="st1" x1="442.7" y1="169.26" x2="836.63" y2="169.26"/>
	</g>
	<g id="POLYLINE_436_">
		<line class="st1" x1="593.82" y1="99.52" x2="800.35" y2="99.52"/>
	</g>
	<g id="POLYLINE_434_">
		<line class="st1" x1="546.69" y1="118.88" x2="819.65" y2="118.88"/>
	</g>
	<g id="POLYLINE_433_">
		<line class="st1" x1="485.38" y1="147.3" x2="832.64" y2="147.3"/>
	</g>
	<g id="POLYLINE_432_">
		<line class="st1" x1="509.99" y1="135.49" x2="828.63" y2="135.49"/>
	</g>
	<g id="POLYLINE_431_">
		<line class="st1" x1="462.54" y1="158.97" x2="835.24" y2="158.97"/>
	</g>
</g>
<g id="_x32_D_x24_AG-SPORTS">
	<g id="POLYLINE_396_">
		<path class="st40" d="M261.03,396.41c1.71-0.26,3.57-0.76,4.73-2.12c0.28-0.34,0.51-0.74,0.66-1.15c0.14-0.38,0.22-0.79,0.25-1.2
			c0.01-0.14,0.02-0.3,0.02-0.44c0,0,0-11.09,0-11.09c0-0.8-0.17-1.6-0.58-2.29c-0.41-0.69-1.04-1.23-1.74-1.62
			c-0.72-0.4-1.52-0.65-2.33-0.83c-7.44-1.13-16.31-2.2-23.77-2.81c-4.88-0.39-10.36-0.65-15.26-0.74
			c-5.91-0.22-125.72,0.08-130.35-0.34c-2.71-0.12-5.54-0.42-8.22-0.82c-2.21-0.34-6.75-1.15-8.9-1.3c-2.41-0.23-5.1-0.23-7.53-0.23
			c-1.66,0.01-3.4-0.03-5.02,0.36c-0.75,0.18-1.5,0.47-2.11,0.95c-0.88,0.68-1.34,1.72-1.58,2.78c-0.18,0.77-0.28,1.59-0.35,2.38
			c-0.23,2.6-0.17,7.39-0.19,10.05c0.04,2.88-0.06,7.65,0.23,10.47c0.07,0.65,0.16,1.32,0.31,1.96c0.25,1.08,0.71,2.14,1.62,2.82
			c0.6,0.46,1.33,0.74,2.07,0.92c1.26,0.3,2.59,0.34,3.88,0.36c2.82,0,5.86,0.03,8.67-0.23c2.15-0.15,6.73-0.97,8.9-1.3
			c3.08-0.47,6.29-0.77,9.4-0.87c1.44-0.05,4.56-0.11,6.03-0.13c0,0,120.01-0.11,120.01-0.11c5.98-0.07,12.44-0.31,18.4-0.79
			C245.41,398.48,253.91,397.38,261.03,396.41z"/>
	</g>
	<g id="POLYLINE_395_">
		<path class="st40" d="M263.98,395.59c0.94-0.08,582.58,0.15,583.43-0.08c0.88-0.15,1.71-0.52,2.41-1.06
			c0.96-0.73,1.66-1.79,1.96-2.96c0.09-0.35,0.15-0.71,0.17-1.07c0.01-0.1,0.01-0.21,0.01-0.31c0,0,0-8.33,0-8.33
			c0-0.49-0.07-0.98-0.19-1.44c-0.31-1.14-1-2.18-1.94-2.9c-0.7-0.54-1.54-0.91-2.41-1.06c-1.08-0.28-582.33,0.03-583.44-0.08"/>
	</g>
	<g id="POLYLINE_394_">
		<path class="st40" d="M261.03,201.45c1.26-0.25,2.5-0.7,3.5-1.52c0.84-0.68,1.45-1.61,1.78-2.64c0.26-0.79,0.36-1.62,0.37-2.44
			c0,0,0-0.18,0-0.18s0-15.28,0-15.28c0-0.08,0-0.26-0.01-0.35c-0.01-0.41-0.05-0.83-0.12-1.23c-0.13-0.79-0.39-1.58-0.81-2.27
			c-0.57-0.96-1.45-1.71-2.45-2.19c-0.66-0.33-1.38-0.55-2.1-0.7c-8.99-1.73-18.47-3.36-27.6-4.11c-4.37-0.37-9.36-0.57-13.74-0.64
			c0,0-6.72-0.07-6.72-0.07s-113.29-0.08-113.29-0.08c-2.95-0.06-6.37-0.12-9.29-0.42c-2.03-0.2-4.14-0.55-6.14-0.96
			c0,0-5.75-1.27-5.75-1.27c-2.75-0.59-5.61-0.81-8.41-0.83c-1.71,0.04-3.82-0.1-5.5,0.11c-1.43,0.16-2.92,0.6-3.91,1.69
			c-1.01,1.1-1.38,2.61-1.61,4.05c-0.69,4.93-0.43,11.89-0.5,16.92c0.04,3.69-0.05,10.24,0.19,13.86c0.07,1.08,0.16,2.22,0.35,3.28
			c0.24,1.37,0.61,2.79,1.58,3.83c1.02,1.13,2.57,1.56,4.04,1.7c1.62,0.19,3.72,0.07,5.36,0.09c2.81-0.02,5.67-0.24,8.41-0.83
			l5.75-1.27c2-0.41,4.11-0.76,6.14-0.96c2.92-0.3,6.34-0.36,9.29-0.42c13.67-0.23,121.5,0.49,132.23-0.67
			C241.69,204.94,251.59,203.26,261.03,201.45z"/>
	</g>
	<g id="POLYLINE_391_">
		<path class="st40" d="M265.66,175.38c13.47,0.96,29.38,1.78,42.84,2.04c12.46,0.28,28.61,0,41.16-0.37
			c12.31-0.44,25.03-1.18,37.15-3.26c8.69-1.47,17.36-3.73,25.6-6.84c16.99-6.24,44.91-21.79,61.45-30.09
			c33.33-16.64,70.14-33.07,104.72-47.06c15.1-5.92,30.94-11.37,46.63-15.47c29.82-7.87,60.99-11.53,91.83-11.05
			c28.86,0.56,58.84,4.85,84.13,19.56c24.4,14.25,39.35,36.17,46.16,63.37c3.34,13.28,4.62,27.13,4.63,40.81
			c-0.01,13.68-1.29,27.52-4.63,40.81c-6.81,27.2-21.75,49.12-46.16,63.37c-10.93,6.4-22.98,10.85-35.27,13.84
			c-15.93,3.87-32.5,5.43-48.87,5.72c-30.83,0.48-62-3.18-91.83-11.05c-15.68-4.1-31.54-9.54-46.63-15.47
			c-34.58-14-71.37-30.41-104.72-47.06c-7.3-3.77-38.04-19.76-45.25-23.13c-5.69-2.71-12.05-5.48-18-7.61
			c-7.68-2.78-15.76-4.82-23.81-6.18c-12.12-2.07-24.87-2.83-37.15-3.26c-12.25-0.37-28.86-0.65-41.16-0.37
			c-13.43,0.25-29.43,1.08-42.84,2.04"/>
	</g>
	<g id="POLYLINE_390_">
		<path class="st40" d="M837.48,187.03c0.06,26.8-5.44,55.46-23.96,75.86c-8.28,9.23-18.87,16.22-30.21,21.12
			c-18.95,8.2-39.8,11.09-60.29,12.07c-14.07,0.61-28.44,0.09-42.47-1.21c-22.51-2.12-45.05-6.6-66.61-13.41
			c-18.9-5.92-38.19-13.82-56.42-21.58c-28.54-12.38-60.18-26.74-87.78-41.05c-16.22-8.33-36.84-19.9-54.05-25.95
			c-2.68-0.9-6.01-2.59-6-5.84c-0.02-3.24,3.32-4.94,6-5.84c17.23-6.06,37.64-17.54,54.05-25.95c27.6-14.31,59.23-28.67,87.78-41.05
			c18.25-7.76,37.5-15.66,56.41-21.58c21.57-6.81,44.12-11.28,66.63-13.41c14.03-1.3,28.38-1.83,42.46-1.22
			c20.49,0.98,41.34,3.88,60.29,12.07c6.26,2.73,12.34,6.06,17.87,10.07c4.79,3.46,9.23,7.5,13.13,11.94
			C832.22,132.44,837.52,160.61,837.48,187.03z"/>
	</g>
	<g id="POLYLINE_389_">
		<path class="st40" d="M922.2,195.91c0,7.47,5.95,13.64,13.42,13.89c1.24,0,5.73,0.05,6.93-0.04c1.03-0.09,2.07-0.3,3.05-0.61
			c3.98-1.26,7.29-4.4,8.75-8.3c0.45-1.19,0.74-2.46,0.85-3.73c0.02-0.3,0.05-0.66,0.05-0.96c0,0,0-0.24,0-0.24s0-17.77,0-17.77
			c0-1.36-0.2-2.72-0.59-4.02c-1.34-4.49-5-8.09-9.51-9.35c-0.84-0.24-1.72-0.4-2.59-0.47c-0.77-0.09-5.57-0.04-6.45-0.05
			c-0.95,0-1.93,0.1-2.86,0.3c-4.34,0.89-8.1,3.94-9.86,8.01c-0.58,1.31-0.95,2.73-1.1,4.16c0,0-0.02,0.24-0.02,0.24
			c-0.02,0.3-0.05,0.66-0.05,0.96c0,0,0,0.24,0,0.24S922.2,195.91,922.2,195.91z"/>
	</g>
	<g id="POLYLINE_388_">
		<path class="st40" d="M929.07,207.9c-0.01,0.02,0,97.99,0,98.03c0,0.12,0.01,0.25,0.02,0.37c0.02,0.28,0.07,0.56,0.14,0.82
			c0.16,0.66,0.46,1.3,0.85,1.86c0.71,1.01,1.77,1.76,2.96,2.1c0.39,0.11,0.8,0.18,1.2,0.2c0.1,0.01,0.21,0.01,0.31,0.01
			c0,0,8.33,0,8.33,0c1.77,0.01,3.51-0.9,4.51-2.37c0.38-0.54,0.65-1.16,0.81-1.8c0.07-0.29,0.12-0.59,0.14-0.89
			c0.1-0.49-0.04-97.84,0.02-98.34"/>
	</g>
	<g id="POLYLINE_387_">
		<path class="st40" d="M929.07,166.15c-0.01-0.02,0-97.99,0-98.03c0-0.12,0.01-0.25,0.02-0.37c0.02-0.28,0.07-0.56,0.14-0.82
			c0.16-0.66,0.46-1.3,0.85-1.86c0.71-1.01,1.77-1.76,2.96-2.1c0.39-0.11,0.8-0.18,1.2-0.2c0.1-0.01,0.21-0.01,0.31-0.01
			c0,0,8.33,0,8.33,0c1.77-0.01,3.51,0.9,4.51,2.37c0.38,0.54,0.65,1.16,0.81,1.8c0.07,0.29,0.12,0.59,0.14,0.89
			c0.1,0.49-0.04,97.84,0.02,98.34"/>
	</g>
</g>
<g id="_x32_D_x24_AG-OUTLINE">
	<g id="POLYLINE_43_">
		<path class="st41" d="M263.98,376.3c0.94,0.08,582.58-0.15,583.43,0.08c0.88,0.15,1.71,0.52,2.41,1.06
			c0.98,0.75,1.69,1.83,1.98,3.03c0.17,0.63,0.17,1.28,0.16,1.92c0,0,0,7.72,0,7.72c0,0.1,0,0.21-0.01,0.31
			c-0.02,0.34-0.07,0.68-0.15,1.01c-0.29,1.19-1,2.28-1.98,3.03c-0.7,0.54-1.54,0.91-2.41,1.06c-1.08,0.28-582.33-0.03-583.44,0.08
			c-0.93,0.43-1.94,0.66-2.95,0.81c-7.48,1.02-16.71,2.21-24.19,2.74c-5.5,0.42-11.97,0.62-17.51,0.69c0,0-118.26,0.09-118.26,0.09
			c-1.69,0.02-5.18,0.07-6.85,0.13c-3.24,0.1-6.59,0.39-9.79,0.89c-2.21,0.34-6.75,1.15-8.9,1.3c-2.41,0.23-5.1,0.23-7.53,0.23
			c-1.66-0.01-3.4,0.03-5.02-0.36c-0.75-0.18-1.5-0.47-2.11-0.95c-0.88-0.68-1.34-1.72-1.58-2.78c-0.18-0.77-0.28-1.59-0.35-2.38
			c-0.23-2.6-0.17-7.39-0.19-10.05c0.04-2.88-0.06-7.65,0.23-10.47c0.07-0.65,0.16-1.32,0.31-1.96c0.25-1.08,0.71-2.14,1.62-2.82
			c0.6-0.46,1.33-0.74,2.07-0.92c1.26-0.3,2.59-0.34,3.88-0.36c2.82,0,5.86-0.03,8.67,0.23c2.32,0.17,6.72,0.97,9.06,1.33
			c3.15,0.48,6.45,0.77,9.64,0.86c1.29,0.05,5.51,0.11,6.86,0.13c0,0,120.25,0.12,120.25,0.12c13.22,0.11,26.81,1.56,39.9,3.43
			C262.18,375.67,263.12,375.9,263.98,376.3z"/>
	</g>
	<g id="POLYLINE_42_">
		<path class="st41" d="M265.66,175.38c13.47,0.96,29.38,1.78,42.84,2.04c12.46,0.28,28.61,0,41.16-0.37
			c12.31-0.44,25.03-1.18,37.15-3.26c8.69-1.47,17.36-3.73,25.6-6.84c16.99-6.24,44.91-21.79,61.45-30.09
			c33.33-16.64,70.14-33.07,104.72-47.06c15.1-5.92,30.94-11.37,46.63-15.47c29.82-7.87,60.99-11.53,91.83-11.05
			c28.86,0.56,58.84,4.85,84.13,19.56c24.4,14.25,39.35,36.17,46.16,63.37c3.34,13.28,4.62,27.13,4.63,40.81
			c-0.01,13.68-1.29,27.52-4.63,40.81c-6.81,27.2-21.75,49.12-46.16,63.37c-10.93,6.4-22.98,10.85-35.27,13.84
			c-15.93,3.87-32.5,5.43-48.87,5.72c-30.83,0.48-62-3.18-91.83-11.05c-15.68-4.1-31.54-9.54-46.63-15.47
			c-34.58-14-71.37-30.41-104.72-47.06c-7.3-3.77-38.04-19.76-45.25-23.13c-5.69-2.71-12.05-5.48-18-7.61
			c-7.68-2.78-15.76-4.82-23.81-6.18c-12.12-2.07-24.87-2.83-37.15-3.26c-12.25-0.37-28.86-0.65-41.16-0.37
			c-13.43,0.25-29.43,1.08-42.84,2.04c-0.84,1.32-2.27,2.15-3.75,2.56c-0.29,0.08-0.58,0.15-0.88,0.21
			c-6.73,1.29-14.35,2.62-21.15,3.44c-6.68,0.81-13.81,1.2-20.54,1.29l-118.26,0.12c-1.86,0.03-5.03,0.08-6.85,0.17
			c-3.27,0.14-6.59,0.54-9.79,1.22c0,0-5.75,1.27-5.75,1.27c-2.75,0.59-5.61,0.81-8.41,0.83c-1.71-0.04-3.82,0.1-5.5-0.11
			c-1.45-0.16-2.96-0.61-3.95-1.74c-0.98-1.1-1.34-2.58-1.57-4c-0.69-4.93-0.43-11.89-0.5-16.92c0.04-3.69-0.05-10.24,0.19-13.86
			c0.07-1.08,0.16-2.22,0.35-3.28c0.24-1.39,0.63-2.84,1.62-3.88c1.03-1.09,2.55-1.51,4-1.66c1.62-0.19,3.72-0.07,5.36-0.09
			c2.93,0.02,5.91,0.27,8.78,0.91c4.11,0.94,8.53,1.98,12.7,2.26c17.73,0.98,115.72-0.09,134.18,0.63
			c7.56,0.29,15.42,1.16,22.89,2.37c3.56,0.56,9.05,1.57,12.61,2.26c0.43,0.1,0.87,0.23,1.28,0.39
			C263.89,173.54,264.97,174.31,265.66,175.38z"/>
	</g>
	<g id="POLYLINE_41_">
		<path class="st41" d="M948.37,166.15c3.21,1.86,5.59,5.06,6.47,8.66c0.2,0.82,0.33,1.67,0.38,2.52c0.01,0.26,0.02,0.56,0.02,0.81
			c0,0,0,17.77,0,17.77c0,1.12-0.14,2.25-0.41,3.33c-0.88,3.6-3.26,6.8-6.47,8.66c0.01,0.02,0,97.99,0,98.03
			c0,0.12-0.01,0.25-0.02,0.37c-0.02,0.28-0.07,0.56-0.14,0.82c-0.16,0.66-0.46,1.3-0.85,1.86c-0.71,1.01-1.77,1.76-2.96,2.1
			c-0.39,0.11-0.8,0.18-1.2,0.2c-0.1,0.01-0.21,0.01-0.31,0.01c0,0-8.33,0-8.33,0c-1.77,0.01-3.51-0.9-4.51-2.37
			c-0.38-0.54-0.65-1.16-0.81-1.8c-0.07-0.29-0.12-0.59-0.14-0.89c-0.1-0.49,0.04-97.84-0.02-98.34c-3.21-1.86-5.59-5.06-6.47-8.66
			c-0.2-0.82-0.33-1.67-0.38-2.52c-0.01-0.26-0.02-0.56-0.02-0.81c0,0,0-17.77,0-17.77c0-1.12,0.14-2.25,0.41-3.33
			c0.88-3.6,3.26-6.8,6.47-8.66c-0.01-0.02,0-97.99,0-98.03c0-0.12,0.01-0.25,0.02-0.37c0.02-0.28,0.07-0.56,0.14-0.82
			c0.16-0.66,0.46-1.3,0.85-1.86c0.71-1.01,1.77-1.76,2.96-2.1c0.39-0.11,0.8-0.18,1.2-0.2c0.1-0.01,0.21-0.01,0.31-0.01
			c0,0,8.33,0,8.33,0c1.77-0.01,3.51,0.9,4.51,2.37c0.38,0.54,0.65,1.16,0.81,1.8c0.07,0.29,0.12,0.59,0.14,0.89
			C948.45,68.3,948.32,165.65,948.37,166.15z"/>
	</g>
</g>
</svg>
